<?xml version="1.0" standalone="no"?>
<!DOCTYPE svg PUBLIC "-//W3C//DTD SVG 1.1//EN" "http://www.w3.org/Graphics/SVG/1.1/DTD/svg11.dtd" >
<svg xmlns="http://www.w3.org/2000/svg" xmlns:xlink="http://www.w3.org/1999/xlink" version="1.1">
<metadata>
Created by FontForge 20230101 at Thu Dec 10 09:35:05 2015
 By Unknown
Copyright (c) 2008 by Moretype. All rights reserved.
</metadata>
<defs>
<font id="AlwynNewW00-Medium" horiz-adv-x="586" >
  <font-face 
    font-family="AlwynNewW00-Medium"
    font-weight="600"
    font-stretch="normal"
    units-per-em="1000"
    panose-1="2 11 6 3 0 0 0 2 0 4"
    ascent="800"
    descent="-200"
    x-height="518"
    cap-height="698"
    bbox="-73 -230 1175 913"
    underline-thickness="50"
    underline-position="-125"
    unicode-range="U+0020-FB04"
  />
<missing-glyph horiz-adv-x="500" 
d="M50 0v768h400v-768h-400zM95 46h310v675h-310v-675z" />
    <glyph glyph-name="uniFB00" unicode="ff" horiz-adv-x="670" 
d="M95 0v433l-83 10v75h83v59q0 74 47 118t130 44q44 0 97 -15l-18 -94q-40 10 -76 10q-64 0 -64 -68v-54h223v59q0 74 47 118t129 44q44 0 97 -15l-18 -94q-40 10 -75 10q-64 0 -64 -68v-54h105v-85h-105v-409q0 -10 -7 -17t-17 -7h-92v433h-223v-409q0 -11 -6.5 -17.5
t-17.5 -6.5h-92z" />
    <glyph glyph-name="uniFB01" unicode="fi" 
d="M95 0v433l-83 10v75h83v45q0 82 53 129t153 47q65 0 143 -21l-20 -95q-60 17 -120 17q-48 0 -70.5 -19.5t-22.5 -63.5v-39h106v-85h-106v-409q0 -11 -6.5 -17.5t-17.5 -6.5h-92zM401 0v518h116v-494q0 -10 -7 -17t-17 -7h-92z" />
    <glyph glyph-name="uniFB02" unicode="fl" horiz-adv-x="589" 
d="M95 0v433l-83 10v75h83v44q0 82 52 129.5t145 47.5q51 0 109 -13h116v-602q0 -17 5 -28t26 -14l-23 -92q-68 7 -96 37t-28 84v517q-60 12 -102 12q-46 0 -67 -20t-21 -64v-38h106v-85h-106v-409q0 -11 -6.5 -17.5t-17.5 -6.5h-92z" />
    <glyph glyph-name="uniFB03" unicode="ffi" horiz-adv-x="925" 
d="M95 0v433l-83 10v75h83v59q0 74 47 118t130 44q44 0 97 -15l-18 -94q-40 10 -76 10q-64 0 -64 -68v-54h223v45q0 82 52.5 129t152.5 47q65 0 144 -21l-20 -95q-62 17 -120 17q-48 0 -70.5 -19.5t-22.5 -63.5v-39h105v-85h-105v-409q0 -10 -7 -17t-17 -7h-92v433h-223
v-409q0 -11 -6.5 -17.5t-17.5 -6.5h-92zM739 0v518h116v-494q0 -11 -6.5 -17.5t-17.5 -6.5h-92z" />
    <glyph glyph-name="uniFB04" unicode="ffl" horiz-adv-x="928" 
d="M95 0v433l-83 10v75h83v59q0 74 47 118t130 44q44 0 97 -15l-18 -94q-40 10 -76 10q-64 0 -64 -68v-54h223v44q0 82 51.5 129.5t144.5 47.5q51 0 109 -13h116v-602q0 -17 5 -28t27 -14l-24 -92q-67 7 -95.5 37t-28.5 84v517q-58 12 -101 12q-47 0 -67.5 -19.5
t-20.5 -64.5v-38h105v-85h-105v-409q0 -10 -7 -17t-17 -7h-92v433h-223v-409q0 -11 -6.5 -17.5t-17.5 -6.5h-92z" />
    <glyph glyph-name="f_t.liga" unicode="ft" horiz-adv-x="712" 
d="M95 0v433l-83 10v75h83v59q0 74 47 118t130 44q44 0 97 -15l-18 -94q-40 10 -76 10q-64 0 -64 -68v-54h215v162h116v-162h120v-85h-120v-275q0 -36 17 -54t47 -18q36 0 75 11l18 -95q-53 -15 -99 -15q-83 0 -128.5 42t-45.5 116v288h-215v-409q0 -11 -6.5 -17.5
t-17.5 -6.5h-92z" />
    <glyph glyph-name="f_b.liga" unicode="fb" horiz-adv-x="882" 
d="M95 0v433l-83 10v75h83v44q0 82 52 129.5t145 47.5q51 0 109 -13h116v-244q61 49 124 49q88 0 138.5 -56.5t50.5 -156.5v-118q0 -100 -50.5 -156.5t-138.5 -56.5q-70 0 -136 59l-6 -46h-98v628q-60 12 -102 12q-46 0 -67 -20t-21 -64v-38h106v-85h-106v-409
q0 -11 -6.5 -17.5t-17.5 -6.5h-92zM517 381v-245q57 -50 106 -50q47 0 68 31.5t21 98.5v86q0 67 -21 98.5t-68 31.5q-21 0 -44.5 -9.5t-61.5 -41.5z" />
    <glyph glyph-name="f_h.liga" unicode="fh" horiz-adv-x="881" 
d="M95 0v433l-83 10v75h83v44q0 82 52 129.5t145 47.5q51 0 109 -13h116v-247q65 52 124 52q84 0 129.5 -48.5t45.5 -134.5v-324q0 -11 -6.5 -17.5t-17.5 -6.5h-92v331q0 55 -17 78t-60 23q-20 0 -42.5 -9.5t-63.5 -41.5v-381h-116v628q-60 12 -102 12q-46 0 -67 -20
t-21 -64v-38h106v-85h-106v-409q0 -11 -6.5 -17.5t-17.5 -6.5h-92z" />
    <glyph glyph-name="f_k.liga" unicode="fk" horiz-adv-x="833" 
d="M95 0v433l-83 10v75h83v44q0 82 52 129.5t145 47.5q51 0 109 -13h116v-400l67 19q10 3 18 10t12 16l61 147h122l-81 -187q-18 -44 -53 -64l153 -267h-128l-126 232l-45 -12v-196q0 -10 -7 -17t-17 -7h-92v628q-60 12 -102 12q-46 0 -67 -20t-21 -64v-38h106v-85h-106
v-409q0 -11 -6.5 -17.5t-17.5 -6.5h-92z" />
    <glyph glyph-name="f_j.liga" unicode="fj" 
d="M95 0v433l-83 10v75h83v45q0 82 53 129t153 47q65 0 143 -21l-20 -95q-60 17 -120 17q-48 0 -70.5 -19.5t-22.5 -63.5v-39h106v-85h-106v-409q0 -11 -6.5 -17.5t-17.5 -6.5h-92zM258 -199l19 94q40 -10 69 -10t42 15.5t13 52.5v565h116v-570q0 -75 -43 -118.5t-125 -43.5
q-38 0 -91 15z" />
    <glyph glyph-name=".notdef" horiz-adv-x="500" 
d="M50 0v768h400v-768h-400zM95 46h310v675h-310v-675z" />
    <glyph glyph-name="glyph1" horiz-adv-x="0" 
 />
    <glyph glyph-name="glyph2" horiz-adv-x="210" 
 />
    <glyph glyph-name="space" unicode=" " horiz-adv-x="230" 
 />
    <glyph glyph-name="exclam" unicode="!" horiz-adv-x="370" 
d="M135 223l-17 475h135l-16 -460zM185 -12q-28 0 -49 21t-21 49q0 29 21 50t49 21q30 0 50.5 -20.5t20.5 -50.5q0 -28 -21 -49t-50 -21z" />
    <glyph glyph-name="quotedbl" unicode="&#x22;" horiz-adv-x="369" 
d="M223 458l-8 240h111l-8 -240h-95zM51 458l-8 240h111l-8 -240h-95z" />
    <glyph glyph-name="numbersign" unicode="#" horiz-adv-x="529" 
d="M122 157v126h-65v101h65v87h-65v101h65v126h101v-126h82v126h101v-126h66v-101h-66v-87h66v-101h-66v-126h-101v126h-82v-126h-101zM223 384h82v87h-82v-87z" />
    <glyph glyph-name="dollar" unicode="$" horiz-adv-x="529" 
d="M40 26l21 98q51 -17 92.5 -26.5t87.5 -9.5q56 0 84.5 27t28.5 72q0 32 -21.5 57t-89.5 51.5t-96.5 42.5t-49 37t-33 52t-12.5 72q0 75 46.5 123.5t125.5 62.5v117h90v-113q57 -4 143 -35l-30 -94q-42 15 -75 22.5t-68 7.5q-52 0 -79.5 -24.5t-27.5 -66.5q0 -18 9.5 -35.5
t33.5 -31.5t60.5 -29t47.5 -19q60 -25 92 -54t45.5 -65t13.5 -78q0 -75 -46.5 -127t-125.5 -67v-117h-90v112q-66 3 -177 38z" />
    <glyph glyph-name="percent" unicode="%" horiz-adv-x="877" 
d="M66 479v58q0 46 21.5 82.5t55.5 56t77 19.5q35 0 71 -16t60 -55.5t24 -86.5v-58q0 -22 -7 -48t-24.5 -50t-48 -41.5t-73.5 -17.5q-70 0 -113 46.5t-43 110.5zM262 0l272 688h84l-273 -688h-83zM150 531v-46q0 -28 10.5 -49.5t27.5 -30t34 -8.5q33 0 51.5 24.5t18.5 63.5
v46q0 28 -10.5 50t-27.5 30.5t-34 8.5q-16 0 -33 -8.5t-27 -30t-10 -50.5zM501 148v58q0 46 21.5 82t55.5 55.5t77 19.5q35 0 71 -16t60 -55t24 -86v-58q0 -22 -7 -48t-24.5 -50t-48 -41.5t-73.5 -17.5q-70 0 -113 46.5t-43 110.5zM585 200v-46q0 -28 10.5 -49.5t27.5 -30
t34 -8.5q33 0 51.5 24.5t18.5 63.5v46q0 28 -10 49.5t-27.5 30t-34.5 8.5q-33 0 -51.5 -24.5t-18.5 -63.5z" />
    <glyph glyph-name="ampersand" unicode="&#x26;" horiz-adv-x="602" 
d="M58 203q0 60 30.5 104.5t83.5 67.5q-42 24 -65 63.5t-23 90.5q0 45 18 83.5t51 66.5t77.5 43t95.5 15q67 0 140 -19l-21 -99q-64 16 -118 16q-55 0 -87 -28t-32 -78q0 -25 10.5 -52t39.5 -44t69 -17h250v-90h-54v-294q-108 -45 -208 -45q-43 0 -88.5 10.5t-87 39.5
t-61.5 74t-20 92zM182 205q0 -56 34 -86t101 -30q25 0 55.5 4.5t51.5 12.5v220h-106q-66 0 -101 -31.5t-35 -89.5z" />
    <glyph glyph-name="quotesingle" unicode="'" horiz-adv-x="198" 
d="M51 458l-8 240h111l-8 -240h-95z" />
    <glyph glyph-name="parenleft" unicode="(" horiz-adv-x="314" 
d="M74 -17v601q0 72 23.5 118.5t69 70t119.5 23.5v-100q-51 0 -73.5 -23.5t-22.5 -88.5v-601q0 -65 22.5 -89t73.5 -24v-99q-74 0 -120 24t-69 70t-23 118z" />
    <glyph glyph-name="parenright" unicode=")" horiz-adv-x="314" 
d="M125 -17v600q0 66 -23 90t-74 24v99q48 0 87 -11t66.5 -36t43 -66.5t15.5 -99.5v-600q0 -72 -23.5 -118.5t-69 -70t-119.5 -23.5v99q51 0 74 24t23 89z" />
    <glyph glyph-name="asterisk" unicode="*" horiz-adv-x="490" 
d="M194 294l7 125l-105 -67l-51 88l111 56l-111 57l51 88l104 -68l-6 125h102l-7 -125l105 68l51 -88l-111 -57l111 -56l-51 -88l-105 67l7 -125h-102z" />
    <glyph glyph-name="plus" unicode="+" horiz-adv-x="636" 
d="M83 262v103h184v183h102v-183h183v-103h-183v-184h-102v184h-184z" />
    <glyph glyph-name="comma" unicode="," horiz-adv-x="260" 
d="M33 -146l62 271h114l-88 -271h-88z" />
    <glyph glyph-name="hyphen" unicode="-" horiz-adv-x="491" 
d="M77 230v94h337v-94h-337z" />
    <glyph glyph-name="period" unicode="." horiz-adv-x="240" 
d="M49 59q0 29 21 49.5t49 20.5q29 0 50 -20.5t21 -49.5t-21 -49.5t-50 -20.5q-28 0 -49 20.5t-21 49.5z" />
    <glyph glyph-name="slash" unicode="/" horiz-adv-x="454" 
d="M62 -37l221 778h108l-221 -778h-108z" />
    <glyph glyph-name="zero" unicode="0" horiz-adv-x="593" 
d="M54 270v159q0 48 9 90.5t27 76t48.5 61.5t73 41t84.5 13q57 0 102.5 -20t77 -57t47.5 -89.5t16 -115.5v-159q0 -65 -16 -118t-47 -89.5t-77 -56t-103 -19.5q-56 0 -101.5 20t-77 57t-47.5 90t-16 116zM296 86q125 0 125 199v129q0 105 -32.5 151.5t-92.5 46.5
q-59 0 -91.5 -46t-32.5 -152v-129q0 -68 13.5 -111t40.5 -65.5t70 -22.5z" />
    <glyph glyph-name="one" unicode="1" horiz-adv-x="483" 
d="M68 0v97h145v483l-138 -57l-42 91l208 84h88v-601h121v-97h-382z" />
    <glyph glyph-name="two" unicode="2" horiz-adv-x="525" 
d="M45 0v80q0 47 15 94.5t53.5 91t103.5 89.5t88 67.5t35 43.5t12 48q0 29 -12 51t-35.5 34.5t-59.5 12.5q-61 0 -150 -39l-36 90q101 48 187 48q37 0 76.5 -10t72 -34t54 -62.5t21.5 -90.5q0 -55 -29 -103t-105.5 -103.5t-94.5 -70t-36.5 -36t-30.5 -47t-12 -57.5h311v-73
q0 -11 -6.5 -17.5t-17.5 -6.5h-404z" />
    <glyph glyph-name="three" unicode="3" horiz-adv-x="470" 
d="M19 17l27 94q63 -25 131 -25q65 0 96.5 33t31.5 81q0 60 -36 89t-102 29h-51v95h45q33 0 62.5 10.5t46 36.5t16.5 57q0 24 -10.5 44.5t-34 35.5t-62.5 15q-58 0 -121 -26l-33 89q81 36 154 36q47 0 88 -12.5t71.5 -36.5t48 -60t17.5 -81q0 -29 -14 -61t-38 -55t-48 -36
q28 -12 56.5 -35t45.5 -59t17 -75q0 -43 -15.5 -82t-46.5 -68.5t-78 -46t-106 -16.5q-81 0 -158 30z" />
    <glyph glyph-name="four" unicode="4" horiz-adv-x="566" 
d="M154 146q-68 0 -95 32t-12 101l91 419h109l-87 -419q-8 -36 23 -36h109v251l113 19v-270h125v-97h-125v-146h-113v146h-138z" />
    <glyph glyph-name="five" unicode="5" horiz-adv-x="525" 
d="M35 27l24 96q49 -17 86 -27t77 -10q26 0 51.5 8t47 27.5t32 49.5t10.5 56q0 40 -17 72.5t-46 45t-61 12.5q-67 0 -137 -31l-42 67v305h389l-7 -98h-275v-156q15 3 39 6t39 3q110 0 173 -62t63 -164q0 -40 -11.5 -76t-32 -64.5t-49.5 -49.5t-71.5 -35.5t-96.5 -14.5
q-36 0 -77.5 7.5t-107.5 32.5z" />
    <glyph glyph-name="six" unicode="6" horiz-adv-x="560" 
d="M52 223v252q0 48 14.5 90.5t44 75.5t76 51.5t106.5 18.5q84 0 171 -32l-28 -94q-78 27 -140 27q-46 0 -74.5 -18.5t-41 -49.5t-12.5 -69v-46q61 34 120 34q48 0 89.5 -15.5t72 -46t47.5 -76t17 -102.5q0 -55 -18 -99.5t-49.5 -75t-73.5 -46t-90 -15.5q-47 0 -89.5 15.5
t-74 46t-49.5 75t-18 99.5zM168 221q0 -27 9 -59t36 -54t70 -22q29 0 56 13t42 46.5t15 76.5q0 29 -9 63t-36 58t-71 24q-54 0 -112 -32v-114z" />
    <glyph glyph-name="seven" unicode="7" horiz-adv-x="504" 
d="M158 0q1 45 8 109.5t30.5 139.5t76 188t72.5 162h-321v99h450v-77q-23 -65 -65.5 -157t-59.5 -130.5t-33 -90t-26 -110.5t-10 -133h-122z" />
    <glyph glyph-name="eight" unicode="8" horiz-adv-x="557" 
d="M44 180q0 35 12 68.5t39.5 61t66.5 48.5q-59 35 -79.5 77.5t-20.5 87.5q0 51 29 96.5t81.5 68.5t106.5 23q31 0 66.5 -9t73 -34t57 -64.5t19.5 -80.5q0 -27 -9.5 -56.5t-32.5 -54t-57 -43.5q54 -31 86 -75.5t32 -113.5q0 -31 -11.5 -64t-44 -65t-81.5 -48t-98 -16
q-36 0 -76 9.5t-79.5 35.5t-59.5 66.5t-20 81.5zM288 418q54 26 71.5 52t17.5 53q0 26 -15.5 48.5t-38.5 31.5t-44 9q-45 0 -72 -26.5t-27 -62.5q0 -28 20.5 -52.5t87.5 -52.5zM162 180q0 -38 30.5 -66t86.5 -28t86.5 28t30.5 66q0 36 -24.5 66t-102.5 62q-65 -31 -86 -62
t-21 -66z" />
    <glyph glyph-name="nine" unicode="9" horiz-adv-x="565" 
d="M100 23l28 94q89 -31 140 -31q46 0 74.5 18.5t41.5 49.5t13 69v48q-60 -33 -121 -33q-48 0 -89.5 15t-72.5 45t-48 75t-17 102q0 40 10.5 76t29 64t44.5 48t63.5 34t84.5 14t89.5 -16t74.5 -46.5t50 -75t18 -98.5v-252q0 -48 -14.5 -90.5t-44 -75.5t-76.5 -51.5
t-107 -18.5q-39 0 -84 10t-87 26zM284 333q53 0 113 33v110q0 42 -16.5 76t-43.5 47t-56 13t-56 -13t-42.5 -47t-15.5 -77q0 -45 16.5 -80.5t44 -48.5t56.5 -13z" />
    <glyph glyph-name="colon" unicode=":" horiz-adv-x="240" 
d="M119 364q-28 0 -49 20.5t-21 49.5t21 49.5t49 20.5q29 0 50 -20.5t21 -49.5t-21 -49.5t-50 -20.5zM49 59q0 29 21 49.5t49 20.5q29 0 50 -20.5t21 -49.5t-21 -49.5t-50 -20.5q-28 0 -49 20.5t-21 49.5z" />
    <glyph glyph-name="semicolon" unicode=";" horiz-adv-x="274" 
d="M156 364q-29 0 -49.5 20.5t-20.5 49.5q0 28 20.5 48.5t49.5 20.5q28 0 49 -20.5t21 -48.5q0 -29 -21 -49.5t-49 -20.5zM30 -146l63 271h113l-88 -271h-88z" />
    <glyph glyph-name="less" unicode="&#x3c;" horiz-adv-x="582" 
d="M63 237v75l386 234l50 -100l-289 -171l289 -172l-50 -100z" />
    <glyph glyph-name="equal" unicode="=" horiz-adv-x="637" 
d="M83 371v102h470v-102h-470zM83 153v102h470v-102h-470z" />
    <glyph glyph-name="greater" unicode="&#x3e;" horiz-adv-x="583" 
d="M83 104l288 171l-288 170l51 102l385 -234v-76l-385 -234z" />
    <glyph glyph-name="question" unicode="?" horiz-adv-x="472" 
d="M164 209q0 49 7.5 90.5t24 76t46 68t37 43.5t13.5 25t6 32q0 27 -19 46.5t-51 19.5q-23 0 -50 -8t-73 -34l-45 89q84 54 168 54q31 0 63 -8.5t59 -29.5t44.5 -53t17.5 -73q0 -27 -9.5 -52.5t-43 -65t-44.5 -58t-18 -35.5t-14 -45t-7 -71zM150 61q0 29 21 49.5t49 20.5
q29 0 50 -20.5t21 -49.5t-21 -49.5t-50 -20.5q-28 0 -49 20.5t-21 49.5z" />
    <glyph glyph-name="at" unicode="@" horiz-adv-x="961" 
d="M59 243q0 46 10.5 102t39 110.5t79 102.5t129 77t168.5 29q89 0 167 -30t134 -86.5t87 -135.5t31 -172q0 -43 -10.5 -85t-33 -77.5t-59 -56.5t-85.5 -21q-96 0 -135 58q-58 -58 -132 -58q-69 0 -110.5 40t-41.5 107q0 47 23.5 78t68.5 47.5t114 16.5h52v22q0 46 -19 68.5
t-63 22.5q-55 0 -124 -20l-23 81q81 26 147 26q89 0 136.5 -47t47.5 -124v-151q0 -39 15.5 -61t43.5 -22q23 0 46 15t38.5 54.5t15.5 86.5q0 75 -24.5 139t-69 109t-105.5 69t-132 24q-72 0 -134.5 -23t-108 -66.5t-70.5 -107t-25 -141.5q0 -79 25 -141.5t69.5 -104
t103 -62.5t123.5 -21q71 0 148 22l18 -79q-36 -13 -81 -19.5t-85 -6.5q-59 0 -116.5 14.5t-107 44t-88 73t-61.5 97.5t-29.5 100t-6.5 83zM400 148q0 -28 16.5 -44t48.5 -16q23 0 48 10.5t44 26.5q-2 13 -2 39v49h-47q-58 0 -83 -16t-25 -49z" />
    <glyph glyph-name="A" unicode="A" horiz-adv-x="661" 
d="M35 0l154 592q10 38 33 67t52.5 40.5t55.5 11.5t55 -11.5t52 -41t33 -66.5l156 -592h-120l-48 188h-256l-47 -188h-120zM226 287h208l-73 290q-9 31 -31 31q-23 0 -31 -31z" />
    <glyph glyph-name="B" unicode="B" horiz-adv-x="594" 
d="M83 0v665q122 46 207 46q38 0 77.5 -10.5t72.5 -35t54.5 -63.5t21.5 -89q0 -46 -20 -82.5t-58 -58.5q54 -22 84 -65.5t30 -99.5q0 -42 -16.5 -80t-48 -66.5t-78 -44.5t-102.5 -16h-224zM202 410h86q51 0 78.5 29t27.5 72q0 32 -14.5 56t-40 33.5t-50.5 9.5q-43 0 -87 -15
v-185zM202 101h101q59 0 91.5 30t32.5 76q0 35 -15 59.5t-42 37t-67 12.5h-101v-215z" />
    <glyph glyph-name="C" unicode="C" horiz-adv-x="564" 
d="M58 245v207q0 123 68 191t188 68q98 0 198 -30l-21 -97q-88 26 -163 26q-76 0 -112 -41.5t-36 -127.5v-185q0 -86 36 -127t112 -41q33 0 69 4.5t94 20.5l21 -96q-100 -30 -198 -30q-43 0 -88 11t-86.5 44t-61.5 87.5t-20 115.5z" />
    <glyph glyph-name="D" unicode="D" horiz-adv-x="654" 
d="M83 0v698h253q132 0 196 -62.5t64 -193.5v-187q0 -130 -64 -192.5t-196 -62.5h-253zM202 101h131q44 0 75.5 12.5t48.5 45.5t17 107v165q0 63 -12.5 97t-43 51.5t-85.5 17.5h-131v-496z" />
    <glyph glyph-name="E" unicode="E" horiz-adv-x="520" 
d="M63 185v327q0 42 11.5 72t32 53.5t62 42t106.5 18.5h189v-101h-187q-52 0 -73.5 -23t-21.5 -70v-96h252v-100h-252v-115q0 -47 21.5 -69.5t73.5 -22.5h191v-77q0 -11 -6.5 -17.5t-17.5 -6.5h-169q-103 0 -157.5 50t-54.5 135z" />
    <glyph glyph-name="F" unicode="F" horiz-adv-x="525" 
d="M83 0v698h400v-101h-281v-201h251v-100h-251v-296h-119z" />
    <glyph glyph-name="G" unicode="G" horiz-adv-x="632" 
d="M58 245v207q0 123 68 191t188 68q98 0 198 -30l-21 -96q-92 25 -163 25q-76 0 -112 -41.5t-36 -127.5v-185q0 -86 36 -127t112 -41q49 0 121 17v237l115 9v-322q-65 -18 -126 -30t-124 -12q-43 0 -88 11t-86.5 44t-61.5 87.5t-20 115.5z" />
    <glyph glyph-name="H" unicode="H" horiz-adv-x="674" 
d="M83 0v698h119v-290h269v290h120v-674q0 -10 -7 -17t-17 -7h-96v309h-269v-309h-119z" />
    <glyph glyph-name="I" unicode="I" horiz-adv-x="285" 
d="M83 0v698h119v-674q0 -11 -6.5 -17.5t-17.5 -6.5h-95z" />
    <glyph glyph-name="J" unicode="J" horiz-adv-x="485" 
d="M28 14l25 96q65 -22 125 -22q57 0 83.5 32t26.5 112v466h119v-476q0 -50 -12.5 -93t-39.5 -74.5t-71.5 -49.5t-104.5 -18q-71 0 -151 27z" />
    <glyph glyph-name="K" unicode="K" horiz-adv-x="604" 
d="M83 0v698h119v-293l72 5l131 288h132l-145 -299q55 -22 81 -95l103 -304h-125l-93 273q-14 42 -54 39l-102 -7v-281q0 -11 -6.5 -17.5t-17.5 -6.5h-95z" />
    <glyph glyph-name="L" unicode="L" horiz-adv-x="547" 
d="M83 0v698h119v-597h307v-77q0 -11 -6.5 -17.5t-17.5 -6.5h-402z" />
    <glyph glyph-name="M" unicode="M" horiz-adv-x="873" 
d="M46 0l88 698h131l152 -522q8 -26 20 -26t20 26l151 522h131l88 -698h-119l-44 371q-5 45 -9 122q-16 -82 -29 -125l-58 -206q-34 -117 -131 -117q-99 0 -131 117l-59 211q-19 63 -30 126q-1 -11 -3.5 -58.5t-5.5 -71.5l-43 -369h-119z" />
    <glyph glyph-name="N" unicode="N" horiz-adv-x="662" 
d="M83 0v698h109l277 -482q-7 66 -7 132v350h117v-698h-109l-276 481q7 -84 7 -131v-350h-118z" />
    <glyph glyph-name="O" unicode="O" horiz-adv-x="664" 
d="M58 280v138q0 63 18.5 117t54 93.5t87 61t114.5 21.5t114.5 -21.5t87 -61t54 -93.5t18.5 -117v-138q0 -63 -18.5 -117.5t-54 -93.5t-87 -60.5t-114.5 -21.5t-114.5 21.5t-87 60.5t-54 93.5t-18.5 117.5zM180 291q0 -104 40 -153.5t112 -49.5q152 0 152 203v116
q0 104 -39.5 153.5t-112.5 49.5q-72 0 -112 -49.5t-40 -153.5v-116z" />
    <glyph glyph-name="P" unicode="P" horiz-adv-x="564" 
d="M83 0v698h198q27 0 60.5 -6t65.5 -22t59 -43t43.5 -68t16.5 -86q0 -46 -16.5 -87t-47.5 -71.5t-77.5 -48t-103.5 -17.5h-79v-249h-119zM202 349h75q38 0 65 15t43 44t16 65q0 38 -16 66.5t-43 43t-65 14.5h-75v-248z" />
    <glyph glyph-name="Q" unicode="Q" horiz-adv-x="664" 
d="M58 280v138q0 63 18.5 117t54 93.5t87 61t114.5 21.5t114.5 -21.5t87 -61t54 -93.5t18.5 -117v-138q0 -93 -38 -162t-107 -103l60 -165l-99 -34l-65 172l-25 -1q-63 0 -114.5 21.5t-87 60.5t-54 93.5t-18.5 117.5zM180 291q0 -104 40 -153.5t112 -49.5q152 0 152 203v116
q0 104 -39.5 153.5t-112.5 49.5q-72 0 -112 -49.5t-40 -153.5v-116z" />
    <glyph glyph-name="R" unicode="R" horiz-adv-x="580" 
d="M83 0v671q129 40 221 40q54 0 98.5 -18.5t74 -50.5t45 -73t15.5 -85q0 -25 -9.5 -60.5t-30.5 -66t-47.5 -49t-54.5 -28.5l133 -280h-130l-121 263h-75v-263h-119zM202 359h91q56 0 87.5 35t31.5 90q0 33 -11 63t-36.5 46.5t-60.5 16.5q-56 0 -102 -15v-236z" />
    <glyph glyph-name="S" unicode="S" horiz-adv-x="525" 
d="M42 26l21 98q113 -36 179 -36q57 0 85.5 27t28.5 72q0 3 -0.5 10t-5 22t-21 32t-39 29.5t-50.5 25t-35 15.5q-81 39 -116 84t-35 114q0 33 11.5 66.5t39.5 61.5t73.5 46t107.5 18q33 0 70.5 -6.5t102.5 -30.5l-30 -94q-85 30 -143 30q-52 0 -79.5 -24.5t-27.5 -66.5
q0 -23 12 -40.5t34.5 -32.5t86.5 -45.5t95 -56.5t45 -49.5t21.5 -50t7.5 -57.5q0 -90 -65.5 -145t-173.5 -55q-38 0 -79.5 7t-120.5 32z" />
    <glyph glyph-name="T" unicode="T" horiz-adv-x="529" 
d="M205 0v597h-172v101h463v-101h-172v-597h-119z" />
    <glyph glyph-name="U" unicode="U" horiz-adv-x="660" 
d="M68 260v438h119v-455q0 -28 11 -64.5t44.5 -63.5t87.5 -27q36 0 70 16.5t53 56t19 82.5v455h120v-438q0 -129 -68.5 -201t-193.5 -72q-124 0 -193 72t-69 201z" />
    <glyph glyph-name="V" unicode="V" horiz-adv-x="641" 
d="M253 0l-223 698h122l132 -427q14 -45 36 -144q22 99 36 144l132 427h123l-223 -698h-135z" />
    <glyph glyph-name="W" unicode="W" horiz-adv-x="903" 
d="M182 0l-142 698h121l66 -356q7 -36 25 -181q13 120 27 181l45 194q12 53 43 85t84 32t84.5 -32.5t42.5 -84.5l44 -194q11 -50 28 -184q13 115 25 184l66 356h122l-142 -698h-135l-118 522q-4 22 -17 22q-14 0 -18 -22l-117 -522h-134z" />
    <glyph glyph-name="X" unicode="X" horiz-adv-x="651" 
d="M54 698h136l137 -228l137 228h133l-201 -329l224 -369h-136l-160 266l-160 -266h-133l223 367z" />
    <glyph glyph-name="Y" unicode="Y" 
d="M234 0v282q-58 12 -96 55t-56 129l-47 232h119l43 -216q14 -67 38.5 -87.5t57.5 -20.5q24 0 43.5 10t32 35t20.5 64l43 215h119l-47 -232q-32 -158 -152 -184v-282h-118z" />
    <glyph glyph-name="Z" unicode="Z" horiz-adv-x="567" 
d="M50 0v92l314 505h-303v101h441v-93l-314 -504h329v-101h-467z" />
    <glyph glyph-name="bracketleft" unicode="[" horiz-adv-x="301" 
d="M53 -229v1025h220v-98h-104v-829h104v-98h-220z" />
    <glyph glyph-name="backslash" unicode="\" horiz-adv-x="454" 
d="M283 -37l-221 778h108l221 -778h-108z" />
    <glyph glyph-name="bracketright" unicode="]" horiz-adv-x="322" 
d="M29 -229v98h104v829h-104v98h220v-1025h-220z" />
    <glyph glyph-name="asciicircum" unicode="^" horiz-adv-x="621" 
d="M73 315l185 382h105l185 -382h-121l-117 277l-116 -277h-121z" />
    <glyph glyph-name="underscore" unicode="_" horiz-adv-x="502" 
d="M0 -179v99h501v-99h-501z" />
    <glyph glyph-name="grave" unicode="`" horiz-adv-x="365" 
d="M64 649l31 86l206 -77l-26 -70z" />
    <glyph glyph-name="a" unicode="a" horiz-adv-x="516" 
d="M356 0l-7 49q-54 -62 -135 -62q-78 0 -124.5 44t-46.5 120q0 52 26.5 86.5t77.5 53t129 18.5h60v23q0 50 -21 75t-72 25q-61 0 -141 -25l-25 93q91 31 166 31q37 0 74.5 -9.5t67 -32.5t48.5 -60.5t19 -89.5v-339h-96zM336 132v92h-52q-57 0 -90 -15.5t-33 -57.5
q0 -30 19 -47.5t54 -17.5q27 0 54.5 12.5t47.5 33.5z" />
    <glyph glyph-name="b" unicode="b" horiz-adv-x="551" 
d="M69 0v726h116v-244q62 49 125 49q88 0 138.5 -56.5t50.5 -156.5v-118q0 -100 -50.5 -156.5t-138.5 -56.5q-27 0 -60 10.5t-76 48.5l-6 -46h-99zM185 381v-245q28 -24 53.5 -37t52.5 -13q47 0 68.5 31.5t21.5 98.5v86q0 67 -21.5 98.5t-68.5 31.5q-20 0 -43 -9.5
t-63 -41.5z" />
    <glyph glyph-name="c" unicode="c" horiz-adv-x="483" 
d="M52 223v73q0 64 24.5 120t77.5 85.5t121 29.5q74 0 166 -29l-26 -94q-72 24 -134 24q-111 0 -111 -145v-54q0 -32 7.5 -67t32.5 -57.5t71 -22.5q62 0 134 25l26 -95q-92 -29 -166 -29q-54 0 -96.5 17.5t-70.5 49.5t-42 75.5t-14 93.5z" />
    <glyph glyph-name="d" unicode="d" horiz-adv-x="550" 
d="M52 200v118q0 100 50.5 156.5t138.5 56.5q64 0 124 -50v245h116v-726h-98l-6 46q-68 -59 -136 -59q-88 0 -138.5 56.5t-50.5 156.5zM170 302v-86q0 -67 21 -98.5t68 -31.5t106 50v244q-56 52 -106 52q-47 0 -68 -31.5t-21 -98.5z" />
    <glyph glyph-name="e" unicode="e" horiz-adv-x="526" 
d="M52 202v114q0 42 14.5 81t42 69t67.5 47.5t89 17.5q36 0 74 -12t72.5 -43.5t51 -75.5t16.5 -84v-67q0 -9 -7 -16.5t-16 -7.5h-288v-23q0 -55 27.5 -85.5t83.5 -30.5q59 0 151 26l24 -92q-104 -33 -175 -33q-70 0 -120 27t-78.5 75.5t-28.5 112.5zM168 307h195v17
q0 45 -23.5 76.5t-73.5 31.5t-74 -32t-24 -76v-17z" />
    <glyph glyph-name="f" unicode="f" horiz-adv-x="331" 
d="M95 0v433l-83 10v75h83v59q0 74 47 118t130 44q44 0 97 -15l-18 -94q-40 10 -76 10q-64 0 -64 -68v-54h106v-85h-106v-409q0 -11 -6.5 -17.5t-17.5 -6.5h-92z" />
    <glyph glyph-name="g" unicode="g" horiz-adv-x="551" 
d="M148 -201l-13 97h162q32 0 50 20.5t18 53.5v78q-58 -48 -124 -48q-88 0 -138.5 56.5t-50.5 156.5v105q0 100 50.5 156.5t138.5 56.5q69 0 136 -60l6 47h98v-545q0 -81 -48 -127.5t-136 -46.5h-149zM170 302v-73q0 -67 21 -98.5t68 -31.5q20 0 44 9t62 38v234
q-28 25 -53.5 38.5t-52.5 13.5q-47 0 -68 -31.5t-21 -98.5z" />
    <glyph glyph-name="h" unicode="h" horiz-adv-x="549" 
d="M69 0v726h116v-246q65 51 132 51q81 0 124.5 -46.5t43.5 -129.5v-331q0 -11 -6.5 -17.5t-17.5 -6.5h-92v339q0 49 -17.5 71t-57.5 22q-52 0 -109 -51v-381h-116z" />
    <glyph glyph-name="i" unicode="i" horiz-adv-x="255" 
d="M127 597q-28 0 -47.5 19.5t-19.5 46.5t19.5 46t47.5 19q29 0 48.5 -19t19.5 -46t-19.5 -46.5t-48.5 -19.5zM69 0v518h116v-494q0 -11 -6.5 -17.5t-17.5 -6.5h-92z" />
    <glyph glyph-name="j" unicode="j" horiz-adv-x="255" 
d="M127 597q-28 0 -47.5 19.5t-19.5 46.5t19.5 46t47.5 19q29 0 48.5 -19t19.5 -46t-19.5 -46.5t-48.5 -19.5zM-73 -199l18 94q42 -10 70 -10t41 17t13 55v561h116v-570q0 -75 -42.5 -118.5t-124.5 -43.5q-38 0 -91 15z" />
    <glyph glyph-name="k" unicode="k" horiz-adv-x="501" 
d="M69 0v726h116v-403l63 18q26 8 36 34l60 143h121l-80 -187q-20 -44 -54 -64l153 -267h-127l-126 232l-46 -12v-196q0 -11 -6.5 -17.5t-17.5 -6.5h-92z" />
    <glyph glyph-name="l" unicode="l" horiz-adv-x="258" 
d="M69 110v616h116v-604q0 -16 5 -27t27 -13l-24 -92q-67 6 -95.5 36t-28.5 84z" />
    <glyph glyph-name="m" unicode="m" horiz-adv-x="832" 
d="M69 0v518h98l6 -48q69 61 136 61q49 0 85 -18t56 -50q78 68 150 68q81 0 124.5 -46.5t43.5 -129.5v-331q0 -11 -6.5 -17.5t-17.5 -6.5h-92v339q0 48 -17.5 70.5t-57.5 22.5q-50 0 -103 -50l3 -30v-352h-116v339q0 48 -17.5 70.5t-57.5 22.5q-20 0 -43 -10t-58 -42v-380
h-116z" />
    <glyph glyph-name="n" unicode="n" horiz-adv-x="549" 
d="M69 0v518h98l6 -48q69 61 144 61q81 0 124.5 -46.5t43.5 -129.5v-331q0 -11 -6.5 -17.5t-17.5 -6.5h-92v339q0 48 -17.5 70.5t-57.5 22.5q-52 0 -109 -51v-381h-116z" />
    <glyph glyph-name="o" unicode="o" horiz-adv-x="548" 
d="M52 220v79q0 105 59 168.5t163 63.5t163 -63.5t59 -168.5v-79q0 -108 -59 -170.5t-163 -62.5q-103 0 -162.5 63t-59.5 170zM170 290v-62q0 -71 23.5 -106.5t80.5 -35.5t81 35.5t24 106.5v62q0 70 -24 106t-81 36q-50 0 -77 -31.5t-27 -110.5z" />
    <glyph glyph-name="p" unicode="p" horiz-adv-x="551" 
d="M69 -201v719h99l6 -47q66 60 136 60q88 0 138.5 -56.5t50.5 -156.5v-118q0 -100 -50.5 -156.5t-138.5 -56.5q-59 0 -125 50v-238h-116zM185 380v-244q30 -23 54 -36.5t52 -13.5q47 0 68.5 31.5t21.5 98.5v86q0 67 -21.5 98.5t-68.5 31.5q-20 0 -44.5 -10t-61.5 -42z" />
    <glyph glyph-name="q" unicode="q" horiz-adv-x="546" 
d="M365 -201v238q-62 -50 -124 -50q-88 0 -138.5 56.5t-50.5 156.5v118q0 100 50.5 156.5t138.5 56.5q69 0 136 -60l6 47h98v-719h-116zM170 302v-86q0 -67 21 -98.5t68 -31.5q21 0 43 9t63 41v244q-26 22 -52 37t-54 15q-47 0 -68 -31.5t-21 -98.5z" />
    <glyph glyph-name="r" unicode="r" horiz-adv-x="372" 
d="M69 0v518h95l10 -67q23 34 59 56.5t72 22.5q26 0 50 -6l-16 -98q-16 4 -39 4q-22 0 -52 -17t-63 -56v-357h-116z" />
    <glyph glyph-name="s" unicode="s" horiz-adv-x="442" 
d="M44 19l24 97q78 -30 134 -30q74 0 74 59q0 18 -13 32.5t-53 31t-55.5 23.5t-32 18.5t-31 26t-25 40t-10.5 62.5q0 25 9.5 51.5t32.5 49t59.5 37t85.5 14.5q70 0 134 -27l-28 -92q-61 21 -103 21q-33 0 -50.5 -15t-17.5 -39q0 -18 14.5 -32t64 -35.5t68.5 -34.5
t33.5 -27.5t27 -40t12.5 -64.5q0 -71 -54 -114.5t-140 -43.5q-77 0 -160 32z" />
    <glyph glyph-name="t" unicode="t" horiz-adv-x="381" 
d="M95 145v288l-83 10v75h83v162h116v-162h120v-85h-120v-275q0 -36 17 -54t47 -18q36 0 75 11l19 -95q-55 -15 -100 -15q-83 0 -128.5 42t-45.5 116z" />
    <glyph glyph-name="u" unicode="u" horiz-adv-x="549" 
d="M64 163v331q0 10 7 17t17 7h92v-339q0 -49 17.5 -71t57.5 -22q52 0 109 51v381h116v-518h-98l-6 48q-69 -61 -144 -61q-81 0 -124.5 46.5t-43.5 129.5z" />
    <glyph glyph-name="v" unicode="v" horiz-adv-x="521" 
d="M197 0l-176 518h120l77 -241q23 -72 43 -164q17 86 42 164l77 241h120l-176 -518h-127z" />
    <glyph glyph-name="w" unicode="w" horiz-adv-x="751" 
d="M159 0l-137 518h123l51 -228q9 -41 28 -153q16 83 34 153l55 199h124l55 -199q15 -55 35 -156q20 118 22 129.5t5 26.5l51 228h124l-137 -518h-126l-91 337l-91 -337h-125z" />
    <glyph glyph-name="x" unicode="x" horiz-adv-x="518" 
d="M36 518h132l92 -150l93 150h129l-154 -246l169 -272h-132l-107 173l-108 -173h-129l169 269z" />
    <glyph glyph-name="y" unicode="y" horiz-adv-x="525" 
d="M81 174l-46 344h114l44 -329q4 -31 14.5 -52t28 -29t35.5 -8q35 0 71 14l21 404h112l-28 -549q-4 -81 -50.5 -125.5t-135.5 -44.5h-100l-7 98h110q28 0 44 12t21 30.5t6 35.5l2 40q-43 -15 -76 -15q-156 0 -180 174z" />
    <glyph glyph-name="z" unicode="z" horiz-adv-x="478" 
d="M47 0v69l226 351h-215v98h362v-70l-226 -351h237v-97h-384z" />
    <glyph glyph-name="braceleft" unicode="{" horiz-adv-x="357" 
d="M115 -36v177q0 55 -22 74t-65 19v81q43 0 65.5 19.5t22.5 74.5v182q0 106 54 149.5t158 43.5v-99q-29 0 -52 -8t-34 -30t-11 -56v-182q0 -49 -18 -81t-65 -53q36 -16 59.5 -44t23.5 -90v-177q0 -47 20.5 -71t76.5 -24v-99q-104 0 -158.5 44t-54.5 150z" />
    <glyph glyph-name="bar" unicode="|" horiz-adv-x="292" 
d="M90 -181v917h111v-917h-111z" />
    <glyph glyph-name="braceright" unicode="}" horiz-adv-x="357" 
d="M28 -230v99q29 0 52.5 8t34 30.5t10.5 56.5v177q0 49 18 81t66 53q-23 10 -44 27.5t-30.5 44t-9.5 62.5v182q0 47 -20.5 70.5t-76.5 23.5v99q104 0 158.5 -43.5t54.5 -149.5v-182q0 -32 7.5 -52t26.5 -31t53 -11v-81q-42 0 -64.5 -19t-22.5 -74v-177q0 -69 -22.5 -110.5
t-69 -62.5t-121.5 -21z" />
    <glyph glyph-name="asciitilde" unicode="~" horiz-adv-x="611" 
d="M151 211l-61 62q63 77 141 77q22 0 42 -7t54 -26t53 -19q18 0 40 12t40 30l61 -62q-64 -78 -141 -78q-22 0 -42 7t-54 26.5t-53 19.5q-18 0 -40 -12t-40 -30z" />
    <glyph glyph-name="uni00A0" unicode="&#xa0;" horiz-adv-x="230" 
 />
    <glyph glyph-name="exclamdown" unicode="&#xa1;" horiz-adv-x="370" 
d="M114 538q0 29 21 49.5t50 20.5q28 0 49 -20.5t21 -49.5t-21 -49.5t-49 -20.5q-29 0 -50 20.5t-21 49.5zM117 -100l16 460l102 15l17 -475h-135z" />
    <glyph glyph-name="cent" unicode="&#xa2;" horiz-adv-x="489" 
d="M227 -124v116q-54 8 -92 36.5t-60.5 77t-22.5 117.5v73q0 93 44.5 154.5t130.5 75.5v116h90v-114q57 -4 124 -26l-26 -94q-72 24 -134 24q-111 0 -111 -145v-54q0 -32 7.5 -67t32.5 -57.5t71 -22.5q62 0 134 25l26 -95q-73 -22 -124 -27v-113h-90z" />
    <glyph glyph-name="sterling" unicode="&#xa3;" horiz-adv-x="528" 
d="M59 0v88q27 38 40.5 73t13.5 76v54h-62v78h62v136q0 62 27.5 111t79 72t109.5 23q73 0 157 -35l-31 -90q-62 25 -120 25q-52 0 -78 -26t-26 -93v-123h197v-78h-197v-52q0 -76 -54 -144h293v-71q0 -11 -6.5 -17.5t-17.5 -6.5h-387z" />
    <glyph glyph-name="currency" unicode="&#xa4;" horiz-adv-x="530" 
d="M131 69l-72 73l46 46q-23 40 -23 87t23 88l-47 46l73 73l47 -47q38 23 86 23q45 0 87 -24l48 48l73 -72l-49 -49q23 -40 23 -86q0 -47 -22 -86l47 -47l-72 -73l-48 47q-40 -23 -87 -23q-46 0 -87 22zM264 191q34 0 59.5 25t25.5 59q0 16 -8.5 36t-30 34.5t-46.5 14.5
q-16 0 -35.5 -8t-34 -29.5t-14.5 -46.5q0 -16 8 -36t29.5 -34.5t46.5 -14.5z" />
    <glyph glyph-name="yen" unicode="&#xa5;" horiz-adv-x="534" 
d="M73 127v78h135v85h-135v78h97l-164 330h117l143 -294l145 294h117l-167 -330h98v-78h-135v-85h135v-78h-135v-127h-116v127h-135z" />
    <glyph glyph-name="brokenbar" unicode="&#xa6;" horiz-adv-x="288" 
d="M88 410v326h111v-326h-111zM88 -181v326h111v-326h-111z" />
    <glyph glyph-name="section" unicode="&#xa7;" horiz-adv-x="507" 
d="M42 -64l20 96q90 -29 156 -29q45 0 69.5 20t24.5 54q0 27 -18 48.5t-81 49.5t-84.5 43t-37 32.5t-26.5 45t-11 64.5q0 76 57 122q-16 34 -16 76q0 28 10.5 57.5t35 53.5t63.5 40t91 16q74 0 160 -34l-28 -92q-29 11 -63.5 18.5t-62.5 7.5q-38 0 -60 -17.5t-22 -49.5
q0 -22 15.5 -41t68.5 -44.5t68.5 -33.5t33.5 -21.5t34 -32t26.5 -46.5t10.5 -64q0 -27 -11.5 -60t-44.5 -62q15 -35 15 -76q0 -28 -11 -58t-41 -59t-74 -43t-88 -14q-75 0 -179 33zM340 233q13 16 13 42q0 31 -21 51.5t-71 43.5t-68 33q-15 -15 -15 -43q0 -11 6 -26
t26 -29.5t65.5 -36.5t64.5 -35z" />
    <glyph glyph-name="dieresis" unicode="&#xa8;" horiz-adv-x="425" 
d="M241 660q0 23 18 41.5t41 18.5t41 -18.5t18 -41.5t-18 -41t-41 -18t-41 18t-18 41zM66 660q0 23 18 41.5t41 18.5t40.5 -18.5t17.5 -41.5q0 -24 -17.5 -41.5t-40.5 -17.5q-24 0 -41.5 17.5t-17.5 41.5z" />
    <glyph glyph-name="copyright" unicode="&#xa9;" horiz-adv-x="783" 
d="M391 0q-76 0 -139 26.5t-106 73.5t-65.5 109.5t-22.5 132.5t22.5 133t65.5 109.5t106 73t139 26.5t139 -26.5t106.5 -73t66 -109.5t22.5 -133t-22.5 -132.5t-66 -109.5t-106.5 -73.5t-139 -26.5zM391 66q47 0 94.5 14t89.5 52.5t61.5 95.5t19.5 114t-17 107.5t-50.5 88.5
t-84 59t-113.5 21q-47 0 -94 -14t-89 -52.5t-61.5 -95.5t-19.5 -114t17 -107.5t50.5 -88.5t83.5 -59t113 -21zM243 289v106q0 23 7 46.5t26.5 44.5t50.5 31t60 10q58 0 110 -21l-19 -69q-46 15 -87 15q-62 0 -62 -69v-82q0 -68 62 -68q44 0 87 14l19 -69q-52 -21 -110 -21
q-29 0 -63.5 11t-57.5 42.5t-23 78.5z" />
    <glyph glyph-name="ordfeminine" unicode="&#xaa;" horiz-adv-x="377" 
d="M259 332l-5 31q-16 -17 -40 -28.5t-51 -11.5q-26 0 -54.5 10.5t-47.5 39.5t-19 69q0 59 45 87t121 28h36v15q0 31 -14 46.5t-45 15.5q-45 0 -99 -17l-20 71q66 23 119 23q71 0 110 -38t39 -100v-241h-75zM244 427v64h-29q-37 0 -58.5 -10.5t-21.5 -38.5q0 -20 12 -31.5
t34 -11.5q16 0 33.5 8t29.5 20z" />
    <glyph glyph-name="guillemotleft" unicode="&#xab;" 
d="M422 73l-137 198l137 199l90 -60l-102 -139l102 -140zM207 73l-138 198l138 199l89 -60l-102 -139l102 -140z" />
    <glyph glyph-name="logicalnot" unicode="&#xac;" horiz-adv-x="591" 
d="M90 224v100h411v-275h-100v175h-311z" />
    <glyph glyph-name="uni00AD" unicode="&#xad;" horiz-adv-x="403" 
d="M33 230v94h337v-94h-337z" />
    <glyph glyph-name="registered" unicode="&#xae;" horiz-adv-x="783" 
d="M391 0q-76 0 -139 26.5t-106 73.5t-65.5 109.5t-22.5 132.5t22.5 133t65.5 109.5t106 73t139 26.5t139 -26.5t106.5 -73t66 -109.5t22.5 -133t-22.5 -132.5t-66 -109.5t-106.5 -73.5t-139 -26.5zM391 66q47 0 94.5 14t89.5 52.5t61.5 95.5t19.5 114t-17 107.5t-50.5 88.5
t-84 59t-113.5 21q-47 0 -94 -14t-89 -52.5t-61.5 -95.5t-19.5 -114t17 -107.5t50.5 -88.5t83.5 -59t113 -21zM262 163v341q77 27 131 27q37 0 65 -14.5t46 -42.5t18 -64q0 -32 -15 -59t-43 -41l66 -147h-90l-56 130h-36v-130h-86zM348 360h45q22 0 33 14.5t11 35.5
q0 19 -11 32.5t-33 13.5q-17 0 -45 -7v-89z" />
    <glyph glyph-name="macron" unicode="&#xaf;" horiz-adv-x="356" 
d="M63 619v85h229v-85h-229z" />
    <glyph glyph-name="degree" unicode="&#xb0;" horiz-adv-x="407" 
d="M203 451q-26 0 -56.5 13t-53 45.5t-22.5 72.5q0 54 39 93t93 39q25 0 56 -13t53.5 -46.5t22.5 -72.5q0 -25 -13 -55.5t-46.5 -53t-72.5 -22.5zM203 521q24 0 42 18t18 43q0 26 -17.5 44t-42.5 18t-42.5 -18t-17.5 -44q0 -25 18 -43t42 -18z" />
    <glyph glyph-name="plusminus" unicode="&#xb1;" horiz-adv-x="637" 
d="M83 263v101h185v175h101v-175h184v-101h-184v-175h-101v175h-185zM83 -62v101h470v-101h-470z" />
    <glyph glyph-name="acute" unicode="&#xb4;" horiz-adv-x="365" 
d="M90 588l-27 70l207 77l31 -86z" />
    <glyph glyph-name="uni00B5" unicode="&#xb5;" horiz-adv-x="554" 
d="M64 -201v695q0 10 7 17t17 7h92v-339q0 -49 17.5 -71t57.5 -22q52 0 109 51v381h116v-518h-98l-6 48q-69 -61 -144 -61q-31 0 -52 13v-201h-116z" />
    <glyph glyph-name="paragraph" unicode="&#xb6;" horiz-adv-x="581" 
d="M218 -102v373q-53 7 -100 36.5t-71.5 78t-24.5 98.5q0 43 17.5 82.5t48 69t71.5 46t85 16.5h263v-800h-110v691h-70v-691h-109z" />
    <glyph glyph-name="periodcentered" unicode="&#xb7;" horiz-adv-x="246" 
d="M63 303q0 25 17.5 42.5t42.5 17.5t42.5 -17.5t17.5 -42.5t-17.5 -42t-42.5 -17t-42.5 17t-17.5 42z" />
    <glyph glyph-name="cedilla" unicode="&#xb8;" horiz-adv-x="258" 
d="M33 -204l13 77q25 -5 44 -5q18 0 29.5 12.5t11.5 33.5v86h94v-103q0 -30 -13 -56t-44 -40t-65 -14t-70 9z" />
    <glyph glyph-name="ordmasculine" unicode="&#xba;" horiz-adv-x="401" 
d="M42 491v52q0 78 42.5 123t116.5 45t116 -45t42 -123v-52q0 -76 -42 -122t-116 -46t-116.5 46t-42.5 122zM134 537v-41q0 -48 15 -72.5t52 -24.5q28 0 43 14.5t19 37.5t4 45v41q0 49 -15 73t-51 24q-37 0 -52 -24t-15 -73z" />
    <glyph glyph-name="guillemotright" unicode="&#xbb;" horiz-adv-x="585" 
d="M288 131l102 140l-102 139l90 60l138 -199l-138 -198zM74 131l103 140l-103 139l90 60l139 -199l-139 -198z" />
    <glyph glyph-name="questiondown" unicode="&#xbf;" horiz-adv-x="472" 
d="M181 538q0 29 21 49.5t50 20.5q28 0 49 -20.5t21 -49.5t-21 -49.5t-49 -20.5q-29 0 -50 20.5t-21 49.5zM366 32l46 -89q-84 -54 -168 -54q-42 0 -72.5 11.5t-53.5 29.5t-40.5 50t-17.5 73q0 27 9.5 52.5t42.5 65t44 58t18 35.5t14 45t7 71l112 11q0 -49 -7.5 -90.5
t-24 -76t-46 -68t-37 -43.5t-13.5 -25t-6 -32q0 -27 19 -46.5t52 -19.5q22 0 50 8.5t72 33.5z" />
    <glyph glyph-name="Agrave" unicode="&#xc0;" horiz-adv-x="661" 
d="M211 814l32 86l206 -77l-26 -70zM35 0l154 592q10 38 33 67t52.5 40.5t55.5 11.5t55 -11.5t52 -41t33 -66.5l156 -592h-120l-48 188h-256l-47 -188h-120zM226 287h208l-73 290q-9 31 -31 31q-23 0 -31 -31z" />
    <glyph glyph-name="Aacute" unicode="&#xc1;" horiz-adv-x="661" 
d="M238 753l-27 70l207 77l31 -86zM35 0l154 592q10 38 33 67t52.5 40.5t55.5 11.5t55 -11.5t52 -41t33 -66.5l156 -592h-120l-48 188h-256l-47 -188h-120zM226 287h208l-73 290q-9 31 -31 31q-23 0 -31 -31z" />
    <glyph glyph-name="Acircumflex" unicode="&#xc2;" horiz-adv-x="661" 
d="M236 752l-49 71l143 77l143 -77l-49 -71l-94 55zM35 0l154 592q10 38 33 67t52.5 40.5t55.5 11.5t55 -11.5t52 -41t33 -66.5l156 -592h-120l-48 188h-256l-47 -188h-120zM226 287h208l-73 290q-9 31 -31 31q-23 0 -31 -31z" />
    <glyph glyph-name="Atilde" unicode="&#xc3;" horiz-adv-x="661" 
d="M234 771l-44 52q17 24 39 42.5t56 18.5q13 0 27 -5t34.5 -16.5t29.5 -11.5q24 0 50 30l45 -52q-18 -24 -40 -42t-55 -18q-22 0 -51.5 15.5t-39.5 15.5q-26 0 -51 -29zM35 0l154 592q10 38 33 67t52.5 40.5t55.5 11.5t55 -11.5t52 -41t33 -66.5l156 -592h-120l-48 188
h-256l-47 -188h-120zM226 287h208l-73 290q-9 31 -31 31q-23 0 -31 -31z" />
    <glyph glyph-name="Adieresis" unicode="&#xc4;" horiz-adv-x="661" 
d="M359 825q0 23 18 41.5t41 18.5q22 0 40.5 -18.5t18.5 -41.5t-18.5 -41t-40.5 -18q-24 0 -41.5 17.5t-17.5 41.5zM183 825q0 23 18 41.5t41 18.5t40.5 -18.5t17.5 -41.5q0 -24 -17 -41.5t-41 -17.5q-23 0 -41 18t-18 41zM35 0l154 592q10 38 33 67t52.5 40.5t55.5 11.5
t55 -11.5t52 -41t33 -66.5l156 -592h-120l-48 188h-256l-47 -188h-120zM226 287h208l-73 290q-9 31 -31 31q-23 0 -31 -31z" />
    <glyph glyph-name="Aring" unicode="&#xc5;" horiz-adv-x="661" 
d="M233 824q0 38 28 63.5t68 25.5q31 0 55.5 -14.5t34 -35.5t9.5 -39q0 -27 -16.5 -49t-40 -30t-42.5 -8q-29 0 -53 14t-33.5 34.5t-9.5 38.5zM307 824q0 -8 6 -15.5t15 -7.5t17.5 7t8.5 16t-7 16.5t-17 7.5q-8 0 -15.5 -7.5t-7.5 -16.5zM35 0l154 592q10 38 33 67
t52.5 40.5t55.5 11.5t55 -11.5t52 -41t33 -66.5l156 -592h-120l-48 188h-256l-47 -188h-120zM226 287h208l-73 290q-9 31 -31 31q-23 0 -31 -31z" />
    <glyph glyph-name="AE" unicode="&#xc6;" horiz-adv-x="936" 
d="M692 0q-103 0 -156.5 50t-54.5 138h-237l-83 -188h-126l261 588q48 110 160 110h423v-101h-282v-189h252v-100h-252v-112q0 -33 9.5 -53.5t30.5 -31t57 -10.5h190v-79q0 -8 -7 -15t-16 -7h-169zM404 550l-116 -263h193v309h-18q-38 0 -59 -46z" />
    <glyph glyph-name="Ccedilla" unicode="&#xc7;" horiz-adv-x="564" 
d="M186 -204l12 77q25 -5 44 -5t30 12.5t11 33.5v74q-107 9 -166 75.5t-59 181.5v207q0 123 68 191t188 68q98 0 198 -30l-21 -97q-88 26 -163 26q-76 0 -112 -41.5t-36 -127.5v-185q0 -86 36 -127t112 -41q33 0 69 4.5t94 20.5l21 -96q-67 -20 -134 -27v-93q0 -30 -13 -56
t-44 -40t-65 -14t-70 9z" />
    <glyph glyph-name="Egrave" unicode="&#xc8;" horiz-adv-x="520" 
d="M172 814l31 86l207 -77l-27 -70zM63 185v327q0 42 11.5 72t32 53.5t62 42t106.5 18.5h189v-101h-187q-52 0 -73.5 -23t-21.5 -70v-96h252v-100h-252v-115q0 -47 21.5 -69.5t73.5 -22.5h191v-77q0 -11 -6.5 -17.5t-17.5 -6.5h-169q-103 0 -157.5 50t-54.5 135z" />
    <glyph glyph-name="Eacute" unicode="&#xc9;" horiz-adv-x="520" 
d="M189 753l-26 70l206 77l32 -86zM63 185v327q0 42 11.5 72t32 53.5t62 42t106.5 18.5h189v-101h-187q-52 0 -73.5 -23t-21.5 -70v-96h252v-100h-252v-115q0 -47 21.5 -69.5t73.5 -22.5h191v-77q0 -11 -6.5 -17.5t-17.5 -6.5h-169q-103 0 -157.5 50t-54.5 135z" />
    <glyph glyph-name="Ecircumflex" unicode="&#xca;" horiz-adv-x="520" 
d="M191 752l-49 71l143 77l143 -77l-49 -71l-94 55zM63 185v327q0 42 11.5 72t32 53.5t62 42t106.5 18.5h189v-101h-187q-52 0 -73.5 -23t-21.5 -70v-96h252v-100h-252v-115q0 -47 21.5 -69.5t73.5 -22.5h191v-77q0 -11 -6.5 -17.5t-17.5 -6.5h-169q-103 0 -157.5 50
t-54.5 135z" />
    <glyph glyph-name="Edieresis" unicode="&#xcb;" horiz-adv-x="520" 
d="M309 825q0 23 18 41.5t41 18.5t41 -18.5t18 -41.5t-18 -41t-41 -18q-24 0 -41.5 17.5t-17.5 41.5zM133 825q0 23 18 41.5t41 18.5t41 -18.5t18 -41.5q0 -24 -17.5 -41.5t-41.5 -17.5q-23 0 -41 18t-18 41zM63 185v327q0 42 11.5 72t32 53.5t62 42t106.5 18.5h189v-101
h-187q-52 0 -73.5 -23t-21.5 -70v-96h252v-100h-252v-115q0 -47 21.5 -69.5t73.5 -22.5h191v-77q0 -11 -6.5 -17.5t-17.5 -6.5h-169q-103 0 -157.5 50t-54.5 135z" />
    <glyph glyph-name="Igrave" unicode="&#xcc;" horiz-adv-x="285" 
d="M24 814l32 86l206 -77l-26 -70zM83 0v698h119v-674q0 -11 -6.5 -17.5t-17.5 -6.5h-95z" />
    <glyph glyph-name="Iacute" unicode="&#xcd;" horiz-adv-x="285" 
d="M51 753l-27 70l207 77l31 -86zM83 0v698h119v-674q0 -11 -6.5 -17.5t-17.5 -6.5h-95z" />
    <glyph glyph-name="Icircumflex" unicode="&#xce;" horiz-adv-x="285" 
d="M49 752l-49 71l143 77l143 -77l-49 -71l-94 55zM83 0v698h119v-674q0 -11 -6.5 -17.5t-17.5 -6.5h-95z" />
    <glyph glyph-name="Idieresis" unicode="&#xcf;" horiz-adv-x="285" 
d="M172 825q0 23 18 41.5t41 18.5q22 0 40.5 -18.5t18.5 -41.5t-18.5 -41t-40.5 -18q-24 0 -41.5 17.5t-17.5 41.5zM-4 825q0 23 18 41.5t41 18.5t40.5 -18.5t17.5 -41.5q0 -24 -17 -41.5t-41 -17.5q-23 0 -41 18t-18 41zM83 0v698h119v-674q0 -11 -6.5 -17.5t-17.5 -6.5
h-95z" />
    <glyph glyph-name="Eth" unicode="&#xd0;" horiz-adv-x="654" 
d="M83 0v307h-72v84h72v307h253q132 0 196 -62.5t64 -193.5v-187q0 -130 -64 -192.5t-196 -62.5h-253zM202 101h131q44 0 75.5 12.5t48.5 45.5t17 107v165q0 63 -12.5 97t-43 51.5t-85.5 17.5h-131v-206h122v-84h-122v-206z" />
    <glyph glyph-name="Ntilde" unicode="&#xd1;" horiz-adv-x="662" 
d="M235 771l-45 52q29 40 52.5 50.5t43.5 10.5q23 0 52 -16.5t38 -16.5q24 0 50 30l45 -52q-29 -40 -52 -50t-43 -10q-22 0 -51 15.5t-39 15.5q-26 0 -51 -29zM83 0v698h109l277 -482q-7 66 -7 132v350h117v-698h-109l-276 481q7 -84 7 -131v-350h-118z" />
    <glyph glyph-name="Ograve" unicode="&#xd2;" horiz-adv-x="664" 
d="M213 814l31 86l206 -77l-26 -70zM58 280v138q0 63 18.5 117t54 93.5t87 61t114.5 21.5t114.5 -21.5t87 -61t54 -93.5t18.5 -117v-138q0 -63 -18.5 -117.5t-54 -93.5t-87 -60.5t-114.5 -21.5t-114.5 21.5t-87 60.5t-54 93.5t-18.5 117.5zM180 407v-116q0 -104 40 -153.5
t112 -49.5q152 0 152 203v116q0 104 -39.5 153.5t-112.5 49.5q-72 0 -112 -49.5t-40 -153.5z" />
    <glyph glyph-name="Oacute" unicode="&#xd3;" horiz-adv-x="664" 
d="M239 753l-26 70l206 77l31 -86zM58 280v138q0 63 18.5 117t54 93.5t87 61t114.5 21.5t114.5 -21.5t87 -61t54 -93.5t18.5 -117v-138q0 -63 -18.5 -117.5t-54 -93.5t-87 -60.5t-114.5 -21.5t-114.5 21.5t-87 60.5t-54 93.5t-18.5 117.5zM180 407v-116q0 -104 40 -153.5
t112 -49.5q152 0 152 203v116q0 104 -39.5 153.5t-112.5 49.5q-72 0 -112 -49.5t-40 -153.5z" />
    <glyph glyph-name="Ocircumflex" unicode="&#xd4;" horiz-adv-x="664" 
d="M238 752l-49 71l143 77l143 -77l-49 -71l-94 55zM58 280v138q0 63 18.5 117t54 93.5t87 61t114.5 21.5t114.5 -21.5t87 -61t54 -93.5t18.5 -117v-138q0 -63 -18.5 -117.5t-54 -93.5t-87 -60.5t-114.5 -21.5t-114.5 21.5t-87 60.5t-54 93.5t-18.5 117.5zM180 407v-116
q0 -104 40 -153.5t112 -49.5q152 0 152 203v116q0 104 -39.5 153.5t-112.5 49.5q-72 0 -112 -49.5t-40 -153.5z" />
    <glyph glyph-name="Otilde" unicode="&#xd5;" horiz-adv-x="664" 
d="M235 771l-44 52q17 24 39 42.5t56 18.5q13 0 27 -5t34.5 -16.5t29.5 -11.5q24 0 50 30l45 -52q-18 -24 -40 -42t-55 -18q-22 0 -51.5 15.5t-39.5 15.5q-26 0 -51 -29zM58 280v138q0 63 18.5 117t54 93.5t87 61t114.5 21.5t114.5 -21.5t87 -61t54 -93.5t18.5 -117v-138
q0 -63 -18.5 -117.5t-54 -93.5t-87 -60.5t-114.5 -21.5t-114.5 21.5t-87 60.5t-54 93.5t-18.5 117.5zM180 407v-116q0 -104 40 -153.5t112 -49.5q152 0 152 203v116q0 104 -39.5 153.5t-112.5 49.5q-72 0 -112 -49.5t-40 -153.5z" />
    <glyph glyph-name="Odieresis" unicode="&#xd6;" horiz-adv-x="664" 
d="M361 825q0 23 18 41.5t41 18.5q22 0 40.5 -18.5t18.5 -41.5t-18.5 -41t-40.5 -18q-24 0 -41.5 17.5t-17.5 41.5zM185 825q0 23 18 41.5t41 18.5t40.5 -18.5t17.5 -41.5q0 -24 -17 -41.5t-41 -17.5q-23 0 -41 18t-18 41zM58 280v138q0 63 18.5 117t54 93.5t87 61
t114.5 21.5t114.5 -21.5t87 -61t54 -93.5t18.5 -117v-138q0 -63 -18.5 -117.5t-54 -93.5t-87 -60.5t-114.5 -21.5t-114.5 21.5t-87 60.5t-54 93.5t-18.5 117.5zM180 407v-116q0 -104 40 -153.5t112 -49.5q152 0 152 203v116q0 104 -39.5 153.5t-112.5 49.5q-72 0 -112 -49.5
t-40 -153.5z" />
    <glyph glyph-name="multiply" unicode="&#xd7;" horiz-adv-x="582" 
d="M161 81l-73 73l130 129l-130 130l73 73l129 -130l130 130l73 -72l-131 -131l131 -130l-73 -72l-130 130z" />
    <glyph glyph-name="Oslash" unicode="&#xd8;" horiz-adv-x="664" 
d="M108 -51l44 98q-45 38 -69.5 99t-24.5 134v138q0 63 18.5 117t54 93.5t87 61t114.5 21.5q56 0 107 -19l40 89l74 -32l-43 -97q46 -39 71 -100t25 -134v-138q0 -63 -18.5 -117.5t-54 -93.5t-87 -60.5t-114.5 -21.5q-58 0 -109 19l-40 -90zM205 168l191 429q-28 13 -64 13
q-72 0 -112 -49.5t-40 -153.5v-116q0 -77 25 -123zM484 291v116q0 35 -7 69t-21 57l-191 -432q26 -13 67 -13q152 0 152 203z" />
    <glyph glyph-name="Ugrave" unicode="&#xd9;" horiz-adv-x="660" 
d="M211 814l31 86l207 -77l-27 -70zM68 260v438h119v-455q0 -28 11 -64.5t44.5 -63.5t87.5 -27q36 0 70 16.5t53 56t19 82.5v455h120v-438q0 -129 -68.5 -201t-193.5 -72q-124 0 -193 72t-69 201z" />
    <glyph glyph-name="Uacute" unicode="&#xda;" horiz-adv-x="660" 
d="M237 753l-26 70l206 77l32 -86zM68 260v438h119v-455q0 -28 11 -64.5t44.5 -63.5t87.5 -27q36 0 70 16.5t53 56t19 82.5v455h120v-438q0 -129 -68.5 -201t-193.5 -72q-124 0 -193 72t-69 201z" />
    <glyph glyph-name="Ucircumflex" unicode="&#xdb;" horiz-adv-x="660" 
d="M235 752l-49 71l143 77l143 -77l-48 -71l-95 55zM68 260v438h119v-455q0 -28 11 -64.5t44.5 -63.5t87.5 -27q36 0 70 16.5t53 56t19 82.5v455h120v-438q0 -129 -68.5 -201t-193.5 -72q-124 0 -193 72t-69 201z" />
    <glyph glyph-name="Udieresis" unicode="&#xdc;" horiz-adv-x="660" 
d="M358 825q0 23 18 41.5t41 18.5t41 -18.5t18 -41.5t-18 -41t-41 -18t-41 18t-18 41zM183 825q0 23 18 41.5t41 18.5t40.5 -18.5t17.5 -41.5q0 -24 -17.5 -41.5t-40.5 -17.5q-24 0 -41.5 17.5t-17.5 41.5zM68 260v438h119v-455q0 -28 11 -64.5t44.5 -63.5t87.5 -27
q36 0 70 16.5t53 56t19 82.5v455h120v-438q0 -129 -68.5 -201t-193.5 -72q-124 0 -193 72t-69 201z" />
    <glyph glyph-name="Yacute" unicode="&#xdd;" 
d="M200 753l-26 70l206 77l31 -86zM234 0v282q-58 12 -96 55t-56 129l-47 232h119l43 -216q14 -67 38.5 -87.5t57.5 -20.5q24 0 43.5 10t32 35t20.5 64l43 215h119l-47 -232q-32 -158 -152 -184v-282h-118z" />
    <glyph glyph-name="Thorn" unicode="&#xde;" horiz-adv-x="564" 
d="M83 0v698h119v-113h79q57 0 103 -17.5t77.5 -48.5t48 -72t16.5 -86q0 -46 -16.5 -87t-47.5 -71.5t-77.5 -48t-103.5 -17.5h-79v-137h-119zM202 237h75q31 0 60 12.5t46.5 43.5t17.5 68q0 23 -10 52.5t-39 50t-75 20.5h-75v-247z" />
    <glyph glyph-name="germandbls" unicode="&#xdf;" horiz-adv-x="620" 
d="M95 0v433l-83 10v75h83v37q0 87 54.5 135.5t142.5 48.5q30 0 63.5 -8.5t65.5 -32t48 -59t16 -70.5q0 -30 -10.5 -57t-38.5 -56t-37 -39t-14 -23.5t-5 -26.5q0 -17 11.5 -30.5t46.5 -28t50 -21t29.5 -17t27.5 -24.5t22.5 -38.5t9.5 -60.5q0 -71 -54 -115.5t-139 -44.5
q-31 0 -62 4.5t-89 24.5l25 95q42 -14 66.5 -19.5t59.5 -5.5q39 0 57 17t18 44q0 19 -11.5 33.5t-50.5 30.5t-51 21t-27 16t-26 24t-20 36t-9 59q0 29 9 50t21.5 35t34.5 35t30.5 34t11.5 25t3 23q0 31 -22.5 51t-57.5 20q-83 0 -83 -91v-525q0 -10 -7.5 -17t-16.5 -7h-92z
" />
    <glyph glyph-name="agrave" unicode="&#xe0;" horiz-adv-x="516" 
d="M143 649l32 86l206 -77l-26 -70zM356 0l-7 49q-54 -62 -135 -62q-78 0 -124.5 44t-46.5 120q0 52 26.5 86.5t77.5 53t129 18.5h60v23q0 50 -21 75t-72 25q-61 0 -141 -25l-25 93q91 31 166 31q37 0 74.5 -9.5t67 -32.5t48.5 -60.5t19 -89.5v-339h-96zM336 132v92h-52
q-57 0 -90 -15.5t-33 -57.5q0 -30 19 -47.5t54 -17.5q27 0 54.5 12.5t47.5 33.5z" />
    <glyph glyph-name="aacute" unicode="&#xe1;" horiz-adv-x="516" 
d="M165 588l-26 70l206 77l31 -86zM356 0l-7 49q-54 -62 -135 -62q-78 0 -124.5 44t-46.5 120q0 52 26.5 86.5t77.5 53t129 18.5h60v23q0 50 -21 75t-72 25q-61 0 -141 -25l-25 93q91 31 166 31q37 0 74.5 -9.5t67 -32.5t48.5 -60.5t19 -89.5v-339h-96zM336 132v92h-52
q-57 0 -90 -15.5t-33 -57.5q0 -30 19 -47.5t54 -17.5q27 0 54.5 12.5t47.5 33.5z" />
    <glyph glyph-name="acircumflex" unicode="&#xe2;" horiz-adv-x="516" 
d="M162 587l-49 71l143 77l143 -77l-48 -71l-95 55zM356 0l-7 49q-54 -62 -135 -62q-78 0 -124.5 44t-46.5 120q0 52 26.5 86.5t77.5 53t129 18.5h60v23q0 50 -21 75t-72 25q-61 0 -141 -25l-25 93q91 31 166 31q37 0 74.5 -9.5t67 -32.5t48.5 -60.5t19 -89.5v-339h-96z
M336 132v92h-52q-57 0 -90 -15.5t-33 -57.5q0 -30 19 -47.5t54 -17.5q27 0 54.5 12.5t47.5 33.5z" />
    <glyph glyph-name="atilde" unicode="&#xe3;" horiz-adv-x="516" 
d="M158 606l-45 52q29 40 52.5 50.5t43.5 10.5q23 0 52 -16.5t38 -16.5q24 0 50 30l45 -52q-29 -40 -52 -50t-43 -10q-22 0 -51 15.5t-39 15.5q-26 0 -51 -29zM356 0l-7 49q-54 -62 -135 -62q-78 0 -124.5 44t-46.5 120q0 52 26.5 86.5t77.5 53t129 18.5h60v23q0 50 -21 75
t-72 25q-61 0 -141 -25l-25 93q91 31 166 31q37 0 74.5 -9.5t67 -32.5t48.5 -60.5t19 -89.5v-339h-96zM336 132v92h-52q-57 0 -90 -15.5t-33 -57.5q0 -30 19 -47.5t54 -17.5q27 0 54.5 12.5t47.5 33.5z" />
    <glyph glyph-name="adieresis" unicode="&#xe4;" horiz-adv-x="516" 
d="M282 660q0 23 18 41.5t41 18.5t41 -18.5t18 -41.5t-18 -41t-41 -18t-41 18t-18 41zM107 660q0 23 18 41.5t41 18.5t40.5 -18.5t17.5 -41.5q0 -24 -17.5 -41.5t-40.5 -17.5q-24 0 -41.5 17.5t-17.5 41.5zM356 0l-7 49q-54 -62 -135 -62q-78 0 -124.5 44t-46.5 120
q0 52 26.5 86.5t77.5 53t129 18.5h60v23q0 50 -21 75t-72 25q-61 0 -141 -25l-25 93q91 31 166 31q37 0 74.5 -9.5t67 -32.5t48.5 -60.5t19 -89.5v-339h-96zM336 132v92h-52q-57 0 -90 -15.5t-33 -57.5q0 -30 19 -47.5t54 -17.5q27 0 54.5 12.5t47.5 33.5z" />
    <glyph glyph-name="aring" unicode="&#xe5;" horiz-adv-x="516" 
d="M156 663q0 18 9.5 39t33.5 35t53 14q31 0 55 -14t33.5 -35t9.5 -39q0 -37 -28 -62t-70 -25q-29 0 -53 14t-33.5 34.5t-9.5 38.5zM229 662q0 -8 6.5 -15t15.5 -7q10 0 17.5 7.5t7.5 16.5q0 8 -6.5 15.5t-15.5 7.5t-17 -7.5t-8 -17.5zM356 0l-7 49q-54 -62 -135 -62
q-78 0 -124.5 44t-46.5 120q0 52 26.5 86.5t77.5 53t129 18.5h60v23q0 50 -21 75t-72 25q-61 0 -141 -25l-25 93q91 31 166 31q37 0 74.5 -9.5t67 -32.5t48.5 -60.5t19 -89.5v-339h-96zM336 132v92h-52q-57 0 -90 -15.5t-33 -57.5q0 -30 19 -47.5t54 -17.5q27 0 54.5 12.5
t47.5 33.5z" />
    <glyph glyph-name="ae" unicode="&#xe6;" horiz-adv-x="810" 
d="M276 309h60v23q0 52 -21 76t-72 24q-19 0 -49 -3.5t-92 -21.5l-25 93q91 31 166 31q52 0 92 -15.5t65 -43.5q27 27 65.5 43t83.5 16q36 0 74 -12t72.5 -43.5t51 -75.5t16.5 -84v-67q0 -9 -7 -16.5t-16 -7.5h-288v-23q0 -55 27.5 -85.5t83.5 -30.5q59 0 151 26l24 -92
q-104 -33 -175 -33q-57 0 -101 18t-72 50q-30 -30 -75 -49t-99 -19q-79 0 -126 44.5t-47 121.5q0 52 26.5 86t77.5 52t129 18zM452 307h195v17q0 45 -23.5 76.5t-73.5 31.5q-26 0 -49 -11.5t-36 -36.5t-13 -55v-22zM336 202v22h-52q-43 0 -68.5 -6.5t-39 -21.5t-13.5 -43
q0 -31 18 -49t53 -18q23 0 52.5 9t60.5 32q-11 39 -11 75z" />
    <glyph glyph-name="ccedilla" unicode="&#xe7;" horiz-adv-x="483" 
d="M141 -204l12 77q25 -5 44 -5t30 12.5t11 33.5v75q-34 4 -67.5 18.5t-59.5 42.5t-42.5 71.5t-16.5 101.5v73q0 64 24.5 120t77.5 85.5t121 29.5q74 0 166 -29l-26 -94q-72 24 -134 24q-111 0 -111 -145v-54q0 -32 7.5 -67t32.5 -57.5t71 -22.5q62 0 134 25l26 -95
q-63 -20 -109 -25v-94q0 -30 -13 -56t-43.5 -40t-64.5 -14q-35 0 -70 9z" />
    <glyph glyph-name="egrave" unicode="&#xe8;" horiz-adv-x="526" 
d="M142 649l32 86l206 -77l-26 -70zM52 202v114q0 42 14.5 81t42 69t67.5 47.5t89 17.5q36 0 74 -12t72.5 -43.5t51 -75.5t16.5 -84v-67q0 -9 -7 -16.5t-16 -7.5h-288v-23q0 -55 27.5 -85.5t83.5 -30.5q59 0 151 26l24 -92q-104 -33 -175 -33q-70 0 -120 27t-78.5 75.5
t-28.5 112.5zM168 307h195v17q0 45 -23.5 76.5t-73.5 31.5t-74 -32t-24 -76v-17z" />
    <glyph glyph-name="eacute" unicode="&#xe9;" horiz-adv-x="526" 
d="M167 588l-26 70l206 77l32 -86zM52 202v114q0 42 14.5 81t42 69t67.5 47.5t89 17.5q36 0 74 -12t72.5 -43.5t51 -75.5t16.5 -84v-67q0 -9 -7 -16.5t-16 -7.5h-288v-23q0 -55 27.5 -85.5t83.5 -30.5q59 0 151 26l24 -92q-104 -33 -175 -33q-70 0 -120 27t-78.5 75.5
t-28.5 112.5zM168 307h195v17q0 45 -23.5 76.5t-73.5 31.5t-74 -32t-24 -76v-17z" />
    <glyph glyph-name="ecircumflex" unicode="&#xea;" horiz-adv-x="526" 
d="M169 587l-49 71l143 77l143 -77l-49 -71l-94 55zM52 202v114q0 42 14.5 81t42 69t67.5 47.5t89 17.5q36 0 74 -12t72.5 -43.5t51 -75.5t16.5 -84v-67q0 -9 -7 -16.5t-16 -7.5h-288v-23q0 -55 27.5 -85.5t83.5 -30.5q59 0 151 26l24 -92q-104 -33 -175 -33q-70 0 -120 27
t-78.5 75.5t-28.5 112.5zM168 307h195v17q0 45 -23.5 76.5t-73.5 31.5t-74 -32t-24 -76v-17z" />
    <glyph glyph-name="edieresis" unicode="&#xeb;" horiz-adv-x="526" 
d="M292 660q0 23 18 41.5t41 18.5t41 -18.5t18 -41.5t-18 -41t-41 -18q-24 0 -41.5 17.5t-17.5 41.5zM116 660q0 23 18 41.5t41 18.5t41 -18.5t18 -41.5q0 -24 -17.5 -41.5t-41.5 -17.5q-23 0 -41 18t-18 41zM52 202v114q0 42 14.5 81t42 69t67.5 47.5t89 17.5q36 0 74 -12
t72.5 -43.5t51 -75.5t16.5 -84v-67q0 -9 -7 -16.5t-16 -7.5h-288v-23q0 -55 27.5 -85.5t83.5 -30.5q59 0 151 26l24 -92q-104 -33 -175 -33q-70 0 -120 27t-78.5 75.5t-28.5 112.5zM168 307h195v17q0 45 -23.5 76.5t-73.5 31.5t-74 -32t-24 -76v-17z" />
    <glyph glyph-name="igrave" unicode="&#xec;" horiz-adv-x="255" 
d="M9 649l31 86l207 -77l-27 -70zM69 0v518h116v-494q0 -11 -6.5 -17.5t-17.5 -6.5h-92z" />
    <glyph glyph-name="iacute" unicode="&#xed;" horiz-adv-x="255" 
d="M35 588l-26 70l206 77l32 -86zM69 0v518h116v-494q0 -11 -6.5 -17.5t-17.5 -6.5h-92z" />
    <glyph glyph-name="icircumflex" unicode="&#xee;" horiz-adv-x="255" 
d="M33 587l-49 71l143 77l143 -77l-48 -71l-95 55zM69 0v518h116v-494q0 -11 -6.5 -17.5t-17.5 -6.5h-92z" />
    <glyph glyph-name="idieresis" unicode="&#xef;" horiz-adv-x="255" 
d="M156 660q0 23 18 41.5t41 18.5t41 -18.5t18 -41.5t-18 -41t-41 -18t-41 18t-18 41zM-19 660q0 23 18 41.5t41 18.5t40.5 -18.5t17.5 -41.5q0 -24 -17.5 -41.5t-40.5 -17.5q-24 0 -41.5 17.5t-17.5 41.5zM69 0v518h116v-494q0 -11 -6.5 -17.5t-17.5 -6.5h-92z" />
    <glyph glyph-name="eth" unicode="&#xf0;" horiz-adv-x="553" 
d="M52 204v66q0 37 12 75.5t40 69.5t72 51t101 20q30 0 61 -9t54 -23q-10 136 -95 156l-38 -80l-55 25l28 59q-62 -1 -132 -23l-24 86q84 29 174 29l25 -1l35 73l55 -25l-28 -59q56 -16 92 -54t54 -93t18 -129v-214q0 -45 -15.5 -84.5t-44.5 -69.5t-71 -46.5t-93 -16.5
t-93 16.5t-71.5 46.5t-45 69.5t-15.5 84.5zM170 261v-49q0 -25 7.5 -54.5t32 -50t67.5 -20.5q29 0 54 12t39 43t14 70v49q0 25 -7 51.5t-23 43.5t-36 23.5t-41 6.5q-29 0 -54 -11.5t-39 -42.5t-14 -71z" />
    <glyph glyph-name="ntilde" unicode="&#xf1;" horiz-adv-x="549" 
d="M179 606l-45 52q29 40 52.5 50.5t43.5 10.5q23 0 52 -16.5t38 -16.5q24 0 50 30l45 -52q-29 -40 -52 -50t-43 -10q-22 0 -51 15.5t-39 15.5q-26 0 -51 -29zM69 0v518h98l6 -48q69 61 144 61q81 0 124.5 -46.5t43.5 -129.5v-331q0 -11 -6.5 -17.5t-17.5 -6.5h-92v339
q0 48 -17.5 70.5t-57.5 22.5q-52 0 -109 -51v-381h-116z" />
    <glyph glyph-name="ograve" unicode="&#xf2;" horiz-adv-x="548" 
d="M154 649l32 86l206 -77l-26 -70zM52 220v79q0 105 59 168.5t163 63.5t163 -63.5t59 -168.5v-79q0 -108 -59 -170.5t-163 -62.5q-103 0 -162.5 63t-59.5 170zM170 290v-62q0 -71 23.5 -106.5t80.5 -35.5t81 35.5t24 106.5v62q0 70 -24 106t-81 36q-50 0 -77 -31.5
t-27 -110.5z" />
    <glyph glyph-name="oacute" unicode="&#xf3;" horiz-adv-x="548" 
d="M181 588l-27 70l207 77l31 -86zM52 220v79q0 105 59 168.5t163 63.5t163 -63.5t59 -168.5v-79q0 -108 -59 -170.5t-163 -62.5q-103 0 -162.5 63t-59.5 170zM170 290v-62q0 -71 23.5 -106.5t80.5 -35.5t81 35.5t24 106.5v62q0 70 -24 106t-81 36q-50 0 -77 -31.5
t-27 -110.5z" />
    <glyph glyph-name="ocircumflex" unicode="&#xf4;" horiz-adv-x="548" 
d="M180 587l-49 71l143 77l143 -77l-49 -71l-94 55zM52 220v79q0 105 59 168.5t163 63.5t163 -63.5t59 -168.5v-79q0 -108 -59 -170.5t-163 -62.5q-103 0 -162.5 63t-59.5 170zM170 290v-62q0 -71 23.5 -106.5t80.5 -35.5t81 35.5t24 106.5v62q0 70 -24 106t-81 36
q-50 0 -77 -31.5t-27 -110.5z" />
    <glyph glyph-name="otilde" unicode="&#xf5;" horiz-adv-x="548" 
d="M178 606l-44 52q24 32 46 46.5t49 14.5q13 0 27 -5t34.5 -16.5t29.5 -11.5q24 0 50 30l45 -52q-17 -24 -39.5 -42t-55.5 -18q-14 0 -26 4t-33.5 15.5t-31.5 11.5q-26 0 -51 -29zM52 220v79q0 105 59 168.5t163 63.5t163 -63.5t59 -168.5v-79q0 -108 -59 -170.5
t-163 -62.5q-103 0 -162.5 63t-59.5 170zM170 290v-62q0 -71 23.5 -106.5t80.5 -35.5t81 35.5t24 106.5v62q0 70 -24 106t-81 36q-50 0 -77 -31.5t-27 -110.5z" />
    <glyph glyph-name="odieresis" unicode="&#xf6;" horiz-adv-x="548" 
d="M303 660q0 23 18 41.5t41 18.5t41 -18.5t18 -41.5t-18 -41t-41 -18q-24 0 -41.5 17.5t-17.5 41.5zM127 660q0 23 18 41.5t41 18.5t41 -18.5t18 -41.5q0 -24 -17.5 -41.5t-41.5 -17.5q-23 0 -41 18t-18 41zM52 220v79q0 105 59 168.5t163 63.5t163 -63.5t59 -168.5v-79
q0 -108 -59 -170.5t-163 -62.5q-103 0 -162.5 63t-59.5 170zM170 290v-62q0 -71 23.5 -106.5t80.5 -35.5t81 35.5t24 106.5v62q0 70 -24 106t-81 36q-50 0 -77 -31.5t-27 -110.5z" />
    <glyph glyph-name="oslash" unicode="&#xf8;" horiz-adv-x="548" 
d="M91 -55l39 87q-18 14 -36.5 39t-30 64.5t-11.5 84.5v79q0 105 59 168.5t163 63.5q37 0 72 -10l37 83l74 -32l-39 -87q37 -30 57.5 -78.5t20.5 -107.5v-79q0 -108 -59 -170.5t-163 -62.5q-36 0 -74 10l-36 -84zM184 154l121 273q-15 5 -31 5q-50 0 -77 -31.5t-27 -110.5
v-62q0 -47 14 -74zM379 228v62q0 45 -15 73l-122 -273q12 -4 32 -4q57 0 81 35.5t24 106.5z" />
    <glyph glyph-name="ugrave" unicode="&#xf9;" horiz-adv-x="549" 
d="M156 649l32 86l206 -77l-26 -70zM64 163v331q0 10 7 17t17 7h92v-339q0 -49 17.5 -71t57.5 -22q52 0 109 51v381h116v-518h-98l-6 48q-69 -61 -144 -61q-81 0 -124.5 46.5t-43.5 129.5z" />
    <glyph glyph-name="uacute" unicode="&#xfa;" horiz-adv-x="549" 
d="M182 588l-26 70l206 77l32 -86zM64 163v331q0 10 7 17t17 7h92v-339q0 -49 17.5 -71t57.5 -22q52 0 109 51v381h116v-518h-98l-6 48q-69 -61 -144 -61q-81 0 -124.5 46.5t-43.5 129.5z" />
    <glyph glyph-name="ucircumflex" unicode="&#xfb;" horiz-adv-x="549" 
d="M180 587l-48 71l143 77l143 -77l-49 -71l-94 55zM64 163v331q0 10 7 17t17 7h92v-339q0 -49 17.5 -71t57.5 -22q52 0 109 51v381h116v-518h-98l-6 48q-69 -61 -144 -61q-81 0 -124.5 46.5t-43.5 129.5z" />
    <glyph glyph-name="udieresis" unicode="&#xfc;" horiz-adv-x="549" 
d="M303 660q0 23 18.5 41.5t41.5 18.5q22 0 40 -18.5t18 -41.5t-18 -41t-40 -18q-24 0 -42 17.5t-18 41.5zM128 660q0 23 18 41.5t41 18.5t40.5 -18.5t17.5 -41.5q0 -24 -17.5 -41.5t-40.5 -17.5q-24 0 -41.5 17.5t-17.5 41.5zM64 163v331q0 10 7 17t17 7h92v-339
q0 -49 17.5 -71t57.5 -22q52 0 109 51v381h116v-518h-98l-6 48q-69 -61 -144 -61q-81 0 -124.5 46.5t-43.5 129.5z" />
    <glyph glyph-name="yacute" unicode="&#xfd;" horiz-adv-x="525" 
d="M167 588l-26 70l206 77l32 -86zM81 174l-46 344h114l44 -329q4 -31 14.5 -52t28 -29t35.5 -8q35 0 71 14l21 404h112l-28 -549q-4 -81 -50.5 -125.5t-135.5 -44.5h-100l-7 98h110q28 0 44 12t21 30.5t6 35.5l2 40q-43 -15 -76 -15q-156 0 -180 174z" />
    <glyph glyph-name="thorn" unicode="&#xfe;" horiz-adv-x="551" 
d="M69 -201v927h116v-245q62 50 125 50q88 0 138.5 -56.5t50.5 -156.5v-118q0 -100 -50.5 -156.5t-138.5 -56.5q-59 0 -125 50v-238h-116zM185 380v-244q30 -23 54 -36.5t52 -13.5q47 0 68.5 31.5t21.5 98.5v86q0 67 -21.5 98.5t-68.5 31.5q-20 0 -44.5 -10t-61.5 -42z" />
    <glyph glyph-name="ydieresis" unicode="&#xff;" horiz-adv-x="525" 
d="M288 660q0 23 18 41.5t41 18.5t41 -18.5t18 -41.5t-18 -41t-41 -18t-41 18t-18 41zM113 660q0 23 18 41.5t41 18.5t40.5 -18.5t17.5 -41.5q0 -24 -17.5 -41.5t-40.5 -17.5q-24 0 -41.5 17.5t-17.5 41.5zM81 174l-46 344h114l44 -329q4 -31 14.5 -52t28 -29t35.5 -8
q35 0 71 14l21 404h112l-28 -549q-4 -81 -50.5 -125.5t-135.5 -44.5h-100l-7 98h110q28 0 44 12t21 30.5t6 35.5l2 40q-43 -15 -76 -15q-156 0 -180 174z" />
    <glyph glyph-name="Amacron" unicode="&#x100;" horiz-adv-x="661" 
d="M216 784v85h229v-85h-229zM35 0l154 592q10 38 33 67t52.5 40.5t55.5 11.5t55 -11.5t52 -41t33 -66.5l156 -592h-120l-48 188h-256l-47 -188h-120zM226 287h208l-73 290q-9 31 -31 31q-23 0 -31 -31z" />
    <glyph glyph-name="amacron" unicode="&#x101;" horiz-adv-x="516" 
d="M144 619v85h229v-85h-229zM356 0l-7 49q-54 -62 -135 -62q-78 0 -124.5 44t-46.5 120q0 52 26.5 86.5t77.5 53t129 18.5h60v23q0 50 -21 75t-72 25q-61 0 -141 -25l-25 93q91 31 166 31q37 0 74.5 -9.5t67 -32.5t48.5 -60.5t19 -89.5v-339h-96zM336 132v92h-52
q-57 0 -90 -15.5t-33 -57.5q0 -30 19 -47.5t54 -17.5q27 0 54.5 12.5t47.5 33.5z" />
    <glyph glyph-name="Abreve" unicode="&#x102;" horiz-adv-x="661" 
d="M200 892h80q0 -27 13.5 -41t36.5 -14t36.5 14t13.5 41h80q0 -57 -34 -95t-96 -38q-46 0 -77 21t-42 53t-11 59zM35 0l154 592q10 38 33 67t52.5 40.5t55.5 11.5t55 -11.5t52 -41t33 -66.5l156 -592h-120l-48 188h-256l-47 -188h-120zM226 287h208l-73 290q-9 31 -31 31
q-23 0 -31 -31z" />
    <glyph glyph-name="abreve" unicode="&#x103;" horiz-adv-x="516" 
d="M122 727h80q0 -27 13.5 -41t36.5 -14t36.5 14t13.5 41h80q0 -57 -34 -95t-96 -38q-46 0 -77 21t-42 53t-11 59zM356 0l-7 49q-54 -62 -135 -62q-78 0 -124.5 44t-46.5 120q0 52 26.5 86.5t77.5 53t129 18.5h60v23q0 50 -21 75t-72 25q-61 0 -141 -25l-25 93q91 31 166 31
q37 0 74.5 -9.5t67 -32.5t48.5 -60.5t19 -89.5v-339h-96zM336 132v92h-52q-57 0 -90 -15.5t-33 -57.5q0 -30 19 -47.5t54 -17.5q27 0 54.5 12.5t47.5 33.5z" />
    <glyph glyph-name="Aogonek" unicode="&#x104;" horiz-adv-x="661" 
d="M35 0l154 592q10 38 33 67t52.5 40.5t55.5 11.5t55 -11.5t52 -41t33 -66.5l156 -592q-76 -60 -76 -104q0 -12 8 -19.5t20 -7.5t32 6l10 -79q-30 -10 -66 -10q-41 0 -69 26t-28 65q0 65 68 123h-19l-48 188h-256l-47 -188h-120zM226 287h208l-73 290q-9 31 -31 31
q-23 0 -31 -31z" />
    <glyph glyph-name="aogonek" unicode="&#x105;" horiz-adv-x="516" 
d="M435 -125l11 -79q-30 -10 -67 -10q-19 0 -41.5 8.5t-38.5 31t-16 51.5q0 71 72 127l-6 45q-54 -62 -135 -62q-78 0 -124.5 44t-46.5 120q0 52 26.5 86.5t77.5 53t129 18.5h60v23q0 50 -21 75t-72 25q-61 0 -141 -25l-25 93q91 31 166 31q37 0 74.5 -9.5t67 -32.5
t48.5 -60.5t19 -89.5v-339q-76 -60 -76 -104q0 -12 7.5 -19.5t19.5 -7.5q14 0 32 6zM336 132v92h-52q-57 0 -90 -15.5t-33 -57.5q0 -30 19 -47.5t54 -17.5q27 0 54.5 12.5t47.5 33.5z" />
    <glyph glyph-name="Cacute" unicode="&#x106;" horiz-adv-x="564" 
d="M204 753l-26 70l206 77l32 -86zM58 245v207q0 123 68 191t188 68q98 0 198 -30l-21 -97q-88 26 -163 26q-76 0 -112 -41.5t-36 -127.5v-185q0 -86 36 -127t112 -41q33 0 69 4.5t94 20.5l21 -96q-100 -30 -198 -30q-43 0 -88 11t-86.5 44t-61.5 87.5t-20 115.5z" />
    <glyph glyph-name="cacute" unicode="&#x107;" horiz-adv-x="483" 
d="M169 588l-26 70l206 77l31 -86zM52 223v73q0 64 24.5 120t77.5 85.5t121 29.5q74 0 166 -29l-26 -94q-72 24 -134 24q-111 0 -111 -145v-54q0 -32 7.5 -67t32.5 -57.5t71 -22.5q62 0 134 25l26 -95q-92 -29 -166 -29q-54 0 -96.5 17.5t-70.5 49.5t-42 75.5t-14 93.5z" />
    <glyph glyph-name="Ccircumflex" unicode="&#x108;" horiz-adv-x="564" 
d="M216 752l-48 71l143 77l143 -77l-49 -71l-94 55zM58 245v207q0 123 68 191t188 68q98 0 198 -30l-21 -97q-88 26 -163 26q-76 0 -112 -41.5t-36 -127.5v-185q0 -86 36 -127t112 -41q33 0 69 4.5t94 20.5l21 -96q-100 -30 -198 -30q-43 0 -88 11t-86.5 44t-61.5 87.5
t-20 115.5z" />
    <glyph glyph-name="ccircumflex" unicode="&#x109;" horiz-adv-x="483" 
d="M173 587l-48 71l143 77l143 -77l-49 -71l-94 55zM52 223v73q0 64 24.5 120t77.5 85.5t121 29.5q74 0 166 -29l-26 -94q-72 24 -134 24q-111 0 -111 -145v-54q0 -32 7.5 -67t32.5 -57.5t71 -22.5q62 0 134 25l26 -95q-92 -29 -166 -29q-54 0 -96.5 17.5t-70.5 49.5
t-42 75.5t-14 93.5z" />
    <glyph glyph-name="Cdotaccent" unicode="&#x10a;" horiz-adv-x="564" 
d="M236 825q0 23 18 41.5t41 18.5q22 0 40.5 -18.5t18.5 -41.5t-18.5 -41t-40.5 -18q-24 0 -41.5 17.5t-17.5 41.5zM58 245v207q0 123 68 191t188 68q98 0 198 -30l-21 -97q-88 26 -163 26q-76 0 -112 -41.5t-36 -127.5v-185q0 -86 36 -127t112 -41q33 0 69 4.5t94 20.5
l21 -96q-100 -30 -198 -30q-43 0 -88 11t-86.5 44t-61.5 87.5t-20 115.5z" />
    <glyph glyph-name="cdotaccent" unicode="&#x10b;" horiz-adv-x="483" 
d="M195 660q0 23 18 41.5t41 18.5q22 0 40.5 -18.5t18.5 -41.5t-18.5 -41t-40.5 -18q-24 0 -41.5 17.5t-17.5 41.5zM52 223v73q0 64 24.5 120t77.5 85.5t121 29.5q74 0 166 -29l-26 -94q-72 24 -134 24q-111 0 -111 -145v-54q0 -32 7.5 -67t32.5 -57.5t71 -22.5q62 0 134 25
l26 -95q-92 -29 -166 -29q-54 0 -96.5 17.5t-70.5 49.5t-42 75.5t-14 93.5z" />
    <glyph glyph-name="Ccaron" unicode="&#x10c;" horiz-adv-x="564" 
d="M161 829l49 70l94 -54l94 54l49 -70l-143 -78zM58 245v207q0 123 68 191t188 68q98 0 198 -30l-21 -97q-88 26 -163 26q-76 0 -112 -41.5t-36 -127.5v-185q0 -86 36 -127t112 -41q33 0 69 4.5t94 20.5l21 -96q-100 -30 -198 -30q-43 0 -88 11t-86.5 44t-61.5 87.5
t-20 115.5z" />
    <glyph glyph-name="ccaron" unicode="&#x10d;" horiz-adv-x="483" 
d="M121 664l49 70l94 -54l94 54l49 -70l-143 -78zM52 223v73q0 64 24.5 120t77.5 85.5t121 29.5q74 0 166 -29l-26 -94q-72 24 -134 24q-111 0 -111 -145v-54q0 -32 7.5 -67t32.5 -57.5t71 -22.5q62 0 134 25l26 -95q-92 -29 -166 -29q-54 0 -96.5 17.5t-70.5 49.5t-42 75.5
t-14 93.5z" />
    <glyph glyph-name="Dcaron" unicode="&#x10e;" horiz-adv-x="654" 
d="M180 829l49 70l94 -54l94 54l49 -70l-143 -78zM83 0v698h253q132 0 196 -62.5t64 -193.5v-187q0 -130 -64 -192.5t-196 -62.5h-253zM202 101h131q44 0 75.5 12.5t48.5 45.5t17 107v165q0 63 -12.5 97t-43 51.5t-85.5 17.5h-131v-496z" />
    <glyph glyph-name="dcaron" unicode="&#x10f;" horiz-adv-x="550" 
d="M527 570l24 156h103l-42 -156h-85zM52 200v118q0 100 50.5 156.5t138.5 56.5q64 0 124 -50v245h116v-726h-98l-6 46q-68 -59 -136 -59q-88 0 -138.5 56.5t-50.5 156.5zM170 302v-86q0 -67 21 -98.5t68 -31.5t106 50v244q-56 52 -106 52q-47 0 -68 -31.5t-21 -98.5z" />
    <glyph glyph-name="Dcroat" unicode="&#x110;" horiz-adv-x="654" 
d="M83 0v307h-72v84h72v307h253q132 0 196 -62.5t64 -193.5v-187q0 -130 -64 -192.5t-196 -62.5h-253zM202 101h131q44 0 75.5 12.5t48.5 45.5t17 107v165q0 63 -12.5 97t-43 51.5t-85.5 17.5h-131v-206h122v-84h-122v-206z" />
    <glyph glyph-name="dcroat" unicode="&#x111;" horiz-adv-x="550" 
d="M52 200v118q0 100 50.5 156.5t138.5 56.5q64 0 124 -50v115h-145v77h145v53h116v-53h49v-77h-49v-596h-98l-6 46q-68 -59 -136 -59q-88 0 -138.5 56.5t-50.5 156.5zM170 302v-86q0 -67 21 -98.5t68 -31.5t106 50v244q-56 52 -106 52q-47 0 -68 -31.5t-21 -98.5z" />
    <glyph glyph-name="Emacron" unicode="&#x112;" horiz-adv-x="520" 
d="M162 784v85h229v-85h-229zM63 185v327q0 42 11.5 72t32 53.5t62 42t106.5 18.5h189v-101h-187q-52 0 -73.5 -23t-21.5 -70v-96h252v-100h-252v-115q0 -47 21.5 -69.5t73.5 -22.5h191v-77q0 -11 -6.5 -17.5t-17.5 -6.5h-169q-103 0 -157.5 50t-54.5 135z" />
    <glyph glyph-name="emacron" unicode="&#x113;" horiz-adv-x="526" 
d="M146 619v85h229v-85h-229zM52 202v114q0 42 14.5 81t42 69t67.5 47.5t89 17.5q36 0 74 -12t72.5 -43.5t51 -75.5t16.5 -84v-67q0 -9 -7 -16.5t-16 -7.5h-288v-23q0 -55 27.5 -85.5t83.5 -30.5q59 0 151 26l24 -92q-104 -33 -175 -33q-70 0 -120 27t-78.5 75.5
t-28.5 112.5zM168 307h195v17q0 45 -23.5 76.5t-73.5 31.5t-74 -32t-24 -76v-17z" />
    <glyph glyph-name="Ebreve" unicode="&#x114;" horiz-adv-x="520" 
d="M150 892h80q0 -27 13.5 -41t36.5 -14t36.5 14t13.5 41h80q0 -57 -34 -95t-96 -38t-96 38t-34 95zM63 185v327q0 42 11.5 72t32 53.5t62 42t106.5 18.5h189v-101h-187q-52 0 -73.5 -23t-21.5 -70v-96h252v-100h-252v-115q0 -47 21.5 -69.5t73.5 -22.5h191v-77
q0 -11 -6.5 -17.5t-17.5 -6.5h-169q-103 0 -157.5 50t-54.5 135z" />
    <glyph glyph-name="ebreve" unicode="&#x115;" horiz-adv-x="526" 
d="M130 727h80q0 -27 13.5 -41t36.5 -14q22 0 36 14.5t14 40.5h80q0 -57 -34 -95t-96 -38q-46 0 -77 21t-42 53t-11 59zM52 202v114q0 42 14.5 81t42 69t67.5 47.5t89 17.5q36 0 74 -12t72.5 -43.5t51 -75.5t16.5 -84v-67q0 -9 -7 -16.5t-16 -7.5h-288v-23q0 -55 27.5 -85.5
t83.5 -30.5q59 0 151 26l24 -92q-104 -33 -175 -33q-70 0 -120 27t-78.5 75.5t-28.5 112.5zM168 307h195v17q0 45 -23.5 76.5t-73.5 31.5t-74 -32t-24 -76v-17z" />
    <glyph glyph-name="Edotaccent" unicode="&#x116;" horiz-adv-x="520" 
d="M231 825q0 23 18.5 41.5t41.5 18.5q22 0 40 -18.5t18 -41.5t-18 -41t-40 -18q-24 0 -42 17.5t-18 41.5zM63 185v327q0 42 11.5 72t32 53.5t62 42t106.5 18.5h189v-101h-187q-52 0 -73.5 -23t-21.5 -70v-96h252v-100h-252v-115q0 -47 21.5 -69.5t73.5 -22.5h191v-77
q0 -11 -6.5 -17.5t-17.5 -6.5h-169q-103 0 -157.5 50t-54.5 135z" />
    <glyph glyph-name="edotaccent" unicode="&#x117;" horiz-adv-x="526" 
d="M201 660q0 23 18 41.5t41 18.5q22 0 40.5 -18.5t18.5 -41.5t-18.5 -41t-40.5 -18q-24 0 -41.5 17.5t-17.5 41.5zM52 202v114q0 42 14.5 81t42 69t67.5 47.5t89 17.5q36 0 74 -12t72.5 -43.5t51 -75.5t16.5 -84v-67q0 -9 -7 -16.5t-16 -7.5h-288v-23q0 -55 27.5 -85.5
t83.5 -30.5q59 0 151 26l24 -92q-104 -33 -175 -33q-70 0 -120 27t-78.5 75.5t-28.5 112.5zM168 307h195v17q0 45 -23.5 76.5t-73.5 31.5t-74 -32t-24 -76v-17z" />
    <glyph glyph-name="Eogonek" unicode="&#x118;" horiz-adv-x="520" 
d="M452 -125l10 -79q-30 -10 -66 -10q-41 0 -69 26t-28 65q0 65 68 123h-92q-103 0 -157.5 50t-54.5 135v327q0 42 11.5 72t32 53.5t62 42t106.5 18.5h189v-101h-187q-28 0 -51 -8.5t-33.5 -31t-10.5 -53.5v-96h252v-100h-252v-115q0 -32 9.5 -51.5t29.5 -30t56 -10.5h191
v-101q-76 -60 -76 -104q0 -12 8 -19.5t20 -7.5t32 6z" />
    <glyph glyph-name="eogonek" unicode="&#x119;" horiz-adv-x="526" 
d="M52 202v114q0 42 14.5 81t42 69t67.5 47.5t89 17.5q36 0 74 -12t72.5 -43.5t51 -75.5t16.5 -84v-67q0 -9 -7 -16.5t-16 -7.5h-288v-23q0 -55 27.5 -85.5t83.5 -30.5q59 0 151 26l24 -92q-28 -22 -52 -59t-24 -63q0 -15 8.5 -22t19.5 -7q12 0 32 6l10 -79q-30 -10 -66 -10
q-41 0 -69 26t-28 67q0 29 14 60t33 53q-28 -5 -53 -5q-70 0 -120 27t-78.5 75.5t-28.5 112.5zM168 307h195v17q0 45 -23.5 76.5t-73.5 31.5t-74 -32t-24 -76v-17z" />
    <glyph glyph-name="Ecaron" unicode="&#x11a;" horiz-adv-x="520" 
d="M139 829l49 70l94 -54l94 54l49 -70l-143 -78zM63 185v327q0 42 11.5 72t32 53.5t62 42t106.5 18.5h189v-101h-187q-52 0 -73.5 -23t-21.5 -70v-96h252v-100h-252v-115q0 -47 21.5 -69.5t73.5 -22.5h191v-77q0 -11 -6.5 -17.5t-17.5 -6.5h-169q-103 0 -157.5 50
t-54.5 135z" />
    <glyph glyph-name="ecaron" unicode="&#x11b;" horiz-adv-x="526" 
d="M117 664l48 70l95 -54l94 54l49 -70l-143 -78zM52 202v114q0 42 14.5 81t42 69t67.5 47.5t89 17.5q36 0 74 -12t72.5 -43.5t51 -75.5t16.5 -84v-67q0 -9 -7 -16.5t-16 -7.5h-288v-23q0 -55 27.5 -85.5t83.5 -30.5q59 0 151 26l24 -92q-104 -33 -175 -33q-70 0 -120 27
t-78.5 75.5t-28.5 112.5zM168 307h195v17q0 45 -23.5 76.5t-73.5 31.5t-74 -32t-24 -76v-17z" />
    <glyph glyph-name="Gcircumflex" unicode="&#x11c;" horiz-adv-x="632" 
d="M221 752l-48 71l143 77l143 -77l-49 -71l-94 55zM58 245v207q0 123 68 191t188 68q98 0 198 -30l-21 -96q-92 25 -163 25q-76 0 -112 -41.5t-36 -127.5v-185q0 -86 36 -127t112 -41q49 0 121 17v237l115 9v-322q-65 -18 -126 -30t-124 -12q-43 0 -88 11t-86.5 44
t-61.5 87.5t-20 115.5z" />
    <glyph glyph-name="gcircumflex" unicode="&#x11d;" horiz-adv-x="551" 
d="M176 587l-48 71l143 77l143 -77l-49 -71l-94 55zM148 -201l-13 97h162q32 0 50 20.5t18 53.5v78q-58 -48 -124 -48q-88 0 -138.5 56.5t-50.5 156.5v105q0 100 50.5 156.5t138.5 56.5q69 0 136 -60l6 47h98v-545q0 -81 -48 -127.5t-136 -46.5h-149zM170 302v-73
q0 -67 21 -98.5t68 -31.5q20 0 44 9t62 38v234q-28 25 -53.5 38.5t-52.5 13.5q-47 0 -68 -31.5t-21 -98.5z" />
    <glyph glyph-name="Gbreve" unicode="&#x11e;" horiz-adv-x="632" 
d="M178 892h80q0 -27 13.5 -41t36.5 -14t36.5 14t13.5 41h80q0 -57 -34 -95t-96 -38t-96 38t-34 95zM58 245v207q0 123 68 191t188 68q98 0 198 -30l-21 -96q-92 25 -163 25q-76 0 -112 -41.5t-36 -127.5v-185q0 -86 36 -127t112 -41q49 0 121 17v237l115 9v-322
q-65 -18 -126 -30t-124 -12q-43 0 -88 11t-86.5 44t-61.5 87.5t-20 115.5z" />
    <glyph glyph-name="gbreve" unicode="&#x11f;" horiz-adv-x="551" 
d="M136 727h80q0 -27 13.5 -41t36.5 -14t36.5 14t13.5 41h80q0 -57 -34 -95t-96 -38t-96 38t-34 95zM148 -201l-13 97h162q32 0 50 20.5t18 53.5v78q-58 -48 -124 -48q-88 0 -138.5 56.5t-50.5 156.5v105q0 100 50.5 156.5t138.5 56.5q69 0 136 -60l6 47h98v-545
q0 -81 -48 -127.5t-136 -46.5h-149zM170 302v-73q0 -67 21 -98.5t68 -31.5q20 0 44 9t62 38v234q-28 25 -53.5 38.5t-52.5 13.5q-47 0 -68 -31.5t-21 -98.5z" />
    <glyph glyph-name="Gdotaccent" unicode="&#x120;" horiz-adv-x="632" 
d="M257 825q0 23 18 41.5t41 18.5q22 0 40.5 -18.5t18.5 -41.5t-18.5 -41t-40.5 -18q-24 0 -41.5 17.5t-17.5 41.5zM58 245v207q0 123 68 191t188 68q98 0 198 -30l-21 -96q-92 25 -163 25q-76 0 -112 -41.5t-36 -127.5v-185q0 -86 36 -127t112 -41q49 0 121 17v237l115 9
v-322q-65 -18 -126 -30t-124 -12q-43 0 -88 11t-86.5 44t-61.5 87.5t-20 115.5z" />
    <glyph glyph-name="gdotaccent" unicode="&#x121;" horiz-adv-x="551" 
d="M201 660q0 23 18 41.5t41 18.5t41 -18.5t18 -41.5t-18 -41t-41 -18t-41 18t-18 41zM148 -201l-13 97h162q32 0 50 20.5t18 53.5v78q-58 -48 -124 -48q-88 0 -138.5 56.5t-50.5 156.5v105q0 100 50.5 156.5t138.5 56.5q69 0 136 -60l6 47h98v-545q0 -81 -48 -127.5
t-136 -46.5h-149zM170 302v-73q0 -67 21 -98.5t68 -31.5q20 0 44 9t62 38v234q-28 25 -53.5 38.5t-52.5 13.5q-47 0 -68 -31.5t-21 -98.5z" />
    <glyph glyph-name="Gcommaaccent" unicode="&#x122;" horiz-adv-x="632" 
d="M58 245v207q0 123 68 191t188 68q98 0 198 -30l-21 -96q-92 25 -163 25q-76 0 -112 -41.5t-36 -127.5v-185q0 -86 36 -127t112 -41q49 0 121 17v237l115 9v-322q-65 -18 -126 -30t-124 -12q-43 0 -88 11t-86.5 44t-61.5 87.5t-20 115.5zM267 -214l22 150h103l-41 -150
h-84z" />
    <glyph glyph-name="gcommaaccent" unicode="&#x123;" horiz-adv-x="551" 
d="M215 583l38 150h88l-26 -150h-100zM148 -201l-13 98h162q32 0 50 20t18 53v78q-58 -48 -124 -48q-88 0 -138.5 56.5t-50.5 156.5v105q0 100 50.5 156.5t138.5 56.5q69 0 136 -60l6 47h98v-545q0 -81 -48 -127.5t-136 -46.5h-149zM170 302v-73q0 -67 21 -98.5t68 -31.5
q20 0 44.5 9t61.5 39v232q-29 25 -54 39t-52 14q-47 0 -68 -31.5t-21 -98.5z" />
    <glyph glyph-name="Hcircumflex" unicode="&#x124;" horiz-adv-x="674" 
d="M242 752l-49 71l143 77l143 -77l-48 -71l-95 55zM83 0v698h119v-290h269v290h120v-674q0 -10 -7 -17t-17 -7h-96v309h-269v-309h-119z" />
    <glyph glyph-name="hcircumflex" unicode="&#x125;" horiz-adv-x="549" 
d="M34 752l-49 71l143 77l143 -77l-49 -71l-94 54zM69 0v726h116v-246q65 51 132 51q81 0 124.5 -46.5t43.5 -129.5v-331q0 -11 -6.5 -17.5t-17.5 -6.5h-92v339q0 49 -17.5 71t-57.5 22q-52 0 -109 -51v-381h-116z" />
    <glyph glyph-name="Hbar" unicode="&#x126;" horiz-adv-x="674" 
d="M83 0v515h-57v84h57v99h119v-99h269v99h120v-99h56v-84h-56v-491q0 -10 -7 -17t-17 -7h-96v309h-269v-309h-119zM202 408h269v107h-269v-107z" />
    <glyph glyph-name="hbar" unicode="&#x127;" horiz-adv-x="549" 
d="M69 0v598h-50v77h50v51h116v-51h144v-77h-144v-118q65 51 132 51q81 0 124.5 -46.5t43.5 -129.5v-331q0 -11 -6.5 -17.5t-17.5 -6.5h-92v339q0 49 -17.5 71t-57.5 22q-52 0 -109 -51v-381h-116z" />
    <glyph glyph-name="Itilde" unicode="&#x128;" horiz-adv-x="285" 
d="M47 771l-44 52q17 24 39 42.5t56 18.5q23 0 52 -16.5t38 -16.5q24 0 51 30l45 -52q-18 -24 -40 -42t-56 -18q-22 0 -51 15.5t-39 15.5q-26 0 -51 -29zM83 0v698h119v-674q0 -11 -6.5 -17.5t-17.5 -6.5h-95z" />
    <glyph glyph-name="itilde" unicode="&#x129;" horiz-adv-x="255" 
d="M32 606l-45 52q29 40 52.5 50.5t43.5 10.5q23 0 52 -16.5t38 -16.5q24 0 50 30l45 -52q-29 -40 -52 -50t-43 -10q-22 0 -51 15.5t-39 15.5q-26 0 -51 -29zM69 0v518h116v-494q0 -11 -6.5 -17.5t-17.5 -6.5h-92z" />
    <glyph glyph-name="Imacron" unicode="&#x12a;" horiz-adv-x="285" 
d="M29 784v85h229v-85h-229zM83 0v698h119v-674q0 -11 -6.5 -17.5t-17.5 -6.5h-95z" />
    <glyph glyph-name="imacron" unicode="&#x12b;" horiz-adv-x="255" 
d="M13 619v85h229v-85h-229zM69 0v518h116v-494q0 -11 -6.5 -17.5t-17.5 -6.5h-92z" />
    <glyph glyph-name="Ibreve" unicode="&#x12c;" horiz-adv-x="285" 
d="M13 881h80q0 -27 13.5 -41t36.5 -14q22 0 36 14.5t14 40.5h80q0 -57 -34 -95t-96 -38q-46 0 -77 21t-42 53t-11 59zM83 0v698h119v-674q0 -11 -6.5 -17.5t-17.5 -6.5h-95z" />
    <glyph glyph-name="ibreve" unicode="&#x12d;" horiz-adv-x="255" 
d="M-3 727h80q0 -27 13.5 -41t36.5 -14t37 14t14 41h80q0 -27 -11.5 -59t-43 -53t-76.5 -21q-62 0 -96 38t-34 95zM69 0v518h116v-494q0 -11 -6.5 -17.5t-17.5 -6.5h-92z" />
    <glyph glyph-name="Iogonek" unicode="&#x12e;" horiz-adv-x="285" 
d="M83 0v698h119v-698q-75 -60 -75 -104q0 -12 7.5 -19.5t19.5 -7.5t32 6l11 -79q-30 -10 -67 -10q-19 0 -41.5 8.5t-38.5 31t-16 51.5q0 67 68 123h-19z" />
    <glyph glyph-name="iogonek" unicode="&#x12f;" horiz-adv-x="255" 
d="M127 597q-28 0 -47.5 19.5t-19.5 46.5t19.5 46t47.5 19q29 0 48.5 -19t19.5 -46t-19.5 -46.5t-48.5 -19.5zM69 0v518h116v-518q-75 -60 -75 -104q0 -12 7.5 -19.5t19.5 -7.5t32 6l11 -79q-30 -10 -67 -10q-19 0 -41.5 8.5t-38.5 31t-16 51.5q0 67 68 123h-16z" />
    <glyph glyph-name="Idotaccent" unicode="&#x130;" horiz-adv-x="285" 
d="M84 825q0 23 18 41.5t41 18.5q22 0 40.5 -18.5t18.5 -41.5t-18.5 -41t-40.5 -18q-24 0 -41.5 17.5t-17.5 41.5zM83 0v698h119v-674q0 -11 -6.5 -17.5t-17.5 -6.5h-95z" />
    <glyph glyph-name="dotlessi" unicode="&#x131;" horiz-adv-x="255" 
d="M69 0v518h116v-494q0 -11 -6.5 -17.5t-17.5 -6.5h-92z" />
    <glyph glyph-name="IJ" unicode="&#x132;" horiz-adv-x="771" 
d="M314 14l24 96q66 -22 125 -22q58 0 84.5 32t26.5 112v466h119v-476q0 -50 -12.5 -93t-39.5 -74.5t-71.5 -49.5t-104.5 -18q-71 0 -151 27zM83 0v698h119v-674q0 -11 -6.5 -17.5t-17.5 -6.5h-95z" />
    <glyph glyph-name="ij" unicode="&#x133;" horiz-adv-x="510" 
d="M382 597q-28 0 -47.5 19.5t-19.5 46.5t19.5 46t47.5 19q29 0 48.5 -19t19.5 -46t-19.5 -46.5t-48.5 -19.5zM127 597q-28 0 -47.5 19.5t-19.5 46.5t19.5 46t47.5 19q29 0 48.5 -19t19.5 -46t-19.5 -46.5t-48.5 -19.5zM182 -199l18 94q42 -10 70 -10q29 0 41.5 15.5
t12.5 52.5v565h116v-570q0 -75 -42.5 -118.5t-124.5 -43.5q-38 0 -91 15zM69 0v518h116v-494q0 -11 -6.5 -17.5t-17.5 -6.5h-92z" />
    <glyph glyph-name="Jcircumflex" unicode="&#x134;" horiz-adv-x="485" 
d="M251 752l-49 71l143 77l143 -77l-49 -71l-94 55zM28 14l25 96q65 -22 125 -22q57 0 83.5 32t26.5 112v466h119v-476q0 -50 -12.5 -93t-39.5 -74.5t-71.5 -49.5t-104.5 -18q-71 0 -151 27z" />
    <glyph glyph-name="jcircumflex" unicode="&#x135;" horiz-adv-x="255" 
d="M33 600l-49 71l143 77l143 -77l-48 -71l-95 54zM-73 -199l18 94q42 -10 70 -10q29 0 41.5 15.5t12.5 52.5v565h116v-570q0 -76 -42.5 -119t-124.5 -43q-38 0 -91 15z" />
    <glyph glyph-name="Kcommaaccent" unicode="&#x136;" horiz-adv-x="604" 
d="M83 0v698h119v-293l72 5l131 288h132l-145 -299q55 -22 81 -95l103 -304h-125l-93 273q-14 42 -54 39l-102 -7v-281q0 -11 -6.5 -17.5t-17.5 -6.5h-95zM238 -214l23 150h103l-41 -150h-85z" />
    <glyph glyph-name="kcommaaccent" unicode="&#x137;" horiz-adv-x="501" 
d="M69 0v726h116v-403l63 18q26 8 36 34l60 143h121l-80 -187q-20 -44 -54 -64l153 -267h-127l-126 232l-46 -12v-196q0 -11 -6.5 -17.5t-17.5 -6.5h-92zM190 -214l23 150h103l-41 -150h-85z" />
    <glyph glyph-name="Lacute" unicode="&#x139;" horiz-adv-x="547" 
d="M48 753l-26 70l206 77l32 -86zM83 0v698h119v-597h307v-77q0 -11 -6.5 -17.5t-17.5 -6.5h-402z" />
    <glyph glyph-name="lacute" unicode="&#x13a;" horiz-adv-x="258" 
d="M35 753l-27 70l207 76l31 -85zM69 110v616h116v-604q0 -16 5 -27t27 -13l-24 -92q-67 6 -95.5 36t-28.5 84z" />
    <glyph glyph-name="Lcommaaccent" unicode="&#x13b;" horiz-adv-x="547" 
d="M83 0v698h119v-597h307v-77q0 -11 -6.5 -17.5t-17.5 -6.5h-402zM231 -214l22 150h104l-42 -150h-84z" />
    <glyph glyph-name="lcommaaccent" unicode="&#x13c;" horiz-adv-x="258" 
d="M69 110v616h116v-604q0 -16 5 -27t27 -13l-24 -92q-67 6 -95.5 36t-28.5 84zM66 -214l22 150h103l-41 -150h-84z" />
    <glyph glyph-name="Lcaron" unicode="&#x13d;" horiz-adv-x="547" 
d="M83 0v698h119v-597h307v-77q0 -11 -6.5 -17.5t-17.5 -6.5h-402zM333 542l24 156h103l-43 -156h-84z" />
    <glyph glyph-name="lcaron" unicode="&#x13e;" horiz-adv-x="258" 
d="M234 570l24 156h104l-43 -156h-85zM69 110v616h116v-604q0 -16 5 -27t27 -13l-24 -92q-67 6 -95.5 36t-28.5 84z" />
    <glyph glyph-name="Ldot" unicode="&#x13f;" horiz-adv-x="547" 
d="M83 0v698h119v-597h307v-77q0 -11 -6.5 -17.5t-17.5 -6.5h-402zM308 303q0 25 17.5 42.5t42.5 17.5t42.5 -17.5t17.5 -42.5t-17.5 -42t-42.5 -17t-42.5 17t-17.5 42z" />
    <glyph glyph-name="ldot" unicode="&#x140;" horiz-adv-x="341" 
d="M69 110v616h116v-604q0 -16 5 -27t27 -13l-24 -92q-67 6 -95.5 36t-28.5 84zM238 303q0 25 17.5 42.5t41.5 17.5q25 0 42.5 -17.5t17.5 -42.5t-17.5 -42t-42.5 -17t-42 17t-17 42z" />
    <glyph glyph-name="Lslash" unicode="&#x141;" horiz-adv-x="547" 
d="M83 0v245l-48 -17l-30 81l78 28v361h119v-318l92 33l29 -80l-121 -44v-188h307v-77q0 -11 -6.5 -17.5t-17.5 -6.5h-402z" />
    <glyph glyph-name="lslash" unicode="&#x142;" horiz-adv-x="258" 
d="M69 110v143l-46 -17l-29 81l75 28v381h116v-339l49 18l30 -81l-79 -28v-174q0 -16 5 -27t27 -13l-24 -92q-67 6 -95.5 36t-28.5 84z" />
    <glyph glyph-name="Nacute" unicode="&#x143;" horiz-adv-x="662" 
d="M238 753l-26 70l206 77l32 -86zM83 0v698h109l277 -482q-7 66 -7 132v350h117v-698h-109l-276 481q7 -84 7 -131v-350h-118z" />
    <glyph glyph-name="nacute" unicode="&#x144;" horiz-adv-x="549" 
d="M182 588l-26 70l206 77l32 -86zM69 0v518h98l6 -48q69 61 144 61q81 0 124.5 -46.5t43.5 -129.5v-331q0 -11 -6.5 -17.5t-17.5 -6.5h-92v339q0 48 -17.5 70.5t-57.5 22.5q-52 0 -109 -51v-381h-116z" />
    <glyph glyph-name="Ncommaaccent" unicode="&#x145;" horiz-adv-x="662" 
d="M83 0v698h109l277 -482q-7 66 -7 132v350h117v-698h-109l-276 481q7 -84 7 -131v-350h-118zM266 -214l23 150h103l-41 -150h-85z" />
    <glyph glyph-name="ncommaaccent" unicode="&#x146;" horiz-adv-x="549" 
d="M69 0v518h98l6 -48q69 61 144 61q81 0 124.5 -46.5t43.5 -129.5v-331q0 -11 -6.5 -17.5t-17.5 -6.5h-92v339q0 48 -17.5 70.5t-57.5 22.5q-52 0 -109 -51v-381h-116zM213 -214l22 150h103l-41 -150h-84z" />
    <glyph glyph-name="Ncaron" unicode="&#x147;" horiz-adv-x="662" 
d="M188 829l49 70l94 -54l94 54l49 -70l-143 -78zM83 0v698h109l277 -482q-7 66 -7 132v350h117v-698h-109l-276 481q7 -84 7 -131v-350h-118z" />
    <glyph glyph-name="ncaron" unicode="&#x148;" horiz-adv-x="549" 
d="M131 664l49 70l94 -54l95 54l48 -70l-143 -78zM69 0v518h98l6 -48q69 61 144 61q81 0 124.5 -46.5t43.5 -129.5v-331q0 -11 -6.5 -17.5t-17.5 -6.5h-92v339q0 48 -17.5 70.5t-57.5 22.5q-52 0 -109 -51v-381h-116z" />
    <glyph glyph-name="Eng" unicode="&#x14a;" horiz-adv-x="662" 
d="M83 0v698h109l277 -482q-7 66 -7 132v350h117v-745q0 -76 -42.5 -119t-124.5 -43q-38 0 -91 15l18 94q42 -10 70 -10q29 0 41.5 15.5t12.5 52.5v54l-269 469q7 -84 7 -131v-350h-118z" />
    <glyph glyph-name="eng" unicode="&#x14b;" horiz-adv-x="549" 
d="M226 -196l19 95q36 -10 69 -10q29 0 42 15.5t13 52.5v382q0 48 -17.5 70.5t-57.5 22.5q-52 0 -109 -51v-381h-116v518h98l6 -48q69 61 144 61q81 0 124.5 -46.5t43.5 -129.5v-404q0 -74 -43 -117.5t-125 -43.5q-41 0 -91 14z" />
    <glyph glyph-name="Omacron" unicode="&#x14c;" horiz-adv-x="664" 
d="M217 784v85h229v-85h-229zM58 280v138q0 63 18.5 117t54 93.5t87 61t114.5 21.5t114.5 -21.5t87 -61t54 -93.5t18.5 -117v-138q0 -63 -18.5 -117.5t-54 -93.5t-87 -60.5t-114.5 -21.5t-114.5 21.5t-87 60.5t-54 93.5t-18.5 117.5zM180 407v-116q0 -104 40 -153.5
t112 -49.5q152 0 152 203v116q0 104 -39.5 153.5t-112.5 49.5q-72 0 -112 -49.5t-40 -153.5z" />
    <glyph glyph-name="omacron" unicode="&#x14d;" horiz-adv-x="548" 
d="M160 619v85h229v-85h-229zM52 220v79q0 105 59 168.5t163 63.5t163 -63.5t59 -168.5v-79q0 -108 -59 -170.5t-163 -62.5q-103 0 -162.5 63t-59.5 170zM170 290v-62q0 -71 23.5 -106.5t80.5 -35.5t81 35.5t24 106.5v62q0 70 -24 106t-81 36q-50 0 -77 -31.5t-27 -110.5z
" />
    <glyph glyph-name="Obreve" unicode="&#x14e;" horiz-adv-x="664" 
d="M202 892h80q0 -27 13.5 -41t36.5 -14q22 0 36 14.5t14 40.5h80q0 -57 -34 -95t-96 -38q-46 0 -77 21t-42 53t-11 59zM58 280v138q0 63 18.5 117t54 93.5t87 61t114.5 21.5t114.5 -21.5t87 -61t54 -93.5t18.5 -117v-138q0 -63 -18.5 -117.5t-54 -93.5t-87 -60.5
t-114.5 -21.5t-114.5 21.5t-87 60.5t-54 93.5t-18.5 117.5zM180 407v-116q0 -104 40 -153.5t112 -49.5q152 0 152 203v116q0 104 -39.5 153.5t-112.5 49.5q-72 0 -112 -49.5t-40 -153.5z" />
    <glyph glyph-name="obreve" unicode="&#x14f;" horiz-adv-x="548" 
d="M144 727h80q0 -27 13.5 -41t36.5 -14t36.5 14t13.5 41h80q0 -57 -34 -95t-96 -38t-96 38t-34 95zM52 220v79q0 105 59 168.5t163 63.5t163 -63.5t59 -168.5v-79q0 -108 -59 -170.5t-163 -62.5q-103 0 -162.5 63t-59.5 170zM170 290v-62q0 -71 23.5 -106.5t80.5 -35.5
t81 35.5t24 106.5v62q0 70 -24 106t-81 36q-50 0 -77 -31.5t-27 -110.5z" />
    <glyph glyph-name="Ohungarumlaut" unicode="&#x150;" horiz-adv-x="664" 
d="M351 791l102 122l71 -63l-114 -111zM171 791l102 122l71 -63l-114 -111zM58 280v138q0 63 18.5 117t54 93.5t87 61t114.5 21.5t114.5 -21.5t87 -61t54 -93.5t18.5 -117v-138q0 -63 -18.5 -117.5t-54 -93.5t-87 -60.5t-114.5 -21.5t-114.5 21.5t-87 60.5t-54 93.5
t-18.5 117.5zM180 407v-116q0 -104 40 -153.5t112 -49.5q152 0 152 203v116q0 104 -39.5 153.5t-112.5 49.5q-72 0 -112 -49.5t-40 -153.5z" />
    <glyph glyph-name="ohungarumlaut" unicode="&#x151;" horiz-adv-x="548" 
d="M299 626l102 122l71 -63l-114 -111zM119 626l102 122l71 -63l-114 -111zM52 220v79q0 105 59 168.5t163 63.5t163 -63.5t59 -168.5v-79q0 -108 -59 -170.5t-163 -62.5q-103 0 -162.5 63t-59.5 170zM170 290v-62q0 -71 23.5 -106.5t80.5 -35.5t81 35.5t24 106.5v62
q0 70 -24 106t-81 36q-50 0 -77 -31.5t-27 -110.5z" />
    <glyph glyph-name="OE" unicode="&#x152;" horiz-adv-x="931" 
d="M58 280v138q0 63 18.5 117t54 93.5t87 61t114.5 21.5q45 0 90 -13h453v-101h-320q51 -71 51 -168v-21h239v-100h-239v-28q0 -108 -51 -179h324v-77q0 -11 -6.5 -17.5t-17.5 -6.5h-431q-45 -13 -92 -13q-63 0 -114.5 21.5t-87 60.5t-54 93.5t-18.5 117.5zM180 407v-116
q0 -104 40 -153.5t112 -49.5q152 0 152 203v116q0 104 -39.5 153.5t-112.5 49.5q-72 0 -112 -49.5t-40 -153.5z" />
    <glyph glyph-name="oe" unicode="&#x153;" horiz-adv-x="854" 
d="M52 220v79q0 105 59 168.5t163 63.5q52 0 93.5 -18t68.5 -51q27 32 67.5 50.5t89.5 18.5q36 0 74 -12t72.5 -43.5t51 -75.5t16.5 -84v-67q0 -9 -7.5 -16.5t-16.5 -7.5h-287v-23q0 -55 27.5 -85.5t82.5 -30.5q60 0 152 26l24 -92q-106 -33 -175 -33q-56 0 -99.5 18
t-71.5 50q-27 -32 -68.5 -50t-93.5 -18q-103 0 -162.5 63t-59.5 170zM496 307h195v17q0 45 -23.5 76.5t-73.5 31.5t-74 -32t-24 -76v-17zM170 290v-62q0 -71 23.5 -106.5t80.5 -35.5t81 35.5t24 106.5v62q0 70 -24 106t-81 36q-50 0 -77 -31.5t-27 -110.5z" />
    <glyph glyph-name="Racute" unicode="&#x154;" horiz-adv-x="580" 
d="M197 753l-26 70l206 77l32 -86zM83 0v671q129 40 221 40q54 0 98.5 -18.5t74 -50.5t45 -73t15.5 -85q0 -25 -9.5 -60.5t-30.5 -66t-47.5 -49t-54.5 -28.5l133 -280h-130l-121 263h-75v-263h-119zM202 359h91q56 0 87.5 35t31.5 90q0 33 -11 63t-36.5 46.5t-60.5 16.5
q-56 0 -102 -15v-236z" />
    <glyph glyph-name="racute" unicode="&#x155;" horiz-adv-x="372" 
d="M93 588l-26 70l206 77l32 -86zM69 0v518h95l10 -67q23 34 59 56.5t72 22.5q26 0 50 -6l-16 -98q-16 4 -39 4q-22 0 -52 -17t-63 -56v-357h-116z" />
    <glyph glyph-name="Rcommaaccent" unicode="&#x156;" horiz-adv-x="580" 
d="M83 0v671q129 40 221 40q54 0 98.5 -18.5t74 -50.5t45 -73t15.5 -85q0 -25 -9.5 -60.5t-30.5 -66t-47.5 -49t-54.5 -28.5l133 -280h-130l-121 263h-75v-263h-119zM202 359h91q56 0 87.5 35t31.5 90q0 33 -11 63t-36.5 46.5t-60.5 16.5q-56 0 -102 -15v-236zM226 -214
l22 150h104l-42 -150h-84z" />
    <glyph glyph-name="rcommaaccent" unicode="&#x157;" horiz-adv-x="372" 
d="M69 0v518h95l10 -67q23 34 59 56.5t72 22.5q26 0 50 -6l-16 -98q-16 4 -39 4q-22 0 -52 -17t-63 -56v-357h-116zM54 -214l22 150h103l-41 -150h-84z" />
    <glyph glyph-name="Rcaron" unicode="&#x158;" horiz-adv-x="580" 
d="M146 829l49 70l94 -54l95 54l48 -70l-143 -78zM83 0v671q129 40 221 40q54 0 98.5 -18.5t74 -50.5t45 -73t15.5 -85q0 -25 -9.5 -60.5t-30.5 -66t-47.5 -49t-54.5 -28.5l133 -280h-130l-121 263h-75v-263h-119zM202 359h91q56 0 87.5 35t31.5 90q0 33 -11 63t-36.5 46.5
t-60.5 16.5q-56 0 -102 -15v-236z" />
    <glyph glyph-name="rcaron" unicode="&#x159;" horiz-adv-x="372" 
d="M58 664l49 70l94 -54l94 54l49 -70l-143 -78zM69 0v518h95l10 -67q23 34 59 56.5t72 22.5q26 0 50 -6l-16 -98q-16 4 -39 4q-22 0 -52 -17t-63 -56v-357h-116z" />
    <glyph glyph-name="Sacute" unicode="&#x15a;" horiz-adv-x="525" 
d="M170 753l-27 70l207 77l31 -86zM42 26l21 98q113 -36 179 -36q57 0 85.5 27t28.5 72q0 3 -0.5 10t-5 22t-21 32t-39 29.5t-50.5 25t-35 15.5q-81 39 -116 84t-35 114q0 33 11.5 66.5t39.5 61.5t73.5 46t107.5 18q33 0 70.5 -6.5t102.5 -30.5l-30 -94q-85 30 -143 30
q-52 0 -79.5 -24.5t-27.5 -66.5q0 -23 12 -40.5t34.5 -32.5t86.5 -45.5t95 -56.5t45 -49.5t21.5 -50t7.5 -57.5q0 -90 -65.5 -145t-173.5 -55q-38 0 -79.5 7t-120.5 32z" />
    <glyph glyph-name="sacute" unicode="&#x15b;" horiz-adv-x="442" 
d="M129 588l-26 70l206 77l32 -86zM44 19l24 97q78 -30 134 -30q74 0 74 59q0 18 -13 32.5t-53 31t-55.5 23.5t-32 18.5t-31 26t-25 40t-10.5 62.5q0 25 9.5 51.5t32.5 49t59.5 37t85.5 14.5q70 0 134 -27l-28 -92q-61 21 -103 21q-33 0 -50.5 -15t-17.5 -39q0 -18 14.5 -32
t64 -35.5t68.5 -34.5t33.5 -27.5t27 -40t12.5 -64.5q0 -71 -54 -114.5t-140 -43.5q-77 0 -160 32z" />
    <glyph glyph-name="Scircumflex" unicode="&#x15c;" horiz-adv-x="525" 
d="M168 752l-49 71l143 77l143 -77l-49 -71l-94 55zM42 26l21 98q113 -36 179 -36q57 0 85.5 27t28.5 72q0 3 -0.5 10t-5 22t-21 32t-39 29.5t-50.5 25t-35 15.5q-81 39 -116 84t-35 114q0 33 11.5 66.5t39.5 61.5t73.5 46t107.5 18q33 0 70.5 -6.5t102.5 -30.5l-30 -94
q-85 30 -143 30q-52 0 -79.5 -24.5t-27.5 -66.5q0 -23 12 -40.5t34.5 -32.5t86.5 -45.5t95 -56.5t45 -49.5t21.5 -50t7.5 -57.5q0 -90 -65.5 -145t-173.5 -55q-38 0 -79.5 7t-120.5 32z" />
    <glyph glyph-name="scircumflex" unicode="&#x15d;" horiz-adv-x="442" 
d="M127 587l-48 71l143 77l143 -77l-49 -71l-94 55zM44 19l24 97q78 -30 134 -30q74 0 74 59q0 18 -13 32.5t-53 31t-55.5 23.5t-32 18.5t-31 26t-25 40t-10.5 62.5q0 25 9.5 51.5t32.5 49t59.5 37t85.5 14.5q70 0 134 -27l-28 -92q-61 21 -103 21q-33 0 -50.5 -15
t-17.5 -39q0 -18 14.5 -32t64 -35.5t68.5 -34.5t33.5 -27.5t27 -40t12.5 -64.5q0 -71 -54 -114.5t-140 -43.5q-77 0 -160 32z" />
    <glyph glyph-name="Scedilla" unicode="&#x15e;" horiz-adv-x="525" 
d="M113 -204l13 77q25 -5 44 -5q18 0 29.5 12.5t11.5 33.5v74q-67 5 -169 38l21 98q113 -36 179 -36q57 0 85.5 27t28.5 72q0 3 -0.5 10t-5 22t-21 32t-39 29.5t-50.5 25t-35 15.5q-81 39 -116 84t-35 114q0 33 11.5 66.5t39.5 61.5t73.5 46t107.5 18q33 0 70.5 -6.5
t102.5 -30.5l-30 -94q-85 30 -143 30q-52 0 -79.5 -24.5t-27.5 -66.5q0 -23 12 -40.5t34.5 -32.5t86.5 -45.5t95 -56.5t45 -49.5t21.5 -50t7.5 -57.5q0 -76 -47.5 -128t-128.5 -66v-96q0 -30 -13 -56t-44 -40t-65 -14t-70 9z" />
    <glyph glyph-name="scedilla" unicode="&#x15f;" horiz-adv-x="442" 
d="M80 -204l12 77q25 -5 44 -5t30 12.5t11 33.5v74q-65 4 -133 31l24 97q78 -30 134 -30q74 0 74 59q0 18 -13 32.5t-53 31t-55.5 23.5t-32 18.5t-31 26t-25 40t-10.5 62.5q0 25 9.5 51.5t32.5 49t59.5 37t85.5 14.5q70 0 134 -27l-28 -92q-61 21 -103 21q-33 0 -50.5 -15
t-17.5 -39q0 -18 14.5 -32t64 -35.5t68.5 -34.5t33.5 -27.5t27 -40t12.5 -64.5q0 -26 -11.5 -57t-42 -56.5t-72.5 -36.5v-98q0 -30 -13 -56t-44 -40t-65 -14t-70 9z" />
    <glyph glyph-name="Scaron" unicode="&#x160;" horiz-adv-x="525" 
d="M119 829l49 70l94 -54l94 54l49 -70l-143 -78zM42 26l21 98q113 -36 179 -36q57 0 85.5 27t28.5 72q0 3 -0.5 10t-5 22t-21 32t-39 29.5t-50.5 25t-35 15.5q-81 39 -116 84t-35 114q0 33 11.5 66.5t39.5 61.5t73.5 46t107.5 18q33 0 70.5 -6.5t102.5 -30.5l-30 -94
q-85 30 -143 30q-52 0 -79.5 -24.5t-27.5 -66.5q0 -23 12 -40.5t34.5 -32.5t86.5 -45.5t95 -56.5t45 -49.5t21.5 -50t7.5 -57.5q0 -90 -65.5 -145t-173.5 -55q-38 0 -79.5 7t-120.5 32z" />
    <glyph glyph-name="scaron" unicode="&#x161;" horiz-adv-x="442" 
d="M79 664l48 70l95 -54l94 54l49 -70l-143 -78zM44 19l24 97q78 -30 134 -30q74 0 74 59q0 18 -13 32.5t-53 31t-55.5 23.5t-32 18.5t-31 26t-25 40t-10.5 62.5q0 25 9.5 51.5t32.5 49t59.5 37t85.5 14.5q70 0 134 -27l-28 -92q-61 21 -103 21q-33 0 -50.5 -15t-17.5 -39
q0 -18 14.5 -32t64 -35.5t68.5 -34.5t33.5 -27.5t27 -40t12.5 -64.5q0 -71 -54 -114.5t-140 -43.5q-77 0 -160 32z" />
    <glyph glyph-name="Tcommaaccent" unicode="&#x162;" horiz-adv-x="529" 
d="M205 0v597h-172v101h463v-101h-172v-597h-119zM192 -214l23 150h103l-41 -150h-85z" />
    <glyph glyph-name="tcommaaccent" unicode="&#x163;" horiz-adv-x="381" 
d="M95 145v288l-83 10v75h83v162h116v-162h120v-85h-120v-275q0 -36 17 -54t47 -18q36 0 75 11l19 -95q-55 -15 -100 -15q-83 0 -128.5 42t-45.5 116zM147 -214l23 150h103l-41 -150h-85z" />
    <glyph glyph-name="Tcaron" unicode="&#x164;" horiz-adv-x="529" 
d="M122 829l48 70l95 -54l94 54l49 -70l-143 -78zM205 0v597h-172v101h463v-101h-172v-597h-119z" />
    <glyph glyph-name="tcaron" unicode="&#x165;" horiz-adv-x="381" 
d="M291 570l24 156h103l-42 -156h-85zM95 145v288l-83 10v75h83v162h116v-162h120v-85h-120v-275q0 -36 17 -54t47 -18q36 0 75 11l19 -95q-55 -15 -100 -15q-83 0 -128.5 42t-45.5 116z" />
    <glyph glyph-name="Tbar" unicode="&#x166;" horiz-adv-x="529" 
d="M205 0v305h-99v85h99v207h-172v101h463v-101h-172v-207h99v-85h-99v-305h-119z" />
    <glyph glyph-name="tbar" unicode="&#x167;" horiz-adv-x="381" 
d="M95 145v85h-78v84h78v119l-83 10v75h83v162h116v-162h120v-85h-120v-119h120v-84h-120v-72q0 -36 17 -54t47 -18q36 0 75 11l19 -95q-55 -15 -100 -15q-83 0 -128.5 42t-45.5 116z" />
    <glyph glyph-name="Utilde" unicode="&#x168;" horiz-adv-x="660" 
d="M234 771l-45 52q29 40 52.5 50.5t43.5 10.5q23 0 52 -16.5t38 -16.5q24 0 50 30l45 -52q-29 -40 -52 -50t-43 -10q-22 0 -51 15.5t-39 15.5q-26 0 -51 -29zM68 260v438h119v-455q0 -28 11 -64.5t44.5 -63.5t87.5 -27q36 0 70 16.5t53 56t19 82.5v455h120v-438
q0 -129 -68.5 -201t-193.5 -72q-124 0 -193 72t-69 201z" />
    <glyph glyph-name="utilde" unicode="&#x169;" horiz-adv-x="549" 
d="M179 606l-44 52q17 24 39 42.5t56 18.5q23 0 52 -16.5t38 -16.5q24 0 51 30l45 -52q-18 -24 -40 -42t-56 -18q-22 0 -51 15.5t-39 15.5q-26 0 -51 -29zM64 163v331q0 10 7 17t17 7h92v-339q0 -49 17.5 -71t57.5 -22q52 0 109 51v381h116v-518h-98l-6 48q-69 -61 -144 -61
q-81 0 -124.5 46.5t-43.5 129.5z" />
    <glyph glyph-name="Umacron" unicode="&#x16a;" horiz-adv-x="660" 
d="M215 784v85h229v-85h-229zM68 260v438h119v-455q0 -28 11 -64.5t44.5 -63.5t87.5 -27q36 0 70 16.5t53 56t19 82.5v455h120v-438q0 -129 -68.5 -201t-193.5 -72q-124 0 -193 72t-69 201z" />
    <glyph glyph-name="umacron" unicode="&#x16b;" horiz-adv-x="549" 
d="M161 619v85h229v-85h-229zM64 163v331q0 10 7 17t17 7h92v-339q0 -49 17.5 -71t57.5 -22q52 0 109 51v381h116v-518h-98l-6 48q-69 -61 -144 -61q-81 0 -124.5 46.5t-43.5 129.5z" />
    <glyph glyph-name="Ubreve" unicode="&#x16c;" horiz-adv-x="660" 
d="M199 892h80q0 -27 13.5 -41t36.5 -14t37 14t14 41h80q0 -27 -11.5 -59t-43 -53t-76.5 -21q-62 0 -96 38t-34 95zM68 260v438h119v-455q0 -28 11 -64.5t44.5 -63.5t87.5 -27q36 0 70 16.5t53 56t19 82.5v455h120v-438q0 -129 -68.5 -201t-193.5 -72q-124 0 -193 72
t-69 201z" />
    <glyph glyph-name="ubreve" unicode="&#x16d;" horiz-adv-x="549" 
d="M145 727h80q0 -27 13.5 -41t36.5 -14q22 0 36 14.5t14 40.5h80q0 -57 -34 -95t-96 -38q-46 0 -77 21t-42 53t-11 59zM64 163v331q0 10 7 17t17 7h92v-339q0 -49 17.5 -71t57.5 -22q52 0 109 51v381h116v-518h-98l-6 48q-69 -61 -144 -61q-81 0 -124.5 46.5t-43.5 129.5z
" />
    <glyph glyph-name="Uring" unicode="&#x16e;" horiz-adv-x="660" 
d="M233 824q0 38 28 63.5t68 25.5q19 0 42 -8t39.5 -30.5t16.5 -50.5q0 -27 -16.5 -49t-39.5 -30t-42 -8q-29 0 -53 14t-33.5 34.5t-9.5 38.5zM306 824q0 -8 6 -15.5t15 -7.5q10 0 18 7.5t8 16.5t-7 16t-16 7t-16.5 -7t-7.5 -17zM68 260v438h119v-455q0 -28 11 -64.5
t44.5 -63.5t87.5 -27q36 0 70 16.5t53 56t19 82.5v455h120v-438q0 -129 -68.5 -201t-193.5 -72q-124 0 -193 72t-69 201z" />
    <glyph glyph-name="uring" unicode="&#x16f;" horiz-adv-x="549" 
d="M178 663q0 18 9.5 39t33.5 35t53 14q31 0 55 -14t33.5 -35t9.5 -39q0 -37 -28 -62t-70 -25q-29 0 -53 14t-33.5 34.5t-9.5 38.5zM251 662q0 -8 6.5 -15t15.5 -7q10 0 17.5 7.5t7.5 16.5q0 8 -6.5 15.5t-15.5 7.5t-17 -7.5t-8 -17.5zM64 163v331q0 10 7 17t17 7h92v-339
q0 -49 17.5 -71t57.5 -22q52 0 109 51v381h116v-518h-98l-6 48q-69 -61 -144 -61q-81 0 -124.5 46.5t-43.5 129.5z" />
    <glyph glyph-name="Uhungarumlaut" unicode="&#x170;" horiz-adv-x="660" 
d="M349 791l102 122l71 -63l-115 -111zM169 791l102 122l71 -63l-115 -111zM68 260v438h119v-455q0 -28 11 -64.5t44.5 -63.5t87.5 -27q36 0 70 16.5t53 56t19 82.5v455h120v-438q0 -129 -68.5 -201t-193.5 -72q-124 0 -193 72t-69 201z" />
    <glyph glyph-name="uhungarumlaut" unicode="&#x171;" horiz-adv-x="549" 
d="M289 626l102 122l71 -63l-114 -111zM109 626l102 122l71 -63l-114 -111zM64 163v331q0 10 7 17t17 7h92v-339q0 -49 17.5 -71t57.5 -22q52 0 109 51v381h116v-518h-98l-6 48q-69 -61 -144 -61q-81 0 -124.5 46.5t-43.5 129.5z" />
    <glyph glyph-name="Uogonek" unicode="&#x172;" horiz-adv-x="660" 
d="M375 -125l11 -79q-30 -10 -67 -10q-19 0 -41.5 8.5t-38.5 31t-16 51.5q0 63 56 114q-37 5 -74 20.5t-67.5 47t-50 81t-19.5 120.5v438h119v-455q0 -28 11 -64.5t44.5 -63.5t87.5 -27q36 0 70 16.5t53 56t19 82.5v455h120v-438q0 -57 -14 -104t-41 -82t-67 -56t-91 -28
q-63 -53 -63 -94q0 -12 7.5 -19.5t19.5 -7.5t32 6z" />
    <glyph glyph-name="uogonek" unicode="&#x173;" horiz-adv-x="549" 
d="M463 -125l11 -79q-30 -10 -67 -10q-19 0 -41.5 8.5t-38.5 31t-16 51.5q0 70 70 126l-5 45q-69 -61 -144 -61q-81 0 -124.5 46.5t-43.5 129.5v331q0 10 7 17t17 7h92v-339q0 -49 17.5 -71t57.5 -22q52 0 109 51v381h116v-518q-76 -60 -76 -104q0 -12 7.5 -19.5t19.5 -7.5
q14 0 32 6z" />
    <glyph glyph-name="Wcircumflex" unicode="&#x174;" horiz-adv-x="903" 
d="M357 752l-49 71l143 77l143 -77l-49 -71l-94 55zM182 0l-142 698h121l66 -356q7 -36 25 -181q13 120 27 181l45 194q12 53 43 85t84 32t84.5 -32.5t42.5 -84.5l44 -194q11 -50 28 -184q13 115 25 184l66 356h122l-142 -698h-135l-118 522q-4 22 -17 22q-14 0 -18 -22
l-117 -522h-134z" />
    <glyph glyph-name="wcircumflex" unicode="&#x175;" horiz-adv-x="751" 
d="M281 587l-49 71l143 77l143 -77l-49 -71l-94 55zM159 0l-137 518h123l51 -228q9 -41 28 -153q16 83 34 153l55 199h124l55 -199q15 -55 35 -156q20 118 22 129.5t5 26.5l51 228h124l-137 -518h-126l-91 337l-91 -337h-125z" />
    <glyph glyph-name="Ycircumflex" unicode="&#x176;" 
d="M199 752l-49 71l143 77l143 -77l-49 -71l-94 55zM234 0v282q-58 12 -96 55t-56 129l-47 232h119l43 -216q14 -67 38.5 -87.5t57.5 -20.5q24 0 43.5 10t32 35t20.5 64l43 215h119l-47 -232q-32 -158 -152 -184v-282h-118z" />
    <glyph glyph-name="ycircumflex" unicode="&#x177;" horiz-adv-x="525" 
d="M166 587l-49 71l143 77l143 -77l-49 -71l-94 55zM81 174l-46 344h114l44 -329q4 -31 14.5 -52t28 -29t35.5 -8q35 0 71 14l21 404h112l-28 -549q-4 -81 -50.5 -125.5t-135.5 -44.5h-100l-7 98h110q28 0 44 12t21 30.5t6 35.5l2 40q-43 -15 -76 -15q-156 0 -180 174z" />
    <glyph glyph-name="Ydieresis" unicode="&#x178;" 
d="M322 825q0 23 18 41.5t41 18.5q22 0 40.5 -18.5t18.5 -41.5t-18.5 -41t-40.5 -18q-24 0 -41.5 17.5t-17.5 41.5zM146 825q0 23 18 41.5t41 18.5t40.5 -18.5t17.5 -41.5q0 -24 -17 -41.5t-41 -17.5q-23 0 -41 18t-18 41zM234 0v282q-58 12 -96 55t-56 129l-47 232h119
l43 -216q14 -67 38.5 -87.5t57.5 -20.5q24 0 43.5 10t32 35t20.5 64l43 215h119l-47 -232q-32 -158 -152 -184v-282h-118z" />
    <glyph glyph-name="Zacute" unicode="&#x179;" horiz-adv-x="567" 
d="M190 753l-26 70l206 77l32 -86zM50 0v92l314 505h-303v101h441v-93l-314 -504h329v-101h-467z" />
    <glyph glyph-name="zacute" unicode="&#x17a;" horiz-adv-x="478" 
d="M147 588l-27 70l207 77l31 -86zM47 0v69l226 351h-215v98h362v-70l-226 -351h237v-97h-384z" />
    <glyph glyph-name="Zdotaccent" unicode="&#x17b;" horiz-adv-x="567" 
d="M224 825q0 23 18.5 41.5t41.5 18.5q22 0 40 -18.5t18 -41.5t-18 -41t-40 -18q-24 0 -42 17.5t-18 41.5zM50 0v92l314 505h-303v101h441v-93l-314 -504h329v-101h-467z" />
    <glyph glyph-name="zdotaccent" unicode="&#x17c;" horiz-adv-x="478" 
d="M180 660q0 23 18 41.5t41 18.5t41 -18.5t18 -41.5t-18 -41t-41 -18q-24 0 -41.5 17.5t-17.5 41.5zM47 0v69l226 351h-215v98h362v-70l-226 -351h237v-97h-384z" />
    <glyph glyph-name="Zcaron" unicode="&#x17d;" horiz-adv-x="567" 
d="M140 829l49 70l94 -54l95 54l48 -70l-143 -78zM50 0v92l314 505h-303v101h441v-93l-314 -504h329v-101h-467z" />
    <glyph glyph-name="zcaron" unicode="&#x17e;" horiz-adv-x="478" 
d="M96 664l49 70l94 -54l94 54l49 -70l-143 -78zM47 0v69l226 351h-215v98h362v-70l-226 -351h237v-97h-384z" />
    <glyph glyph-name="florin" unicode="&#x192;" horiz-adv-x="472" 
d="M-42 -191l23 97q45 -15 80 -15q27 0 42.5 18t19.5 59l33 387h-90v77h97l12 141q6 76 52.5 121t121.5 45q54 0 105 -19l-28 -95q-46 13 -75 13q-59 0 -66 -77l-12 -129h127v-77h-133l-34 -399q-6 -75 -53 -120t-121 -45q-40 0 -101 18z" />
    <glyph glyph-name="Scommaaccent" unicode="&#x218;" horiz-adv-x="525" 
d="M42 26l21 98q113 -36 179 -36q57 0 85.5 27t28.5 72q0 3 -0.5 10t-5 22t-21 32t-39 29.5t-50.5 25t-35 15.5q-81 39 -116 84t-35 114q0 33 11.5 66.5t39.5 61.5t73.5 46t107.5 18q33 0 70.5 -6.5t102.5 -30.5l-30 -94q-85 30 -143 30q-52 0 -79.5 -24.5t-27.5 -66.5
q0 -23 12 -40.5t34.5 -32.5t86.5 -45.5t95 -56.5t45 -49.5t21.5 -50t7.5 -57.5q0 -90 -65.5 -145t-173.5 -55q-38 0 -79.5 7t-120.5 32zM191 -214l23 150h103l-41 -150h-85z" />
    <glyph glyph-name="scommaaccent" unicode="&#x219;" horiz-adv-x="442" 
d="M44 19l24 97q78 -30 134 -30q74 0 74 59q0 18 -13 32.5t-53 31t-55.5 23.5t-32 18.5t-31 26t-25 40t-10.5 62.5q0 25 9.5 51.5t32.5 49t59.5 37t85.5 14.5q70 0 134 -27l-28 -92q-61 21 -103 21q-33 0 -50.5 -15t-17.5 -39q0 -18 14.5 -32t64 -35.5t68.5 -34.5
t33.5 -27.5t27 -40t12.5 -64.5q0 -71 -54 -114.5t-140 -43.5q-77 0 -160 32zM154 -214l22 150h104l-42 -150h-84z" />
    <glyph glyph-name="circumflex" unicode="&#x2c6;" horiz-adv-x="413" 
d="M112 587l-49 71l143 77l143 -77l-48 -71l-95 55z" />
    <glyph glyph-name="caron" unicode="&#x2c7;" horiz-adv-x="413" 
d="M63 664l49 70l94 -54l95 54l48 -70l-143 -78z" />
    <glyph glyph-name="breve" unicode="&#x2d8;" horiz-adv-x="362" 
d="M51 727h80q0 -27 13.5 -41t36.5 -14t36.5 14t13.5 41h80q0 -57 -34 -95t-96 -38q-46 0 -77 21t-42 53t-11 59z" />
    <glyph glyph-name="dotaccent" unicode="&#x2d9;" horiz-adv-x="209" 
d="M46 660q0 23 18 41.5t41 18.5q22 0 40.5 -18.5t18.5 -41.5t-18.5 -41t-40.5 -18q-24 0 -41.5 17.5t-17.5 41.5z" />
    <glyph glyph-name="ring" unicode="&#x2da;" horiz-adv-x="281" 
d="M43 663q0 18 9.5 39t33.5 35t53 14q20 0 43 -8t39.5 -30t16.5 -50q0 -27 -16.5 -49t-40 -30t-42.5 -8q-40 0 -68 25t-28 62zM117 662q0 -9 6 -15.5t16 -6.5q9 0 17 7t8 17q0 8 -8 15.5t-17 7.5q-8 0 -15 -7.5t-7 -17.5z" />
    <glyph glyph-name="ogonek" unicode="&#x2db;" horiz-adv-x="242" 
d="M197 -125l11 -79q-31 -10 -67 -10q-41 0 -69 26t-28 65q0 65 68 123h101q-75 -59 -75 -104q0 -12 7.5 -19.5t19.5 -7.5t32 6z" />
    <glyph glyph-name="tilde" unicode="&#x2dc;" horiz-adv-x="408" 
d="M108 606l-45 52q29 40 52.5 50.5t43.5 10.5q23 0 52 -16.5t38 -16.5q24 0 50 30l45 -52q-29 -40 -52 -50t-43 -10q-22 0 -51 15.5t-39 15.5q-26 0 -51 -29z" />
    <glyph glyph-name="hungarumlaut" unicode="&#x2dd;" horiz-adv-x="442" 
d="M223 626l102 122l71 -63l-115 -111zM43 626l102 122l71 -63l-115 -111z" />
    <glyph glyph-name="Omega" unicode="&#x3a9;" horiz-adv-x="702" 
d="M53 0v89h126v56q-60 37 -93 97t-33 130v60q0 57 20.5 108t59 89.5t94.5 60t122 21.5t122 -22.5t95 -61.5t59.5 -90t20.5 -105v-60q0 -34 -11 -76.5t-41.5 -84t-73.5 -67.5v-55h126v-89h-228v212q26 11 51.5 34.5t40 60.5t14.5 74v44q0 29 -9.5 62.5t-31 60.5t-55.5 43
t-79 16q-56 0 -94.5 -23.5t-59 -64.5t-20.5 -94v-44q0 -37 14.5 -74t40 -60.5t51.5 -34.5v-212h-228z" />
    <glyph glyph-name="pi" unicode="&#x3c0;" horiz-adv-x="674" 
d="M126 0v420h-84v98h590v-98h-84v-420h-111v420h-200v-420h-111z" />
    <glyph glyph-name="Wgrave" unicode="&#x1e80;" horiz-adv-x="903" 
d="M332 814l32 86l206 -77l-26 -70zM182 0l-142 698h121l66 -356q7 -36 25 -181q13 120 27 181l45 194q12 53 43 85t84 32t84.5 -32.5t42.5 -84.5l44 -194q11 -50 28 -184q13 115 25 184l66 356h122l-142 -698h-135l-118 522q-4 22 -17 22q-14 0 -18 -22l-117 -522h-134z
" />
    <glyph glyph-name="wgrave" unicode="&#x1e81;" horiz-adv-x="751" 
d="M257 649l31 86l206 -77l-26 -70zM159 0l-137 518h123l51 -228q9 -41 28 -153q16 83 34 153l55 199h124l55 -199q15 -55 35 -156q20 118 22 129.5t5 26.5l51 228h124l-137 -518h-126l-91 337l-91 -337h-125z" />
    <glyph glyph-name="Wacute" unicode="&#x1e82;" horiz-adv-x="903" 
d="M359 753l-27 70l207 77l31 -86zM182 0l-142 698h121l66 -356q7 -36 25 -181q13 120 27 181l45 194q12 53 43 85t84 32t84.5 -32.5t42.5 -84.5l44 -194q11 -50 28 -184q13 115 25 184l66 356h122l-142 -698h-135l-118 522q-4 22 -17 22q-14 0 -18 -22l-117 -522h-134z" />
    <glyph glyph-name="wacute" unicode="&#x1e83;" horiz-adv-x="751" 
d="M283 588l-26 70l206 77l31 -86zM159 0l-137 518h123l51 -228q9 -41 28 -153q16 83 34 153l55 199h124l55 -199q15 -55 35 -156q20 118 22 129.5t5 26.5l51 228h124l-137 -518h-126l-91 337l-91 -337h-125z" />
    <glyph glyph-name="Wdieresis" unicode="&#x1e84;" horiz-adv-x="903" 
d="M480 825q0 23 18 41.5t41 18.5q22 0 40.5 -18.5t18.5 -41.5t-18.5 -41t-40.5 -18q-24 0 -41.5 17.5t-17.5 41.5zM304 825q0 23 18 41.5t41 18.5t40.5 -18.5t17.5 -41.5q0 -24 -17 -41.5t-41 -17.5q-23 0 -41 18t-18 41zM182 0l-142 698h121l66 -356q7 -36 25 -181
q13 120 27 181l45 194q12 53 43 85t84 32t84.5 -32.5t42.5 -84.5l44 -194q11 -50 28 -184q13 115 25 184l66 356h122l-142 -698h-135l-118 522q-4 22 -17 22q-14 0 -18 -22l-117 -522h-134z" />
    <glyph glyph-name="wdieresis" unicode="&#x1e85;" horiz-adv-x="751" 
d="M404 660q0 23 18 41.5t41 18.5t41 -18.5t18 -41.5t-18 -41t-41 -18q-24 0 -41.5 17.5t-17.5 41.5zM228 660q0 23 18 41.5t41 18.5t41 -18.5t18 -41.5q0 -24 -17.5 -41.5t-41.5 -17.5q-23 0 -41 18t-18 41zM159 0l-137 518h123l51 -228q9 -41 28 -153q16 83 34 153l55 199
h124l55 -199q15 -55 35 -156q20 118 22 129.5t5 26.5l51 228h124l-137 -518h-126l-91 337l-91 -337h-125z" />
    <glyph glyph-name="Ygrave" unicode="&#x1ef2;" 
d="M174 814l31 86l206 -77l-26 -70zM234 0v282q-58 12 -96 55t-56 129l-47 232h119l43 -216q14 -67 38.5 -87.5t57.5 -20.5q24 0 43.5 10t32 35t20.5 64l43 215h119l-47 -232q-32 -158 -152 -184v-282h-118z" />
    <glyph glyph-name="ygrave" unicode="&#x1ef3;" horiz-adv-x="525" 
d="M142 649l31 86l206 -77l-26 -70zM81 174l-46 344h114l44 -329q4 -31 14.5 -52t28 -29t35.5 -8q35 0 71 14l21 404h112l-28 -549q-4 -81 -50.5 -125.5t-135.5 -44.5h-100l-7 98h110q28 0 44 12t21 30.5t6 35.5l2 40q-43 -15 -76 -15q-156 0 -180 174z" />
    <glyph glyph-name="endash" unicode="&#x2013;" horiz-adv-x="500" 
d="M0 237v94h500v-94h-500z" />
    <glyph glyph-name="emdash" unicode="&#x2014;" horiz-adv-x="1000" 
d="M0 237v94h1000v-94h-1000z" />
    <glyph glyph-name="quoteleft" unicode="&#x2018;" horiz-adv-x="260" 
d="M60 458l76 240h83l-54 -240h-105z" />
    <glyph glyph-name="quoteright" unicode="&#x2019;" horiz-adv-x="261" 
d="M58 458l54 240h106l-77 -240h-83z" />
    <glyph glyph-name="quotesinglbase" unicode="&#x201a;" horiz-adv-x="260" 
d="M49 -115l54 240h106l-77 -240h-83z" />
    <glyph glyph-name="quotedblleft" unicode="&#x201c;" horiz-adv-x="438" 
d="M235 458l77 240h83l-54 -240h-106zM59 458l77 240h83l-55 -240h-105z" />
    <glyph glyph-name="quotedblright" unicode="&#x201d;" horiz-adv-x="437" 
d="M231 458l54 240h105l-76 -240h-83zM54 458l55 240h105l-77 -240h-83z" />
    <glyph glyph-name="quotedblbase" unicode="&#x201e;" horiz-adv-x="445" 
d="M239 -115l54 240h105l-76 -240h-83zM54 -115l55 240h105l-77 -240h-83z" />
    <glyph glyph-name="dagger" unicode="&#x2020;" horiz-adv-x="479" 
d="M183 0v402h-110v93h110v161h113v-161h109v-93h-109v-402h-113z" />
    <glyph glyph-name="daggerdbl" unicode="&#x2021;" horiz-adv-x="480" 
d="M184 0v172h-111v94h111v126h-111v93h111v172h112v-172h111v-93h-111v-126h111v-94h-111v-172h-112z" />
    <glyph glyph-name="bullet" unicode="&#x2022;" horiz-adv-x="508" 
d="M98 286q0 39 20.5 76.5t58 58t76.5 20.5q64 0 110 -45.5t46 -109.5q0 -63 -46 -108.5t-110 -45.5q-39 0 -76.5 20.5t-58 57.5t-20.5 76z" />
    <glyph glyph-name="ellipsis" unicode="&#x2026;" horiz-adv-x="845" 
d="M657 59q0 29 20.5 50t48.5 21t48.5 -21t20.5 -50t-20.5 -49.5t-48.5 -20.5t-48.5 20.5t-20.5 49.5zM422 -11q-28 0 -48.5 20.5t-20.5 49.5t20.5 50t48.5 21q29 0 49.5 -21t20.5 -50t-20.5 -49.5t-49.5 -20.5zM49 59q0 29 20.5 50t48.5 21t48.5 -21t20.5 -50t-20.5 -49.5
t-48.5 -20.5t-48.5 20.5t-20.5 49.5z" />
    <glyph glyph-name="perthousand" unicode="&#x2030;" horiz-adv-x="1241" 
d="M66 479v58q0 46 21.5 82.5t55.5 56t77 19.5q35 0 71 -16t60 -55.5t24 -86.5v-58q0 -22 -7 -48t-24.5 -50t-48 -41.5t-73.5 -17.5q-70 0 -113 46.5t-43 110.5zM263 0l272 688h83l-273 -688h-82zM150 531v-46q0 -28 10.5 -49.5t27.5 -30t34 -8.5q33 0 51.5 24.5t18.5 63.5
v46q0 28 -10.5 50t-27.5 30.5t-34 8.5q-16 0 -33 -8.5t-27 -30t-10 -50.5zM866 148v58q0 46 21.5 82t55.5 55.5t77 19.5q35 0 71 -16t60 -55t24 -86v-58q0 -22 -7 -48t-24.5 -50t-48 -41.5t-73.5 -17.5q-70 0 -113 46.5t-43 110.5zM504 148v58q0 46 21.5 82t55.5 55.5
t77 19.5q35 0 71 -16t60 -55t24 -86v-58q0 -22 -7 -48t-24.5 -50t-48 -41.5t-73.5 -17.5q-70 0 -113 46.5t-43 110.5zM949 200v-46q0 -28 10.5 -49.5t28 -30t34.5 -8.5q33 0 51 25t18 63v46q0 39 -18.5 63.5t-52.5 24.5q-16 0 -33 -8.5t-27.5 -30t-10.5 -49.5zM588 200v-46
q0 -28 10.5 -49.5t27.5 -30t34 -8.5q33 0 51.5 24.5t18.5 63.5v46q0 28 -10 49.5t-27.5 30t-34.5 8.5q-33 0 -51.5 -24.5t-18.5 -63.5z" />
    <glyph glyph-name="guilsinglleft" unicode="&#x2039;" horiz-adv-x="375" 
d="M202 73l-139 198l139 199l90 -60l-103 -139l103 -140z" />
    <glyph glyph-name="guilsinglright" unicode="&#x203a;" horiz-adv-x="376" 
d="M83 131l104 140l-103 139l90 60l138 -199l-138 -198z" />
    <glyph glyph-name="Euro" unicode="&#x20ac;" horiz-adv-x="553" 
d="M43 236v74h48v76h-48v76h48q2 55 19 100.5t49 79t80 51.5t110 18q84 0 169 -29l-27 -94q-83 23 -141 23q-71 0 -103.5 -38t-36.5 -111h196l-10 -76h-187v-76h197l-10 -74h-186q2 -44 16 -79t46 -52.5t78 -17.5q55 0 141 22l27 -93q-85 -29 -169 -29q-46 0 -91.5 12
t-81.5 41.5t-59 78t-26 117.5h-48z" />
    <glyph glyph-name="trademark" unicode="&#x2122;" horiz-adv-x="766" 
d="M333 358l37 340h77l81 -218l80 218h76l39 -340h-77l-18 198l-61 -167h-79l-60 164l-18 -195h-77zM141 358v275h-91v65h259v-65h-91v-275h-77z" />
    <glyph glyph-name="uni2206" unicode="&#x2206;" horiz-adv-x="739" 
d="M16 0l293 706h122l292 -706h-707zM173 98h393l-195 475z" />
    <glyph glyph-name="product" unicode="&#x220f;" horiz-adv-x="731" 
d="M126 -101v699h-84v100h647v-100h-85v-699h-111v699h-255v-699h-112z" />
    <glyph glyph-name="summation" unicode="&#x2211;" horiz-adv-x="616" 
d="M57 -85v95l270 298l-270 294v96h501v-101h-348l264 -289l-264 -292h348v-101h-501z" />
    <glyph glyph-name="radical" unicode="&#x221a;" horiz-adv-x="643" 
d="M264 0l-150 418h-102v100h184l128 -375l193 598h116l-250 -741h-119z" />
    <glyph glyph-name="integral" unicode="&#x222b;" horiz-adv-x="356" 
d="M-48 -190l16 97q52 -16 82 -16q56 0 56 77v604q0 76 44 121t119 45q45 0 103 -17l-14 -96q-45 13 -77 13q-59 0 -59 -77v-603q0 -76 -45 -121.5t-121 -45.5q-39 0 -104 19z" />
    <glyph glyph-name="approxequal" unicode="&#x2248;" horiz-adv-x="578" 
d="M149 304l-60 63q63 77 140 77q38 0 78 -23t52.5 -26t18.5 -3q18 0 39.5 10.5t40.5 31.5l61 -63q-63 -77 -141 -77q-22 0 -42 7t-54 26.5t-53 19.5q-38 0 -80 -43zM149 115l-60 62q62 78 140 78q22 0 42 -7t54 -26.5t53 -19.5q18 0 40 12t40 30l61 -62q-19 -24 -43.5 -43
t-50.5 -27t-47 -8t-40.5 6.5t-54 27t-54.5 20.5q-18 0 -39.5 -12t-40.5 -31z" />
    <glyph glyph-name="notequal" unicode="&#x2260;" horiz-adv-x="637" 
d="M83 152v102h161l44 116h-205v103h244l43 116l80 -28l-33 -88h136v-103h-175l-44 -116h219v-102h-258l-43 -115l-79 28l33 87h-123z" />
    <glyph glyph-name="lessequal" unicode="&#x2264;" horiz-adv-x="567" 
d="M83 239v79l363 189l35 -100l-261 -129l261 -129l-35 -99zM84 -95v100h397v-100h-397z" />
    <glyph glyph-name="greaterequal" unicode="&#x2265;" horiz-adv-x="567" 
d="M120 50l-35 99l261 129l-261 129l35 100l363 -189v-79zM85 -95v100h397v-100h-397z" />
    <glyph glyph-name="lozenge" unicode="&#x25ca;" horiz-adv-x="716" 
d="M359 -5l-306 334l305 333l304 -334zM358 154l150 174l-150 175l-150 -174z" />
    <glyph glyph-name="uniF8FF" unicode="&#xf8ff;" horiz-adv-x="0" 
 />
    <glyph glyph-name="glyph361" horiz-adv-x="253" 
d="M63 -214l22 150h103l-41 -150h-84z" />
    <glyph glyph-name="zero.oldstyle" 
d="M54 265v39q0 130 62.5 203.5t176.5 73.5q57 0 102 -19.5t75.5 -56t46 -88t15.5 -113.5v-39q0 -131 -62 -204.5t-177 -73.5q-113 0 -176 75t-63 203zM172 304v-39q0 -94 31 -136.5t90 -42.5q121 0 121 179v39q0 178 -121 178q-59 0 -90 -42.5t-31 -135.5z" />
    <glyph glyph-name="one.oldstyle" horiz-adv-x="486" 
d="M70 0v97h145v352l-138 -55l-42 92l208 81h88v-470h121v-97h-382z" />
    <glyph glyph-name="two.oldstyle" horiz-adv-x="503" 
d="M44 0v59q0 39 14 77.5t49.5 72.5t112 78t93 68t16.5 46q0 35 -26 58t-75 23q-54 0 -139 -40l-38 90q46 21 90 35t88 14q46 0 86 -12.5t69.5 -36t46 -57.5t16.5 -74q0 -22 -7.5 -45.5t-24.5 -45.5t-40.5 -41.5t-76 -52.5t-66.5 -43t-27 -23t-19.5 -26t-6.5 -27h272v-73
q0 -11 -6.5 -17.5t-17.5 -6.5h-383z" />
    <glyph glyph-name="three.oldstyle" horiz-adv-x="470" 
d="M19 -113l27 94q63 -25 131 -25q65 0 96.5 33t31.5 81q0 60 -36 89t-102 29h-51v95h45q33 0 62.5 10.5t46 36.5t16.5 57q0 24 -10.5 44.5t-34 35.5t-62.5 15q-58 0 -121 -26l-33 89q81 36 154 36q47 0 88 -12.5t71.5 -36.5t48 -60t17.5 -81q0 -29 -14 -61t-38 -55t-48 -36
q28 -12 56.5 -35t45.5 -59t17 -75q0 -43 -15.5 -82t-46.5 -68.5t-78 -46t-106 -16.5q-81 0 -158 30z" />
    <glyph glyph-name="four.oldstyle" horiz-adv-x="572" 
d="M54 149l91 419h109l-87 -419q-8 -36 23 -36h109v251l113 19v-270h124v-97h-124v-146h-113v146h-138q-68 0 -95 32t-12 101z" />
    <glyph glyph-name="five.oldstyle" horiz-adv-x="525" 
d="M35 -103l24 96q49 -17 86 -27t77 -10q26 0 51.5 8t47 27.5t32 49.5t10.5 56q0 40 -17 72.5t-46 45t-61 12.5q-67 0 -137 -31l-42 67v305h389l-7 -98h-275v-156q15 3 39 6t39 3q110 0 173 -62t63 -164q0 -40 -11.5 -76t-32 -64.5t-49.5 -49.5t-71.5 -35.5t-96.5 -14.5
q-36 0 -77.5 7.5t-107.5 32.5z" />
    <glyph glyph-name="six.oldstyle" horiz-adv-x="560" 
d="M52 223v252q0 48 14.5 90.5t44 75.5t76 51.5t106.5 18.5q84 0 171 -32l-28 -94q-78 27 -140 27q-46 0 -74.5 -18.5t-41 -49.5t-12.5 -69v-46q61 34 120 34q48 0 89.5 -15.5t72 -46t47.5 -76t17 -102.5q0 -55 -18 -99.5t-49.5 -75t-73.5 -46t-90 -15.5q-47 0 -89.5 15.5
t-74 46t-49.5 75t-18 99.5zM168 335v-114q0 -27 9 -59t36 -54t70 -22q29 0 56 13t42 46.5t15 76.5q0 29 -9 63t-36 58t-71 24q-54 0 -112 -32z" />
    <glyph glyph-name="seven.oldstyle" horiz-adv-x="504" 
d="M280 -130h-122q1 45 8 109.5t30.5 139.5t76 188t72.5 162h-321v99h450v-77q-23 -65 -65.5 -157t-59.5 -130.5t-33 -90t-26 -110.5t-10 -133z" />
    <glyph glyph-name="eight.oldstyle" horiz-adv-x="557" 
d="M162 358q-59 35 -79.5 77.5t-20.5 87.5q0 51 29 96.5t81.5 68.5t106.5 23q31 0 66.5 -9t73 -34t57 -64.5t19.5 -80.5q0 -27 -9.5 -56.5t-32.5 -54t-57 -43.5q54 -31 86 -75.5t32 -113.5q0 -31 -11.5 -64t-44 -65t-81.5 -48t-98 -16q-36 0 -76 9.5t-79.5 35.5t-59.5 66.5
t-20 81.5q0 35 12 68.5t39.5 61t66.5 48.5zM288 418q54 26 71.5 52t17.5 53q0 26 -15.5 48.5t-38.5 31.5t-44 9q-45 0 -72 -26.5t-27 -62.5q0 -28 20.5 -52.5t87.5 -52.5zM269 308q-65 -31 -86 -62t-21 -66q0 -38 30.5 -66t86.5 -28t86.5 28t30.5 66q0 36 -24.5 66
t-102.5 62z" />
    <glyph glyph-name="nine.oldstyle" horiz-adv-x="565" 
d="M100 -107l28 94q89 -31 140 -31q46 0 74.5 18.5t41.5 49.5t13 69v48q-60 -33 -121 -33q-48 0 -89.5 15t-72.5 45t-48 75t-17 102q0 40 10.5 76t29 64t44.5 48t63.5 34t84.5 14t89.5 -16t74.5 -46.5t50 -75t18 -98.5v-252q0 -48 -14.5 -90.5t-44 -75.5t-76.5 -51.5
t-107 -18.5q-39 0 -84 10t-87 26zM397 236v110q0 42 -16.5 76t-43.5 47t-56 13t-56 -13t-42.5 -47t-15.5 -77q0 -45 16.5 -80.5t44 -48.5t56.5 -13q53 0 113 33z" />
    <glyph glyph-name="dollar.oldstyle" horiz-adv-x="529" 
d="M40 26l21 98q51 -17 92.5 -26.5t87.5 -9.5q56 0 84.5 27t28.5 72q0 32 -21.5 57t-89.5 51.5t-96.5 42.5t-49 37t-33 52t-12.5 72q0 75 46.5 123.5t125.5 62.5v117h90v-113q57 -4 143 -35l-30 -94q-42 15 -75 22.5t-68 7.5q-52 0 -79.5 -24.5t-27.5 -66.5q0 -18 9.5 -35.5
t33.5 -31.5t60.5 -29t47.5 -19q60 -25 92 -54t45.5 -65t13.5 -78q0 -75 -46.5 -127t-125.5 -67v-117h-90v112q-66 3 -177 38z" />
    <glyph glyph-name="cent.oldstyle" horiz-adv-x="489" 
d="M227 -124v116q-54 8 -92 36.5t-60.5 77t-22.5 117.5v73q0 93 44.5 154.5t130.5 75.5v116h90v-114q57 -4 124 -26l-26 -94q-72 24 -134 24q-111 0 -111 -145v-54q0 -32 7.5 -67t32.5 -57.5t71 -22.5q62 0 134 25l26 -95q-73 -22 -124 -27v-113h-90z" />
    <glyph glyph-name="sterling.oldstyle" horiz-adv-x="528" 
d="M59 0v88q27 38 40.5 73t13.5 76v54h-62v78h62v136q0 62 27.5 111t79 72t109.5 23q73 0 157 -35l-31 -90q-62 25 -120 25q-52 0 -78 -26t-26 -93v-123h197v-78h-197v-52q0 -76 -54 -144h293v-71q0 -11 -6.5 -17.5t-17.5 -6.5h-387z" />
    <glyph glyph-name="Euro.oldstyle" horiz-adv-x="556" 
d="M45 236v74h48v76h-48v76h48q2 55 19 100.5t49 79t80.5 51.5t109.5 18q83 0 170 -29l-28 -94q-83 23 -141 23q-71 0 -103.5 -38t-36.5 -111h196l-9 -76h-188v-76h197l-9 -74h-187q2 -44 16 -79t46 -52.5t78 -17.5q55 0 141 22l28 -93q-87 -29 -170 -29q-46 0 -91.5 12
t-85.5 45.5t-59.5 85t-21.5 106.5h-48z" />
    <glyph glyph-name="yen.oldstyle" horiz-adv-x="534" 
d="M73 127v78h135v85h-135v78h97l-164 330h117l143 -294l145 294h117l-167 -330h98v-78h-135v-85h135v-78h-135v-127h-116v127h-135z" />
    <glyph glyph-name="numbersign.oldstyle" horiz-adv-x="529" 
d="M122 157v126h-65v101h65v87h-65v101h65v126h101v-126h82v126h101v-126h66v-101h-66v-87h66v-101h-66v-126h-101v126h-82v-126h-101zM223 384h82v87h-82v-87z" />
    <glyph glyph-name="zero.tnum" 
d="M51 270v159q0 48 9 90.5t27 76t48.5 61.5t73 41t84.5 13q57 0 102.5 -20t76.5 -57t47 -89.5t16 -115.5v-159q0 -48 -10.5 -97.5t-41.5 -95.5t-82 -68t-108 -22q-56 0 -101.5 20t-77 57t-47.5 90t-16 116zM168 414v-129q0 -199 125 -199q124 0 124 199v129q0 198 -124 198
q-60 0 -92.5 -46.5t-32.5 -151.5z" />
    <glyph glyph-name="one.tnum" 
d="M122 0v97h145v483l-137 -57l-42 91l208 84h87v-601h122v-97h-383z" />
    <glyph glyph-name="two.tnum" 
d="M78 0v80q0 47 15 94.5t53.5 91t104 89.5t91 70t35 46.5t9.5 42.5q0 29 -12 51t-35.5 34.5t-59.5 12.5q-27 0 -61.5 -7.5t-88.5 -31.5l-36 90q52 24 96 36t91 12q37 0 76.5 -10t72 -34t54 -62.5t21.5 -90.5q0 -55 -29 -103t-105.5 -103.5t-94.5 -70t-36.5 -36t-30.5 -47
t-12 -57.5h311v-73q0 -11 -6.5 -17.5t-17.5 -6.5h-405z" />
    <glyph glyph-name="three.tnum" 
d="M88 17l27 94q63 -25 131 -25q65 0 96.5 33t31.5 81q0 60 -36 89t-102 29h-51v95h45q33 0 62.5 10.5t46 36.5t16.5 57q0 24 -10.5 44.5t-34 35.5t-62.5 15q-58 0 -121 -26l-33 89q81 36 154 36q47 0 88 -12.5t71.5 -36.5t48 -60t17.5 -81q0 -29 -14 -61t-38 -55t-48 -36
q28 -12 56.5 -35t45.5 -59t17 -75q0 -43 -15.5 -82t-46.5 -68.5t-78 -46t-106 -16.5q-81 0 -158 30z" />
    <glyph glyph-name="four.tnum" 
d="M62 279l91 419h109l-87 -419q-8 -36 23 -36h109v251l113 19v-270h124v-97h-124v-146h-113v146h-138q-68 0 -95 32t-12 101z" />
    <glyph glyph-name="five.tnum" 
d="M68 27l25 96q47 -17 85 -27t78 -10q25 0 50.5 8t47 27.5t32 49.5t10.5 56q0 40 -17 72.5t-46 45t-61 12.5q-66 0 -136 -31l-43 67v305h390l-8 -98h-275v-156q15 3 39 6t39 3q110 0 173 -62t63 -164q0 -54 -19.5 -99t-55 -76.5t-83.5 -48t-102 -16.5q-36 0 -77.5 7.5
t-108.5 32.5z" />
    <glyph glyph-name="six.tnum" 
d="M69 223v252q0 48 14.5 90.5t44 75.5t76 51.5t106.5 18.5q40 0 85.5 -8.5t85.5 -23.5l-28 -94q-78 27 -140 27t-95 -36t-33 -101v-46q61 34 120 34q48 0 89.5 -15.5t72.5 -46t48 -76t17 -102.5q0 -41 -12 -82.5t-40.5 -75.5t-74 -56t-105.5 -22q-47 0 -89.5 15.5t-74 46
t-49.5 75t-18 99.5zM185 335v-114q0 -42 15 -73t39.5 -46.5t60.5 -15.5q59 0 86.5 39.5t27.5 96.5q0 29 -9 63t-36.5 58t-71.5 24q-54 0 -112 -32z" />
    <glyph glyph-name="seven.tnum" 
d="M331 0h-122q1 45 8 109.5t30.5 139.5t76 188t72.5 162h-321v99h450v-77q-23 -65 -65.5 -157t-59.5 -130.5t-33 -90t-26 -110.5t-10 -133z" />
    <glyph glyph-name="eight.tnum" 
d="M176 358q-99 58 -99 165q0 31 11.5 63.5t38.5 60t69.5 46t96.5 18.5q31 0 66.5 -9t73 -34t57 -64.5t19.5 -80.5q0 -27 -9.5 -56.5t-32.5 -54t-57 -43.5q54 -31 86 -75.5t32 -113.5q0 -31 -11.5 -64t-40 -61.5t-75 -48t-108.5 -19.5q-36 0 -76 9.5t-79.5 35.5t-59.5 66.5
t-20 81.5q0 35 12 68.5t39.5 61t66.5 48.5zM302 418q54 26 71.5 52t17.5 53q0 26 -15.5 48.5t-38.5 31.5t-44 9t-44.5 -9t-38.5 -31.5t-15 -48.5q0 -28 20.5 -52.5t86.5 -52.5zM283 308q-65 -31 -86 -62t-21 -66q0 -23 13 -45.5t41 -35.5t63 -13q56 0 86.5 28t30.5 66
q0 36 -24.5 66t-102.5 62z" />
    <glyph glyph-name="nine.tnum" 
d="M111 23l28 94q88 -31 140 -31q45 0 74 18.5t42 49.5t13 69v48q-60 -33 -121 -33q-48 0 -89.5 15t-72.5 45t-48 75t-17 102q0 40 10.5 76t29 64t44.5 48t63.5 34t84.5 14t89.5 -16t74.5 -46.5t50 -75t18 -98.5v-252q0 -48 -14.5 -90.5t-44 -75.5t-76.5 -51.5t-107 -18.5
q-39 0 -84.5 10t-86.5 26zM408 366v110q0 42 -15 73t-40 47t-61 16q-29 0 -56 -13t-42.5 -47t-15.5 -77q0 -28 9 -62t36 -57t72 -23q52 0 113 33z" />
    <glyph glyph-name="dollar.tnum" 
d="M68 26l22 98q51 -17 92.5 -26.5t86.5 -9.5q57 0 85 27t28 72q0 23 -9.5 40.5t-25 29t-30.5 19t-76 32t-85 42t-38.5 35.5t-25.5 45t-11 69q0 75 46.5 123.5t124.5 62.5v117h90v-113q56 -3 144 -35l-31 -94q-42 15 -75 22.5t-68 7.5q-51 0 -78.5 -24.5t-27.5 -66.5
q0 -23 12 -39.5t34 -29.5t85 -38.5t91 -46.5t42.5 -39.5t25.5 -47.5t11 -71q0 -75 -46.5 -127t-125.5 -67v-117h-90v112q-66 3 -177 38z" />
    <glyph glyph-name="cent.tnum" 
d="M273 -124v116q-85 13 -130 75.5t-45 155.5v73q0 92 45 154t130 76v116h90v-114q58 -4 125 -26l-26 -94q-72 24 -134 24q-112 0 -112 -145v-54q0 -147 112 -147q62 0 134 25l26 -95q-73 -22 -125 -27v-113h-90z" />
    <glyph glyph-name="sterling.tnum" 
d="M90 0v88q27 38 40.5 73t13.5 76v54h-62v78h62v136q0 62 25 107t73.5 72t117.5 27q74 0 158 -35l-32 -90q-62 25 -119 25q-53 0 -78.5 -26t-25.5 -93v-123h196v-78h-196v-52q0 -75 -55 -144h293v-71q0 -11 -6.5 -17.5t-17.5 -6.5h-387z" />
    <glyph glyph-name="Euro.tnum" 
d="M66 236v74h47v76h-47v76h47q2 55 19 100.5t49.5 79t80.5 51.5t110 18q84 0 169 -29l-27 -94q-83 23 -141 23q-71 0 -103.5 -38t-36.5 -111h196l-10 -76h-187v-76h197l-10 -74h-186q2 -44 16 -79t46 -52.5t78 -17.5q55 0 141 22l27 -93q-85 -29 -169 -29q-46 0 -91.5 12
t-82 41.5t-59.5 78t-26 117.5h-47z" />
    <glyph glyph-name="yen.tnum" 
d="M99 127v78h135v85h-135v78h97l-164 330h117l143 -294l145 294h117l-167 -330h98v-78h-135v-85h135v-78h-135v-127h-116v127h-135z" />
    <glyph glyph-name="numbersign.tnum" 
d="M150 157v126h-65v101h65v87h-65v101h65v126h101v-126h82v126h101v-126h66v-101h-66v-87h66v-101h-66v-126h-101v126h-82v-126h-101zM251 384h82v87h-82v-87z" />
    <glyph glyph-name="zero.tnum.oldstyle" 
d="M54 265v39q0 130 62.5 203.5t176.5 73.5q57 0 102 -19.5t75.5 -56t46 -88t15.5 -113.5v-39q0 -131 -62 -204.5t-177 -73.5q-113 0 -176 75t-63 203zM172 304v-39q0 -94 31 -136.5t90 -42.5q121 0 121 179v39q0 178 -121 178q-59 0 -90 -42.5t-31 -135.5z" />
    <glyph glyph-name="one.tnum.oldstyle" 
d="M119 0v97h145v353l-138 -55l-42 91l208 82h88v-471h121v-97h-382z" />
    <glyph glyph-name="two.tnum.oldstyle" 
d="M88 0v59q0 39 14 77.5t49.5 72.5t112 78t93 68t16.5 46q0 35 -26 58t-75 23q-54 0 -139 -40l-38 90q46 21 90 35t88 14q46 0 86 -12.5t69.5 -36t46 -57.5t16.5 -74q0 -22 -7.5 -45.5t-24.5 -45.5t-40.5 -41.5t-76 -52.5t-66.5 -43t-27 -23t-19.5 -26t-6.5 -27h272v-73
q0 -11 -6.5 -17.5t-17.5 -6.5h-383z" />
    <glyph glyph-name="three.tnum.oldstyle" 
d="M86 -113l26 94q65 -25 131 -25q65 0 96.5 33t31.5 81q0 60 -36 89t-101 29h-52v95h46q33 0 62 10.5t45.5 36.5t16.5 57q0 24 -10.5 44.5t-34 35.5t-62.5 15q-57 0 -120 -26l-33 89q81 36 153 36q47 0 88 -12.5t72 -36.5t48 -60t17 -81q0 -29 -14 -61t-38 -55t-48 -36
q28 -12 57 -35t45.5 -59t16.5 -75q0 -43 -15.5 -82t-46.5 -68.5t-78 -46t-106 -16.5q-81 0 -157 30z" />
    <glyph glyph-name="four.tnum.oldstyle" 
d="M65 149l91 419h110l-87 -419q-8 -36 22 -36h110v251l113 19v-270h124v-97h-124v-146h-113v146h-138q-68 0 -95.5 32t-12.5 101z" />
    <glyph glyph-name="five.tnum.oldstyle" 
d="M68 -103l25 96q47 -17 85 -27t78 -10q25 0 50.5 8t47 27.5t32 49.5t10.5 56q0 40 -17 72.5t-46 45t-61 12.5q-66 0 -136 -31l-43 67v305h390l-8 -98h-275v-156q15 3 39 6t39 3q110 0 173 -62t63 -164q0 -54 -19.5 -99t-55 -76.5t-83.5 -48t-102 -16.5q-36 0 -77.5 7.5
t-108.5 32.5z" />
    <glyph glyph-name="six.tnum.oldstyle" 
d="M62 223v252q0 61 20 106.5t53.5 75t77.5 42t89 12.5q86 0 171 -32l-28 -94q-76 27 -140 27q-45 0 -73.5 -18.5t-41 -49.5t-12.5 -69v-46q61 34 120 34q48 0 89.5 -15.5t72 -46t47.5 -76t17 -102.5q0 -55 -18 -99.5t-49.5 -75t-73.5 -46t-90 -15.5q-47 0 -89.5 15.5
t-74 46t-49.5 75t-18 99.5zM178 335v-114q0 -27 9 -59t36 -54t70 -22q29 0 55.5 13t42 46.5t15.5 76.5q0 29 -9 63t-36 58t-71 24q-54 0 -112 -32z" />
    <glyph glyph-name="seven.tnum.oldstyle" 
d="M323 -130h-121q1 69 11 131.5t30 127t73 177.5t73 163h-321v99h450v-77q-3 -8 -11 -29t-19 -47.5t-60.5 -133t-67 -163t-27 -115.5t-10.5 -133z" />
    <glyph glyph-name="eight.tnum.oldstyle" 
d="M176 358q-99 58 -99 165q0 31 11.5 63.5t38.5 60t69.5 46t96.5 18.5q31 0 66.5 -9t73 -34t57 -64.5t19.5 -80.5q0 -27 -9.5 -56.5t-32.5 -54t-57 -43.5q54 -31 86 -75.5t32 -113.5q0 -31 -11.5 -64t-40 -61.5t-75 -48t-108.5 -19.5q-36 0 -76 9.5t-79.5 35.5t-59.5 66.5
t-20 81.5q0 35 12 68.5t39.5 61t66.5 48.5zM302 418q54 26 71.5 52t17.5 53q0 26 -15.5 48.5t-38.5 31.5t-44 9t-44.5 -9t-38.5 -31.5t-15 -48.5q0 -28 20.5 -52.5t86.5 -52.5zM283 308q-65 -31 -86 -62t-21 -66q0 -23 13 -45.5t41 -35.5t63 -13q56 0 86.5 28t30.5 66
q0 36 -24.5 66t-102.5 62z" />
    <glyph glyph-name="nine.tnum.oldstyle" 
d="M111 -107l28 94q88 -31 140 -31q45 0 74 18.5t42 49.5t13 69v48q-60 -33 -121 -33q-48 0 -89.5 15t-72.5 45t-48 75t-17 102q0 40 10.5 76t29 64t44.5 48t63.5 34t84.5 14t89.5 -16t74.5 -46.5t50 -75t18 -98.5v-252q0 -48 -14.5 -90.5t-44 -75.5t-76.5 -51.5t-107 -18.5
q-39 0 -84.5 10t-86.5 26zM408 236v110q0 42 -15 73t-40 47t-61 16q-29 0 -56 -13t-42.5 -47t-15.5 -77q0 -28 9 -62t36 -57t72 -23q52 0 113 33z" />
    <glyph glyph-name="dollar.tnum.oldstyle" 
d="M73 26l21 98q51 -17 92.5 -26.5t86.5 -9.5q57 0 85.5 27t28.5 72q0 32 -21.5 57t-89.5 51.5t-96.5 42.5t-49 37t-33 52t-12.5 72q0 75 46.5 123.5t125.5 62.5v117h90v-113q55 -3 143 -35l-30 -94q-85 30 -143 30q-52 0 -79.5 -24.5t-27.5 -66.5q0 -18 9.5 -35.5
t33.5 -31.5t60.5 -29t47.5 -19q60 -25 92 -54t45.5 -65t13.5 -78q0 -75 -46.5 -127t-126.5 -67v-117h-90v112q-22 1 -58.5 7t-117.5 31z" />
    <glyph glyph-name="cent.tnum.oldstyle" 
d="M273 -124v116q-54 8 -92 36.5t-60.5 77t-22.5 117.5v73q0 93 44.5 154.5t130.5 75.5v116h90v-114q57 -4 124 -26l-26 -94q-72 24 -134 24q-112 0 -112 -145v-54q0 -147 112 -147q62 0 134 25l26 -95q-73 -22 -124 -27v-113h-90z" />
    <glyph glyph-name="sterling.tnum.oldstyle" 
d="M90 0v88q27 38 40.5 73t13.5 76v54h-62v78h62v136q0 62 25 107t73.5 72t117.5 27q74 0 158 -35l-32 -90q-62 25 -119 25q-53 0 -78.5 -26t-25.5 -93v-123h196v-78h-196v-52q0 -75 -55 -144h293v-71q0 -11 -6.5 -17.5t-17.5 -6.5h-387z" />
    <glyph glyph-name="Euro.tnum.oldstyle" 
d="M69 236v74h47v76h-47v76h47q2 55 19 100.5t49.5 79t80.5 51.5t110 18q82 0 169 -29l-28 -94q-81 23 -141 23q-45 0 -74.5 -15.5t-45.5 -47.5t-20 -86h196l-9 -76h-187v-76h196l-9 -74h-187q3 -45 15.5 -76.5t41.5 -52t83 -20.5q57 0 141 22l28 -93q-87 -29 -169 -29
q-46 0 -91.5 12t-82 41.5t-59.5 78t-26 117.5h-47z" />
    <glyph glyph-name="yen.tnum.oldstyle" 
d="M99 127v78h135v85h-135v78h97l-164 330h117l143 -294l145 294h117l-167 -330h98v-78h-135v-85h135v-78h-135v-127h-116v127h-135z" />
    <glyph glyph-name="numbersign.tnum.oldstyle" 
d="M150 157v126h-65v101h65v87h-65v101h65v126h101v-126h82v126h101v-126h66v-101h-66v-87h66v-101h-66v-126h-101v126h-82v-126h-101zM251 384h82v87h-82v-87z" />
    <glyph glyph-name="a.sc" horiz-adv-x="571" 
d="M34 0l127 480q9 32 28.5 56.5t45.5 34.5t50 10q23 0 48.5 -10t45.5 -35t28 -56l130 -480h-119l-36 147h-194l-36 -147h-118zM211 241h148l-53 213q-2 10 -8 16.5t-13 6.5q-15 0 -21 -23z" />
    <glyph glyph-name="b.sc" horiz-adv-x="513" 
d="M72 0v543q109 38 176 38q32 0 66 -8.5t62.5 -29.5t47 -53.5t18.5 -75.5q0 -40 -18 -68t-44 -43q37 -15 58.5 -40.5t27.5 -50t6 -40.5q0 -44 -25 -85.5t-76 -64t-111 -22.5h-188zM188 340h58q17 0 34.5 7.5t28.5 26t11 40.5q0 31 -19 50.5t-54 19.5q-32 0 -59 -10v-134z
M188 97h68q43 0 68.5 20.5t25.5 54.5q0 36 -23 57.5t-70 21.5h-69v-154z" />
    <glyph glyph-name="c.sc" horiz-adv-x="483" 
d="M53 198v172q0 100 57.5 155.5t157.5 55.5q86 0 167 -25l-20 -95q-71 21 -132 21q-55 0 -84 -27t-29 -94v-153q0 -60 25.5 -91t87.5 -31q57 0 132 20l20 -94q-82 -25 -167 -25q-100 0 -157.5 55.5t-57.5 155.5z" />
    <glyph glyph-name="d.sc" horiz-adv-x="562" 
d="M72 0v568h217q112 0 166 -52t54 -160v-145q0 -107 -54 -159t-166 -52h-217zM188 99h98q59 0 82 27t23 93v129q0 66 -23 93.5t-82 27.5h-98v-370z" />
    <glyph glyph-name="e.sc" horiz-adv-x="450" 
d="M56 155v257q0 72 46.5 114t135.5 42h160v-99h-158q-37 0 -52.5 -16.5t-15.5 -49.5v-65h201v-95h-201v-79q0 -33 15.5 -49t52.5 -16h161v-78q0 -9 -6 -15t-15 -6h-142q-89 0 -135.5 41.5t-46.5 113.5z" />
    <glyph glyph-name="f.sc" horiz-adv-x="455" 
d="M72 0v568h343v-99h-227v-140h202v-96h-202v-233h-116z" />
    <glyph glyph-name="g.sc" horiz-adv-x="543" 
d="M53 199v171q0 100 57.5 155.5t157.5 55.5q85 0 167 -25l-20 -93q-78 19 -132 19q-59 0 -86 -29.5t-27 -91.5v-153q0 -63 27 -92.5t86 -29.5q48 0 93 14v187l107 8v-272q-56 -16 -108 -26t-107 -10q-100 0 -157.5 55.5t-57.5 156.5z" />
    <glyph glyph-name="h.sc" horiz-adv-x="576" 
d="M72 0v568h116v-229h200v229h116v-547q0 -9 -6 -15t-16 -6h-94v245h-200v-245h-116z" />
    <glyph glyph-name="i.sc" horiz-adv-x="260" 
d="M72 0v568h116v-547q0 -9 -6 -15t-16 -6h-94z" />
    <glyph glyph-name="j.sc" horiz-adv-x="421" 
d="M27 11l23 94q62 -19 107 -19q44 0 62 25t18 75v382h116v-385q0 -41 -11.5 -76.5t-36 -62.5t-63 -42t-90.5 -15q-56 0 -125 24z" />
    <glyph glyph-name="k.sc" horiz-adv-x="521" 
d="M72 0v568h116v-230l45 4l106 226h124l-120 -238q42 -18 63 -76l88 -254h-121l-78 224q-4 11 -14.5 18t-23.5 6l-69 -6v-221q0 -9 -6 -15t-16 -6h-94z" />
    <glyph glyph-name="l.sc" horiz-adv-x="472" 
d="M72 0v568h116v-469h249v-78q0 -9 -6.5 -15t-15.5 -6h-343z" />
    <glyph glyph-name="m.sc" horiz-adv-x="746" 
d="M43 0l70 568h125l119 -402q7 -20 16 -20q10 0 17 20l119 402h124l70 -568h-114l-29 259q-7 59 -5 137q-15 -92 -27 -135l-38 -128q-30 -98 -117 -98q-86 0 -116 98l-38 128q-17 57 -27 136q-2 -101 -6 -138l-28 -259h-115z" />
    <glyph glyph-name="n.sc" horiz-adv-x="568" 
d="M72 0v568h104l209 -357q-4 36 -4 87v270h115v-568h-105l-208 354q4 -47 4 -84v-270h-115z" />
    <glyph glyph-name="o.sc" horiz-adv-x="571" 
d="M53 231v106q0 52 15.5 97t45.5 78t73.5 51t97.5 18q53 0 97 -18t74 -51t46 -78t16 -97v-106q0 -52 -16 -97t-46 -78t-74 -51t-97 -18q-54 0 -97.5 18t-73.5 51t-45.5 78t-15.5 97zM170 328v-88q0 -75 27.5 -114.5t87.5 -39.5q61 0 88 39.5t27 114.5v88q0 75 -27 114.5
t-88 39.5q-115 0 -115 -154z" />
    <glyph glyph-name="p.sc" horiz-adv-x="485" 
d="M72 0v568h169q36 0 73 -10t67 -33t49.5 -59.5t19.5 -83.5q0 -38 -14 -72t-41 -59.5t-66.5 -40t-87.5 -14.5h-53v-196h-116zM188 291h51q21 0 43 9t35.5 32t13.5 50q0 26 -13.5 48t-36 30.5t-43.5 8.5h-50v-178z" />
    <glyph glyph-name="q.sc" horiz-adv-x="571" 
d="M363 -155l-56 143l-22 -1q-54 0 -97.5 18t-73.5 51t-45.5 78t-15.5 97v106q0 52 15.5 97t45.5 78t73.5 51t97.5 18q53 0 97 -18t74 -51t46 -78t16 -97v-106q0 -73 -31 -130t-86 -86l54 -138zM170 328v-88q0 -75 27.5 -114.5t87.5 -39.5q61 0 88 39.5t27 114.5v88
q0 75 -27 114.5t-88 39.5q-115 0 -115 -154z" />
    <glyph glyph-name="r.sc" horiz-adv-x="498" 
d="M72 0v547q121 34 188 34q46 0 79.5 -13.5t58 -34.5t43 -58t18.5 -83q0 -36 -15.5 -72.5t-42.5 -59.5t-54 -34l108 -226h-125l-93 209h-49v-209h-116zM188 299h63q41 0 63.5 25t22.5 67q0 28 -10.5 50.5t-29.5 31.5t-38 9q-37 0 -71 -10v-173z" />
    <glyph glyph-name="s.sc" horiz-adv-x="452" 
d="M37 21l21 96q91 -31 151 -31q40 0 61 19t21 49q0 4 -1.5 14t-13 27.5t-65 42t-71 33.5t-34 22.5t-28 29t-20.5 39.5t-9 58q0 74 55.5 117.5t142.5 43.5q20 0 51.5 -4t97.5 -27l-30 -93q-36 13 -63 19t-56 6q-37 0 -57 -17.5t-20 -44.5q0 -18 14 -35.5t79 -47.5t95.5 -57
t42.5 -59.5t12 -66.5q0 -75 -56.5 -121t-147.5 -46q-34 0 -69.5 6t-102.5 28z" />
    <glyph glyph-name="t.sc" horiz-adv-x="451" 
d="M167 0v469h-136v99h389v-99h-137v-469h-116z" />
    <glyph glyph-name="u.sc" horiz-adv-x="564" 
d="M60 213v355h116v-369q0 -46 26.5 -79.5t80.5 -33.5q53 0 79 33.5t26 79.5v369h116v-355q0 -106 -57.5 -166t-163.5 -60t-164.5 60t-58.5 166z" />
    <glyph glyph-name="v.sc" horiz-adv-x="554" 
d="M212 0l-182 568h121l94 -319q2 -6 32 -127q17 73 32 127l94 319h121l-182 -568h-130z" />
    <glyph glyph-name="w.sc" horiz-adv-x="772" 
d="M155 0l-117 568h120l44 -249q6 -34 20 -171q8 96 26 171l28 116q25 98 110 98q23 0 47 -9.5t40.5 -33.5t23.5 -55l27 -116q18 -75 26 -170q14 134 20 170l44 249h120l-117 -568h-128l-87 412q-4 19 -16 19t-16 -19l-86 -412h-129z" />
    <glyph glyph-name="x.sc" horiz-adv-x="569" 
d="M49 568h132l104 -171l106 171h129l-168 -266l188 -302h-132l-125 204l-125 -204h-129l187 299z" />
    <glyph glyph-name="y.sc" horiz-adv-x="508" 
d="M197 0v225q-96 26 -122 146l-41 197h115l35 -172q11 -52 28.5 -67.5t41.5 -15.5t41 15t28 68l36 172h115l-41 -197q-26 -120 -121 -146v-225h-115z" />
    <glyph glyph-name="z.sc" horiz-adv-x="494" 
d="M48 0v88l249 381h-240v99h375v-89l-249 -380h263v-99h-398z" />
    <glyph glyph-name="ampersand.sc" horiz-adv-x="520" 
d="M283 345h212v-85h-46v-235q-95 -38 -177 -38q-51 0 -92.5 13.5t-69.5 38t-42.5 57.5t-14.5 72q0 41 21 79t72 59q-34 20 -53 51.5t-19 71.5q0 27 10 56.5t35 55.5t66 44t97 18q54 0 119 -17l-20 -96q-46 14 -98 14q-42 0 -65.5 -20t-23.5 -55q0 -39 23.5 -61.5
t65.5 -22.5zM355 97v163h-81q-50 0 -75.5 -24.5t-25.5 -66.5q0 -39 25 -61t75 -22q46 0 82 11z" />
    <glyph glyph-name="question.sc" horiz-adv-x="414" 
d="M249 181l-107 -11q0 51 9.5 88.5t23.5 62t39 52.5t30.5 41.5t5.5 25.5q0 19 -13 31.5t-36 12.5q-40 0 -103 -35l-43 84q70 48 146 48q71 0 114.5 -38.5t43.5 -95.5q0 -3 -0.5 -12.5t-6.5 -28.5t-34.5 -55t-37 -51t-14.5 -28.5t-11.5 -35.5t-5.5 -55zM129 52q0 28 19.5 47
t46.5 19t46.5 -19t19.5 -47q0 -26 -19.5 -45.5t-46.5 -19.5t-46.5 19t-19.5 46z" />
    <glyph glyph-name="exclam.sc" horiz-adv-x="333" 
d="M119 186l-16 382h129l-16 -368zM101 55q0 27 19.5 46.5t46.5 19.5t46.5 -19.5t19.5 -46.5t-19.5 -46t-46.5 -19t-46.5 19.5t-19.5 45.5z" />
    <glyph glyph-name="questiondown.sc" horiz-adv-x="414" 
d="M153 431q0 26 19.5 45.5t46.5 19.5t46.5 -19t19.5 -46q0 -28 -19.5 -47t-46.5 -19t-46.5 19t-19.5 47zM316 34l43 -84q-70 -48 -146 -48q-72 0 -115 38.5t-43 95.5q0 3 0.5 12.5t6.5 28.5t34.5 55t37 51t14.5 28.5t11.5 35.5t5.5 55l107 11q0 -51 -9.5 -88.5t-23.5 -62
t-39 -52.5t-30.5 -41.5t-5.5 -25.5q0 -19 13 -31.5t36 -12.5q44 0 103 35z" />
    <glyph glyph-name="exclamdown.sc" horiz-adv-x="333" 
d="M101 430q0 27 19 46.5t47 19.5q26 0 45.5 -19.5t19.5 -46.5t-19.5 -46.5t-45.5 -19.5q-28 0 -47 19.5t-19 46.5zM101 -82l16 368l97 15l16 -383h-129z" />
    <glyph glyph-name="at.sc" horiz-adv-x="817" 
d="M513 -41l18 -76q-60 -22 -139 -22q-65 0 -126.5 21t-110 63.5t-76.5 107.5t-28 147q0 78 26.5 143t75 110t114.5 69t142 24t142 -25t114 -71.5t74.5 -111t26.5 -140.5q0 -34 -9.5 -75.5t-34 -70.5t-54 -40.5t-61.5 -11.5q-88 0 -122 47q-47 -47 -106 -47
q-27 0 -57.5 10.5t-51 40t-20.5 69.5q0 117 176 117h33v16q0 34 -13 49.5t-46 15.5q-49 0 -104 -16l-23 77q69 22 127 22q74 0 115.5 -39.5t41.5 -104.5v-111q0 -30 13.5 -47t36.5 -17q16 0 33.5 10.5t29 38.5t11.5 67q0 59 -20 109t-56.5 85.5t-87 54.5t-108.5 19
q-59 0 -110 -18t-87 -52t-56 -84t-20 -112q0 -47 11.5 -87.5t33 -70.5t50 -51.5t69.5 -35.5t92 -14q61 0 121 18zM459 145v28h-27q-43 0 -62.5 -11t-19.5 -36q0 -43 47 -43q15 0 33.5 8t30.5 20q-2 11 -2 34z" />
    <glyph glyph-name="zero.sc.tnum" horiz-adv-x="491" 
d="M38 222v125q0 109 55 171.5t153 62.5t152.5 -63.5t54.5 -170.5v-125q0 -109 -54 -172t-153 -63q-48 0 -82.5 14.5t-60.5 39t-45.5 70t-19.5 111.5zM156 331v-92q0 -84 23.5 -118.5t66.5 -34.5q24 0 45 13t32.5 50t11.5 90v92q0 151 -89 151q-50 0 -70 -40.5t-20 -110.5z
" />
    <glyph glyph-name="one.sc.tnum" horiz-adv-x="491" 
d="M95 0v92h118v358l-107 -43l-42 91l182 70h83v-476h98v-92h-332z" />
    <glyph glyph-name="two.sc.tnum" horiz-adv-x="491" 
d="M63 0v73q0 38 11 73t38.5 70.5t85.5 76.5t72 54t23 25t12.5 24t3.5 21q0 29 -19 47t-59 18q-51 0 -122 -32l-36 88q36 18 77.5 30.5t82.5 12.5q88 0 141 -46t53 -118q0 -22 -7.5 -48.5t-32 -57t-78 -69.5t-72 -53.5t-31.5 -31t-19 -31.5t-6 -31h247v-74q0 -9 -6 -15
t-16 -6h-343z" />
    <glyph glyph-name="three.sc.tnum" horiz-adv-x="491" 
d="M72 13l27 93q54 -21 107 -21q45 0 69.5 22t24.5 59q0 87 -103 87h-47v89h42q92 0 92 75q0 29 -21 47.5t-55 18.5q-51 0 -99 -21l-32 87q69 32 131 32q61 0 104.5 -21t66.5 -56t23 -82q0 -31 -20 -65.5t-60 -56.5q24 -10 47.5 -29t36 -47.5t12.5 -57.5q0 -36 -13.5 -69
t-40 -57.5t-67 -38.5t-91.5 -14q-68 0 -134 26z" />
    <glyph glyph-name="four.sc.tnum" horiz-adv-x="491" 
d="M52 235l69 333h110l-65 -330q-3 -15 1 -22.5t18 -7.5h72v194l105 16v-210h99v-97h-99v-111h-105v111h-104q-64 0 -89.5 30t-11.5 94z" />
    <glyph glyph-name="five.sc.tnum" horiz-adv-x="491" 
d="M57 21l24 96q41 -15 73.5 -23t62.5 -8q23 0 47.5 9.5t40.5 34.5t16 57q0 28 -12 50.5t-34 31.5t-44 9q-55 0 -113 -25l-41 64v251h338l-7 -96h-225v-104q29 6 55 6q94 0 147.5 -51t53.5 -136q0 -33 -11 -68t-38 -64t-71 -48.5t-104 -19.5q-31 0 -64.5 6t-93.5 28z" />
    <glyph glyph-name="six.sc.tnum" horiz-adv-x="491" 
d="M55 184v200q0 40 12 75.5t37.5 63t65.5 43t92 15.5q78 0 150 -28l-28 -94q-64 23 -118 23q-95 0 -95 -91v-33q45 24 89 24q85 0 138.5 -52t53.5 -146q0 -45 -13.5 -78t-35 -57.5t-60 -43t-89.5 -18.5q-40 0 -76.5 13t-64 38.5t-43 63t-15.5 82.5zM171 270v-87
q0 -30 11.5 -54t31.5 -33.5t40 -9.5t39.5 9.5t30 33t10.5 54.5q0 49 -20 79.5t-63 30.5q-38 0 -80 -23z" />
    <glyph glyph-name="seven.sc.tnum" horiz-adv-x="491" 
d="M288 0h-121q1 94 21 169t67.5 169.5t63.5 131.5h-258v98h386v-73q-12 -32 -24.5 -61t-49 -103.5t-48 -109t-19 -62.5t-13 -68t-5.5 -91z" />
    <glyph glyph-name="eight.sc.tnum" horiz-adv-x="491" 
d="M137 289q-77 48 -77 132q0 26 10 53.5t33 51t59.5 39.5t83.5 16q26 0 56.5 -7.5t62.5 -29t49 -55t17 -68.5q0 -77 -80 -123q96 -54 96 -148q0 -44 -25.5 -83t-74 -59.5t-101.5 -20.5q-52 0 -101 20.5t-75 59.5t-26 83q0 38 19 73.5t74 65.5zM253 345q29 16 44.5 33.5
t15.5 42.5q0 26 -19.5 44t-47.5 18q-30 0 -49 -17.5t-19 -44.5q0 -19 14 -36.5t61 -39.5zM236 243q-45 -24 -59.5 -46.5t-14.5 -46.5q0 -28 23 -46.5t61 -18.5t60.5 18t22.5 47q0 25 -17.5 46.5t-75.5 46.5z" />
    <glyph glyph-name="nine.sc.tnum" horiz-adv-x="491" 
d="M88 19l27 94q76 -27 119 -27q94 0 94 91v36q-44 -24 -89 -24q-85 0 -138 50.5t-53 144.5q0 57 23 100t68 70t107 27q40 0 76.5 -13t63.5 -38.5t42.5 -63t15.5 -82.5v-200q0 -62 -25.5 -106t-70.5 -67.5t-110 -23.5q-67 0 -150 32zM328 301v84q0 30 -11.5 54t-31 33.5
t-39.5 9.5t-39.5 -9.5t-30 -33.5t-10.5 -54q0 -56 22.5 -81.5t59.5 -25.5t80 23z" />
    <glyph glyph-name="dollar.sc.tnum" horiz-adv-x="491" 
d="M59 23l20 92q45 -15 80 -22.5t71 -7.5q42 0 62.5 19.5t20.5 50.5q0 28 -20.5 45.5t-79.5 39.5t-83.5 40t-36 36t-17.5 39.5t-6 47.5q0 40 20.5 75t53.5 53.5t68 24.5v96h85v-92q48 -3 121 -29l-30 -89q-37 12 -63.5 18t-55.5 6q-38 0 -58 -17t-20 -46q0 -9 3.5 -18
t13 -18t24.5 -17t42 -18t41 -15.5t25.5 -12t25 -15t29.5 -24.5t27.5 -43t11.5 -67q0 -54 -35 -99t-107 -60v-97h-85v91q-62 4 -148 33z" />
    <glyph glyph-name="cent.sc.tnum" horiz-adv-x="491" 
d="M224 -101v96q-49 9 -81 35.5t-48 66.5t-16 88v54q0 48 16 88t48.5 66t80.5 35v96h86v-92q47 -4 102 -22l-25 -90q-55 20 -109 20q-85 0 -85 -109v-39q0 -108 85 -108q52 0 109 20l25 -90q-59 -18 -102 -23v-92h-86z" />
    <glyph glyph-name="sterling.sc.tnum" horiz-adv-x="491" 
d="M76 0v84q23 31 34 57.5t11 59.5v39h-52v71h52v101q0 30 9.5 60.5t32 54.5t58.5 39t84 15q64 0 137 -31l-30 -89q-53 21 -97 21t-61.5 -22t-17.5 -69v-80h155v-71h-155v-38q0 -29 -13 -58.5t-34 -52.5h242v-70q0 -9 -6 -15t-15 -6h-334z" />
    <glyph glyph-name="Euro.sc.tnum" horiz-adv-x="491" 
d="M57 184v67h35v64h-35v69h35q3 42 18.5 78.5t43.5 63t68.5 41t89.5 14.5q70 0 145 -26l-28 -87q-65 17 -115 17q-46 0 -74 -25t-32 -76h151l-8 -69h-144v-64h152l-8 -67h-143q2 -32 16 -56t38 -34.5t52 -10.5q49 0 115 19l28 -89q-75 -26 -145 -26q-99 0 -157 54.5
t-63 142.5h-35z" />
    <glyph glyph-name="yen.sc.tnum" horiz-adv-x="491" 
d="M81 98v70h107v57h-107v70h76l-137 273h113l112 -227l112 227h114l-140 -273h77v-70h-108v-57h108v-70h-108v-98h-112v98h-107z" />
    <glyph glyph-name="numbersign.sc.tnum" horiz-adv-x="491" 
d="M121 127v97h-49v95h49v58h-49v95h49v96h95v-96h57v96h96v-96h48v-95h-48v-58h48v-95h-48v-97h-96v97h-57v-97h-95zM216 319h57v58h-57v-58z" />
    <glyph glyph-name="zero.sc" horiz-adv-x="512" 
d="M48 222v125q0 108 55 171t153 63t152.5 -63.5t54.5 -170.5v-125q0 -109 -54 -172t-153 -63q-97 0 -152.5 64t-55.5 171zM166 331v-92q0 -84 23.5 -118.5t66.5 -34.5q49 0 69 41t20 112v92q0 70 -20 110.5t-69 40.5q-50 0 -70 -40.5t-20 -110.5z" />
    <glyph glyph-name="one.sc" horiz-adv-x="434" 
d="M63 0v92h119v358l-108 -43l-41 91l181 70h84v-476h97v-92h-332z" />
    <glyph glyph-name="two.sc" horiz-adv-x="455" 
d="M42 0v73q0 38 11 73t38.5 70.5t85.5 76.5t72 54t23 25t12.5 24t3.5 21q0 29 -19 47t-58 18q-52 0 -123 -32l-36 88q36 18 77.5 30.5t82.5 12.5q88 0 141 -46t53 -118q0 -50 -28 -90t-85 -82t-75.5 -56.5t-31.5 -31t-19 -31.5t-6 -31h246v-74q0 -9 -6 -15t-16 -6h-343z
" />
    <glyph glyph-name="three.sc" horiz-adv-x="408" 
d="M19 13l27 93q54 -21 107 -21q45 0 69.5 22t24.5 59q0 87 -103 87h-47v89h42q92 0 92 75q0 29 -21 47.5t-55 18.5q-51 0 -99 -21l-32 87q69 32 131 32q61 0 104.5 -21t66.5 -56t23 -82q0 -31 -20 -65.5t-60 -56.5q24 -10 47.5 -29t36 -47.5t12.5 -57.5q0 -36 -13.5 -69
t-40 -57.5t-67 -38.5t-91.5 -14q-68 0 -134 26z" />
    <glyph glyph-name="four.sc" horiz-adv-x="488" 
d="M45 235l70 333h109l-64 -330q-3 -15 0.5 -22.5t17.5 -7.5h73v194l105 16v-210h98v-97h-98v-111h-105v111h-104q-65 0 -90.5 30t-11.5 94z" />
    <glyph glyph-name="five.sc" horiz-adv-x="458" 
d="M35 21l24 96q88 -31 136 -31t76.5 28.5t28.5 72.5q0 38 -19 60t-39.5 26.5t-32.5 4.5q-55 0 -113 -25l-40 64v251h337l-6 -96h-225v-104q27 6 54 6q94 0 148 -51t54 -136q0 -45 -17 -82.5t-47 -63.5t-71.5 -40t-88.5 -14q-31 0 -65.5 6t-93.5 28z" />
    <glyph glyph-name="six.sc" horiz-adv-x="485" 
d="M46 184v200q0 40 12 75.5t37.5 63t65.5 43t92 15.5q76 0 150 -28l-28 -94q-64 23 -119 23q-94 0 -94 -91v-33q44 24 89 24q85 0 138.5 -52t53.5 -146q0 -45 -13.5 -78t-35 -57.5t-60 -43t-89.5 -18.5q-40 0 -76.5 13t-64 38.5t-43 63t-15.5 82.5zM162 270v-87
q0 -30 11.5 -54t31.5 -33.5t40 -9.5t39.5 9.5t30 33t10.5 54.5q0 49 -20.5 79.5t-62.5 30.5q-40 0 -80 -23z" />
    <glyph glyph-name="seven.sc" horiz-adv-x="445" 
d="M254 0h-120q1 58 8.5 108t24 101t59.5 137t59 124h-258v98h386v-73q-5 -12 -17 -43t-76.5 -164.5t-65.5 -287.5z" />
    <glyph glyph-name="eight.sc" horiz-adv-x="484" 
d="M133 289q-77 48 -77 132q0 26 10 53.5t33 51t59.5 39.5t83.5 16q55 0 101.5 -25.5t65.5 -62.5t19 -72q0 -32 -16.5 -63.5t-64.5 -59.5q97 -53 97 -148q0 -44 -26 -83t-74.5 -59.5t-101.5 -20.5q-52 0 -100.5 20.5t-74.5 59.5t-26 83q0 38 19 73.5t73 65.5zM250 345
q29 16 44.5 33.5t15.5 42.5q0 26 -20 44t-48 18q-29 0 -48.5 -17.5t-19.5 -44.5q0 -19 14.5 -36.5t61.5 -39.5zM232 243q-35 -19 -54 -40.5t-19 -52.5q0 -28 22.5 -46.5t60.5 -18.5t61 18t23 47q0 25 -18 46.5t-76 46.5z" />
    <glyph glyph-name="nine.sc" horiz-adv-x="490" 
d="M87 19l27 94q76 -27 119 -27q94 0 94 91v36q-44 -24 -88 -24q-52 0 -98 21.5t-70 68t-24 105.5q0 57 23 100t68 70t107 27q40 0 76.5 -13t63.5 -38.5t42.5 -63t15.5 -82.5v-200q0 -62 -25.5 -106t-70.5 -67.5t-110 -23.5q-67 0 -150 32zM327 301v84q0 30 -11 54t-31 33.5
t-40 9.5t-39.5 -9.5t-30 -33.5t-10.5 -54q0 -35 11 -61t31 -36t41 -10q36 0 79 23z" />
    <glyph glyph-name="dollar.sc" horiz-adv-x="456" 
d="M36 23l20 92q45 -15 80 -22.5t71 -7.5q42 0 62.5 19.5t20.5 50.5q0 28 -20.5 45.5t-79.5 39.5t-83.5 40t-36 36t-17.5 39.5t-6 47.5q0 40 20.5 75t53.5 53.5t68 24.5v96h85v-92q48 -3 121 -29l-30 -89q-37 12 -63.5 18t-55.5 6q-38 0 -58 -17t-20 -46q0 -9 3.5 -18
t13 -18t24.5 -17t42 -18t41 -15.5t25.5 -12t25 -15t29.5 -24.5t27.5 -43t11.5 -67q0 -54 -35 -99t-107 -60v-97h-85v91q-62 4 -148 33z" />
    <glyph glyph-name="cent.sc" horiz-adv-x="425" 
d="M192 -101v96q-49 9 -81 35.5t-48 66.5t-16 88v54q0 48 16 88t48.5 66t80.5 35v96h86v-92q49 -4 102 -22l-25 -90q-55 20 -109 20q-85 0 -85 -109v-39q0 -108 85 -108q52 0 109 20l25 -90q-59 -18 -102 -23v-92h-86z" />
    <glyph glyph-name="sterling.sc" horiz-adv-x="460" 
d="M56 0v84q23 31 33.5 57.5t10.5 59.5v39h-51v71h51v101q0 50 24 90.5t68.5 59.5t92.5 19q62 0 137 -31l-31 -89q-52 21 -97 21q-43 0 -61 -22t-18 -69v-80h156v-71h-156v-38q0 -22 -10 -52t-36 -59h242v-70q0 -9 -6 -15t-16 -6h-333z" />
    <glyph glyph-name="Euro.sc" horiz-adv-x="479" 
d="M42 184v67h36v64h-36v69h36q4 64 34 108t76.5 66.5t108.5 22.5q72 0 145 -26l-28 -87q-65 17 -115 17q-46 0 -74 -25t-32 -76h152l-9 -69h-144v-64h153l-9 -67h-143q2 -32 16 -56t38 -34.5t52 -10.5q49 0 115 19l28 -89q-73 -26 -145 -26q-49 0 -89 14.5t-68 41t-43.5 63
t-18.5 78.5h-36z" />
    <glyph glyph-name="yen.sc" horiz-adv-x="470" 
d="M71 98v70h107v57h-107v70h76l-137 273h113l112 -227l112 227h114l-140 -273h77v-70h-108v-57h108v-70h-108v-98h-112v98h-107z" />
    <glyph glyph-name="numbersign.sc" horiz-adv-x="449" 
d="M100 127v97h-48v95h48v58h-48v95h48v96h96v-96h57v96h96v-96h48v-95h-48v-58h48v-95h-48v-97h-96v97h-57v-97h-96zM196 319h57v58h-57v-58z" />
    <glyph glyph-name="grave.sc" horiz-adv-x="365" 
d="M64 699l31 86l206 -76l-26 -71z" />
    <glyph glyph-name="acute.sc" horiz-adv-x="365" 
d="M90 638l-27 71l207 76l31 -86z" />
    <glyph glyph-name="dieresis.sc" horiz-adv-x="425" 
d="M241 710q0 23 18 41.5t41 18.5t41 -18.5t18 -41.5t-18 -40.5t-41 -17.5t-41 17.5t-18 40.5zM66 710q0 23 18 41.5t41 18.5t40.5 -18.5t17.5 -41.5t-17.5 -40.5t-40.5 -17.5q-24 0 -41.5 17t-17.5 41z" />
    <glyph glyph-name="circumflex.sc" horiz-adv-x="413" 
d="M112 637l-49 71l143 77l143 -77l-48 -71l-95 55z" />
    <glyph glyph-name="tilde.sc" horiz-adv-x="408" 
d="M108 656l-45 53q24 32 46.5 46t49.5 14q23 0 52 -16t38 -16q25 0 50 30l45 -53q-29 -40 -52 -50t-43 -10q-22 0 -51 16t-39 16q-25 0 -51 -30z" />
    <glyph glyph-name="macron.sc" horiz-adv-x="356" 
d="M63 670v84h229v-84h-229z" />
    <glyph glyph-name="breve.sc" horiz-adv-x="362" 
d="M51 777h80q0 -26 13.5 -40t36.5 -14t36.5 14t13.5 40h80q0 -57 -34 -95t-96 -38q-46 0 -77 21t-42 53t-11 59z" />
    <glyph glyph-name="dotaccent.sc" horiz-adv-x="209" 
d="M46 710q0 23 18 41.5t41 18.5q22 0 40.5 -18.5t18.5 -41.5t-18 -40.5t-41 -17.5q-24 0 -41.5 17t-17.5 41z" />
    <glyph glyph-name="ring.sc" horiz-adv-x="281" 
d="M43 713q0 18 9.5 39t33.5 35t53 14q20 0 43 -8t39.5 -30t16.5 -50q0 -27 -16.5 -49t-40 -30t-42.5 -8q-40 0 -68 25t-28 62zM117 713q0 -9 6.5 -16t15.5 -7t17 7t8 17q0 9 -7 16t-17 7q-8 0 -15.5 -7t-7.5 -17z" />
    <glyph glyph-name="cedilla.sc" horiz-adv-x="258" 
d="M33 -204l13 77q25 -5 44 -5q18 0 29.5 12.5t11.5 33.5v86h94v-103q0 -30 -13 -56t-44 -40t-65 -14t-70 9z" />
    <glyph glyph-name="hungarumlaut.sc" horiz-adv-x="432" 
d="M223 680l102 122l71 -63l-114 -111zM46 680l102 122l71 -63l-115 -111z" />
    <glyph glyph-name="ogonek.sc" horiz-adv-x="242" 
d="M197 -125l11 -79q-31 -10 -67 -10q-41 0 -69 26t-28 65q0 65 68 123h101q-75 -59 -75 -104q0 -12 7.5 -19.5t19.5 -7.5t32 6z" />
    <glyph glyph-name="caron.sc" horiz-adv-x="413" 
d="M63 714l49 70l94 -54l95 54l48 -70l-143 -77z" />
    <glyph glyph-name="glyph494" horiz-adv-x="238" 
d="M63 -214l22 150h103l-41 -150h-84z" />
    <glyph glyph-name="aacute.sc" horiz-adv-x="571" 
d="M193 638l-27 71l207 76l31 -86zM34 0l127 480q9 32 28.5 56.5t45.5 34.5t50 10q23 0 48.5 -10t45.5 -35t28 -56l130 -480h-119l-36 147h-194l-36 -147h-118zM211 241h148l-53 213q-2 10 -8 16.5t-13 6.5q-15 0 -21 -23z" />
    <glyph glyph-name="agrave.sc" horiz-adv-x="571" 
d="M166 699l32 86l206 -76l-26 -71zM34 0l127 480q9 32 28.5 56.5t45.5 34.5t50 10q23 0 48.5 -10t45.5 -35t28 -56l130 -480h-119l-36 147h-194l-36 -147h-118zM211 241h148l-53 213q-2 10 -8 16.5t-13 6.5q-15 0 -21 -23z" />
    <glyph glyph-name="acircumflex.sc" horiz-adv-x="571" 
d="M191 637l-49 71l143 77l143 -77l-49 -71l-94 55zM34 0l127 480q9 32 28.5 56.5t45.5 34.5t50 10q23 0 48.5 -10t45.5 -35t28 -56l130 -480h-119l-36 147h-194l-36 -147h-118zM211 241h148l-53 213q-2 10 -8 16.5t-13 6.5q-15 0 -21 -23z" />
    <glyph glyph-name="adieresis.sc" horiz-adv-x="571" 
d="M314 710q0 23 18 41.5t41 18.5q22 0 40.5 -18.5t18.5 -41.5t-18 -40.5t-41 -17.5q-24 0 -41.5 17t-17.5 41zM138 710q0 23 18 41.5t41 18.5t40.5 -18.5t17.5 -41.5q0 -24 -17 -41t-41 -17q-23 0 -41 17.5t-18 40.5zM34 0l127 480q9 32 28.5 56.5t45.5 34.5t50 10
q23 0 48.5 -10t45.5 -35t28 -56l130 -480h-119l-36 147h-194l-36 -147h-118zM211 241h148l-53 213q-2 10 -8 16.5t-13 6.5q-15 0 -21 -23z" />
    <glyph glyph-name="atilde.sc" horiz-adv-x="571" 
d="M189 656l-44 53q23 32 45.5 46t49.5 14q13 0 27 -4.5t34.5 -16t29.5 -11.5q25 0 50 30l45 -53q-18 -24 -40 -42t-55 -18q-22 0 -51.5 16t-39.5 16q-25 0 -51 -30zM34 0l127 480q9 32 28.5 56.5t45.5 34.5t50 10q23 0 48.5 -10t45.5 -35t28 -56l130 -480h-119l-36 147
h-194l-36 -147h-118zM211 241h148l-53 213q-2 10 -8 16.5t-13 6.5q-15 0 -21 -23z" />
    <glyph glyph-name="aring.sc" horiz-adv-x="571" 
d="M188 713q0 18 9.5 39t33.5 35t53 14q20 0 43 -8t39.5 -30t16.5 -50q0 -27 -16.5 -49t-40 -30t-42.5 -8q-29 0 -53 14t-33.5 34.5t-9.5 38.5zM262 713q0 -8 6 -15.5t15 -7.5t17.5 7t8.5 16t-7 16.5t-17 7.5q-8 0 -15.5 -7t-7.5 -17zM34 0l127 480q9 32 28.5 56.5
t45.5 34.5t50 10q23 0 48.5 -10t45.5 -35t28 -56l130 -480h-119l-36 147h-194l-36 -147h-118zM211 241h148l-53 213q-2 10 -8 16.5t-13 6.5q-15 0 -21 -23z" />
    <glyph glyph-name="amacron.sc" horiz-adv-x="571" 
d="M171 670v84h229v-84h-229zM34 0l127 480q9 32 28.5 56.5t45.5 34.5t50 10q23 0 48.5 -10t45.5 -35t28 -56l130 -480h-119l-36 147h-194l-36 -147h-118zM211 241h148l-53 213q-2 10 -8 16.5t-13 6.5q-15 0 -21 -23z" />
    <glyph glyph-name="abreve.sc" horiz-adv-x="571" 
d="M155 777h80q0 -26 13.5 -40t36.5 -14t36.5 14t13.5 40h80q0 -57 -34 -95t-96 -38q-46 0 -77 21t-42 53t-11 59zM34 0l127 480q9 32 28.5 56.5t45.5 34.5t50 10q23 0 48.5 -10t45.5 -35t28 -56l130 -480h-119l-36 147h-194l-36 -147h-118zM211 241h148l-53 213
q-2 10 -8 16.5t-13 6.5q-15 0 -21 -23z" />
    <glyph glyph-name="aogonek.sc" horiz-adv-x="571" 
d="M34 0l127 480q9 32 28.5 56.5t45.5 34.5t50 10q23 0 48.5 -10t45.5 -35t28 -56l130 -480q-76 -60 -76 -104q0 -12 7.5 -19.5t19.5 -7.5q14 0 32 6l11 -79q-30 -10 -67 -10q-19 0 -41.5 8.5t-38.5 31t-16 51.5q0 67 68 123h-18l-36 147h-194l-36 -147h-118zM211 241h148
l-53 213q-2 10 -8 16.5t-13 6.5q-15 0 -21 -23z" />
    <glyph glyph-name="ae.sc" horiz-adv-x="796" 
d="M592 0q-88 0 -134.5 39.5t-46.5 107.5h-185l-65 -147h-122l217 476q20 44 52.5 68t85.5 24h358v-99h-228v-131h202v-95h-202v-76q0 -42 19 -55t51 -13h162v-78q0 -8 -7 -14.5t-15 -6.5h-142zM357 441l-89 -200h143v229h-13q-27 0 -41 -29z" />
    <glyph glyph-name="cacute.sc" horiz-adv-x="483" 
d="M154 638l-26 71l206 76l32 -86zM53 198v172q0 100 57.5 155.5t157.5 55.5q86 0 167 -25l-20 -95q-71 21 -132 21q-55 0 -84 -27t-29 -94v-153q0 -60 25.5 -91t87.5 -31q57 0 132 20l20 -94q-82 -25 -167 -25q-100 0 -157.5 55.5t-57.5 155.5z" />
    <glyph glyph-name="ccircumflex.sc" horiz-adv-x="483" 
d="M162 637l-49 71l143 77l143 -77l-49 -71l-94 55zM53 198v172q0 100 57.5 155.5t157.5 55.5q86 0 167 -25l-20 -95q-71 21 -132 21q-55 0 -84 -27t-29 -94v-153q0 -60 25.5 -91t87.5 -31q57 0 132 20l20 -94q-82 -25 -167 -25q-100 0 -157.5 55.5t-57.5 155.5z" />
    <glyph glyph-name="ccaron.sc" horiz-adv-x="483" 
d="M114 714l49 70l94 -54l94 54l49 -70l-143 -77zM53 198v172q0 100 57.5 155.5t157.5 55.5q86 0 167 -25l-20 -95q-71 21 -132 21q-55 0 -84 -27t-29 -94v-153q0 -60 25.5 -91t87.5 -31q57 0 132 20l20 -94q-82 -25 -167 -25q-100 0 -157.5 55.5t-57.5 155.5z" />
    <glyph glyph-name="ccedilla.sc" horiz-adv-x="483" 
d="M140 -204l12 77q25 -5 44 -5t30 12.5t11 33.5v75q-86 8 -135 62.5t-49 146.5v172q0 100 57.5 155.5t157.5 55.5q86 0 167 -25l-20 -95q-71 21 -132 21q-55 0 -84 -27t-29 -94v-153q0 -60 25.5 -91t87.5 -31q57 0 132 20l20 -94q-56 -17 -104 -22v-93q0 -30 -13 -56
t-43.5 -40t-64.5 -14q-35 0 -70 9z" />
    <glyph glyph-name="dcaron.sc" horiz-adv-x="562" 
d="M134 714l49 70l94 -54l94 54l49 -70l-143 -77zM72 0v568h217q112 0 166 -52t54 -160v-145q0 -107 -54 -159t-166 -52h-217zM188 99h98q59 0 82 27t23 93v129q0 66 -23 93.5t-82 27.5h-98v-370z" />
    <glyph glyph-name="dcroat.sc" horiz-adv-x="562" 
d="M72 0v244h-62v80h62v244h217q112 0 166 -52t54 -160v-145q0 -107 -54 -159t-166 -52h-217zM188 99h98q59 0 82 27t23 93v129q0 66 -23 93.5t-82 27.5h-98v-145h89v-80h-89v-145z" />
    <glyph glyph-name="eth.sc" horiz-adv-x="562" 
d="M72 0v244h-62v80h62v244h217q112 0 166 -52t54 -160v-145q0 -107 -54 -159t-166 -52h-217zM188 99h98q59 0 82 27t23 93v129q0 66 -23 93.5t-82 27.5h-98v-145h89v-80h-89v-145z" />
    <glyph glyph-name="eacute.sc" horiz-adv-x="450" 
d="M140 638l-26 71l206 76l32 -86zM56 155v257q0 72 46.5 114t135.5 42h160v-99h-158q-37 0 -52.5 -16.5t-15.5 -49.5v-65h201v-95h-201v-79q0 -33 15.5 -49t52.5 -16h161v-78q0 -9 -6 -15t-15 -6h-142q-89 0 -135.5 41.5t-46.5 113.5z" />
    <glyph glyph-name="egrave.sc" horiz-adv-x="450" 
d="M121 699l31 86l207 -76l-27 -71zM56 155v257q0 72 46.5 114t135.5 42h160v-99h-158q-37 0 -52.5 -16.5t-15.5 -49.5v-65h201v-95h-201v-79q0 -33 15.5 -49t52.5 -16h161v-78q0 -9 -6 -15t-15 -6h-142q-89 0 -135.5 41.5t-46.5 113.5z" />
    <glyph glyph-name="ecircumflex.sc" horiz-adv-x="450" 
d="M138 637l-49 71l143 77l143 -77l-48 -71l-95 55zM56 155v257q0 72 46.5 114t135.5 42h160v-99h-158q-37 0 -52.5 -16.5t-15.5 -49.5v-65h201v-95h-201v-79q0 -33 15.5 -49t52.5 -16h161v-78q0 -9 -6 -15t-15 -6h-142q-89 0 -135.5 41.5t-46.5 113.5z" />
    <glyph glyph-name="edieresis.sc" horiz-adv-x="450" 
d="M263 710q0 23 18 41.5t41 18.5q22 0 40.5 -18.5t18.5 -41.5t-18 -40.5t-41 -17.5q-24 0 -41.5 17t-17.5 41zM87 710q0 23 18 41.5t41 18.5t40.5 -18.5t17.5 -41.5q0 -24 -17 -41t-41 -17q-23 0 -41 17.5t-18 40.5zM56 155v257q0 72 46.5 114t135.5 42h160v-99h-158
q-37 0 -52.5 -16.5t-15.5 -49.5v-65h201v-95h-201v-79q0 -33 15.5 -49t52.5 -16h161v-78q0 -9 -6 -15t-15 -6h-142q-89 0 -135.5 41.5t-46.5 113.5z" />
    <glyph glyph-name="ecaron.sc" horiz-adv-x="450" 
d="M82 714l49 70l94 -54l95 54l48 -70l-143 -77zM56 155v257q0 72 46.5 114t135.5 42h160v-99h-158q-37 0 -52.5 -16.5t-15.5 -49.5v-65h201v-95h-201v-79q0 -33 15.5 -49t52.5 -16h161v-78q0 -9 -6 -15t-15 -6h-142q-89 0 -135.5 41.5t-46.5 113.5z" />
    <glyph glyph-name="emacron.sc" horiz-adv-x="450" 
d="M120 670v84h229v-84h-229zM56 155v257q0 72 46.5 114t135.5 42h160v-99h-158q-37 0 -52.5 -16.5t-15.5 -49.5v-65h201v-95h-201v-79q0 -33 15.5 -49t52.5 -16h161v-78q0 -9 -6 -15t-15 -6h-142q-89 0 -135.5 41.5t-46.5 113.5z" />
    <glyph glyph-name="ebreve.sc" horiz-adv-x="450" 
d="M98 777h80q0 -26 13.5 -40t36.5 -14t37 14t14 40h80q0 -27 -11.5 -59t-43 -53t-76.5 -21q-62 0 -96 38t-34 95zM56 155v257q0 72 46.5 114t135.5 42h160v-99h-158q-37 0 -52.5 -16.5t-15.5 -49.5v-65h201v-95h-201v-79q0 -33 15.5 -49t52.5 -16h161v-78q0 -9 -6 -15
t-15 -6h-142q-89 0 -135.5 41.5t-46.5 113.5z" />
    <glyph glyph-name="eogonek.sc" horiz-adv-x="450" 
d="M386 -125l11 -79q-31 -10 -67 -10q-41 0 -69 26t-28 65q0 65 68 123h-63q-89 0 -135.5 41.5t-46.5 113.5v257q0 72 46.5 114t135.5 42h160v-99h-158q-37 0 -52.5 -16.5t-15.5 -49.5v-65h201v-95h-201v-79q0 -33 15.5 -49t52.5 -16h161v-99q-41 -32 -57.5 -58.5
t-16.5 -45.5q0 -12 7.5 -19.5t19.5 -7.5t32 6z" />
    <glyph glyph-name="edotaccent.sc" horiz-adv-x="450" 
d="M170 710q0 23 18 41.5t41 18.5q22 0 40.5 -18.5t18.5 -41.5t-18 -40.5t-41 -17.5q-24 0 -41.5 17t-17.5 41zM56 155v257q0 72 46.5 114t135.5 42h160v-99h-158q-37 0 -52.5 -16.5t-15.5 -49.5v-65h201v-95h-201v-79q0 -33 15.5 -49t52.5 -16h161v-78q0 -9 -6 -15t-15 -6
h-142q-89 0 -135.5 41.5t-46.5 113.5z" />
    <glyph glyph-name="gcircumflex.sc" horiz-adv-x="543" 
d="M175 637l-49 71l143 77l143 -77l-49 -71l-94 55zM53 199v171q0 100 57.5 155.5t157.5 55.5q85 0 167 -25l-20 -93q-78 19 -132 19q-59 0 -86 -29.5t-27 -91.5v-153q0 -63 27 -92.5t86 -29.5q48 0 93 14v187l107 8v-272q-56 -16 -108 -26t-107 -10q-100 0 -157.5 55.5
t-57.5 156.5z" />
    <glyph glyph-name="gbreve.sc" horiz-adv-x="543" 
d="M138 777h80q0 -26 13.5 -40t36.5 -14t36.5 14t13.5 40h80q0 -57 -34 -95t-96 -38q-46 0 -77 21t-42 53t-11 59zM53 199v171q0 100 57.5 155.5t157.5 55.5q85 0 167 -25l-20 -93q-78 19 -132 19q-59 0 -86 -29.5t-27 -91.5v-153q0 -63 27 -92.5t86 -29.5q48 0 93 14v187
l107 8v-272q-56 -16 -108 -26t-107 -10q-100 0 -157.5 55.5t-57.5 156.5z" />
    <glyph glyph-name="gdotaccent.sc" horiz-adv-x="543" 
d="M211 710q0 23 18 41.5t41 18.5q22 0 40.5 -18.5t18.5 -41.5t-18 -40.5t-41 -17.5q-24 0 -41.5 17t-17.5 41zM53 199v171q0 100 57.5 155.5t157.5 55.5q85 0 167 -25l-20 -93q-78 19 -132 19q-59 0 -86 -29.5t-27 -91.5v-153q0 -63 27 -92.5t86 -29.5q48 0 93 14v187
l107 8v-272q-56 -16 -108 -26t-107 -10q-100 0 -157.5 55.5t-57.5 156.5z" />
    <glyph glyph-name="gcommaaccent.sc" horiz-adv-x="543" 
d="M53 199v171q0 100 57.5 155.5t157.5 55.5q85 0 167 -25l-20 -93q-78 19 -132 19q-59 0 -86 -29.5t-27 -91.5v-153q0 -63 27 -92.5t86 -29.5q48 0 93 14v187l107 8v-272q-56 -16 -108 -26t-107 -10q-100 0 -157.5 55.5t-57.5 156.5zM202 -214l22 150h104l-42 -150h-84z
" />
    <glyph glyph-name="hcircumflex.sc" horiz-adv-x="576" 
d="M194 637l-49 71l143 77l143 -77l-48 -71l-95 55zM72 0v568h116v-229h200v229h116v-547q0 -9 -6 -15t-16 -6h-94v245h-200v-245h-116z" />
    <glyph glyph-name="hbar.sc" horiz-adv-x="576" 
d="M72 0v413h-47v81h47v74h116v-74h200v74h116v-74h46v-81h-46v-392q0 -9 -6 -15t-16 -6h-94v245h-200v-245h-116zM188 339h200v74h-200v-74z" />
    <glyph glyph-name="iacute.sc" horiz-adv-x="260" 
d="M38 638l-26 71l206 76l32 -86zM72 0v568h116v-547q0 -9 -6 -15t-16 -6h-94z" />
    <glyph glyph-name="igrave.sc" horiz-adv-x="260" 
d="M12 699l31 86l207 -76l-27 -71zM72 0v568h116v-547q0 -9 -6 -15t-16 -6h-94z" />
    <glyph glyph-name="icircumflex.sc" horiz-adv-x="260" 
d="M36 637l-49 71l143 77l143 -77l-48 -71l-95 55zM72 0v568h116v-547q0 -9 -6 -15t-16 -6h-94z" />
    <glyph glyph-name="idieresis.sc" horiz-adv-x="260" 
d="M159 710q0 23 18 41.5t41 18.5t41 -18.5t18 -41.5t-18 -40.5t-41 -17.5t-41 17.5t-18 40.5zM-16 710q0 23 18 41.5t41 18.5t40.5 -18.5t17.5 -41.5t-17.5 -40.5t-40.5 -17.5q-24 0 -41.5 17t-17.5 41zM72 0v568h116v-547q0 -9 -6 -15t-16 -6h-94z" />
    <glyph glyph-name="itilde.sc" horiz-adv-x="260" 
d="M35 656l-45 53q24 32 46.5 46t49.5 14q23 0 52 -16t38 -16q25 0 50 30l45 -53q-29 -40 -52 -50t-43 -10q-22 0 -51 16t-39 16q-25 0 -51 -30zM72 0v568h116v-547q0 -9 -6 -15t-16 -6h-94z" />
    <glyph glyph-name="imacron.sc" horiz-adv-x="260" 
d="M16 670v84h229v-84h-229zM72 0v568h116v-547q0 -9 -6 -15t-16 -6h-94z" />
    <glyph glyph-name="ibreve.sc" horiz-adv-x="260" 
d="M0 777h80q0 -26 13.5 -40t36.5 -14t37 14t14 40h80q0 -27 -11.5 -59t-43 -53t-76.5 -21q-62 0 -96 38t-34 95zM72 0v568h116v-547q0 -9 -6 -15t-16 -6h-94z" />
    <glyph glyph-name="iogonek.sc" horiz-adv-x="260" 
d="M72 0v568h116v-568q-75 -59 -75 -104q0 -12 7.5 -19.5t19.5 -7.5t32 6l11 -79q-31 -10 -67 -10q-41 0 -69 26t-28 65q0 65 68 123h-15z" />
    <glyph glyph-name="ij.sc" horiz-adv-x="665" 
d="M271 13l23 91q62 -19 107 -19q38 0 59 21t21 86v376h116v-384q0 -41 -10.5 -76.5t-34 -62t-61 -41.5t-89.5 -15q-66 0 -131 24zM72 0v568h116v-547q0 -9 -6.5 -15t-15.5 -6h-94z" />
    <glyph glyph-name="jcircumflex.sc" horiz-adv-x="421" 
d="M200 637l-49 71l143 77l143 -77l-49 -71l-94 55zM27 11l23 94q62 -19 107 -19q44 0 62 25t18 75v382h116v-385q0 -64 -23 -107t-66 -66t-107 -23q-61 0 -130 24z" />
    <glyph glyph-name="kcommaaccent.sc" horiz-adv-x="521" 
d="M72 0v568h116v-230l45 4l106 226h124l-120 -238q42 -18 63 -76l88 -254h-121l-78 224q-4 11 -14.5 18t-23.5 6l-69 -6v-221q0 -9 -6 -15t-16 -6h-94zM194 -214l23 150h103l-41 -150h-85z" />
    <glyph glyph-name="lacute.sc" horiz-adv-x="472" 
d="M36 638l-26 71l206 76l32 -86zM72 0v568h116v-469h249v-78q0 -9 -6.5 -15t-15.5 -6h-343z" />
    <glyph glyph-name="lcaron.sc" horiz-adv-x="472" 
d="M72 0v568h116v-469h249v-78q0 -9 -6.5 -15t-15.5 -6h-343zM274 412l24 156h104l-43 -156h-85z" />
    <glyph glyph-name="lcommaaccent.sc" horiz-adv-x="472" 
d="M72 0v568h116v-469h249v-78q0 -9 -6.5 -15t-15.5 -6h-343zM183 -214l22 150h103l-41 -150h-84z" />
    <glyph glyph-name="ldot.sc" horiz-adv-x="472" 
d="M72 0v568h116v-469h249v-78q0 -9 -6.5 -15t-15.5 -6h-343zM266 257q0 26 17.5 43.5t42.5 17.5t42.5 -17.5t17.5 -43.5q0 -24 -17.5 -41.5t-42.5 -17.5q-24 0 -42 17.5t-18 41.5z" />
    <glyph glyph-name="lslash.sc" horiz-adv-x="472" 
d="M72 0v191l-36 -13l-29 77l65 23v290h116v-249l71 25l28 -77l-99 -35v-133h249v-78q0 -9 -6.5 -15t-15.5 -6h-343z" />
    <glyph glyph-name="nacute.sc" horiz-adv-x="568" 
d="M191 638l-26 71l206 76l32 -86zM72 0v568h104l209 -357q-4 36 -4 87v270h115v-568h-105l-208 354q4 -47 4 -84v-270h-115z" />
    <glyph glyph-name="ntilde.sc" horiz-adv-x="568" 
d="M188 656l-45 53q24 32 46.5 46t49.5 14q23 0 52 -16t38 -16q25 0 50 30l45 -53q-29 -40 -52 -50t-43 -10q-22 0 -51 16t-39 16q-25 0 -51 -30zM72 0v568h104l209 -357q-4 36 -4 87v270h115v-568h-105l-208 354q4 -47 4 -84v-270h-115z" />
    <glyph glyph-name="ncaron.sc" horiz-adv-x="568" 
d="M140 714l49 70l94 -54l95 54l48 -70l-143 -77zM72 0v568h104l209 -357q-4 36 -4 87v270h115v-568h-105l-208 354q4 -47 4 -84v-270h-115z" />
    <glyph glyph-name="ncommaaccent.sc" horiz-adv-x="568" 
d="M72 0v568h104l209 -357q-4 36 -4 87v270h115v-568h-105l-208 354q4 -47 4 -84v-270h-115zM217 -214l23 150h103l-41 -150h-85z" />
    <glyph glyph-name="eng.sc" horiz-adv-x="568" 
d="M72 0v568h104l209 -357q-4 36 -4 87v270h115v-603q0 -62 -38 -98.5t-111 -36.5q-39 0 -80 14l19 89q29 -8 58 -8q22 0 30.5 10t8.5 35v44l-200 340q4 -47 4 -84v-270h-115z" />
    <glyph glyph-name="oacute.sc" horiz-adv-x="571" 
d="M193 638l-27 71l207 76l31 -86zM53 231v106q0 52 15.5 97t45.5 78t73.5 51t97.5 18q53 0 97 -18t74 -51t46 -78t16 -97v-106q0 -52 -16 -97t-46 -78t-74 -51t-97 -18q-54 0 -97.5 18t-73.5 51t-45.5 78t-15.5 97zM170 328v-88q0 -75 27.5 -114.5t87.5 -39.5q61 0 88 39.5
t27 114.5v88q0 75 -27 114.5t-88 39.5q-115 0 -115 -154z" />
    <glyph glyph-name="ograve.sc" horiz-adv-x="571" 
d="M166 699l32 86l206 -76l-26 -71zM53 231v106q0 52 15.5 97t45.5 78t73.5 51t97.5 18q53 0 97 -18t74 -51t46 -78t16 -97v-106q0 -52 -16 -97t-46 -78t-74 -51t-97 -18q-54 0 -97.5 18t-73.5 51t-45.5 78t-15.5 97zM170 328v-88q0 -75 27.5 -114.5t87.5 -39.5
q61 0 88 39.5t27 114.5v88q0 75 -27 114.5t-88 39.5q-115 0 -115 -154z" />
    <glyph glyph-name="ocircumflex.sc" horiz-adv-x="571" 
d="M191 637l-49 71l143 77l143 -77l-49 -71l-94 55zM53 231v106q0 52 15.5 97t45.5 78t73.5 51t97.5 18q53 0 97 -18t74 -51t46 -78t16 -97v-106q0 -52 -16 -97t-46 -78t-74 -51t-97 -18q-54 0 -97.5 18t-73.5 51t-45.5 78t-15.5 97zM170 328v-88q0 -75 27.5 -114.5
t87.5 -39.5q61 0 88 39.5t27 114.5v88q0 75 -27 114.5t-88 39.5q-115 0 -115 -154z" />
    <glyph glyph-name="odieresis.sc" horiz-adv-x="571" 
d="M314 710q0 23 18 41.5t41 18.5q22 0 40.5 -18.5t18.5 -41.5t-18 -40.5t-41 -17.5q-24 0 -41.5 17t-17.5 41zM138 710q0 23 18 41.5t41 18.5t40.5 -18.5t17.5 -41.5q0 -24 -17 -41t-41 -17q-23 0 -41 17.5t-18 40.5zM53 231v106q0 52 15.5 97t45.5 78t73.5 51t97.5 18
q53 0 97 -18t74 -51t46 -78t16 -97v-106q0 -52 -16 -97t-46 -78t-74 -51t-97 -18q-54 0 -97.5 18t-73.5 51t-45.5 78t-15.5 97zM170 328v-88q0 -75 27.5 -114.5t87.5 -39.5q61 0 88 39.5t27 114.5v88q0 75 -27 114.5t-88 39.5q-115 0 -115 -154z" />
    <glyph glyph-name="otilde.sc" horiz-adv-x="571" 
d="M189 656l-44 53q23 32 45.5 46t49.5 14q13 0 27 -4.5t34.5 -16t29.5 -11.5q25 0 50 30l45 -53q-18 -24 -40 -42t-55 -18q-22 0 -51.5 16t-39.5 16q-25 0 -51 -30zM53 231v106q0 52 15.5 97t45.5 78t73.5 51t97.5 18q53 0 97 -18t74 -51t46 -78t16 -97v-106q0 -52 -16 -97
t-46 -78t-74 -51t-97 -18q-54 0 -97.5 18t-73.5 51t-45.5 78t-15.5 97zM170 328v-88q0 -75 27.5 -114.5t87.5 -39.5q61 0 88 39.5t27 114.5v88q0 75 -27 114.5t-88 39.5q-115 0 -115 -154z" />
    <glyph glyph-name="obreve.sc" horiz-adv-x="571" 
d="M155 777h80q0 -26 13.5 -40t36.5 -14t36.5 14t13.5 40h80q0 -57 -34 -95t-96 -38q-46 0 -77 21t-42 53t-11 59zM53 231v106q0 52 15.5 97t45.5 78t73.5 51t97.5 18q53 0 97 -18t74 -51t46 -78t16 -97v-106q0 -52 -16 -97t-46 -78t-74 -51t-97 -18q-54 0 -97.5 18
t-73.5 51t-45.5 78t-15.5 97zM170 328v-88q0 -75 27.5 -114.5t87.5 -39.5q61 0 88 39.5t27 114.5v88q0 75 -27 114.5t-88 39.5q-115 0 -115 -154z" />
    <glyph glyph-name="omacron.sc" horiz-adv-x="571" 
d="M171 670v84h229v-84h-229zM53 231v106q0 52 15.5 97t45.5 78t73.5 51t97.5 18q53 0 97 -18t74 -51t46 -78t16 -97v-106q0 -52 -16 -97t-46 -78t-74 -51t-97 -18q-54 0 -97.5 18t-73.5 51t-45.5 78t-15.5 97zM170 328v-88q0 -75 27.5 -114.5t87.5 -39.5q61 0 88 39.5
t27 114.5v88q0 75 -27 114.5t-88 39.5q-115 0 -115 -154z" />
    <glyph glyph-name="ohungarumlaut.sc" horiz-adv-x="571" 
d="M319 680l102 122l71 -63l-114 -111zM142 680l102 122l71 -63l-115 -111zM53 231v106q0 52 15.5 97t45.5 78t73.5 51t97.5 18q53 0 97 -18t74 -51t46 -78t16 -97v-106q0 -52 -16 -97t-46 -78t-74 -51t-97 -18q-54 0 -97.5 18t-73.5 51t-45.5 78t-15.5 97zM170 328v-88
q0 -75 27.5 -114.5t87.5 -39.5q61 0 88 39.5t27 114.5v88q0 75 -27 114.5t-88 39.5q-115 0 -115 -154z" />
    <glyph glyph-name="oslash.sc" horiz-adv-x="572" 
d="M96 -41l36 79q-38 33 -58.5 83t-20.5 110v106q0 38 10.5 80t40.5 82.5t79 61t103 20.5q41 0 86 -14l32 72l69 -30l-35 -79q38 -32 59.5 -82.5t21.5 -110.5v-106q0 -52 -16 -97t-46 -78t-74 -51t-97 -18q-48 0 -87 15l-33 -73zM186 159l144 316q-23 7 -44 7
q-61 0 -88 -39.5t-27 -114.5v-88q0 -51 15 -81zM401 240v88q0 51 -17 82l-144 -317q18 -7 46 -7q61 0 88 39.5t27 114.5z" />
    <glyph glyph-name="oe.sc" horiz-adv-x="792" 
d="M53 231v106q0 52 15.5 97t45.5 78t73.5 51t97.5 18q42 0 83 -13h373v-99h-255q15 -23 23.5 -53.5t8.5 -60.5v-17h198v-94h-198v-21q0 -33 -9 -66.5t-24 -57.5h259v-78q0 -9 -6 -15t-15 -6h-355q-41 -13 -83 -13q-54 0 -97.5 18t-73.5 51t-45.5 78t-15.5 97zM170 328v-88
q0 -75 27.5 -114.5t87.5 -39.5q61 0 88 39.5t27 114.5v88q0 75 -27 114.5t-88 39.5q-115 0 -115 -154z" />
    <glyph glyph-name="thorn.sc" horiz-adv-x="485" 
d="M72 0v568h116v-89h53q36 0 73 -10t67 -33t49.5 -59.5t19.5 -83.5q0 -38 -14 -72t-41 -59t-66.5 -39.5t-87.5 -14.5h-53v-108h-116zM188 203h49q21 0 43 9t35.5 31.5t13.5 49.5q0 28 -13.5 50.5t-35.5 31t-44 8.5h-48v-180z" />
    <glyph glyph-name="racute.sc" horiz-adv-x="498" 
d="M156 638l-26 71l206 76l32 -86zM72 0v547q121 34 188 34q46 0 79.5 -13.5t58 -34.5t43 -58t18.5 -83q0 -36 -15.5 -72.5t-42.5 -59.5t-54 -34l108 -226h-125l-93 209h-49v-209h-116zM188 299h63q41 0 63.5 25t22.5 67q0 28 -10.5 50.5t-29.5 31.5t-38 9q-37 0 -71 -10
v-173z" />
    <glyph glyph-name="rcaron.sc" horiz-adv-x="498" 
d="M105 714l49 70l94 -54l95 54l48 -70l-143 -77zM72 0v547q121 34 188 34q46 0 79.5 -13.5t58 -34.5t43 -58t18.5 -83q0 -36 -15.5 -72.5t-42.5 -59.5t-54 -34l108 -226h-125l-93 209h-49v-209h-116zM188 299h63q41 0 63.5 25t22.5 67q0 28 -10.5 50.5t-29.5 31.5t-38 9
q-37 0 -71 -10v-173z" />
    <glyph glyph-name="rcommaaccent.sc" horiz-adv-x="498" 
d="M72 0v547q121 34 188 34q46 0 79.5 -13.5t58 -34.5t43 -58t18.5 -83q0 -36 -15.5 -72.5t-42.5 -59.5t-54 -34l108 -226h-125l-93 209h-49v-209h-116zM188 299h63q41 0 63.5 25t22.5 67q0 28 -10.5 50.5t-29.5 31.5t-38 9q-37 0 -71 -10v-173zM182 -214l23 150h103
l-41 -150h-85z" />
    <glyph glyph-name="sacute.sc" horiz-adv-x="452" 
d="M134 638l-27 71l207 76l31 -86zM37 21l21 96q91 -31 151 -31q40 0 61 19t21 49q0 4 -1.5 14t-13 27.5t-65 42t-71 33.5t-34 22.5t-28 29t-20.5 39.5t-9 58q0 74 55.5 117.5t142.5 43.5q20 0 51.5 -4t97.5 -27l-30 -93q-36 13 -63 19t-56 6q-37 0 -57 -17.5t-20 -44.5
q0 -18 14 -35.5t79 -47.5t95.5 -57t42.5 -59.5t12 -66.5q0 -75 -56.5 -121t-147.5 -46q-34 0 -69.5 6t-102.5 28z" />
    <glyph glyph-name="scircumflex.sc" horiz-adv-x="452" 
d="M132 637l-49 71l143 77l143 -77l-49 -71l-94 55zM37 21l21 96q91 -31 151 -31q40 0 61 19t21 49q0 4 -1.5 14t-13 27.5t-65 42t-71 33.5t-34 22.5t-28 29t-20.5 39.5t-9 58q0 74 55.5 117.5t142.5 43.5q20 0 51.5 -4t97.5 -27l-30 -93q-36 13 -63 19t-56 6
q-37 0 -57 -17.5t-20 -44.5q0 -18 14 -35.5t79 -47.5t95.5 -57t42.5 -59.5t12 -66.5q0 -75 -56.5 -121t-147.5 -46q-34 0 -69.5 6t-102.5 28z" />
    <glyph glyph-name="scaron.sc" horiz-adv-x="452" 
d="M83 714l49 70l94 -54l94 54l49 -70l-143 -77zM37 21l21 96q91 -31 151 -31q40 0 61 19t21 49q0 4 -1.5 14t-13 27.5t-65 42t-71 33.5t-34 22.5t-28 29t-20.5 39.5t-9 58q0 74 55.5 117.5t142.5 43.5q20 0 51.5 -4t97.5 -27l-30 -93q-36 13 -63 19t-56 6q-37 0 -57 -17.5
t-20 -44.5q0 -18 14 -35.5t79 -47.5t95.5 -57t42.5 -59.5t12 -66.5q0 -75 -56.5 -121t-147.5 -46q-34 0 -69.5 6t-102.5 28z" />
    <glyph glyph-name="scedilla.sc" horiz-adv-x="452" 
d="M86 -204l12 77q25 -5 44 -5t30 12.5t11 33.5v74q-57 3 -146 33l21 96q91 -31 151 -31q40 0 61 19t21 49q0 4 -1.5 14t-13 27.5t-65 42t-71 33.5t-34 22.5t-28 29t-20.5 39.5t-9 58q0 74 55.5 117.5t142.5 43.5q20 0 51.5 -4t97.5 -27l-30 -93q-36 13 -63 19t-56 6
q-37 0 -57 -17.5t-20 -44.5q0 -18 14 -35.5t79 -47.5t95.5 -57t42.5 -59.5t12 -66.5q0 -60 -36.5 -102.5t-99.5 -56.5v-98q0 -30 -13 -56t-43.5 -40t-64.5 -14q-35 0 -70 9z" />
    <glyph glyph-name="scommaaccent.sc" horiz-adv-x="452" 
d="M37 21l21 96q91 -31 151 -31q40 0 61 19t21 49q0 4 -1.5 14t-13 27.5t-65 42t-71 33.5t-34 22.5t-28 29t-20.5 39.5t-9 58q0 74 55.5 117.5t142.5 43.5q20 0 51.5 -4t97.5 -27l-30 -93q-36 13 -63 19t-56 6q-37 0 -57 -17.5t-20 -44.5q0 -18 14 -35.5t79 -47.5t95.5 -57
t42.5 -59.5t12 -66.5q0 -75 -56.5 -121t-147.5 -46q-34 0 -69.5 6t-102.5 28zM160 -214l22 150h104l-42 -150h-84z" />
    <glyph glyph-name="germandbls.sc" horiz-adv-x="902" 
d="M487 21l21 96q91 -31 151 -31q40 0 61 19t21 49q0 4 -1.5 14t-13 27.5t-65 42t-71 33.5t-34 22.5t-28 29t-20.5 39.5t-9 58q0 74 55.5 117.5t142.5 43.5q20 0 51.5 -4t97.5 -27l-30 -93q-36 13 -63 19t-56 6q-37 0 -57 -17.5t-20 -44.5q0 -18 14 -35.5t79 -47.5t95.5 -57
t42.5 -59.5t12 -66.5q0 -75 -56.5 -121t-147.5 -46q-34 0 -69.5 6t-102.5 28zM37 21l21 96q91 -31 151 -31q40 0 61 19t21 49q0 4 -1.5 14t-13 27.5t-65 42t-71 33.5t-34 22.5t-28 29t-20.5 39.5t-9 58q0 74 55.5 117.5t142.5 43.5q20 0 51.5 -4t97.5 -27l-30 -93
q-36 13 -63 19t-56 6q-37 0 -57 -17.5t-20 -44.5q0 -18 14 -35.5t79 -47.5t95.5 -57t42.5 -59.5t12 -66.5q0 -75 -56.5 -121t-147.5 -46q-34 0 -69.5 6t-102.5 28z" />
    <glyph glyph-name="tcaron.sc" horiz-adv-x="451" 
d="M81 714l49 70l94 -54l94 54l49 -70l-143 -77zM167 0v469h-136v99h389v-99h-137v-469h-116z" />
    <glyph glyph-name="tcommaaccent.sc" horiz-adv-x="451" 
d="M167 0v469h-136v99h389v-99h-137v-469h-116zM153 -214l23 150h103l-41 -150h-85z" />
    <glyph glyph-name="tbar.sc" horiz-adv-x="451" 
d="M167 0v242h-79v80h79v147h-136v99h389v-99h-137v-147h79v-80h-79v-242h-116z" />
    <glyph glyph-name="uacute.sc" horiz-adv-x="564" 
d="M190 638l-26 71l206 76l31 -86zM60 213v355h116v-369q0 -46 26.5 -79.5t80.5 -33.5q53 0 79 33.5t26 79.5v369h116v-355q0 -106 -57.5 -166t-163.5 -60t-164.5 60t-58.5 166z" />
    <glyph glyph-name="ugrave.sc" horiz-adv-x="564" 
d="M164 699l32 86l206 -76l-26 -71zM60 213v355h116v-369q0 -46 26.5 -79.5t80.5 -33.5q53 0 79 33.5t26 79.5v369h116v-355q0 -106 -57.5 -166t-163.5 -60t-164.5 60t-58.5 166z" />
    <glyph glyph-name="ucircumflex.sc" horiz-adv-x="564" 
d="M188 637l-49 71l143 77l143 -77l-49 -71l-94 55zM60 213v355h116v-369q0 -46 26.5 -79.5t80.5 -33.5q53 0 79 33.5t26 79.5v369h116v-355q0 -106 -57.5 -166t-163.5 -60t-164.5 60t-58.5 166z" />
    <glyph glyph-name="udieresis.sc" horiz-adv-x="564" 
d="M311 710q0 23 18 41.5t41 18.5t41 -18.5t18 -41.5t-18 -40.5t-41 -17.5q-24 0 -41.5 17t-17.5 41zM135 710q0 23 18 41.5t41 18.5t41 -18.5t18 -41.5q0 -24 -17.5 -41t-41.5 -17q-23 0 -41 17.5t-18 40.5zM60 213v355h116v-369q0 -46 26.5 -79.5t80.5 -33.5q53 0 79 33.5
t26 79.5v369h116v-355q0 -106 -57.5 -166t-163.5 -60t-164.5 60t-58.5 166z" />
    <glyph glyph-name="utilde.sc" horiz-adv-x="564" 
d="M186 656l-44 53q24 32 46 46t49 14q13 0 27 -4.5t34.5 -16t29.5 -11.5q25 0 50 30l45 -53q-17 -24 -39.5 -42t-55.5 -18q-13 0 -25.5 4.5t-34 16t-31.5 11.5q-25 0 -51 -30zM60 213v355h116v-369q0 -46 26.5 -79.5t80.5 -33.5q53 0 79 33.5t26 79.5v369h116v-355
q0 -106 -57.5 -166t-163.5 -60t-164.5 60t-58.5 166z" />
    <glyph glyph-name="uring.sc" horiz-adv-x="564" 
d="M185 713q0 18 9.5 39t33.5 35t53 14q20 0 43 -8t39.5 -30t16.5 -50q0 -27 -16.5 -49t-40 -30t-42.5 -8q-40 0 -68 25t-28 62zM259 713q0 -9 6.5 -16t15.5 -7t17 7t8 17q0 9 -7 16t-17 7q-8 0 -15.5 -7t-7.5 -17zM60 213v355h116v-369q0 -46 26.5 -79.5t80.5 -33.5
q53 0 79 33.5t26 79.5v369h116v-355q0 -106 -57.5 -166t-163.5 -60t-164.5 60t-58.5 166z" />
    <glyph glyph-name="ubreve.sc" horiz-adv-x="564" 
d="M152 777h80q0 -26 13.5 -40t36.5 -14t36.5 14t13.5 40h80q0 -57 -34 -95t-96 -38t-96 38t-34 95zM60 213v355h116v-369q0 -46 26.5 -79.5t80.5 -33.5q53 0 79 33.5t26 79.5v369h116v-355q0 -106 -57.5 -166t-163.5 -60t-164.5 60t-58.5 166z" />
    <glyph glyph-name="umacron.sc" horiz-adv-x="564" 
d="M168 670v84h229v-84h-229zM60 213v355h116v-369q0 -46 26.5 -79.5t80.5 -33.5q53 0 79 33.5t26 79.5v369h116v-355q0 -106 -57.5 -166t-163.5 -60t-164.5 60t-58.5 166z" />
    <glyph glyph-name="uhungarumlaut.sc" horiz-adv-x="564" 
d="M294 680l102 122l71 -63l-114 -111zM117 680l102 122l71 -63l-115 -111zM60 213v355h116v-369q0 -46 26.5 -79.5t80.5 -33.5q53 0 79 33.5t26 79.5v369h116v-355q0 -106 -57.5 -166t-163.5 -60t-164.5 60t-58.5 166z" />
    <glyph glyph-name="uogonek.sc" horiz-adv-x="564" 
d="M329 -125l10 -79q-30 -10 -66 -10q-41 0 -69 26t-28 65q0 60 57 114q-51 8 -88.5 34t-61 72.5t-23.5 115.5v355h116v-369q0 -46 26.5 -79.5t80.5 -33.5q53 0 79 33.5t26 79.5v369h116v-355q0 -93 -44 -151t-127 -71q-28 -23 -46 -47.5t-18 -47.5q0 -12 8 -19.5t20 -7.5
t32 6z" />
    <glyph glyph-name="wacute.sc" horiz-adv-x="772" 
d="M294 638l-26 71l206 76l31 -86zM155 0l-117 568h120l44 -249q6 -34 20 -171q8 96 26 171l28 116q25 98 110 98q23 0 47 -9.5t40.5 -33.5t23.5 -55l27 -116q18 -75 26 -170q14 134 20 170l44 249h120l-117 -568h-128l-87 412q-4 19 -16 19t-16 -19l-86 -412h-129z" />
    <glyph glyph-name="wgrave.sc" horiz-adv-x="772" 
d="M268 699l31 86l206 -76l-26 -71zM155 0l-117 568h120l44 -249q6 -34 20 -171q8 96 26 171l28 116q25 98 110 98q23 0 47 -9.5t40.5 -33.5t23.5 -55l27 -116q18 -75 26 -170q14 134 20 170l44 249h120l-117 -568h-128l-87 412q-4 19 -16 19t-16 -19l-86 -412h-129z" />
    <glyph glyph-name="wcircumflex.sc" horiz-adv-x="772" 
d="M292 637l-49 71l143 77l143 -77l-49 -71l-94 55zM155 0l-117 568h120l44 -249q6 -34 20 -171q8 96 26 171l28 116q25 98 110 98q23 0 47 -9.5t40.5 -33.5t23.5 -55l27 -116q18 -75 26 -170q14 134 20 170l44 249h120l-117 -568h-128l-87 412q-4 19 -16 19t-16 -19
l-86 -412h-129z" />
    <glyph glyph-name="wdieresis.sc" horiz-adv-x="772" 
d="M415 710q0 23 18 41.5t41 18.5t41 -18.5t18 -41.5t-18 -40.5t-41 -17.5q-24 0 -41.5 17t-17.5 41zM239 710q0 23 18 41.5t41 18.5t41 -18.5t18 -41.5q0 -24 -17.5 -41t-41.5 -17q-23 0 -41 17.5t-18 40.5zM155 0l-117 568h120l44 -249q6 -34 20 -171q8 96 26 171l28 116
q25 98 110 98q23 0 47 -9.5t40.5 -33.5t23.5 -55l27 -116q18 -75 26 -170q14 134 20 170l44 249h120l-117 -568h-128l-87 412q-4 19 -16 19t-16 -19l-86 -412h-129z" />
    <glyph glyph-name="yacute.sc" horiz-adv-x="508" 
d="M161 638l-26 71l206 76l32 -86zM197 0v225q-96 26 -122 146l-41 197h115l35 -172q11 -52 28.5 -67.5t41.5 -15.5t41 15t28 68l36 172h115l-41 -197q-26 -120 -121 -146v-225h-115z" />
    <glyph glyph-name="ygrave.sc" horiz-adv-x="508" 
d="M135 699l32 86l206 -76l-26 -71zM197 0v225q-96 26 -122 146l-41 197h115l35 -172q11 -52 28.5 -67.5t41.5 -15.5t41 15t28 68l36 172h115l-41 -197q-26 -120 -121 -146v-225h-115z" />
    <glyph glyph-name="ycircumflex.sc" horiz-adv-x="508" 
d="M159 637l-48 71l143 77l143 -77l-49 -71l-94 55zM197 0v225q-96 26 -122 146l-41 197h115l35 -172q11 -52 28.5 -67.5t41.5 -15.5t41 15t28 68l36 172h115l-41 -197q-26 -120 -121 -146v-225h-115z" />
    <glyph glyph-name="ydieresis.sc" horiz-adv-x="508" 
d="M282 710q0 23 18.5 41.5t41.5 18.5q22 0 40 -18.5t18 -41.5t-18 -40.5t-40 -17.5q-24 0 -42 17.5t-18 40.5zM107 710q0 23 18 41.5t41 18.5t40.5 -18.5t17.5 -41.5t-17.5 -40.5t-40.5 -17.5q-24 0 -41.5 17t-17.5 41zM197 0v225q-96 26 -122 146l-41 197h115l35 -172
q11 -52 28.5 -67.5t41.5 -15.5t41 15t28 68l36 172h115l-41 -197q-26 -120 -121 -146v-225h-115z" />
    <glyph glyph-name="zacute.sc" horiz-adv-x="494" 
d="M154 638l-26 71l206 76l32 -86zM48 0v88l249 381h-240v99h375v-89l-249 -380h263v-99h-398z" />
    <glyph glyph-name="zcaron.sc" horiz-adv-x="494" 
d="M103 714l49 70l94 -54l95 54l48 -70l-143 -77zM48 0v88l249 381h-240v99h375v-89l-249 -380h263v-99h-398z" />
    <glyph glyph-name="zdotaccent.sc" horiz-adv-x="494" 
d="M187 710q0 23 18.5 41.5t41.5 18.5q22 0 40 -18.5t18 -41.5t-18 -40.5t-40 -17.5q-24 0 -42 17.5t-18 40.5zM48 0v88l249 381h-240v99h375v-89l-249 -380h263v-99h-398z" />
    <glyph glyph-name="cdotaccent.sc" horiz-adv-x="483" 
d="M195 710q0 23 18 41.5t41 18.5q22 0 40.5 -18.5t18.5 -41.5t-18 -40.5t-41 -17.5q-24 0 -41.5 17t-17.5 41zM53 198v172q0 100 57.5 155.5t157.5 55.5q86 0 167 -25l-20 -95q-71 21 -132 21q-55 0 -84 -27t-29 -94v-153q0 -60 25.5 -91t87.5 -31q57 0 132 20l20 -94
q-82 -25 -167 -25q-100 0 -157.5 55.5t-57.5 155.5z" />
    </font>
</defs>
</svg>
