<svg width="594" height="645" viewBox="0 0 594 645" fill="none" xmlns="http://www.w3.org/2000/svg">
<g clip-path="url(#clip0_1639_1486)">
<path d="M557.875 643.819C557.875 644.759 534.665 645.229 533.745 644.309C533.485 644.049 525.425 643.369 515.825 642.789C506.225 642.209 492.755 641.329 485.875 640.829C465.925 639.369 429.855 636.939 410.875 635.789C373.715 633.539 349.295 631.529 347.515 630.579C346.495 630.029 346.045 629.209 346.515 628.749C347.285 627.999 382.605 629.999 417.755 632.779C425.125 633.359 431.355 633.619 431.615 633.369C431.865 633.109 430.115 632.409 427.725 631.809C414.355 628.469 395.215 617.299 381.425 604.789C360.785 586.069 346.495 561.339 340.395 533.769C337.855 522.289 337.285 497.639 339.255 484.229C344.355 449.589 362.465 420.249 392.505 397.989C398.385 393.629 398.605 393.319 397.755 390.359C397.275 388.669 396.875 384.269 396.875 380.589C396.875 376.899 396.405 373.599 395.825 373.239C394.845 372.629 391.265 376.259 382.935 386.299C379.815 390.049 369.675 401.949 338.345 438.599C327.135 451.709 326.775 452.349 328.475 455.609C330.745 459.959 330.255 465.069 327.295 467.849C325.115 469.889 323.695 470.269 318.185 470.299C311.995 470.329 311.505 470.509 308.515 473.869C303.735 479.259 285.535 500.869 284.175 502.779C283.245 504.089 283.295 506.259 284.425 512.739C288.435 535.699 276.565 554.689 255.575 558.899L250.375 559.939L250.705 565.119C250.965 569.269 250.595 570.859 248.825 573.109C245.595 577.219 242.625 578.019 235.685 576.649C230.085 575.549 229.675 575.599 228.265 577.629C226.015 580.839 222.925 580.279 212.155 574.719L202.375 569.679L199.415 573.469C194.805 579.389 181.995 591.489 175.375 596.189C166.155 602.719 150.045 610.479 142.045 612.229C140.305 612.619 138.875 613.279 138.875 613.699C138.875 614.629 154.775 615.759 168.015 615.759C175.365 615.769 177.785 616.099 178.195 617.169C179.035 619.339 177.995 619.769 171.955 619.769C166.145 619.759 126.715 617.139 118.875 616.229C116.395 615.949 94.3552 614.369 69.8752 612.739C45.3952 611.099 22.3652 609.309 18.6852 608.759C15.0052 608.219 11.7452 607.769 11.4352 607.769C11.1252 607.769 10.8752 607.249 10.8752 606.619C10.8752 605.359 16.1852 605.559 54.2252 608.229C66.2452 609.069 76.5252 609.489 77.0652 609.149C77.6152 608.809 75.6552 607.559 72.7152 606.359C53.6952 598.589 34.8352 582.469 21.1352 562.269C16.3852 555.269 5.95519 534.409 5.38519 530.769C5.16519 529.389 4.04519 524.219 2.88519 519.269C-0.224812 506.009 -0.94483 482.349 1.33517 468.689C4.50517 449.759 11.1552 431.759 20.0152 418.099C34.9552 395.089 59.2452 377.259 85.3852 370.119C94.2152 367.709 97.1752 367.389 110.875 367.359C123.655 367.319 127.915 367.709 135.155 369.529C145.475 372.139 158.665 377.429 165.855 381.849C168.675 383.589 171.115 384.839 171.285 384.639C171.455 384.429 176.835 376.799 183.235 367.669C190.645 357.109 194.845 350.199 194.795 348.669C194.675 344.939 192.415 338.249 191.345 338.449C189.925 338.709 186.875 335.689 186.875 334.029C186.875 333.239 187.825 331.819 188.995 330.869L191.115 329.159L188.425 320.509C185.655 311.639 182.385 306.069 172.135 292.809L166.365 285.359L158.775 283.999C152.915 282.949 150.445 281.969 147.965 279.709C146.195 278.089 144.305 276.769 143.755 276.769C143.205 276.769 141.435 275.319 139.815 273.549C134.045 267.229 137.215 258.769 145.345 258.769C147.105 258.769 148.775 258.539 149.055 258.249C149.345 257.969 148.935 255.379 148.165 252.499C145.915 244.169 146.965 226.929 150.215 218.939C152.335 213.719 152.575 212.269 151.585 210.669C150.575 209.059 150.865 207.809 153.375 203.009C158.285 193.609 171.535 172.899 178.805 163.269C186.875 152.569 204.935 132.609 213.945 124.419C235.055 105.239 259.775 90.929 280.695 85.779C289.705 83.559 307.215 81.519 313.775 81.919C319.435 82.269 320.115 80.099 314.875 78.399C312.195 77.529 311.305 76.649 311.065 74.619C310.905 73.169 309.885 71.189 308.815 70.219C306.515 68.129 306.285 64.499 308.355 62.789C309.465 61.869 309.575 61.079 308.795 59.629C307.445 57.099 308.475 54.029 310.925 53.249C312.115 52.879 312.875 51.739 312.875 50.329C312.875 47.449 314.505 46.039 318.375 45.609L321.375 45.269L321.955 35.769C322.415 28.259 323.085 25.199 325.145 21.159C328.895 13.839 336.085 7.75899 344.465 4.83898C348.265 3.50898 352.385 1.77898 353.625 0.978984C355.095 0.0389841 357.005 -0.231015 359.125 0.198985C360.915 0.558985 365.585 1.27898 369.515 1.78898C386.095 3.97898 393.895 10.559 398.905 26.629C399.655 29.019 400.735 31.109 401.325 31.259C401.905 31.409 405.905 32.309 410.215 33.249C430.525 37.729 429.615 50.589 408.955 51.029L401.075 51.199L400.415 58.729C398.465 81.389 393.305 97.809 385.905 104.949C381.075 109.629 376.555 110.569 369.025 108.469C365.935 107.609 363.235 107.069 363.035 107.279C362.835 107.479 364.805 110.259 367.425 113.459C372.755 119.949 377.045 128.659 381.885 142.769C383.685 147.999 386.475 154.909 388.085 158.139C389.955 161.859 390.825 164.849 390.465 166.289C390.075 167.809 391.635 172.279 395.215 179.909C398.135 186.159 401.135 192.769 401.855 194.599C402.685 196.679 405.855 200.019 410.275 203.489C414.185 206.549 424.345 215.909 432.875 224.309C460.505 251.509 468.775 257.509 483.125 260.729C491.885 262.689 493.025 262.759 494.405 261.379C498.385 257.399 508.705 259.119 510.995 264.139C511.895 266.119 511.765 267.639 510.335 271.619C508.645 276.309 508.635 277.039 510.155 283.939C511.035 287.969 511.975 295.669 512.245 301.039C512.585 308.139 513.285 311.989 514.795 315.109C517.265 320.199 517.345 321.139 515.425 322.729C514.225 323.719 513.165 323.109 509.505 319.349C507.055 316.829 504.045 312.679 502.805 310.119C500.805 305.999 500.695 305.109 501.835 302.369C503.465 298.449 504.335 292.769 503.315 292.769C502.885 292.769 499.945 295.019 496.785 297.769C493.615 300.519 490.375 302.769 489.575 302.769C488.545 302.769 487.985 304.299 487.665 308.019C487.415 310.909 486.225 315.389 485.035 317.979C482.415 323.649 474.085 332.409 467.845 336.059C463.225 338.749 451.405 341.769 445.465 341.769C440.775 341.769 437.655 338.759 438.055 334.619C438.365 331.409 440.115 329.859 445.155 328.349C446.635 327.899 446.285 327.229 442.955 324.229C438.525 320.219 434.875 313.539 434.875 309.409C434.875 307.919 435.775 304.929 436.875 302.769C439.835 296.959 439.175 293.299 435.875 297.269C435.195 298.099 434.085 298.769 433.425 298.769C432.765 298.769 431.165 299.889 429.875 301.269C428.585 302.649 426.965 303.769 426.275 303.769C425.495 303.769 424.765 305.939 424.345 309.519C423.385 317.679 419.535 325.699 413.925 331.219L409.125 335.949L410.415 340.109C418.265 365.389 419.415 368.519 422.015 371.529C423.565 373.329 425.545 376.159 426.395 377.819C427.255 379.479 428.405 380.559 428.955 380.219C429.505 379.879 434.735 378.739 440.585 377.689C453.635 375.329 474.985 375.129 486.995 377.249C503.255 380.109 520.785 387.299 536.185 397.419C550.385 406.749 570.335 429.709 578.635 446.269C589.025 467.009 594.705 495.019 592.945 516.929C589.885 555.209 573.195 587.529 544.105 611.539C537.345 617.119 524.135 625.199 516.875 628.189C514.405 629.209 511.025 630.619 509.375 631.319C504.575 633.379 494.395 635.769 490.485 635.769C488.495 635.769 486.875 636.219 486.875 636.769C486.875 637.319 488.085 637.769 489.575 637.769C494.115 637.769 551.165 641.769 554.625 642.329C556.415 642.619 557.875 643.289 557.875 643.819ZM457.485 616.049C457.955 616.509 479.535 614.909 485.875 613.949C489.455 613.399 493.725 612.239 495.375 611.369C497.025 610.499 499.495 609.779 500.875 609.769C508.145 609.719 527.205 597.279 539.395 584.619C549.785 573.829 554.325 567.319 560.395 554.469C576.695 519.959 573.435 478.339 551.865 445.269C540.645 428.079 521.015 412.189 501.955 404.869C485.775 398.669 462.515 396.069 448.375 398.889C445.625 399.429 441.915 400.129 440.125 400.429C438.335 400.739 436.875 401.409 436.875 401.919C436.875 402.689 455.185 446.929 461.435 461.269C462.395 463.469 463.115 465.609 463.025 466.019C462.945 466.429 463.355 466.769 463.935 466.769C464.515 466.769 464.755 467.159 464.455 467.639C464.155 468.119 466.715 469.299 470.145 470.259C478.695 472.649 485.065 476.039 489.415 480.509C500.845 492.259 503.715 508.379 496.995 523.129C492.035 534.019 485.235 540.019 473.475 543.879C467.425 545.869 466.225 545.959 459.615 544.869C455.635 544.219 450.445 542.759 448.085 541.619C442.085 538.729 433.775 530.839 430.685 525.109C423.625 512.009 424.975 494.549 433.805 484.599L437.575 480.349L430.645 465.809C422.685 449.109 421.215 445.939 413.355 428.519C410.195 421.509 407.035 415.769 406.335 415.769C404.325 415.769 394.795 423.959 387.185 432.209C374.725 445.729 365.685 463.609 361.615 482.769C359.035 494.929 358.875 514.639 361.255 526.769C367.925 560.729 389.065 588.779 420.065 604.789C431.225 610.559 439.355 613.279 449.845 614.769C453.925 615.339 457.355 615.919 457.485 616.049ZM212.375 235.699C225.845 237.959 245.745 236.299 259.315 231.789C266.105 229.529 267.245 228.169 267.085 222.529C267.005 219.799 267.935 218.829 284.655 204.149L287.945 201.269L283.705 191.439C280.225 183.359 278.955 181.399 276.545 180.419C273.875 179.329 273.085 177.709 267.695 162.249C264.435 152.909 261.525 144.479 261.205 143.519C260.285 140.669 262.755 141.519 264.705 144.719C265.685 146.349 267.745 151.409 269.275 155.969C270.795 160.539 272.945 166.809 274.045 169.919L276.045 175.559L285.205 171.279C294.725 166.829 307.185 163.769 315.725 163.769C318.375 163.769 320.785 163.519 321.095 163.219C321.395 162.919 321.215 160.779 320.685 158.469C320.165 156.159 318.625 147.969 317.275 140.269C314.115 122.319 311.025 115.389 302.665 107.519C297.595 102.749 296.935 101.769 298.775 101.769C301.775 101.769 310.905 110.549 314.105 116.509C316.695 121.339 318.925 129.809 321.405 144.269C323.685 157.589 327.405 174.149 328.575 176.219C329.585 177.999 330.415 177.409 338.525 169.219C343.395 164.299 349.685 157.569 352.505 154.269C355.325 150.969 357.965 148.579 358.375 148.969C359.325 149.879 355.715 155.659 349.535 163.079L344.575 169.039L347.715 175.399L350.845 181.749L356.615 179.659C359.785 178.519 367.925 174.929 374.695 171.689C382.505 167.969 385.755 166.559 386.255 164.479C386.605 163.039 385.635 161.279 383.945 158.219C383.775 157.919 383.605 157.599 383.425 157.269C381.265 153.339 379.555 148.669 376.285 137.769C373.055 127.039 362.965 110.749 359.545 110.779C357.695 110.789 350.875 117.709 350.875 119.579C350.865 122.059 347.315 127.459 344.815 128.799C341.845 130.389 335.775 127.609 330.615 122.289C325.315 116.829 319.395 104.129 317.325 93.769C316.395 89.089 315.545 85.159 315.425 85.029C315.055 84.589 293.475 86.799 287.375 87.899C274.295 90.259 256.265 97.929 241.695 107.329C220.165 121.219 192.295 149.319 175.795 173.779C165.595 188.899 154.875 206.689 154.875 208.499C154.875 211.559 169.885 221.509 182.285 226.669C190.555 230.109 205.075 234.469 212.375 235.699ZM103.415 593.659C106.695 594.139 110.725 594.549 112.375 594.589C116.025 594.659 128.525 593.229 131.625 592.379C132.865 592.049 134.845 591.559 136.025 591.299C148.905 588.469 164.015 579.359 175.875 567.269L182.375 560.649L144.295 561.359L106.205 562.059L102.045 558.299C99.7452 556.229 97.8752 553.759 97.8752 552.809C97.8752 551.859 100.535 547.099 103.795 542.219L109.715 533.359L106.285 532.179C102.515 530.879 100.065 529.189 98.0652 526.519C97.2352 525.409 95.4152 524.769 93.0652 524.769C91.0352 524.759 87.8652 523.839 86.0152 522.709C83.0952 520.929 82.7252 520.269 83.2352 517.709C83.6752 515.509 83.1052 513.629 80.9852 510.279C76.8852 503.819 75.5452 498.019 76.0752 489.019C76.9152 474.649 84.0752 463.769 96.4052 458.129C100.685 456.169 103.365 455.669 109.575 455.699C113.865 455.719 118.145 455.849 119.095 455.999C120.325 456.189 126.025 448.839 139.335 429.869C154.405 408.399 157.645 403.199 156.675 402.029C154.435 399.319 141.885 393.749 133.135 391.579C121.575 388.699 99.6652 388.449 89.8752 391.069C81.8652 393.219 68.9052 399.319 61.1052 404.609C48.3852 413.249 35.6052 429.579 28.3352 446.489C21.7852 461.719 20.3952 469.169 20.3952 489.269C20.3952 505.849 20.6152 508.099 23.2152 517.769C28.5552 537.719 37.3652 553.089 51.0452 566.349C67.0952 581.909 84.2752 590.869 103.415 593.659ZM206.815 335.539C208.155 337.319 209.525 338.769 209.865 338.769C210.195 338.769 212.245 336.929 214.425 334.679C224.095 324.659 242.695 314.089 257.325 310.309C260.595 309.469 263.665 308.379 264.145 307.899C264.645 307.399 259.205 295.969 251.445 281.199C243.985 266.999 237.875 254.759 237.875 253.989C237.875 251.469 240.335 253.349 242.785 257.739L245.185 262.069L250.365 256.239C253.205 253.029 255.805 250.849 256.135 251.379C257.055 252.869 254.145 258.119 250.365 261.779L246.965 265.079L255.565 281.669C260.305 290.799 265.025 299.219 266.075 300.379C267.815 302.319 276.335 305.769 279.405 305.769C280.125 305.769 281.665 302.779 282.865 299.019C287.725 283.879 299.365 266.709 309.075 260.349C311.655 258.649 313.795 256.979 313.825 256.619C313.975 254.809 270.385 233.769 266.495 233.769C265.225 233.769 261.755 234.599 258.785 235.619C229.775 245.539 189.205 238.809 161.615 219.499C158.445 217.279 155.705 215.639 155.525 215.869C151.785 220.529 149.485 243.129 151.805 252.499C153.585 259.659 158.165 268.389 164.525 276.769C181.645 299.299 197.045 320.589 202.375 329.119C203.475 330.869 205.475 333.759 206.815 335.539ZM223.485 468.229C227.825 469.399 228.525 469.369 229.675 467.909C231.185 466.019 248.345 436.079 260.145 414.769C264.555 406.789 270.915 395.899 274.275 390.569C284.435 374.419 285.275 372.339 285.135 363.769C285.055 359.199 284.255 354.119 283.075 350.769C279.735 341.309 267.785 314.939 266.265 313.679C262.485 310.539 239.705 319.479 226.145 329.399C221.025 333.149 216.875 336.969 216.875 337.949C216.875 338.389 219.995 342.299 223.815 346.629C233.335 357.429 238.875 365.579 238.875 368.759C238.875 370.349 237.815 372.399 236.265 373.849C231.315 378.429 221.145 392.279 217.595 399.269C213.525 407.259 210.635 416.219 208.475 427.469C207.655 431.759 205.885 439.889 204.545 445.529C202.125 455.689 202.125 455.809 204.025 458.239C206.275 461.099 216.475 466.329 223.485 468.229ZM417.375 302.589C422.485 305.439 422.445 303.039 417.285 296.539C411.295 288.979 413.375 287.379 419.795 294.629C424.155 299.559 427.025 300.949 428.375 298.779C428.705 298.229 426.925 294.889 424.395 291.349C421.125 286.759 420.165 284.709 421.035 284.169C421.805 283.699 423.035 284.489 424.315 286.279C428.535 292.169 432.565 296.079 433.715 295.369C435.835 294.059 434.915 290.669 430.895 285.059C428.705 282.009 427.175 279.089 427.485 278.589C428.415 277.079 429.325 277.899 435.765 286.019C441.955 293.839 443.255 294.839 444.155 292.469C445.085 290.059 442.185 283.949 437.115 277.589C429.015 267.429 428.195 266.889 418.285 265.119C413.385 264.239 408.165 263.089 406.695 262.559C400.895 260.449 379.775 245.249 365.455 232.859C357.165 225.679 346.095 216.749 340.875 213.029C332.305 206.909 331.345 205.909 331.065 202.759C330.615 197.689 328.215 187.639 324.855 176.719L321.915 167.169L315.145 167.529C301.565 168.239 281.875 174.119 281.875 177.459C281.875 179.949 287.625 192.419 297.565 211.469L307.065 229.669L316.625 236.849C332.975 249.139 338.825 252.329 367.875 264.769C371.995 266.529 375.595 268.319 375.875 268.749C376.155 269.169 379.165 270.909 382.565 272.629C386.925 274.819 389.645 277.029 391.755 280.099C394.975 284.779 401.285 290.769 402.985 290.769C403.555 290.769 406.575 293.179 409.695 296.119C412.825 299.069 416.275 301.979 417.375 302.589ZM456.875 626.089C480.765 628.559 509.515 620.819 529.805 606.469C545.315 595.499 561.105 576.659 569.285 559.379C582.295 531.869 584.195 498.069 574.335 469.149C563.565 437.539 542.545 413.369 513.375 399.059C508.975 396.899 503.345 394.549 500.875 393.839C498.405 393.119 495.255 392.149 493.875 391.689C492.495 391.219 487.095 390.089 481.875 389.189C471.075 387.329 450.455 387.819 440.875 390.169C431.835 392.389 423.425 394.939 422.575 395.729C421.175 397.029 424.055 401.919 425.805 401.209C439.025 395.809 448.945 394.379 468.595 395.029C481.695 395.459 485.865 395.989 493.155 398.159C523.475 407.199 546.755 426.469 561.125 454.429C569.735 471.199 572.755 483.179 573.535 503.769C574.055 517.329 573.855 520.629 571.915 530.119C567.045 554.039 556.915 572.689 539.735 589.389C521.195 607.389 500.495 617.099 475.125 619.699C422.965 625.039 370.345 584.779 358.255 530.269C357.395 526.419 356.455 517.379 356.155 510.169C354.585 472.719 369.465 439.829 398.395 416.819C405.015 411.559 405.355 411.089 404.455 408.509C403.925 406.999 403.195 405.769 402.835 405.769C401.155 405.769 388.665 416.229 382.225 423.019C365.155 441.029 353.995 463.989 350.765 487.769C349.165 499.579 350.195 524.079 352.705 533.769C361.465 567.549 381.405 594.079 411.115 611.489C422.885 618.389 442.305 624.579 456.875 626.089ZM490.085 280.899C494.365 285.979 496.245 286.849 497.265 284.199C497.945 282.419 496.955 280.259 492.475 273.769C490.775 271.289 489.375 268.389 489.375 267.319C489.375 265.669 488.015 265.099 480.475 263.579C471.625 261.789 464.515 258.299 459.485 253.269C458.325 252.109 455.125 249.389 452.375 247.219C449.625 245.049 440.765 236.679 432.695 228.619C424.625 220.559 414.485 211.279 410.175 207.999C405.865 204.719 401.835 201.409 401.215 200.649C400.605 199.889 397.535 193.569 394.415 186.609C389.915 176.599 388.445 172.399 385.925 171.639C384.225 171.119 382.045 172.169 378.125 174.059C377.255 174.479 376.295 174.949 375.235 175.439C369.265 178.239 362.245 181.319 359.645 182.279L354.915 184.029L359.555 192.649C362.115 197.389 368.525 207.319 373.795 214.719C381.615 225.709 384.985 229.469 392.115 235.219C401.915 243.119 431.295 260.319 434.375 259.959C442.175 259.049 445.005 259.519 447.765 262.159C449.655 263.969 450.445 265.589 450.165 267.069C449.845 268.709 450.535 269.739 452.835 271.089C454.535 272.089 457.105 274.009 458.545 275.339C462.445 278.949 466.965 278.479 464.605 274.709C462.705 271.669 464.395 271.499 468.505 274.319C471.995 276.709 473.045 276.919 479.175 276.499L485.975 276.029L490.085 280.899ZM335.775 122.519C337.955 124.549 340.295 125.769 342.025 125.769C345.405 125.769 347.415 122.889 345.175 121.249C343.915 120.319 345.005 118.899 351.755 112.619L359.855 105.099L355.015 101.959C345.785 95.979 338.835 86.409 341.665 83.579C342.405 82.839 343.485 84.039 345.245 87.519C346.635 90.259 349.175 93.679 350.885 95.119C355.995 99.429 366.095 104.619 371.655 105.819C379.465 107.489 383.175 105.329 388.065 96.269C393.645 85.939 394.845 81.259 397.275 60.579C398.236 52.3706 397.119 56.7572 397.675 47.009C398.035 40.749 396.935 39.929 390.605 41.759C372.925 46.849 371.525 47.089 365.375 46.019C362.075 45.439 358.585 44.649 357.625 44.259C356.235 43.699 355.875 44.069 355.875 46.079C355.875 49.919 354.845 51.829 352.235 52.819C350.515 53.479 349.875 54.489 349.875 56.589C349.875 58.199 348.985 60.259 347.845 61.299C344.905 63.959 341.045 62.309 338.435 57.269C336.055 52.659 332.815 51.609 329.695 54.439C327.985 55.979 327.735 57.189 328.095 62.169C328.465 67.239 328.935 68.409 331.455 70.419C333.055 71.709 335.665 72.759 337.245 72.769C339.685 72.769 339.935 72.999 338.875 74.269C338.195 75.089 336.415 75.769 334.945 75.769C333.115 75.769 331.545 76.729 330.035 78.769C328.685 80.589 326.915 81.769 325.515 81.769C324.255 81.769 322.275 82.779 321.115 84.019C319.085 86.179 319.065 86.529 320.415 92.979C323.145 105.979 327.975 115.269 335.775 122.519ZM306.115 437.309L309.325 440.019L312.845 435.699C314.785 433.329 324.175 422.139 333.705 410.829C351.855 389.289 373.885 362.889 382.375 352.489C385.545 348.609 386.675 346.639 385.455 347.099C384.405 347.509 380.975 348.099 377.835 348.429C372.885 348.949 371.855 348.749 370.005 346.899C367.365 344.259 367.165 338.709 369.625 336.549C370.585 335.699 373.505 334.709 376.105 334.329C378.705 333.959 381.125 333.179 381.475 332.599C377.835 333.769 366.82 334.934 359.445 335.719C353.435 336.369 347.715 337.319 346.735 337.849C345.755 338.369 343.505 340.929 341.745 343.529C339.975 346.139 335.585 352.099 331.995 356.769C292.155 408.559 291.225 409.929 292.885 414.279C293.425 415.719 293.875 418.219 293.875 419.819C293.875 423.049 300.625 432.699 306.115 437.309ZM276.515 495.279C280.235 499.589 281.525 500.519 282.415 499.529C283.035 498.839 288.225 492.649 293.935 485.769C299.655 478.889 307.075 470.119 310.425 466.269C313.785 462.419 321.425 453.419 327.425 446.269C370.465 394.889 394.145 367.769 395.945 367.769C397.085 367.769 398.405 368.839 399.075 370.309C399.715 371.699 400.715 372.669 401.305 372.439C401.895 372.219 404.985 371.289 408.175 370.359C411.365 369.439 414.185 368.119 414.455 367.429C414.835 366.439 407.375 340.039 406.415 338.999C406.275 338.849 403.575 340.089 400.415 341.749C397.255 343.409 394.055 344.769 393.305 344.769C392.555 344.769 391.365 345.849 390.655 347.169C389.955 348.489 385.775 353.959 381.375 359.329C373.475 368.969 368.805 374.549 340.035 408.649C322.365 429.589 309.455 445.049 299.095 457.669C294.845 462.829 286.955 472.169 281.565 478.409L271.745 489.759L276.515 495.279ZM296.875 326.549C296.875 327.789 303.495 327.149 309.875 325.279C314.475 323.929 330.385 321.789 334.875 321.909C338.785 322.019 353.245 319.809 353.935 318.999C355.945 316.609 359.145 306.559 359.255 302.289C359.555 289.719 354.735 282.859 337.635 271.519C320.975 260.479 319.135 259.489 316.445 260.159C312.535 261.139 304.155 268.419 299.285 275.049C294.765 281.219 287.835 294.759 286.525 299.999C285.935 302.399 286.185 302.799 288.615 303.329C290.135 303.659 292.015 304.139 292.795 304.389C293.585 304.639 296.735 305.109 299.795 305.439C302.865 305.769 306.215 306.619 307.235 307.329C308.265 308.039 309.685 308.399 310.395 308.119C312.235 307.419 318.085 310.639 317.585 312.079C317.335 312.769 315.695 313.149 313.645 312.989C310.515 312.749 309.385 313.429 303.495 319.109C299.855 322.629 296.875 325.979 296.875 326.549ZM454.195 540.389C461.075 542.639 471.285 541.629 478.465 537.989C485.315 534.519 489.605 530.119 493.615 522.479C496.025 517.869 496.345 516.169 496.365 507.749C496.375 499.039 496.105 497.689 493.165 491.749C489.245 483.839 481.905 477.479 474.025 475.149C468.595 473.549 453.845 473.469 452.285 475.029C451.865 475.449 453.325 480.159 455.515 485.499C459.175 494.419 459.765 495.269 462.665 495.859C470.325 497.429 474.295 503.949 471.935 511.099C470.655 514.959 465.705 518.769 461.975 518.769C455.805 518.769 448.165 511.949 449.275 507.439C449.685 505.799 441.045 486.539 438.975 484.469C437.625 483.119 432.055 492.889 430.315 499.689C429.245 503.859 428.915 507.629 429.355 510.659C431.245 523.789 441.705 536.299 454.195 540.389ZM109.375 602.759C117.625 603.109 125.275 603.189 126.375 602.929C127.475 602.669 129.275 602.329 130.375 602.169C132.595 601.849 133.865 601.529 141.995 599.309C153.615 596.129 164.495 590.159 175.835 580.719C181.655 575.879 192.875 563.269 192.875 561.579C192.875 561.129 191.385 560.769 189.565 560.769C186.795 560.769 185.475 561.669 181.435 566.359C167.915 582.019 147.915 593.099 126.435 596.829C109.355 599.799 84.0852 594.629 69.6252 585.209C67.5652 583.869 63.9952 581.529 61.6952 580.019C54.9152 575.549 42.2552 563.089 37.2252 555.929C30.9652 547.019 22.5752 529.119 20.0252 519.269C15.7552 502.739 15.0052 489.389 17.4452 472.899C19.3252 460.139 22.4552 450.349 28.5252 438.269C38.8052 417.789 53.4252 403.149 72.9452 393.819C85.7652 387.689 95.0552 385.599 109.875 385.519C125.655 385.429 136.625 387.919 150.495 394.729C155.925 397.399 160.705 399.369 161.115 399.119C161.525 398.869 162.315 397.819 162.865 396.799C163.715 395.209 163.105 394.469 158.765 391.799C152.725 388.079 143.225 384.349 132.875 381.619C123.685 379.209 101.545 378.669 92.3752 380.649C44.2052 391.019 10.8752 435.639 10.8752 489.769C10.8752 508.159 15.1852 527.399 22.6152 542.269C36.1952 569.389 59.3152 590.059 86.5952 599.439C93.1152 601.679 96.8052 602.219 109.375 602.759ZM116.655 552.739L116.165 557.769H127.775C134.155 557.769 149.825 557.469 162.595 557.109L185.815 556.449L188.425 552.519C190.955 548.699 190.975 548.529 189.195 546.569C188.195 545.459 183.775 541.739 179.375 538.299C164.535 526.699 160.645 520.809 163.845 514.819C164.725 513.189 163.945 512.779 156.385 510.889C144.515 507.909 142.875 508.049 139.945 512.349C136.455 517.469 129.475 523.329 124.325 525.439C120.525 527.009 119.885 527.679 119.875 530.149C119.875 531.729 118.475 535.469 116.765 538.449C113.805 543.639 113.745 543.969 115.395 545.799C116.735 547.269 117.025 548.889 116.655 552.739ZM359.065 317.659C358.665 318.749 359.305 318.919 361.965 318.439C363.835 318.099 368.425 317.519 372.155 317.159C379.025 316.479 380.025 315.899 380.605 312.289C381.395 307.269 380.685 304.179 378.125 301.509C375.775 299.059 375.595 298.439 376.715 296.659C377.835 294.869 377.675 294.309 375.435 292.239C372.175 289.219 372.215 288.579 375.955 284.849C378.325 282.469 379.915 281.769 382.895 281.769C385.015 281.769 387.035 281.319 387.365 280.779C388.065 279.659 381.325 275.129 374.775 272.319C362.155 266.909 335.995 254.189 329.875 250.499C322.965 246.319 308.215 234.919 305.025 231.289C303.235 229.249 299.215 222.449 296.085 216.169C292.965 209.889 290.085 204.869 289.695 205.009C289.295 205.149 284.945 208.629 280.025 212.749C271.455 219.899 271.045 220.429 270.425 225.109C270.065 227.799 269.915 230.099 270.075 230.219C270.245 230.339 280.725 235.489 293.375 241.669C306.025 247.839 317.275 253.689 318.375 254.659C319.475 255.639 324.655 259.069 329.875 262.279C347.945 273.399 356.775 280.909 360.815 288.609C361.495 289.899 362.285 294.219 362.595 298.199C363.105 305.029 362.495 308.419 359.065 317.659ZM159.015 478.649C166.915 479.109 177.295 479.539 182.085 479.619L190.785 479.769L193.825 469.939C194.015 469.309 194.205 468.719 194.375 468.149C196.655 460.799 197.675 457.499 197.305 454.369C196.985 451.579 195.565 448.919 192.955 443.639C187.685 432.949 177.845 418.679 174.265 416.499C173.585 416.089 171.065 419.249 167.845 424.549C164.915 429.339 157.395 441.519 151.115 451.599C140.245 469.039 139.755 470.059 140.895 472.809C141.555 474.399 142.665 476.179 143.375 476.769C144.075 477.349 151.115 478.199 159.015 478.649ZM235.375 565.339C240.405 566.969 241.135 566.999 244.415 565.749C248.095 564.359 247.265 561.679 240.095 551.879C236.955 547.579 233.895 543.229 233.295 542.209C232.325 540.549 231.665 540.479 226.295 541.469C222.775 542.129 219.985 542.209 219.425 541.669C217.825 540.159 220.375 538.579 225.335 538.019C228.915 537.619 229.895 537.129 229.645 535.879C229.385 534.569 227.975 534.279 222.095 534.329C212.955 534.409 212.355 532.499 220.925 530.609C226.685 529.339 226.915 529.169 225.535 527.309C224.225 525.519 223.555 525.439 217.945 526.369C213.335 527.129 211.555 527.089 210.805 526.189C209.595 524.729 214.505 522.769 219.355 522.769C223.055 522.769 223.955 522.139 223.175 520.109C222.735 518.969 220.985 518.709 215.285 518.919C203.965 519.339 203.835 516.459 215.125 515.169L220.875 514.509V502.769H214.935C209.385 502.769 208.865 502.969 207.215 505.769C206.245 507.419 204.625 509.029 203.635 509.349C201.415 510.049 196.325 509.009 192.545 507.079C189.585 505.569 185.935 498.949 185.895 495.019C185.885 493.779 185.435 492.769 184.905 492.769C183.245 492.769 172.945 508.129 172.905 510.649C172.885 512.369 176.425 516.709 185.625 526.219C192.635 533.469 200.545 541.959 203.195 545.099C210.365 553.559 222.455 561.169 235.375 565.339ZM148.375 505.809C157.725 507.879 165.715 509.609 166.125 509.669C167.485 509.849 171.095 505.589 170.225 504.809C169.755 504.399 166.455 503.559 162.875 502.949C114.465 494.739 112.485 494.189 110.445 488.439C109.225 485.029 109.315 484.879 125.635 462.169C133.105 451.779 145.145 434.939 152.385 424.769C189.435 372.729 198.045 361.269 200.115 361.269C201.945 361.269 202.805 363.429 207.465 379.619C210.375 389.719 212.905 398.129 213.105 398.329C213.295 398.529 214.855 396.339 216.575 393.479L219.685 388.269L214.835 371.449C212.175 362.199 210.215 354.049 210.495 353.319C210.765 352.599 213.155 351.729 215.785 351.379C218.415 351.029 220.865 350.439 221.235 350.079C221.605 349.709 220.725 348.179 219.275 346.669C217.135 344.429 216.045 344.029 213.335 344.469C209.865 345.029 208.085 343.789 203.375 337.509C201.755 335.359 200.825 334.959 198.535 335.439C196.075 335.959 195.775 336.379 196.295 338.649C196.635 340.089 197.175 343.749 197.505 346.769C198.095 352.159 197.995 352.429 192.695 360.269C189.725 364.669 184.355 372.319 180.765 377.269C171.725 389.729 118.825 465.209 111.155 476.569C104.535 486.389 103.945 487.769 106.395 487.769C107.745 487.769 109.805 491.239 111.235 495.919C111.755 497.649 113.505 498.109 148.375 505.809ZM417.375 261.369C427.665 263.599 430.875 264.069 430.875 263.359C430.875 262.999 426.355 260.489 408.875 251.139C406.955 250.109 405.155 249.039 404.875 248.759C404.605 248.479 402.345 246.939 399.875 245.339C392.135 240.329 382.525 232.269 378.595 227.479C372.835 220.449 359.555 200.059 355.545 192.119C353.325 187.699 351.225 184.829 349.965 184.499C348.775 184.189 346.845 181.709 345.205 178.369C343.695 175.289 342.065 172.769 341.575 172.769C341.095 172.769 338.315 174.799 335.405 177.289L330.115 181.809L331.915 188.669C332.905 192.439 334.025 197.579 334.395 200.079C335.025 204.249 335.595 204.979 341.225 208.889C349.805 214.839 355.325 219.259 362.915 226.249C372.345 234.929 382.015 242.599 392.875 249.999C405.755 258.779 405.995 258.889 417.375 261.369ZM295.285 385.759C298.535 387.419 301.535 388.769 301.945 388.769C303.145 388.769 341.425 338.969 340.725 338.299C340.355 337.939 337.995 338.199 309.375 341.679C292.165 343.769 287.845 344.059 287.055 345.869C286.795 346.479 286.925 347.249 287.105 348.299C287.165 348.679 287.235 349.099 287.295 349.559C289.085 363.349 289.085 369.739 287.285 374.749L287.265 374.789C286.435 377.099 285.935 378.499 286.265 379.659C286.765 381.419 289.185 382.649 295.285 385.759ZM445.945 489.549C453.685 505.679 453.785 505.829 456.565 505.159C458.115 504.789 459.475 504.409 459.605 504.309C459.735 504.219 457.765 499.439 455.235 493.699C449.545 480.829 434.065 440.959 429.245 426.769C427.285 420.999 425.085 414.919 424.355 413.269C421.345 406.489 414.785 384.339 415.075 381.899C415.495 378.259 418.875 377.659 418.875 381.229C418.875 383.619 419.065 383.739 421.125 382.669C422.365 382.029 423.535 381.369 423.725 381.199C424.615 380.449 417.575 371.769 416.075 371.789C415.145 371.799 411.455 372.879 407.875 374.189L401.375 376.569L401.465 384.419C401.575 393.779 403.185 398.249 416.915 427.269C418.475 430.569 420.885 435.969 422.255 439.269C424.685 445.069 429.455 455.199 445.945 489.549ZM281.875 337.769C283.635 341.219 284.235 341.649 286.635 341.199C289.725 340.619 342.735 333.739 347.375 333.329C349.025 333.179 356.385 332.479 363.725 331.779C371.065 331.079 379.645 330.739 382.785 331.029C389.045 331.599 393.105 330.359 398.495 326.249L401.705 323.799L399.555 317.179L397.405 310.559L393.315 311.119C386.855 312.009 383.875 313.469 383.875 315.769C383.875 318.529 381.965 319.109 364.375 321.679C356.125 322.879 346.675 324.289 343.375 324.809C340.075 325.319 332.205 326.429 325.875 327.249C319.545 328.079 310.995 329.229 306.875 329.809C302.755 330.379 295.995 331.299 291.875 331.849C287.755 332.409 283.355 333.069 282.115 333.329L279.855 333.809L281.875 337.769ZM194.125 503.779C198.825 506.649 201.525 506.279 205.315 502.269C208.135 499.269 209.265 498.769 213.125 498.769H217.635L218.775 494.239C219.405 491.749 221.675 485.899 223.835 481.239L227.745 472.779L225.055 472.199C219.195 470.959 211.115 467.479 206.125 464.049C203.235 462.059 200.735 460.619 200.565 460.849C200.405 461.079 199.195 464.869 197.895 469.269C196.595 473.669 194.085 480.479 192.315 484.409C189.515 490.629 189.215 492.119 189.945 495.909C190.405 498.309 190.805 500.609 190.835 501.029C190.855 501.459 192.335 502.689 194.125 503.779ZM291.995 453.689C295.935 455.269 296.475 454.999 301.925 448.719C305.645 444.419 306.855 442.349 306.095 441.589C305.335 440.829 304.135 440.829 301.975 441.589C298.285 442.869 296.925 441.479 299.305 438.849C300.755 437.249 300.765 436.919 299.405 435.789C298.195 434.789 297.275 434.779 294.935 435.739C292.075 436.929 289.875 436.519 289.875 434.809C289.875 434.349 291.315 433.459 293.075 432.849C295.975 431.839 296.125 431.589 294.705 430.169C293.415 428.879 292.445 428.789 289.285 429.669C285.425 430.729 283.055 429.909 284.275 427.929C284.615 427.379 286.275 426.619 287.955 426.249C290.115 425.779 290.845 425.139 290.445 424.089C290.135 423.279 289.875 420.839 289.875 418.689C289.875 414.899 289.765 414.769 286.475 414.769C283.645 414.769 282.725 415.359 281.005 418.269C279.045 421.589 278.665 421.769 273.475 421.769C270.465 421.769 266.775 421.299 265.265 420.729C263.215 419.949 262.225 420.009 261.315 420.979C259.105 423.339 253.775 433.809 254.335 434.699C254.635 435.189 258.365 437.029 262.625 438.789C266.885 440.549 274.705 444.409 279.995 447.369C285.295 450.319 290.695 453.169 291.995 453.689ZM81.7752 505.219L84.1452 510.169L85.2652 506.719C86.1752 503.879 87.0552 503.099 90.2352 502.319L94.1052 501.359L93.5052 496.289C93.1752 493.499 93.3652 489.589 93.9152 487.599C95.0252 483.569 101.795 476.769 104.695 476.769C105.845 476.769 108.595 473.739 112.195 468.489C115.315 463.939 117.875 459.829 117.875 459.369C117.875 458.909 113.935 458.719 109.125 458.969C98.8952 459.489 94.5152 461.369 88.2252 467.939C81.1152 475.369 79.4052 479.809 79.4052 490.769C79.4052 498.699 79.7952 501.089 81.7752 505.219ZM450.305 326.089C449.815 327.359 450.365 327.449 453.905 326.649C459.785 325.329 463.385 323.269 467.815 318.709C475.965 310.309 477.065 301.649 470.795 295.179C467.495 291.779 467.445 291.769 458.245 291.769H448.995L448.275 296.519C446.865 305.719 447.265 317.029 449.125 320.929C450.095 322.939 450.625 325.259 450.305 326.089ZM256.915 482.889C259.915 483.819 262.935 484.619 263.615 484.669C264.765 484.759 268.885 477.409 271.835 469.989C272.985 467.099 272.925 466.479 271.305 464.689C269.735 462.959 269.645 462.229 270.665 459.519C272.045 455.859 271.565 455.329 265.375 453.739C262.225 452.939 250.845 448.799 246.695 446.959C246.305 446.779 245.345 447.909 244.555 449.459C243.235 452.019 243.365 453.149 246.025 462.269C247.635 467.769 249.515 474.279 250.205 476.739C251.385 480.969 251.735 481.289 256.915 482.889ZM201.485 415.789C203.485 418.579 205.375 420.599 205.685 420.289C206.005 419.979 207.265 416.249 208.485 411.999L210.725 404.269L206.165 388.019C203.665 379.079 201.235 371.769 200.765 371.769C200.295 371.769 199.035 373.459 197.955 375.519C196.865 377.579 193.535 383.059 190.545 387.689L185.105 396.109L191.475 403.419C194.985 407.439 199.485 413.009 201.485 415.789ZM267.875 418.059C270.095 418.879 275.225 418.849 276.395 417.999C276.965 417.599 278.205 416.029 279.175 414.519C280.435 412.539 281.745 411.769 283.865 411.769C286.445 411.769 287.485 410.739 292.385 403.299C295.445 398.649 298.385 394.569 298.915 394.239C300.805 393.079 299.805 391.829 295.395 389.879C292.925 388.789 289.315 386.679 287.365 385.189C285.415 383.709 283.685 382.669 283.505 382.879C281.085 385.919 275.175 395.539 270.245 404.469C264.015 415.769 263.875 416.569 267.875 418.059ZM455.145 469.519C456.335 471.049 459.515 471.159 460.415 469.699C460.775 469.119 457.235 459.779 452.545 448.949C444.215 429.709 441.535 423.299 436.065 409.449C433.455 402.839 433.285 402.649 430.405 403.219C428.645 403.569 427.405 403.679 426.785 404.359C425.475 405.789 426.895 409.729 431.945 423.689C432.345 424.819 432.775 426.009 433.235 427.269C435.155 432.599 452.645 466.319 455.145 469.519ZM230.375 571.409C239.895 574.499 243.205 574.439 245.815 571.119C246.965 569.659 247.775 568.329 247.615 568.169C247.455 568.009 245.535 568.289 243.345 568.799C232.565 571.289 210.715 559.469 198.325 544.439C194.625 539.949 187.635 532.549 182.805 528.009C177.975 523.459 173.045 518.169 171.865 516.249C169.455 512.359 168.535 512.429 167.075 516.619C165.575 520.929 168.085 525.019 176.245 531.589C180.125 534.719 188.935 542.669 195.835 549.269C209.325 562.179 216.925 567.049 230.375 571.409ZM278.155 328.519C279.245 329.929 280.675 330.029 287.085 329.149C290.695 328.659 291.935 327.939 293.365 325.519C294.345 323.849 297.745 319.899 300.905 316.739L306.665 310.979L298.225 309.209C290.445 307.579 289.535 307.559 286.435 309.039C283.555 310.409 282.475 310.459 278.735 309.349C269.345 306.579 268.875 306.549 268.875 308.809C268.875 310.699 275.865 325.529 278.155 328.519ZM117.145 519.299C118.925 521.189 120.655 522.739 121.005 522.749C122.505 522.799 128.595 519.609 130.955 517.529C133.875 514.979 139.355 507.869 138.765 507.419C138.345 507.099 131.365 505.469 120.435 503.139C114.665 501.909 112.765 501.879 109.185 502.929C106.815 503.629 104.875 504.799 104.875 505.539C104.875 506.269 103.705 507.949 102.265 509.279L99.6552 511.699L103.015 513.179C104.865 513.989 108.075 514.929 110.145 515.259C112.645 515.669 115.005 517.019 117.145 519.299ZM162.375 492.729C176.545 496.369 177.055 496.369 179.705 492.779C180.925 491.139 182.975 489.529 184.265 489.209C185.565 488.879 187.105 487.559 187.695 486.269C188.745 483.959 188.645 483.909 182.575 483.379C179.165 483.089 169.245 482.579 160.535 482.259L144.695 481.679L145.405 484.979C146.355 489.389 146.635 489.759 149.185 489.839C150.385 489.869 156.325 491.169 162.375 492.729ZM220.515 378.919L222.135 384.579L228.505 377.079C232.005 372.959 234.875 368.939 234.875 368.139C234.875 366.489 232.725 362.909 228.495 357.529C225.575 353.819 225.515 353.789 219.965 354.419C216.895 354.759 214.265 355.129 214.135 355.229C213.915 355.399 216.215 363.949 220.515 378.919ZM128.745 493.399C135.135 494.599 140.825 495.469 141.375 495.329C142.455 495.039 142.445 483.009 141.365 481.919C141.005 481.559 135.215 481.109 128.495 480.919L116.285 480.579L115.075 483.219C112.285 489.359 113.975 490.619 128.745 493.399ZM195.785 441.559C197.515 445.019 199.325 447.609 199.795 447.319C200.265 447.029 200.955 445.169 201.325 443.179C201.925 439.989 201.365 438.509 196.485 430.419C190.115 419.869 188.535 417.779 180.435 409.079C174.465 402.669 172.485 401.839 170.535 404.949C169.665 406.319 170.775 407.979 176.745 414.269C184.405 422.329 190.535 431.119 195.785 441.559ZM280.875 456.769C288.955 460.969 290.825 461.419 292.655 459.589C293.555 458.689 290.985 456.909 281.605 451.929C274.875 448.369 265.775 443.909 261.375 442.039C256.975 440.159 252.895 438.419 252.305 438.159C251.715 437.899 250.665 438.929 249.975 440.439C248.325 444.069 249.275 444.719 262.765 449.289C268.605 451.259 276.755 454.629 280.875 456.769ZM136.105 465.549C136.705 466.269 137.515 466.499 137.915 466.059C138.305 465.629 145.895 453.599 154.765 439.329C164.685 423.399 170.545 413.039 169.975 412.469C169.465 411.959 168.595 411.829 168.035 412.169C167.475 412.519 162.685 419.879 157.385 428.539C152.085 437.189 144.885 448.759 141.385 454.259C136.575 461.799 135.285 464.559 136.105 465.549ZM402.415 314.549L404.155 320.819L406.675 317.109C409.895 312.379 410.695 305.249 408.495 300.999C406.325 296.799 405.575 296.489 399.725 297.289C394.695 297.979 394.675 297.999 395.275 301.129C395.605 302.859 396.955 305.169 398.275 306.269C399.765 307.509 401.335 310.669 402.415 314.549ZM262.125 537.519C263.515 539.259 264.215 539.099 266.655 536.509C269.585 533.379 271.875 527.539 271.875 523.169V519.509L267.775 520.169C260.985 521.259 257.875 523.349 257.875 526.849C257.875 529.679 259.865 534.699 262.125 537.519ZM238.385 480.519C238.845 481.859 246.455 482.289 247.185 481.019C247.715 480.099 241.985 459.599 240.875 458.419C240.435 457.949 238.885 459.599 237.425 462.089L234.775 466.609L236.365 472.939C237.245 476.419 238.155 479.829 238.385 480.519ZM255.165 510.549C256.835 512.349 257.935 512.699 260.335 512.199C264.425 511.339 268.145 509.519 268.595 508.149C269.615 505.009 258.775 496.849 253.505 496.789C251.825 496.769 251.715 497.319 252.345 502.519C252.805 506.249 253.795 509.069 255.165 510.549ZM504.875 602.459C504.875 606.089 502.625 602.689 498.475 592.799C495.945 586.769 493.875 581.559 493.875 581.239C493.875 580.909 492.785 578.309 491.455 575.459C486.945 565.799 479.685 546.629 480.295 546.019C481.425 544.889 482.735 547.199 487.225 558.269C489.685 564.319 494.665 576.439 498.285 585.209C501.905 593.979 504.875 601.749 504.875 602.459ZM434.355 596.049C432.825 600.329 431.265 604.029 430.865 604.269C428.755 605.579 429.505 602.129 434.325 588.419C445.515 556.589 449.045 547.769 450.585 547.769C451.625 547.769 451.865 548.309 451.375 549.519C450.415 551.859 437.835 586.249 434.355 596.049ZM382.065 537.199C370.905 541.069 370.265 541.199 369.455 539.899C369.155 539.419 373.065 537.559 378.145 535.769C383.225 533.969 395.405 529.639 405.215 526.139C424.025 519.429 427.025 518.679 424.875 521.269C424.195 522.099 423.195 522.769 422.655 522.769C422.115 522.769 420.255 523.399 418.525 524.159C415.555 525.479 405.715 528.999 382.065 537.199ZM489.735 441.669C484.325 456.189 479.685 468.289 479.415 468.559C479.145 468.839 478.665 468.379 478.345 467.549C478.025 466.729 482.015 454.629 487.215 440.659C497.725 412.409 498.825 409.769 500.055 409.769C501.415 409.769 500.165 413.619 489.735 441.669ZM496.035 466.519C492.605 471.059 489.315 474.769 488.725 474.769C486.815 474.769 488.585 472.109 504.075 451.699C512.495 440.619 520.635 429.809 522.175 427.669C524.845 423.969 526.875 422.679 526.875 424.689C526.875 425.499 519.935 434.919 496.035 466.519ZM97.8752 450.539C97.8752 453.499 95.0752 451.379 93.8752 447.519C93.1552 445.179 89.2552 434.079 85.2152 422.859C77.6552 401.839 76.9852 399.319 79.1252 399.999C79.8152 400.209 81.5652 403.959 83.0252 408.329C84.4852 412.699 86.1152 417.389 86.6352 418.769C87.1552 420.149 88.8052 424.649 90.2952 428.769C91.7852 432.889 94.0952 439.209 95.4352 442.789C96.7752 446.379 97.8752 449.869 97.8752 450.539ZM527.485 486.649C514.395 491.119 503.055 494.769 502.285 494.769C499.045 494.769 501.265 492.819 506.625 490.959C540.585 479.159 557.345 473.729 558.725 474.059C561.265 474.659 553.885 477.639 527.485 486.649ZM412.025 582.209C407.045 589.249 404.875 591.229 404.875 588.739C404.875 588.179 408.585 582.609 413.125 576.379C417.665 570.149 425.205 559.609 429.875 552.959C437.305 542.379 440.875 538.699 440.875 541.609C440.875 542.079 438.515 545.659 435.625 549.579C432.735 553.489 428.575 559.239 426.375 562.349C424.175 565.449 421.255 569.489 419.875 571.319C418.495 573.149 414.965 578.049 412.025 582.209ZM547.695 566.289C548.235 568.749 546.795 567.949 536.275 559.949C530.715 555.729 519.805 547.609 512.025 541.929C499.075 532.459 496.165 529.769 498.855 529.769C500.575 529.769 547.365 564.749 547.695 566.289ZM127.615 476.839C131.885 477.149 136.165 477.489 137.125 477.589C138.085 477.689 138.875 477.159 138.875 476.419C138.875 474.809 134.075 468.069 130.935 465.289C129.035 463.599 128.585 463.529 127.865 464.789C127.405 465.599 125.405 468.519 123.435 471.269L119.855 476.269L127.615 476.839ZM429.455 480.899C430.745 482.989 426.775 481.459 421.795 477.959C404.255 465.619 384.085 450.719 382.765 449.139C380.625 446.559 384.215 447.629 389.055 451.019C399.965 458.659 428.965 480.109 429.455 480.899ZM78.9652 463.379C79.8552 464.449 79.8052 464.769 78.7452 464.759C77.3852 464.749 65.9452 456.209 47.9652 441.769C42.0852 437.049 39.2052 434.149 40.1952 433.959C41.5852 433.679 75.9852 459.789 78.9652 463.379ZM134.165 424.199C130.935 432.959 127.745 440.309 127.085 440.529C126.415 440.759 125.875 440.789 125.885 440.599C125.925 438.759 139.005 401.979 140.455 399.639C140.765 399.149 141.385 398.969 141.845 399.249C142.875 399.889 141.625 403.949 134.165 424.199ZM65.1252 508.789C41.1852 517.549 28.8752 521.499 28.8752 520.399C28.8752 519.179 70.0152 503.719 73.1852 503.749C76.7052 503.789 73.7652 505.619 65.1252 508.789ZM185.375 465.329C166.105 472.649 153.895 476.609 153.355 475.739C153.255 475.569 153.165 475.429 153.155 475.279C153.105 474.439 155.805 473.439 174.795 466.409L175.225 466.249C191.495 460.229 195.915 459.129 193.305 461.739C192.795 462.249 189.225 463.869 185.375 465.329ZM82.6852 576.709C81.0452 581.779 78.3652 583.779 79.4552 579.119C80.4552 574.869 89.8052 549.079 92.6352 542.769C97.3552 532.239 95.8952 539.569 90.0352 555.859C86.7852 564.889 83.4852 574.269 82.6852 576.709ZM228.825 524.649C230.385 528.429 231.225 528.519 234.485 525.249C237.965 521.779 237.395 518.019 232.945 515.029C231.055 513.759 229.035 512.889 228.445 513.099C226.995 513.609 227.225 520.799 228.825 524.649ZM156.885 498.409C168.365 500.749 173.485 501.209 174.255 499.959C174.665 499.299 149.455 492.759 146.555 492.769C146.095 492.769 145.875 493.559 146.065 494.519C146.315 495.879 148.725 496.749 156.885 498.409ZM236.535 506.639C242.045 511.189 242.875 510.809 242.875 503.769C242.875 498.169 242.725 497.769 240.565 497.769C239.285 497.769 237.015 499.059 235.495 500.639L232.745 503.519L236.535 506.639ZM245.625 545.079C252.575 546.899 254.865 544.629 251.915 538.849C250.775 536.599 249.405 534.769 248.875 534.769C247.895 534.769 243.875 541.909 243.875 543.659C243.875 544.189 244.665 544.829 245.625 545.079ZM315.905 466.019C315.855 467.399 322.395 466.789 324.655 465.209C327.255 463.389 327.565 459.589 325.265 457.679C323.865 456.509 323.145 456.919 319.795 460.809C317.675 463.259 315.925 465.609 315.905 466.019ZM181.385 392.789C182.355 394.359 183.465 393.219 187.455 386.499C189.485 383.069 192.945 377.439 195.145 373.989C201.805 363.539 198.745 366.049 190.225 378.029L189.955 378.389C181.835 389.809 180.775 391.309 181.125 392.299C181.185 392.459 181.275 392.609 181.385 392.789ZM388.065 77.639C384.785 79.969 383.305 80.279 382.405 78.809C382.075 78.289 383.175 77.149 384.845 76.289C388.165 74.569 388.565 72.599 386.375 68.769C384.875 66.139 384.345 59.759 385.625 59.779C386.435 59.789 389.775 68.639 390.575 72.889C390.955 74.949 390.425 75.949 388.065 77.639ZM488.885 291.979C492.325 294.769 496.285 294.259 499.325 290.639C502.295 287.119 501.965 285.479 498.845 288.299C497.045 289.929 496.395 289.999 493.295 288.879C490.435 287.839 489.485 287.849 488.225 288.899C486.835 290.039 486.915 290.379 488.885 291.979ZM131.375 461.769C131.715 462.319 132.155 462.769 132.345 462.769C133.085 462.769 144.095 444.649 143.635 444.189C142.815 443.369 130.715 460.709 131.375 461.769ZM228.635 481.189C228.995 481.559 230.445 481.729 231.835 481.569C234.075 481.299 234.345 480.859 234.085 477.779C233.655 472.479 232.285 472.059 229.995 476.529C228.875 478.719 228.265 480.819 228.635 481.189ZM265.875 376.849C265.875 379.009 265.455 380.769 264.935 380.769C263.585 380.769 263.215 379.849 262.445 374.519C261.885 370.719 262.045 369.769 263.205 369.769C265.065 369.769 265.875 371.919 265.875 376.849ZM222.875 493.369C222.875 493.659 225.015 492.199 227.625 490.119C230.235 488.039 232.565 486.209 232.795 486.049C233.025 485.899 231.645 485.769 229.725 485.769C226.725 485.769 226.015 486.259 224.565 489.299C223.635 491.249 222.875 493.079 222.875 493.369ZM446.875 276.239C446.875 277.319 447.895 277.769 450.315 277.769C454.625 277.769 455.545 276.459 452.405 274.789C449.635 273.299 446.875 274.019 446.875 276.239ZM373.265 62.189C372.505 64.169 371.475 64.199 369.885 62.279C368.235 60.289 369.325 57.769 371.845 57.769C373.895 57.769 374.385 59.279 373.265 62.189ZM394.695 62.439C394.325 65.549 392.675 66.439 391.005 64.429C389.425 62.529 390.635 59.769 393.045 59.769C394.585 59.769 394.935 60.349 394.695 62.439ZM189.905 556.019C189.885 556.429 191.225 556.769 192.875 556.769C196.175 556.769 196.885 554.849 194.345 552.739C193.075 551.689 192.565 551.799 191.375 553.369C190.585 554.419 189.925 555.609 189.905 556.019ZM486.125 298.109C488.155 298.929 490.715 298.829 491.285 297.919C491.795 297.089 487.765 294.769 485.825 294.769C484.425 294.769 484.665 297.519 486.125 298.109ZM394.765 209.889C392.145 211.899 389.875 212.319 389.875 210.789C389.875 209.249 394.665 206.519 395.965 207.329C396.785 207.829 396.405 208.629 394.765 209.889ZM448.275 468.179C449.095 470.149 450.245 471.769 450.825 471.769C452.275 471.769 452.175 471.279 449.715 466.479C447.205 461.569 446.065 462.899 448.275 468.179Z" fill="black"/>
<path d="M384.8 87.932C381.646 89.0357 378.102 88.9288 374.794 87.6169C372.413 86.7156 371.86 86.6856 371.425 87.5367C370.964 88.4379 371.189 88.616 374.121 89.7988C377.879 91.3409 383.183 91.5892 386.111 90.3075C389.796 88.7811 388.584 86.5825 384.8 87.932Z" fill="black"/>
</g>
<defs>
<clipPath id="clip0_1639_1486">
<rect width="594" height="645" fill="white"/>
</clipPath>
</defs>
</svg>
