<svg width="954" height="741" viewBox="0 0 954 741" fill="none" xmlns="http://www.w3.org/2000/svg">
<g clip-path="url(#clip0_1600_2250)">
<path d="M414.954 735.873C403.124 738.133 392.544 740.203 391.424 740.473C389.214 741.003 387.954 740.213 387.954 738.283C387.954 736.793 389.804 736.363 426.454 729.323C442.404 726.253 480.424 718.843 510.954 712.853C541.484 706.853 581.754 698.983 600.454 695.353C619.154 691.733 647.954 686.113 664.454 682.863C759.594 664.143 931.925 630.393 945.765 627.763C952.015 626.583 954.614 627.183 953.164 629.503C952.774 630.123 947.734 631.553 941.954 632.683C936.174 633.813 913.904 638.173 892.454 642.363C871.004 646.553 845.804 651.503 836.454 653.363C827.104 655.223 798.534 660.843 772.954 665.843C747.374 670.853 712.734 677.643 695.954 680.943C655.924 688.823 628.854 694.123 581.454 703.363C560.004 707.543 518.604 715.643 489.454 721.363C460.304 727.083 426.784 733.613 414.954 735.873ZM952.765 604.573C952.595 605.463 952.004 606.283 951.454 606.413C950.904 606.533 938.304 604.883 923.454 602.743C908.604 600.603 872.384 595.453 842.954 591.293C813.534 587.143 764.484 580.203 733.954 575.873C703.424 571.543 673.954 567.453 668.454 566.773C658.044 565.493 657.384 565.553 592.854 572.723C585.524 573.533 583.954 573.303 583.954 571.383C583.954 569.703 584.124 569.673 625.454 565.293L660.454 561.573L717.454 569.673C766.074 576.593 864.114 590.403 928.454 599.403C949.574 602.363 952.665 602.723 952.885 603.723C952.925 603.893 952.884 604.083 952.824 604.303C952.804 604.393 952.785 604.483 952.765 604.573ZM509.324 707.323C509.004 708.163 508.224 708.803 507.594 708.743C506.964 708.683 479.234 701.013 445.954 691.703C412.674 682.393 369.484 670.343 349.954 664.923C330.434 659.503 294.654 649.563 270.454 642.853C246.254 636.133 225.654 630.213 224.674 629.693C222.174 628.373 223.664 626.573 226.824 627.113C228.274 627.353 238.454 630.063 249.454 633.123C260.454 636.183 282.724 642.353 298.954 646.843C315.184 651.323 339.704 658.103 353.454 661.903C367.204 665.703 385.874 670.863 394.954 673.363C404.034 675.863 421.804 680.793 434.454 684.323C447.104 687.853 468.254 693.703 481.454 697.333C509.364 704.983 510.124 705.263 509.324 707.323ZM830.954 644.423C830.954 645.773 826.084 646.343 823.454 645.293C822.904 645.083 802.424 641.263 777.954 636.823C753.484 632.383 717.704 625.893 698.454 622.393C679.204 618.903 657.934 615.043 651.194 613.833C644.454 612.623 638.664 611.193 638.334 610.663C637.004 608.503 639.814 608.083 646.954 609.353C651.074 610.093 667.054 612.953 682.454 615.713C697.854 618.463 725.754 623.463 744.454 626.803C785.654 634.183 826.814 641.793 829.204 642.483C830.164 642.763 830.954 643.633 830.954 644.423ZM39.4545 632.323C22.4045 634.273 6.81448 636.113 4.80448 636.433C1.13448 636.993 -1.15553 635.563 0.604469 633.803C1.08447 633.323 21.0445 630.653 44.9645 627.863C68.8845 625.073 95.6245 621.903 104.394 620.823C113.164 619.743 120.474 618.853 120.644 618.853C120.814 618.853 120.954 619.753 120.954 620.853C120.954 621.953 120.794 622.853 120.614 622.853C120.424 622.853 109.054 624.183 95.3645 625.813C81.6645 627.443 56.5045 630.373 39.4545 632.323ZM472.724 584.363C461.024 585.723 451.144 586.843 450.764 586.843C449.534 586.863 448.704 584.703 449.594 583.833C450.064 583.363 462.604 581.603 477.454 579.923C492.304 578.243 506.144 576.593 508.204 576.273C511.464 575.753 511.954 575.933 511.954 577.633V577.693C511.954 577.943 511.954 578.163 511.894 578.363C511.434 579.883 507.414 580.333 472.724 584.363ZM353.454 596.393C340.804 597.823 329.524 599.213 328.384 599.483C326.134 600.023 323.164 597.463 324.834 596.423C327.184 594.973 379.904 589.233 382.334 590.173C383.294 590.533 383.814 591.273 383.484 591.803C382.734 593.023 381.424 593.223 353.454 596.393Z" fill="#180F08"/>
<path d="M469.324 662.503C463.374 664.363 436.004 665.203 427.954 663.783C421.374 662.613 411.894 658.283 406.644 654.053C404.544 652.363 399.944 650.013 396.424 648.843C392.894 647.673 388.594 645.383 386.864 643.773C383.844 640.953 383.744 640.593 384.234 634.593C385.094 624.143 388.954 600.783 390.404 597.313C391.154 595.513 392.714 593.743 393.864 593.383C395.014 593.023 396.204 591.693 396.524 590.453C398.044 584.383 398.374 566.113 397.564 532.923C396.754 499.463 396.524 496.233 394.714 493.173C393.424 490.973 392.034 489.883 390.604 489.933C389.424 489.973 379.674 490.763 368.954 491.683L349.454 493.353L348.274 507.723C346.884 524.563 344.924 535.043 340.924 547.063C331.744 574.613 315.484 593.923 297.434 598.703C295.244 599.283 280.854 601.393 265.454 603.383C250.054 605.383 232.054 607.733 225.454 608.603C208.814 610.813 197.774 610.773 190.954 608.483C173.784 602.693 158.214 587.273 146.974 564.923C143.184 557.373 133.794 532.593 131.924 525.213L130.634 520.063L122.854 520.593C115.264 521.113 115.004 521.063 112.124 518.183C106.114 512.163 105.774 497.193 111.524 491.783C113.364 490.063 115.574 489.373 120.694 488.933L127.454 488.353L128.114 481.643C128.784 474.943 130.664 464.103 133.634 449.853C136.604 435.603 144.844 415.663 151.394 406.853C156.234 400.343 165.984 391.153 170.834 388.513C173.494 387.073 178.314 385.223 181.564 384.423C188.624 382.663 270.204 377.443 280.514 378.083C299.154 379.253 319.244 396.913 331.944 423.283C337.874 435.593 341.294 445.773 344.564 460.853C345.944 467.183 347.374 472.653 347.764 473.013C348.144 473.373 358.574 472.833 370.954 471.803C383.334 470.783 394.644 469.923 396.084 469.893C398.704 469.853 398.724 469.813 398.224 463.583C397.614 456.023 399.094 448.273 402.564 440.853C404.814 436.043 405.134 434.103 405.054 425.423C404.984 416.583 404.724 415.243 402.734 413.113C400.724 410.983 399.954 410.803 395.474 411.433C380.834 413.483 379.004 412.153 371.894 394.323C366.924 381.893 363.804 376.373 353.534 361.853C336.704 338.073 331.564 324.853 331.574 305.353C331.594 289.913 333.764 282.293 344.284 260.853C349.194 250.853 357.454 241.843 366.304 236.853C369.924 234.803 372.484 232.593 373.094 230.963C374.584 227.043 377.754 224.073 384.984 219.843C393.674 214.763 412.594 195.263 420.394 183.353C423.634 178.403 428.794 170.533 431.854 165.853C439.064 154.843 447.184 146.763 458.844 139.003C475.154 128.143 486.034 123.483 508.214 117.863C519.084 115.103 528.924 112.853 530.084 112.853C531.784 112.853 531.974 112.583 531.034 111.453C530.394 110.683 528.654 109.743 527.164 109.373C523.394 108.433 520.954 105.983 520.954 103.133C520.954 101.653 519.554 99.3931 517.334 97.3031C514.164 94.3131 513.804 93.4931 514.374 90.6231C515.164 86.7331 515.154 85.6531 514.354 80.1131C513.784 76.1531 513.944 75.7631 516.844 74.1131C519.124 72.8131 519.944 71.6331 519.944 69.6031C519.954 66.7131 523.014 62.8531 525.294 62.8531C526.344 62.8531 526.614 60.0431 526.544 49.6031C526.454 36.6231 526.524 36.2131 529.744 29.3531C540.914 5.60306 577.454 -7.13694 601.954 4.18306C607.894 6.92306 615.674 14.9631 619.684 22.5031L622.924 28.5731L631.684 29.0731C646.834 29.9431 654.954 34.9031 654.954 43.3031C654.954 50.2031 649.144 54.5231 636.824 56.8031L630.194 58.0331L629.384 64.1931C628.934 67.5831 628.514 76.4231 628.434 83.8531C628.274 98.5131 627.004 105.013 621.844 117.443C617.174 128.683 612.704 131.853 601.494 131.853C596.624 131.853 595.024 132.223 594.554 133.453C593.944 135.043 599.894 142.213 616.534 159.933C627.634 171.763 631.704 182.343 632.634 201.853C633.074 211.053 632.744 215.853 630.984 225.853C629.254 235.723 628.934 240.283 629.464 247.513C630.074 255.963 629.964 256.843 628.044 258.763C626.094 260.713 625.954 261.953 625.954 277.433C625.954 290.983 626.334 295.513 628.044 302.183C633.274 322.663 634.524 338.143 633.224 366.353C632.754 376.413 632.784 394.483 633.284 407.313L634.184 430.273L638.214 439.063C640.424 443.903 642.564 447.853 642.954 447.853C643.344 447.853 643.934 444.593 644.254 440.603C646.434 413.613 662.514 385.323 682.454 373.373C694.484 366.163 696.114 365.953 743.774 365.223C781.874 364.643 787.154 364.753 792.954 366.253C811.304 370.993 830.114 389.533 839.864 412.473C842.504 418.693 845.414 428.213 847.384 437.103C847.774 438.873 848.644 439.853 849.814 439.853C853.564 439.853 857.234 446.303 857.114 452.643C857.014 457.643 854.974 461.433 851.554 462.993C849.554 463.903 849.024 465.413 847.544 474.523C843.914 496.763 835.644 514.053 821.944 528.023C812.704 537.443 803.674 542.773 793.574 544.783C784.474 546.583 726.774 552.043 715.954 552.123C707.104 552.193 704.324 551.803 698.224 549.633C678.884 542.763 665.514 529.853 654.444 507.353C649.714 497.743 647.084 489.573 644.334 475.973L643.854 473.603L641.654 475.593C638.314 478.613 630.524 482.853 628.314 482.853C627.234 482.853 625.834 483.373 625.194 484.013C624.514 484.693 621.134 485.153 617.144 485.123C609.264 485.043 603.744 482.773 599.644 477.893C598.234 476.223 596.624 474.853 596.054 474.853C595.044 474.853 594.724 475.823 591.434 488.853C590.524 492.433 587.324 503.453 584.304 513.353C578.444 532.593 570.954 562.413 570.954 566.473C570.954 567.823 571.774 569.813 572.764 570.883C573.764 571.953 575.344 575.253 576.284 578.223C577.604 582.433 579.374 584.963 584.344 589.823C593.424 598.693 600.614 603.473 612.164 608.353C627.254 614.713 631.954 619.403 631.954 628.103C631.954 632.653 629.884 635.213 624.244 637.613C610.644 643.433 592.974 642.863 566.954 635.793C559.244 633.703 552.464 632.683 541.454 631.973C524.234 630.863 519.734 629.783 515.784 625.833C512.504 622.563 512.044 617.113 514.484 610.353C515.274 608.153 515.934 604.923 515.934 603.173C515.954 599.643 518.384 587.233 520.084 582.003C520.834 579.693 522.174 578.243 524.404 577.313C527.504 576.013 527.674 575.643 528.804 567.653C532.054 544.763 532.394 527.483 530.324 490.213L529.704 479.073L526.084 479.453C524.084 479.653 509.404 480.773 493.454 481.943C477.504 483.103 464.184 484.343 463.854 484.703C463.524 485.063 462.004 489.853 460.474 495.353C458.944 500.853 455.554 512.103 452.934 520.353C441.124 557.483 436.534 582.343 440.164 589.353C441.024 591.003 442.254 594.913 442.894 598.033C444.614 606.353 450.544 614.733 464.004 627.853C470.494 634.183 476.514 640.793 477.384 642.553C478.244 644.313 478.954 648.173 478.954 651.133C478.954 657.603 476.784 660.163 469.324 662.503ZM465.454 312.013C471.284 313.013 484.534 312.173 491.454 310.363C504.614 306.913 523.194 295.163 542.864 277.843C548.594 272.803 558.274 265.393 564.364 261.373C580.894 250.483 591.474 238.703 601.454 220.103C604.074 215.223 606.114 213.693 607.344 215.673C608.084 216.873 601.674 228.973 595.654 237.743C592.794 241.913 587.594 248.193 584.094 251.713C579.524 256.313 578.104 258.323 579.034 258.903C581.634 260.503 597.554 262.103 605.144 261.513C609.564 261.173 615.414 259.933 618.684 258.633L624.454 256.353L625.044 243.353C625.374 236.203 626.424 225.623 627.384 219.853C629.894 204.793 628.184 188.633 622.714 175.773C621.474 172.843 603.744 151.653 594.474 142.013L592.224 139.673L590.094 143.133C588.914 145.033 587.954 148.173 587.954 150.113C587.954 156.293 584.304 166.123 580.734 169.563C574.254 175.823 568.934 176.063 558.634 170.593C551.294 166.693 545.844 160.543 540.744 150.413C536.624 142.253 531.954 126.193 531.954 120.223C531.954 118.373 531.544 116.853 531.044 116.853C528.804 116.853 496.934 125.263 490.544 127.533C475.654 132.843 454.764 146.023 445.444 155.993C439.714 162.133 437.164 165.683 424.774 184.853C418.464 194.603 402.344 212.873 395.264 218.293C392.614 220.323 387.984 223.413 384.954 225.163C380.654 227.663 378.954 229.393 377.164 233.143C375.734 236.153 373.874 238.363 372.164 239.083C367.424 241.103 357.394 248.583 354.814 252.033C352.484 255.153 344.954 268.393 344.954 269.373C344.954 270.413 353.634 275.193 358.674 276.933C361.664 277.963 368.014 279.273 372.784 279.853C390.994 282.083 394.454 282.923 404.204 287.563C409.564 290.113 414.144 291.993 414.384 291.753C415.404 290.733 417.944 271.243 418.934 256.853C419.524 248.333 420.254 239.953 420.564 238.243C420.984 235.893 420.704 234.973 419.434 234.483C418.074 233.963 417.874 233.103 418.414 230.193C419.094 226.603 430.074 194.373 434.114 184.103C436.094 179.083 438.954 176.983 438.954 180.543C438.954 181.473 435.354 192.973 430.954 206.103C426.554 219.223 422.954 230.363 422.954 230.843C422.954 231.323 423.964 232.033 425.204 232.413C426.444 232.793 435.104 236.603 444.454 240.883C460.134 248.053 481.374 255.763 482.464 254.673C482.724 254.423 485.484 246.143 488.604 236.283C491.734 226.423 494.714 217.793 495.244 217.103C497.194 214.553 498.214 215.853 497.584 220.103L496.964 224.353L499.454 221.353C500.824 219.703 503.174 215.543 504.674 212.103C506.174 208.663 507.974 205.853 508.674 205.853C512.654 205.853 506.584 219.813 499.004 228.113C494.774 232.743 493.784 234.763 490.524 245.353C488.494 251.953 485.994 258.063 484.984 258.933C483.974 259.813 481.804 265.003 480.164 270.493C476.004 284.373 471.394 295.033 466.214 302.763C463.784 306.383 461.714 309.793 461.624 310.343C461.534 310.883 463.254 311.633 465.454 312.013ZM702.064 546.273C717.804 550.503 733.964 545.993 747.504 533.583C774.354 508.983 783.784 465.413 770.924 425.353C766.974 413.053 763.174 405.313 756.904 396.853C746.284 382.503 734.164 373.973 720.154 370.983C692.254 365.033 665.094 384.643 653.324 419.243C650.334 428.023 647.954 440.543 647.954 447.463V452.853H655.804C660.124 452.853 666.354 452.573 669.654 452.223L675.644 451.603L676.774 445.543C679.034 433.383 686.184 423.413 696.454 418.083C703.914 414.213 713.534 414.293 720.744 418.283C733.954 425.603 742.204 441.603 742.164 459.853C742.124 478.013 733.994 493.373 721.224 499.413C716.284 501.753 714.664 502.033 708.374 501.633C699.764 501.073 694.674 498.473 687.764 491.083C682.764 485.733 679.914 480.813 677.884 474.043L676.604 469.733L662.524 470.423C654.784 470.803 648.284 471.263 648.074 471.443C647.864 471.633 648.694 476.183 649.924 481.563C657.444 514.473 677.814 539.753 702.064 546.273ZM177.704 574.823C191.664 578.333 206.304 569.873 215.804 552.823C229.944 527.443 230.684 488.923 217.624 458.173C213.064 447.423 208.344 440.463 200.624 433.073C191.814 424.633 186.714 422.383 176.454 422.383C166.384 422.383 161.154 424.613 153.004 432.393C142.554 442.353 134.694 461.223 133.274 479.733L132.634 488.123L138.044 487.523C141.024 487.193 151.864 486.163 162.154 485.243C183.654 483.303 184.534 483.503 188.014 491.183C191.354 498.533 189.624 511.353 184.954 513.853C183.994 514.373 173.584 515.733 161.824 516.873C150.074 518.023 139.474 519.363 138.274 519.853C135.494 520.993 135.764 523.533 139.854 534.743C147.314 555.173 162.184 570.933 177.704 574.823ZM409.474 495.893C410.324 497.263 412.594 497.073 414.134 495.503C414.864 494.763 417.034 491.393 418.954 488.013C422.374 482.013 424.974 480.103 424.934 483.603C424.924 484.563 423.574 487.783 421.934 490.763C420.294 493.743 418.954 496.323 418.954 496.513C418.954 496.703 420.074 496.853 421.444 496.853C423.484 496.853 424.684 495.533 428.194 489.383C430.904 484.633 433.094 481.903 434.204 481.883C436.534 481.843 436.454 482.313 432.954 488.503C429.384 494.833 429.134 496.363 431.924 494.873C433.004 494.293 435.754 490.683 438.034 486.843C439.634 484.143 440.704 482.513 441.214 480.723C442.144 477.413 441.174 473.573 438.114 461.513C437.894 460.623 437.654 459.683 437.404 458.693C435.504 451.173 433.954 442.853 433.954 440.193C433.964 432.023 439.824 393.853 442.464 384.853C443.824 380.183 446.044 372.683 447.394 368.193C451.874 353.233 453.184 344.773 453.854 326.353C454.214 316.453 454.864 307.793 455.294 307.103C455.724 306.413 456.694 305.853 457.464 305.853C459.364 305.853 464.404 298.323 468.474 289.393C471.534 282.653 479.304 259.833 478.704 259.293C478.564 259.163 474.274 257.673 469.174 255.963C464.064 254.263 452.484 249.493 443.434 245.363C434.394 241.233 426.574 237.853 426.074 237.853C425.034 237.853 424.384 243.163 422.964 263.363C422.414 271.073 421.114 282.093 420.074 287.863C419.034 293.633 417.864 301.053 417.474 304.353C417.094 307.653 415.454 315.753 413.854 322.353C407.674 347.683 407.004 363.193 409.584 420.383L410.214 434.413L406.834 441.883C403.454 449.353 403.454 449.363 403.404 465.353C403.344 482.243 402.904 485.063 399.784 488.473C397.994 490.433 397.964 490.723 399.474 492.223C402.624 495.383 404.644 494.203 408.644 486.863C412.224 480.293 414.954 477.923 414.954 481.383C414.954 482.223 413.584 485.613 411.924 488.923C410.254 492.223 409.154 495.363 409.474 495.893ZM607.454 479.033C612.164 481.943 614.004 481.053 618.174 473.853C621.694 467.793 624.954 464.983 624.954 468.033C624.954 468.753 623.564 471.973 621.874 475.183L618.804 481.013L621.134 480.683C622.854 480.443 624.414 478.543 627.174 473.353C629.214 469.503 631.074 465.903 631.294 465.353C631.554 464.733 632.184 464.813 632.984 465.553C634.014 466.523 633.844 467.763 632.094 471.963C630.904 474.823 630.134 477.363 630.374 477.613C631.514 478.743 633.044 476.223 635.104 469.823C636.504 465.483 637.884 462.853 638.784 462.853C640.234 462.853 640.054 466.993 638.434 471.103C638.034 472.103 638.194 472.853 638.804 472.853C640.154 472.853 641.944 466.473 641.944 461.623C641.954 459.223 639.844 453.133 636.064 444.623C630.334 431.713 630.154 431.023 629.314 419.353C628.844 412.753 628.454 388.233 628.454 364.853V322.353L625.014 308.353C621.824 295.363 621.584 293.223 621.604 278.603C621.624 269.943 621.284 262.853 620.864 262.853C620.434 262.853 618.814 263.333 617.274 263.923C610.064 266.673 591.774 266.853 581.504 264.273L578.694 263.573L579.424 271.463C579.824 275.803 581.034 283.853 582.114 289.353C583.324 295.503 584.424 307.153 584.984 319.593C585.634 334.133 586.494 342.403 588.034 348.973C591.244 362.633 598.494 383.453 601.874 388.723C606.144 395.383 607.794 403.013 608.144 417.673L608.454 430.493L604.804 436.423C602.544 440.093 600.884 444.263 600.464 447.353C600.094 450.103 599.564 453.143 599.304 454.103C598.884 455.603 599.544 455.853 603.904 455.853C608.564 455.853 609.144 456.123 610.964 459.103C613.344 463.003 613.494 466.903 611.424 470.903C609.924 473.823 608.784 474.273 604.004 473.863C601.764 473.673 601.674 473.813 603.004 475.413C603.804 476.383 605.804 478.013 607.454 479.033ZM561.234 167.303C572.154 172.743 578.144 170.063 582.474 157.803C584.024 153.413 583.034 152.463 580.954 156.353C579.474 159.123 576.954 159.723 576.954 157.303C576.954 156.443 578.914 152.733 581.324 149.053C583.724 145.363 587.064 139.613 588.744 136.273L591.814 130.193L583.994 126.993C579.694 125.233 573.534 122.093 570.314 120.003C564.654 116.343 558.954 109.503 558.954 106.373C558.954 104.213 561.704 104.483 562.404 106.703C564.294 112.663 581.014 122.913 594.414 126.333C610.304 130.383 614.894 127.093 621.504 106.853C623.994 99.2131 624.294 96.7931 624.464 82.8531C624.652 68.2701 626.92 53.5967 621.584 45.4031C618.844 41.2331 616.304 41.3531 605.934 46.2031C593.924 51.8131 590.124 52.8231 579.514 53.2131C574.804 53.3831 570.714 53.7531 570.424 54.0431C570.134 54.3331 570.384 55.8431 570.974 57.4031C572.404 61.1631 570.604 65.4631 566.764 67.4531C564.524 68.6131 564.004 69.4231 564.494 70.9831C564.844 72.0931 564.574 74.3531 563.884 76.0131C561.344 82.1531 553.954 81.6431 550.454 75.0931C548.774 71.9631 547.864 71.3031 544.804 71.0531C541.924 70.8131 540.804 71.2331 539.554 73.0231C534.404 80.3731 541.834 93.8531 551.034 93.8531C555.804 93.8531 556.484 96.4531 552.134 98.0931C550.074 98.8731 548.874 100.393 547.674 103.753C546.014 108.403 543.814 111.133 538.584 115.043C535.884 117.063 535.754 117.493 536.344 122.483C536.684 125.393 538.134 131.503 539.574 136.063C544.834 152.733 551.614 162.513 561.234 167.303ZM538.274 456.993L537.664 460.043L548.564 459.343C554.554 458.963 567.304 458.133 576.894 457.503L594.344 456.353L596.054 446.853C597.004 441.623 598.944 432.623 600.364 426.853C603.094 415.773 603.654 405.903 601.904 399.593C600.834 395.773 594.994 386.803 581.154 367.763C572.104 355.313 569.784 351.893 566.914 351.343C565.834 351.143 564.674 351.343 563.064 351.613C562.804 351.663 562.534 351.703 562.244 351.753C542.034 355.093 519.574 370.853 506.194 391.063C504.664 393.383 504.004 395.293 504.544 395.843C505.044 396.333 511.754 400.193 519.454 404.403C535.284 413.063 544.874 419.553 547.304 423.263C549.044 425.913 549.524 430.453 548.134 431.023C547.174 431.403 539.174 452.493 538.274 456.993ZM193.404 604.513C199.614 606.543 211.314 605.653 217.954 602.643C238.044 593.533 253.674 567.693 259.544 533.853C263.044 513.663 261.704 486.023 256.044 461.753C248.524 429.483 230.044 401.333 209.964 391.553C203.924 388.613 202.704 388.383 192.904 388.373C182.714 388.353 182.094 388.483 174.764 392.103C165.894 396.483 158.324 404.013 151.884 414.853C147.984 421.413 141.954 434.893 141.954 437.053C141.954 437.593 143.994 435.533 146.494 432.463C151.484 426.343 157.134 422.103 163.814 419.493C171.504 416.473 196.784 414.843 204.134 416.883C210.474 418.643 219.644 425.613 225.624 433.193C232.984 442.543 239.344 456.063 243.224 470.623C246.274 482.073 246.354 482.883 246.354 504.353C246.364 525.543 246.254 526.683 243.604 535.353C237.684 554.633 227.104 569.693 215.484 575.383C208.474 578.813 187.084 581.513 179.224 579.963C171.764 578.483 163.874 574.483 157.974 569.183C155.174 566.663 152.704 564.773 152.494 564.983C152.274 565.193 154.204 568.933 156.774 573.293C165.344 587.813 179.634 599.993 193.404 604.513ZM379.414 401.353C380.034 402.943 380.654 401.903 382.404 396.353C386.294 384.013 392.284 374.563 398.824 370.433L402.704 367.983L403.374 359.173C404.404 345.433 405.814 336.533 409.424 320.853C411.254 312.873 413.024 304.213 413.334 301.603L413.914 296.853L406.174 292.963C395.864 287.783 389.514 285.993 376.954 284.753C364.714 283.533 357.694 281.723 349.664 277.693C346.484 276.093 343.474 275.033 342.984 275.333C341.374 276.333 338.204 286.173 336.924 294.153C335.384 303.703 336.174 317.083 338.764 325.353C341.614 334.453 346.074 342.553 357.394 359.243C370.084 377.933 371.074 379.843 379.414 401.353ZM488.264 399.773C491.104 402.493 493.504 404.623 493.604 404.533C493.694 404.433 495.534 400.923 497.704 396.733C510.194 372.553 536.124 352.003 559.614 347.673C563.134 347.023 565.884 346.153 565.724 345.723C565.094 343.943 546.244 325.323 537.524 317.863C531.004 312.283 527.744 308.753 526.974 306.423C525.074 300.643 522.364 300.853 508.534 307.813C500.564 311.823 493.964 314.403 489.134 315.373C480.904 317.033 469.434 317.263 463.484 315.883C461.294 315.373 459.434 315.053 459.334 315.163C459.234 315.263 458.764 321.783 458.304 329.643L457.454 343.923L461.844 350.563C468.094 360.003 479.484 382.423 481.434 389.143C482.744 393.633 484.194 395.893 488.264 399.773ZM259.764 594.283C253.144 600.283 253.194 600.363 262.954 598.793C272.154 597.313 279.074 593.833 286.104 587.143C300.814 573.153 310.554 551.693 314.564 524.423C316.934 508.353 316.024 481.693 312.564 465.283C306.624 437.163 296.344 415.523 281.614 400.113C271.054 389.063 260.254 383.853 247.884 383.853C237.514 383.853 236.954 384.493 243.544 388.823C299.164 425.403 308.984 549.743 259.764 594.283ZM289.954 589.743L283.454 596.143L289.814 595.583C309.804 593.823 328.124 573.493 337.304 542.853C342.274 526.283 343.394 517.813 343.354 496.853C343.324 479.653 343.004 475.883 340.664 464.853C335.814 442.003 328.304 423.223 318.464 409.353C312.444 400.863 300.484 389.883 293.444 386.373C288.154 383.743 286.224 383.353 276.954 383.053L266.454 382.713L271.424 385.893C295.044 401.053 312.424 433.663 319.104 475.353C321.064 487.543 320.754 517.233 318.554 529.353C313.884 555.053 303.994 575.933 289.954 589.743ZM227.954 603.153C227.954 603.933 234.344 602.983 240.584 601.273C253.134 597.833 267.974 581.773 275.994 562.933C292.724 523.603 290.944 471.233 271.474 430.133C262.524 411.233 249.154 395.943 236.064 389.643C230.264 386.843 228.234 386.413 219.454 386.093L209.454 385.743L215.684 389.343C237.544 401.983 255.904 434.013 263.004 471.923C266.044 488.103 266.774 516.393 264.554 531.503C260.564 558.653 249.274 583.053 234.404 596.673C230.854 599.923 227.954 602.843 227.954 603.153ZM468.954 462.913C468.954 464.993 469.274 465.093 474.204 464.543C477.094 464.213 491.154 463.193 505.454 462.273C519.754 461.353 531.754 460.323 532.124 459.973C532.494 459.633 534.374 454.623 536.294 448.853C538.214 443.083 540.814 435.693 542.074 432.443L544.354 426.533L539.934 422.613C537.504 420.453 530.844 416.063 525.124 412.853L514.744 407.013L510.364 408.893C498.784 413.853 497.014 413.663 488.954 406.593L484.454 402.653L483.764 412.003C483.014 422.203 481.824 426.493 474.104 447.023C471.274 454.543 468.954 461.693 468.954 462.913ZM444.054 464.923C444.664 466.163 446.154 466.413 451.144 466.133C463.664 465.423 463.284 465.633 465.164 458.453C466.094 454.943 468.924 446.793 471.474 440.363C478.264 423.193 480.324 414.163 479.684 404.383C479.054 394.783 477.424 389.673 470.684 376.093C464.534 363.693 463.494 362.633 457.954 363.043L453.754 363.353L451.334 370.853C446.324 386.373 443.954 397.353 440.894 419.343L437.734 441.983L440.504 452.673C442.034 458.543 443.634 464.063 444.054 464.923ZM429.724 650.303C432.874 651.063 439.134 651.723 443.624 651.773C451.144 651.843 452.064 651.633 455.064 649.103C458.024 646.613 459.084 646.353 466.144 646.353C472.094 646.353 473.954 646.023 473.954 644.983C473.954 644.223 467.764 637.473 460.194 629.983C445.034 614.963 440.294 608.153 438.304 598.503C436.524 589.843 434.964 588.953 424.914 590.863C418.064 592.163 415.954 594.083 415.954 599.033C415.954 602.223 415.524 603.063 413.494 603.843C412.134 604.353 409.214 605.973 407.004 607.443C403.374 609.843 402.674 609.983 399.974 608.863C397.784 607.953 396.644 606.553 395.794 603.723C395.154 601.593 394.424 600.053 394.174 600.303C392.974 601.493 390.194 625.433 391.124 626.553C391.674 627.213 394.664 629.193 397.784 630.953C400.904 632.713 405.924 636.363 408.954 639.083C415.474 644.933 421.884 648.393 429.724 650.303ZM587.644 369.493C587.934 370.243 588.544 370.853 589.004 370.853C589.464 370.853 588.944 368.263 587.844 365.103C583.084 351.403 581.814 343.703 580.964 323.353C580.444 310.933 579.354 299.183 578.094 292.353C576.964 286.303 575.734 276.963 575.354 271.603C574.884 264.843 574.284 261.853 573.424 261.853C571.034 261.853 554.394 273.543 544.964 281.843C539.744 286.443 533.334 291.743 530.714 293.623C528.094 295.503 525.954 297.373 525.954 297.773C525.954 298.173 527.044 299.523 528.374 300.773C529.694 302.023 531.034 304.013 531.324 305.193C531.624 306.383 535.994 310.733 541.044 314.853C552.284 324.043 570.674 343.163 572.614 347.663C573.394 349.483 576.974 354.833 580.574 359.553C584.174 364.273 587.354 368.743 587.644 369.493ZM591.134 627.703C594.614 628.203 601.004 628.663 605.334 628.733C613.004 628.853 613.314 628.763 617.084 625.353C619.214 623.433 621.854 621.853 622.954 621.853C624.054 621.853 624.954 621.413 624.954 620.873C624.954 619.353 621.114 617.183 608.974 611.863C597.154 606.673 590.744 602.393 580.864 593.043C576.024 588.463 574.384 586.083 572.514 580.853C569.884 573.493 568.024 572.543 561.554 575.243C558.124 576.683 557.954 576.973 557.954 581.603C557.954 587.013 556.724 588.853 553.124 588.853C551.784 588.853 549.084 589.843 547.134 591.053C544.654 592.583 541.924 593.273 538.184 593.303C533.334 593.353 532.504 593.023 529.874 590.083C528.264 588.293 526.954 585.953 526.954 584.893C526.954 581.983 525.064 581.423 524.074 584.043C523.104 586.593 519.954 604.153 519.954 607.013C519.954 610.573 527.294 613.053 547.654 616.343C552.724 617.163 563.154 619.853 570.844 622.313C578.534 624.783 587.664 627.203 591.134 627.703ZM742.454 543.703L739.454 545.993L743.924 545.373C755.084 543.833 769.244 533.303 778.884 519.363C805.114 481.423 801.174 422.863 770.024 387.653C761.714 378.253 745.714 369.853 736.114 369.853H732.454L739.954 374.723C766.854 392.203 782.614 428.413 780.644 468.263C779.094 499.733 765.864 525.863 742.454 543.703ZM547.584 528.773C552.694 530.233 557.014 530.693 564.414 530.553L574.384 530.353L579.644 512.853C586.714 489.333 590.344 475.913 589.784 475.353C589.354 474.923 556.724 477.043 541.564 478.483L534.684 479.143L535.314 492.243C536.704 521.033 537.114 524.873 538.974 525.863C539.924 526.373 543.804 527.683 547.584 528.773ZM759.954 543.963C759.954 544.873 766.514 543.353 771.464 541.293C778.194 538.503 787.774 531.023 793.574 524.023C800.584 515.543 808.184 500.193 811.704 487.353C814.254 478.063 814.444 476.043 814.374 458.853C814.314 442.083 814.064 439.423 811.634 430.353C808.564 418.853 801.794 404.193 795.494 395.363C785.494 381.343 770.504 370.923 759.164 370.093L753.454 369.683L759.954 373.983C784.444 390.183 800.134 423.573 800.304 459.853C800.364 474.173 798.944 483.553 794.784 496.353C788.514 515.603 775.374 534.173 762.724 541.653C761.204 542.553 759.954 543.593 759.954 543.963ZM700.304 495.293C713.944 501.893 728.264 494.373 735.114 477.003C738.344 468.803 738.384 452.053 735.204 442.853C732.524 435.143 727.054 427.573 721.174 423.433C717.784 421.063 715.604 420.363 710.534 420.043C706.964 419.813 702.494 420.183 700.384 420.873C695.694 422.423 688.634 428.843 685.224 434.653C682.594 439.133 679.634 449.533 680.564 451.033C680.844 451.483 683.034 451.853 685.434 451.853C689.544 451.853 689.944 451.603 692.134 447.603C695.164 442.073 699.604 439.853 707.624 439.853C712.884 439.853 714.284 440.253 717.024 442.563C721.464 446.303 723.904 452.163 723.934 459.143C723.994 476.673 706.584 484.713 694.574 472.713C690.974 469.103 690.224 468.783 686.034 469.053C680.714 469.403 680.604 470.043 684.434 478.533C687.554 485.433 693.994 492.233 700.304 495.293ZM415.454 543.963C425.904 547.003 440.244 545.953 441.314 542.073C441.574 541.123 444.944 530.233 448.804 517.853C452.654 505.473 456.494 492.993 457.324 490.103L458.844 484.853L454.654 484.863C445.464 484.893 443.544 485.703 440.714 490.743C439.264 493.323 437.144 496.273 436.014 497.303C431.794 501.123 419.514 501.893 404.614 499.283L400.774 498.613L401.494 517.983C401.884 528.633 402.404 537.693 402.644 538.113C403.444 539.483 409.364 542.193 415.454 543.963ZM783.454 539.093L779.454 542.123L782.934 541.463C795.584 539.083 811.184 524.713 820.314 507.013C834.654 479.223 835.514 443.653 822.574 413.723C817.194 401.273 813.114 395.093 804.454 386.293C795.344 377.023 785.884 371.203 778.364 370.223L773.454 369.583L779.624 373.743C786.184 378.173 794.904 387.013 799.944 394.333C805.414 402.293 812.924 419.133 815.544 429.353C819.034 442.973 819.944 465.223 817.564 479.133C813.174 504.893 801.474 525.453 783.454 539.093ZM210.964 567.103C204.004 574.693 204.734 575.723 213.814 571.133C221.184 567.403 228.204 559.253 233.424 548.353C240.474 533.643 243.604 516.103 242.454 497.853C240.614 468.863 231.924 445.663 217.524 431.293C210.204 423.983 204.154 420.853 197.384 420.853L192.454 420.863L195.454 422.703C214.224 434.253 228.104 462.323 231.104 494.763C233.714 522.943 225.974 550.723 210.964 567.103ZM534.774 588.313C538.284 590.223 538.664 590.193 543.954 587.623C546.424 586.423 549.554 585.193 550.904 584.893C553.004 584.423 553.364 583.753 553.454 580.073C553.584 575.023 555.814 572.353 561.544 570.383C565.294 569.103 565.504 568.793 566.784 562.703C567.524 559.213 569.204 551.943 570.534 546.563C571.864 541.183 572.954 536.353 572.954 535.853C572.954 535.323 570.274 535.183 566.694 535.513C560.044 536.133 548.054 534.173 541.344 531.373C539.314 530.523 537.434 530.043 537.174 530.303C536.914 530.563 536.304 536.983 535.814 544.563C535.334 552.153 534.014 563.873 532.884 570.623C531.754 577.383 531.114 583.793 531.464 584.883C531.804 585.973 533.294 587.513 534.774 588.313ZM446.534 479.683C446.854 480.693 448.464 480.863 453.204 480.403C464.704 479.283 538.084 473.953 570.954 471.853C588.834 470.713 604.434 469.573 605.634 469.313C608.104 468.783 609.394 465.833 608.454 462.853C607.694 460.453 605.004 460.353 581.954 461.873C573.424 462.433 542.374 464.473 512.954 466.413C483.534 468.343 456.234 470.193 452.294 470.533L445.124 471.133L445.624 474.743C445.904 476.733 446.314 478.953 446.534 479.683ZM399.954 601.273C399.954 605.683 401.234 605.823 407.364 602.103C411.244 599.743 411.894 598.883 411.924 596.053C411.984 590.133 419.224 585.853 429.184 585.853H433.684L434.854 575.603C435.494 569.963 436.834 561.633 437.824 557.083L439.634 548.823L436.044 549.553C429.354 550.903 419.684 550.053 411.674 547.413C407.394 546.003 403.564 544.853 403.174 544.853C402.774 544.853 402.594 551.373 402.754 559.343C402.944 568.423 402.474 578.303 401.504 585.773C400.654 592.323 399.954 599.303 399.954 601.273ZM125.634 509.103C125.224 513.963 125.404 515.853 126.254 515.853C131.044 515.853 179.904 510.573 181.604 509.873C186.204 507.973 187.124 495.753 183.034 490.703L181.234 488.473L152.844 490.823C137.224 492.113 124.104 493.473 123.684 493.833C123.254 494.203 123.644 496.263 124.554 498.423C125.774 501.353 126.054 504.083 125.634 509.103ZM806.764 532.283C799.584 538.783 800.234 539.413 808.544 534.023C826.374 522.453 839.454 499.433 843.394 472.723C845.334 459.533 845.344 454.033 843.454 441.353C838.734 409.683 820.434 381.603 798.564 372.463C792.694 370.013 792.194 370.523 797.054 374.023C803.024 378.333 812.864 388.323 816.754 394.033C821.624 401.153 827.434 413.423 830.354 422.693C842.864 462.473 832.944 508.603 806.764 532.283ZM584.454 635.363C598.014 637.893 615.964 636.903 623.174 633.223C626.414 631.563 628.184 628.623 627.314 626.353C626.404 623.973 622.214 625.263 618.144 629.173L614.834 632.353L604.144 632.183C591.714 631.993 582.434 630.233 567.904 625.323C562.154 623.383 551.074 620.693 543.274 619.343C535.474 618.003 526.704 615.993 523.774 614.873C520.844 613.763 518.344 612.853 518.204 612.853C518.064 612.853 517.954 614.813 517.954 617.203C517.954 624.923 522.144 626.633 543.954 627.823C556.144 628.483 561.374 629.243 568.454 631.363C573.404 632.843 580.604 634.653 584.454 635.363ZM431.504 659.713C441.054 660.933 446.954 660.973 457.274 659.893C468.054 658.753 472.624 657.333 474.064 654.653C474.914 653.063 474.794 652.263 473.514 650.983C471.104 648.573 462.164 648.793 458.524 651.353C452.874 655.333 451.334 655.823 444.364 655.843C436.454 655.853 424.374 653.113 417.784 649.803C415.404 648.603 410.934 645.453 407.844 642.793C402.564 638.243 391.344 630.863 389.704 630.853C389.294 630.853 388.954 632.863 388.954 635.333C388.954 640.503 389.854 641.323 399.914 645.413C403.384 646.823 407.854 649.283 409.844 650.873C415.344 655.273 423.804 658.723 431.504 659.713ZM348.624 488.183C348.984 488.553 349.384 488.853 349.494 488.853C349.604 488.853 360.424 487.943 373.534 486.823C389.254 485.493 397.634 484.383 398.144 483.573C398.574 482.903 398.934 480.433 398.934 478.093L398.954 473.833L395.204 474.363C390.574 475.023 354.504 477.853 350.714 477.853C348.084 477.853 347.954 478.073 347.954 482.683C347.954 485.343 348.254 487.823 348.624 488.183ZM646.324 462.743L645.934 467.133L655.194 466.483C660.284 466.133 672.764 465.373 682.924 464.793C693.084 464.203 701.974 463.253 702.674 462.673C704.314 461.313 704.324 457.393 702.704 456.103C701.664 455.263 660.464 456.793 649.084 458.083C647.064 458.313 646.654 458.993 646.324 462.743ZM395.954 399.723C400.014 404.193 403.734 407.853 404.224 407.853C404.714 407.853 404.874 406.613 404.594 405.103C404.304 403.593 403.764 395.673 403.404 387.503L402.734 372.653L398.374 376.933C395.974 379.283 392.784 383.553 391.294 386.403L388.574 391.593L395.954 399.723ZM701.424 472.903C702.534 473.353 703.694 473.753 703.984 473.793C705.304 473.953 709.104 470.453 710.464 467.843C712.194 464.483 712.424 456.223 710.884 452.173C708.044 444.673 701.044 442.383 696.924 447.603L694.754 450.353L699.324 450.653C702.834 450.893 704.364 451.563 705.924 453.543C710.204 458.983 707.164 467.163 700.384 468.433C697.434 468.983 697.094 469.313 698.144 470.583C698.824 471.403 700.304 472.443 701.424 472.903ZM115.764 515.133C117.094 516.653 117.524 516.713 118.714 515.523C122.014 512.223 122.054 500.093 118.784 496.143C115.574 492.283 111.954 496.703 111.954 504.463C111.954 509.063 112.984 511.943 115.764 515.133ZM483.704 332.623C470.234 340.983 466.854 342.723 465.204 342.133C462.794 341.273 464.014 340.003 471.704 335.383C475.964 332.813 481.924 329.173 484.954 327.293C490.184 324.033 494.954 322.813 494.954 324.743C494.954 325.233 489.894 328.773 483.704 332.623ZM406.634 278.293C406.004 280.203 404.144 279.813 397.094 276.283C390.434 272.953 377.954 262.823 377.954 260.743C377.954 258.633 381.224 260.193 386.504 264.813C389.614 267.533 395.494 271.473 399.554 273.563C403.624 275.643 406.804 277.773 406.634 278.293ZM373.454 297.463C369.604 298.333 365.494 299.263 364.324 299.543C361.324 300.243 360.444 298.193 363.134 296.763C367.674 294.323 375.704 292.873 384.704 292.863C392.264 292.853 393.954 293.123 393.954 294.353C393.954 295.533 392.534 295.853 387.204 295.873C383.494 295.883 377.304 296.593 373.454 297.463ZM712.954 472.563C712.954 474.163 715.804 471.573 717.684 468.273C722.694 459.473 718.324 443.853 710.844 443.853C710.114 443.853 710.474 444.783 711.714 446.103C712.874 447.343 714.304 449.623 714.884 451.173C716.424 455.233 716.194 464.333 714.454 468.503C713.624 470.483 712.954 472.303 712.954 472.563ZM617.914 89.4031C614.554 92.9931 612.254 94.1531 611.354 92.6931C610.934 92.0131 611.744 90.6331 613.294 89.4031C614.754 88.2331 615.944 86.8431 615.944 86.3131C615.934 85.7831 614.584 82.7031 612.944 79.4631C609.664 72.9931 609.084 68.8531 611.454 68.8531C612.284 68.8531 612.954 69.6431 612.954 70.6031C612.954 71.5631 614.624 75.6031 616.664 79.5631L620.374 86.7731L617.914 89.4031ZM430.584 312.773C430.974 316.993 430.834 319.813 430.194 320.203C428.434 321.293 427.244 318.573 426.554 311.853C426.184 308.273 425.784 304.503 425.664 303.463C425.334 300.493 427.834 300.393 428.944 303.333C429.504 304.783 430.234 309.033 430.584 312.773ZM453.484 430.993C454.164 434.773 452.904 436.763 451.214 434.593C450.184 433.273 446.954 420.993 446.954 418.393C446.954 417.553 447.544 416.853 448.274 416.853C449.584 416.853 452.244 424.073 453.484 430.993ZM607.454 313.913C602.774 317.233 599.054 318.283 596.954 316.863C595.624 315.963 595.624 315.743 596.954 314.873C597.784 314.323 599.174 313.873 600.064 313.873C600.944 313.863 603.734 312.273 606.254 310.353C611.594 306.273 612.204 306.123 611.774 308.963C611.594 310.123 609.654 312.353 607.454 313.913ZM615.504 103.943C616.714 105.893 614.584 106.353 605.704 106.063C598.824 105.833 596.954 105.463 596.954 104.313C596.954 103.143 598.724 102.853 605.894 102.853C611.254 102.853 615.104 103.293 615.504 103.943ZM848.784 451.883C849.134 459.283 850.554 460.733 852.384 455.553C853.574 452.203 852.004 445.483 849.954 445.083C848.714 444.843 848.514 446.003 848.784 451.883ZM622.484 74.7631C621.004 79.4131 616.554 77.2431 617.134 72.1631C617.364 70.1731 618.084 69.2631 619.614 69.0431C622.054 68.7031 623.494 71.5731 622.484 74.7631ZM595.454 73.8531C594.724 76.1531 591.164 76.5531 590.344 74.4231C589.254 71.5931 590.404 68.3631 592.614 68.0431C595.074 67.6931 596.494 70.5831 595.454 73.8531ZM457.604 358.053C461.474 358.523 461.544 358.373 459.384 354.363C457.474 350.813 455.964 349.823 455.944 352.103C455.934 352.793 455.664 354.333 455.344 355.523C454.854 357.343 455.234 357.763 457.604 358.053Z" fill="#180F08"/>
</g>
<defs>
<clipPath id="clip0_1600_2250">
<rect width="954" height="741" fill="white"/>
</clipPath>
</defs>
</svg>
