<svg width="1384" height="965" viewBox="0 0 1384 965" fill="none" xmlns="http://www.w3.org/2000/svg">
<g clip-path="url(#clip0_1560_2055)">
<path d="M733.275 2.9508C711.009 8.9508 695.809 23.4841 688.209 46.1508C685.275 54.8175 685.275 54.8175 676.209 57.2175C662.609 60.8175 649.675 67.2174 644.475 73.0841C640.609 77.3508 639.809 79.2174 639.809 84.2841C639.809 92.1508 641.409 94.8175 648.209 98.4175C653.009 101.084 655.809 101.484 668.609 101.484C683.409 101.484 683.409 101.484 684.209 113.617C687.142 156.817 705.009 193.484 728.209 203.484C732.342 205.351 735.809 207.084 735.809 207.484C735.809 207.884 730.209 211.084 723.409 214.684C693.675 230.417 683.009 240.551 655.942 278.817C646.075 292.684 635.009 308.017 631.542 312.684C626.075 319.751 625.142 321.751 625.809 324.951C626.475 328.017 625.675 330.017 621.675 335.084C608.209 351.884 602.609 357.484 590.742 365.617C572.742 378.151 561.142 387.751 546.609 402.551C538.609 410.684 532.742 415.484 530.342 416.017C525.409 416.951 497.542 442.551 495.142 448.284C493.809 451.484 489.542 455.084 479.409 461.884C461.542 474.017 455.675 480.551 451.942 493.084C450.342 498.417 448.475 503.751 447.942 504.817C447.409 505.884 435.942 510.417 422.475 514.951C409.142 519.484 396.342 524.151 394.209 525.484C386.342 530.151 342.075 530.417 319.809 526.017C310.209 524.151 292.209 519.084 279.809 514.817C246.075 503.217 215.409 500.817 186.475 507.617C138.342 518.684 104.209 543.484 87.2752 579.617C80.4752 594.017 78.0752 604.684 78.0752 620.151C78.0752 664.417 105.542 700.284 148.475 712.284C159.142 715.217 189.009 716.284 202.342 714.151C226.875 710.151 255.409 697.751 275.675 682.017C290.875 670.417 297.809 662.284 316.609 635.351C333.542 610.817 349.142 593.217 364.209 581.617C378.342 570.817 402.475 556.684 405.275 557.484C406.475 557.884 416.875 555.217 428.342 551.484C450.875 544.284 453.142 543.884 453.142 546.684C453.142 547.751 454.609 550.284 456.342 552.417C460.209 556.951 468.609 557.617 473.009 553.617C475.009 551.751 476.875 551.351 480.475 552.017C484.209 552.817 486.475 552.284 489.942 550.284C492.475 548.684 496.609 547.484 498.875 547.484C501.275 547.484 505.009 546.284 507.142 544.817C509.409 543.351 512.742 542.151 514.742 542.151C519.542 542.151 524.742 535.617 525.942 528.151C526.609 523.217 527.409 522.017 529.942 521.351C536.875 519.617 539.142 509.884 535.142 498.817C532.475 491.484 532.609 490.551 536.875 489.484C542.075 488.151 568.742 471.751 572.209 467.617C573.809 465.617 582.609 459.884 591.809 454.817C623.809 437.217 633.409 430.017 655.942 407.484C676.742 386.684 676.742 386.684 682.342 388.551C685.409 389.617 689.275 390.017 691.009 389.617C692.742 389.217 702.742 379.884 713.142 368.817C723.542 357.884 732.609 348.817 733.142 348.817C734.609 348.817 759.809 386.417 766.342 398.551C773.809 412.151 778.342 426.817 780.609 444.684C781.675 453.217 783.142 461.751 783.675 463.617C784.342 465.484 784.475 467.617 783.942 468.417C783.542 469.084 774.742 476.017 764.475 483.751C754.209 491.484 742.209 500.817 737.675 504.417C733.275 507.884 723.675 515.617 716.342 521.351C702.475 532.417 685.142 548.551 685.142 550.551C685.142 551.217 677.675 558.951 668.742 567.884C632.742 603.351 622.742 618.284 614.742 648.151C612.475 656.151 609.275 667.884 607.409 674.151C605.542 680.417 600.609 696.817 596.609 710.817C592.475 724.684 584.475 752.684 579.009 772.817C573.409 792.951 567.142 815.084 565.009 821.884C561.409 832.951 560.609 834.417 556.742 836.017C554.342 836.951 548.609 842.151 543.942 847.351C530.475 862.551 511.542 874.817 488.742 882.817C467.675 890.284 459.809 897.751 459.809 910.151C459.809 922.951 467.809 928.951 488.875 932.151C510.075 935.351 519.542 934.684 553.142 927.617C564.742 925.084 578.342 923.217 591.275 922.551C624.342 920.551 626.475 918.417 626.475 886.684C626.475 871.351 625.942 864.817 624.209 859.484C622.075 852.817 622.075 852.151 624.342 845.617C627.675 836.417 638.342 814.951 645.942 802.417C649.409 796.817 657.142 784.017 663.275 774.017C685.009 738.017 693.275 718.817 699.142 690.151C701.009 681.351 703.009 672.951 703.675 671.617C705.409 668.551 706.342 667.884 733.809 652.151C756.209 639.217 756.209 639.217 766.609 644.684C772.342 647.751 779.009 650.284 781.542 650.417C787.142 650.551 794.609 645.484 820.475 623.884C841.409 606.551 857.409 594.817 874.475 584.551C887.142 576.951 887.142 576.951 890.209 579.884C894.742 584.151 906.342 602.151 914.475 617.484C926.475 640.017 935.675 655.351 938.475 656.817C939.809 657.484 944.875 658.151 949.675 658.151C958.475 658.151 958.475 658.151 970.209 675.884C976.742 685.617 987.542 700.151 994.209 708.284C1011.81 729.884 1015.94 732.417 1071.54 755.617C1087.01 762.151 1102.21 768.684 1105.28 770.151C1108.21 771.751 1120.08 777.084 1131.54 782.017C1158.34 793.617 1176.48 803.617 1176.61 806.951C1176.74 808.417 1176.88 810.417 1177.01 811.751C1177.01 812.951 1181.54 818.284 1186.88 823.751C1197.68 834.817 1204.74 845.884 1210.48 861.484C1212.74 867.351 1216.08 876.284 1218.08 881.351C1225.94 902.017 1240.88 909.617 1258.08 901.617C1271.81 895.217 1279.81 878.417 1279.81 856.284C1279.81 839.751 1277.14 828.684 1269.01 811.084C1265.28 802.817 1260.34 789.217 1258.21 780.817C1253.41 762.284 1250.61 756.551 1244.88 753.084C1236.21 747.884 1214.61 745.751 1203.68 748.951C1198.61 750.551 1198.61 750.551 1169.68 720.951C1133.01 683.484 1116.34 671.751 1091.54 665.484C1075.81 661.617 1075.68 661.484 1066.48 634.817C1061.14 619.217 1061.14 619.217 1065.81 614.017C1068.34 611.084 1070.48 607.484 1070.48 606.017C1070.48 604.417 1065.54 592.951 1059.68 580.284C1043.41 546.017 1039.14 534.417 1033.14 508.417C1030.08 495.351 1025.81 480.284 1023.54 475.084C1017.94 461.617 1017.68 459.884 1021.01 456.417C1027.81 449.084 1024.74 440.284 1004.21 406.284C998.609 397.084 990.875 382.551 987.009 374.151C979.009 356.684 947.942 280.284 946.875 275.751C946.209 273.084 946.609 272.817 952.609 272.817C956.209 272.817 967.409 273.484 977.542 274.417C997.542 276.151 999.142 275.884 1002.21 269.751C1004.34 265.484 1004.48 265.484 1029.14 268.151C1048.61 270.151 1053.01 271.351 1070.88 278.817C1086.61 285.351 1102.61 289.217 1136.61 294.817C1183.41 302.417 1182.88 302.284 1193.14 312.951C1197.94 317.884 1205.41 324.017 1209.81 326.551C1214.21 329.217 1221.01 334.017 1224.88 337.351C1235.14 346.151 1240.88 347.084 1243.94 340.284C1246.21 335.217 1244.21 328.284 1238.34 320.817C1235.41 317.217 1233.54 314.017 1234.08 313.884C1234.74 313.751 1246.61 313.617 1260.74 313.617C1284.48 313.484 1286.48 313.351 1290.08 310.684C1292.34 308.951 1293.94 306.417 1294.21 304.017C1294.48 301.884 1296.48 298.551 1298.61 296.551C1303.68 291.751 1303.68 287.084 1298.48 283.217C1296.21 281.617 1293.28 278.284 1291.81 275.884C1290.21 273.084 1287.01 270.417 1283.54 268.951C1280.34 267.617 1276.34 264.817 1274.48 262.951C1268.74 256.684 1259.28 254.951 1237.14 256.284C1196.88 258.551 1201.01 259.351 1170.88 243.884C1128.21 222.151 1103.28 212.284 1075.28 206.284C1067.94 204.684 1057.28 201.351 1051.68 198.817C1046.08 196.417 1034.74 192.684 1026.74 190.684C1014.21 187.617 1011.94 186.684 1011.28 184.151C1010.88 182.551 1008.88 180.551 1007.01 179.617C1003.14 177.884 948.875 167.751 923.809 164.017C905.275 161.351 876.875 162.017 856.209 165.484C842.609 167.751 842.609 167.751 836.609 164.817C833.275 163.217 827.675 161.484 824.342 161.084C815.009 159.751 815.542 157.351 825.275 156.284C832.209 155.484 834.342 154.551 838.075 150.817C841.809 147.084 842.475 145.484 842.475 140.417C842.475 134.951 842.875 134.151 847.142 131.484C856.875 125.484 858.209 114.817 850.342 106.684C846.875 103.084 846.475 102.017 847.675 99.7508C850.475 94.5508 849.409 86.5508 845.409 82.0174C842.342 78.5508 840.342 77.7508 833.809 76.9508C825.809 76.1508 825.809 76.1508 824.075 63.4841C823.275 56.5508 821.809 48.6841 821.009 46.1508C811.542 17.2175 787.142 0.684134 754.075 0.9508C746.609 0.9508 737.275 1.88413 733.275 2.9508ZM747.675 60.1508C753.675 61.3508 762.609 63.4841 767.542 65.0841C776.342 67.7508 776.342 67.7508 773.409 70.2841C766.475 75.7508 755.809 78.6841 742.475 78.6841C730.875 78.6841 728.609 78.1508 715.809 73.2175C708.075 70.2841 698.475 67.2174 694.475 66.2841C680.875 63.2174 680.742 62.5508 693.542 60.0174C705.542 57.6174 734.742 57.7508 747.675 60.1508ZM713.275 79.4841C729.809 85.2175 733.942 86.1508 742.609 86.1508C748.609 86.1508 755.809 85.2174 759.942 83.8841C763.942 82.5508 767.142 82.1508 767.409 82.8174C769.542 89.4841 773.142 93.7508 778.209 96.1508C782.875 98.2841 784.075 99.6175 785.275 104.151C788.742 117.084 798.342 119.484 803.942 108.684C808.875 98.9508 815.542 97.3508 821.142 104.417C828.342 113.484 819.409 132.817 808.075 132.817C806.609 132.817 804.742 133.751 803.809 134.817C802.475 136.551 802.475 137.351 804.075 139.217C805.275 140.417 806.475 144.017 807.009 147.084C808.209 155.484 812.742 166.551 817.942 174.284C821.409 179.484 822.475 182.417 822.475 187.084C822.475 195.484 816.742 211.484 808.875 225.351C803.142 235.351 801.942 238.684 801.275 246.284C800.742 251.217 800.075 255.751 799.675 256.151C799.275 256.551 796.209 253.484 793.009 249.484C789.809 245.351 784.475 240.284 781.142 238.151C770.875 231.617 765.542 224.951 762.609 215.617C761.142 210.817 760.209 206.551 760.609 205.884C761.009 205.217 763.409 203.884 766.075 202.817C774.475 199.217 784.075 191.084 789.275 183.084C792.209 178.684 794.475 174.017 794.475 172.551C794.475 168.417 789.942 169.884 787.142 174.951C783.409 182.017 771.409 193.351 764.209 196.951C759.675 199.084 754.609 200.151 747.409 200.551C738.342 201.084 736.209 200.684 729.809 197.617C717.675 191.617 705.809 175.351 699.009 155.484C695.409 144.684 690.475 120.284 690.475 112.951C690.475 107.978 689.582 110.77 690.209 91.3508C690.609 77.7508 691.275 72.8174 692.875 72.8174C693.542 72.8174 702.609 75.7508 713.275 79.4841ZM834.742 171.617C840.342 175.617 843.675 183.884 845.275 197.751C846.742 209.617 846.209 238.817 844.609 240.551C844.075 240.951 839.009 238.817 833.275 235.751C827.542 232.684 821.942 230.151 821.009 230.151C819.942 230.151 818.342 229.617 817.275 228.951C815.675 227.884 815.809 226.951 818.209 223.084C823.409 214.284 828.075 199.084 828.742 188.817C829.409 179.617 829.142 178.417 825.942 173.751C824.075 170.951 822.475 168.284 822.475 167.884C822.475 166.284 830.875 168.951 834.742 171.617ZM930.475 172.151C938.209 173.351 953.542 176.017 964.475 178.151C975.542 180.151 988.475 182.684 993.275 183.484C998.075 184.284 1002.88 185.617 1003.94 186.151C1005.41 187.217 1005.81 191.884 1005.81 210.417C1005.68 231.084 1005.28 234.951 1002.08 247.217C1000.08 254.817 997.542 262.817 996.342 264.951C994.475 268.684 993.942 268.951 988.742 268.284C972.209 266.017 944.342 264.684 933.542 265.484C920.742 266.417 916.075 268.284 917.542 271.884C918.209 273.751 919.809 274.017 928.209 273.351C937.942 272.417 937.942 272.417 951.142 306.284C975.142 367.884 981.942 382.817 999.142 412.151C1012.61 434.951 1017.14 443.884 1017.14 447.351C1017.14 452.284 999.809 463.084 982.342 468.951C967.542 473.884 942.742 478.151 928.475 478.151C908.875 478.151 883.809 475.484 859.809 470.684C834.742 465.751 808.875 463.084 799.542 464.284C795.009 464.951 793.275 464.551 791.809 462.951C790.875 461.617 789.009 452.551 787.675 442.551C786.342 432.551 784.209 421.351 783.009 417.617C779.142 405.884 770.609 390.151 756.742 369.617C744.075 350.817 732.475 329.484 727.142 315.217C724.475 307.884 721.809 304.951 719.542 307.217C717.942 308.817 719.142 313.217 726.075 330.017C730.609 341.351 730.609 341.351 711.542 360.417C692.475 379.484 692.475 379.484 685.275 368.551C681.275 362.551 674.075 353.617 669.275 348.684C661.009 340.417 643.009 327.351 637.142 325.484C632.875 324.151 633.942 321.084 642.209 310.284C646.475 304.684 655.009 292.951 661.142 284.151C679.275 257.884 690.075 245.351 702.075 236.284C712.742 228.284 732.475 216.817 735.675 216.817C736.475 216.817 737.142 218.284 737.142 220.151C737.142 235.484 751.275 271.484 757.275 271.484C760.209 271.484 761.542 269.617 764.475 261.751C769.275 248.951 777.009 244.417 784.209 250.151C792.209 256.551 799.275 268.951 803.675 284.817C808.075 300.151 810.342 304.551 813.009 302.951C815.142 301.617 814.875 298.684 811.142 286.951C809.409 281.217 807.542 273.084 807.142 268.951C806.342 261.217 808.209 238.684 809.675 237.084C810.209 236.551 813.009 236.284 815.809 236.284C819.275 236.417 824.475 238.551 833.142 243.617C847.675 251.884 849.009 251.617 851.542 240.017C853.809 229.617 852.742 193.751 849.942 183.084C848.742 178.817 847.809 175.084 847.809 174.817C847.809 174.151 854.742 172.684 867.809 170.684C881.809 168.551 911.142 169.217 930.475 172.151ZM1049.81 205.484C1055.68 207.884 1067.14 211.484 1075.14 213.351C1105.41 220.684 1115.41 224.551 1161.81 247.217C1196.34 264.151 1196.34 264.151 1215.14 263.617C1247.68 262.684 1260.34 262.817 1263.14 264.151C1265.14 265.084 1262.88 265.617 1253.81 266.151C1244.34 266.684 1241.81 267.217 1241.81 268.817C1241.81 270.417 1245.28 271.084 1259.14 272.284C1274.08 273.617 1283.81 275.617 1283.81 277.217C1283.81 277.484 1275.28 277.484 1264.88 277.217C1245.54 276.684 1241.41 277.484 1242.88 281.351C1243.54 283.084 1245.94 283.484 1256.34 283.484C1270.08 283.484 1288.34 285.617 1292.08 287.617C1295.41 289.351 1295.01 291.217 1291.14 293.084C1288.48 294.284 1284.08 294.151 1271.41 292.417C1252.74 289.751 1243.01 289.484 1241.81 291.484C1239.81 294.684 1244.21 296.417 1255.54 297.351C1266.88 298.151 1284.88 301.351 1286.21 302.817C1286.61 303.217 1286.21 304.284 1285.28 305.217C1284.08 306.417 1276.08 306.817 1255.81 306.817C1220.08 306.817 1218.61 307.751 1231.28 322.684C1239.28 332.017 1239.81 340.551 1232.08 334.284C1230.08 332.684 1224.34 328.551 1219.28 325.084C1214.21 321.617 1205.54 314.551 1199.94 309.351C1184.61 294.951 1184.88 295.084 1140.34 288.151C1107.28 283.084 1089.14 278.684 1068.21 270.417C1051.54 263.751 1045.81 262.417 1024.48 260.417C1013.94 259.351 1007.28 258.151 1007.41 257.217C1007.54 256.551 1009.01 249.617 1010.61 242.017C1012.34 233.351 1013.54 221.884 1013.81 211.484C1014.08 202.284 1014.34 194.684 1014.34 194.551C1014.74 193.751 1040.88 201.751 1049.81 205.484ZM753.942 211.084C756.209 221.751 759.009 227.617 765.009 234.151C771.409 241.351 771.409 241.351 766.609 246.151C763.942 248.684 760.609 252.951 759.275 255.484C756.742 260.151 756.742 260.151 751.809 249.751C746.075 237.484 743.809 228.817 743.809 218.284C743.809 210.017 745.275 207.484 750.075 207.484C752.342 207.484 753.275 208.417 753.942 211.084ZM644.475 337.751C655.142 344.817 673.009 362.151 676.342 368.417C678.475 372.817 678.475 372.817 668.875 383.751C653.542 401.351 633.409 420.284 621.142 428.684C607.809 437.884 577.009 455.484 574.342 455.484C573.275 455.484 570.742 452.017 568.475 447.884C564.609 440.417 550.342 424.551 543.809 420.551C540.475 418.551 540.475 418.551 550.475 408.151C561.542 396.817 581.142 380.417 596.075 370.417C606.875 363.084 615.942 354.017 625.809 340.417C629.409 335.484 633.009 331.484 633.809 331.484C634.475 331.484 639.409 334.284 644.475 337.751ZM542.475 428.551C550.475 434.017 557.675 442.684 563.809 454.284C565.942 458.417 567.809 462.151 567.809 462.551C567.809 463.217 546.209 476.951 540.209 480.017C533.942 483.217 532.875 482.817 528.475 475.351C524.342 468.284 513.409 457.351 506.342 453.217C504.209 452.017 502.475 450.551 502.475 450.017C502.475 449.484 508.475 443.351 515.942 436.284C524.742 428.017 530.475 423.484 532.342 423.484C534.075 423.484 538.609 425.751 542.475 428.551ZM513.275 468.817C525.009 480.551 526.209 483.484 519.542 483.484C517.142 483.617 513.675 484.417 511.809 485.484C506.342 488.551 504.209 488.017 504.875 483.617C505.542 478.417 502.609 476.817 499.942 480.817C494.342 488.951 488.209 494.017 481.142 496.017C477.142 497.217 473.142 498.684 472.209 499.217C471.409 499.751 468.609 504.817 466.075 510.417C461.142 521.217 455.675 526.551 452.742 523.617C451.542 522.417 451.942 519.217 454.209 509.751C458.075 494.417 464.075 481.751 469.542 477.484C481.142 468.417 496.875 458.417 499.675 458.284C501.942 458.151 505.675 461.084 513.275 468.817ZM1013.94 469.751C1018.61 480.817 1022.61 494.684 1026.61 512.951C1031.28 534.817 1037.94 552.551 1052.48 582.417C1057.94 593.617 1062.48 603.751 1062.48 604.817C1062.48 607.351 1059.94 610.151 1057.68 610.151C1056.74 610.151 1052.61 607.351 1048.48 604.017C1044.34 600.684 1040.21 598.151 1039.28 598.551C1037.01 599.484 1035.81 605.617 1035.81 616.284C1035.81 624.151 1035.54 624.817 1031.54 627.884C1022.48 634.684 1004.08 642.017 983.809 646.817C971.142 649.884 942.209 651.084 940.342 648.684C939.409 647.617 933.009 636.017 925.942 622.951C909.142 591.884 902.875 582.551 889.809 569.351C875.142 554.417 853.275 541.617 850.475 546.284C848.875 548.817 849.542 549.484 860.209 555.617C871.942 562.417 881.409 569.884 880.475 571.617C879.942 572.284 874.475 575.884 868.075 579.617C850.742 589.751 841.942 596.417 801.409 629.884C786.475 642.151 787.275 642.017 783.409 633.617C769.675 603.751 736.475 569.351 707.142 554.551C702.075 552.017 697.542 549.617 697.275 549.351C695.675 547.884 725.275 523.084 764.209 493.351C775.275 484.684 786.209 476.284 788.475 474.417C792.342 471.217 792.609 471.217 811.809 471.884C827.009 472.284 836.475 473.484 855.809 477.351C887.142 483.617 905.409 485.351 933.809 484.417C953.409 483.884 958.609 483.217 972.209 479.751C980.742 477.484 992.475 473.351 998.209 470.417C1003.81 467.617 1009.28 465.217 1010.08 465.084C1011.01 464.951 1012.74 467.084 1013.94 469.751ZM525.009 493.617C526.475 495.484 528.342 500.284 529.142 504.417C530.475 510.684 530.475 512.151 528.609 513.884C526.742 515.884 526.209 515.751 522.742 512.417C520.342 510.151 517.542 508.817 514.875 508.817C512.609 508.817 510.075 507.884 509.009 506.684C507.675 505.084 505.942 504.817 501.942 505.351C498.875 505.884 494.075 506.417 491.142 506.551C484.609 507.084 480.209 509.217 479.142 512.817C478.075 516.284 473.142 516.417 473.142 512.951C473.142 508.017 477.942 505.084 495.809 498.817C505.675 495.351 514.742 492.017 515.809 491.351C519.275 489.351 522.209 490.017 525.009 493.617ZM247.942 513.351C253.409 514.417 267.675 518.284 279.675 522.017C307.275 530.684 320.742 533.751 340.609 535.617C353.409 536.817 383.675 536.551 390.875 535.084C392.609 534.684 398.742 550.417 397.409 551.751C396.875 552.284 390.875 556.017 384.209 560.017C351.275 579.484 335.275 595.617 304.475 640.417C294.742 654.551 275.409 674.417 263.942 682.151C251.142 690.684 229.542 700.551 214.875 704.417C203.542 707.484 199.009 707.884 179.809 708.017C155.275 708.151 149.809 707.084 131.942 698.551C111.542 688.817 92.4752 664.551 87.0085 641.351C84.0752 628.684 85.0085 604.551 88.8752 593.751C96.3419 572.951 107.009 557.884 123.409 544.551C157.675 516.817 204.609 505.084 247.942 513.351ZM506.475 516.284C508.475 522.151 507.409 533.217 504.475 537.751C501.942 541.617 497.542 541.351 498.209 537.484C498.475 536.017 498.875 530.284 499.009 524.684C499.142 519.217 499.809 513.884 500.342 513.084C502.209 510.017 505.009 511.484 506.475 516.284ZM492.075 520.551C494.075 532.284 489.409 544.817 483.009 544.817C479.942 544.817 479.675 544.417 480.342 541.751C480.875 540.151 481.675 534.151 482.342 528.551C483.009 522.817 484.209 517.217 485.142 516.151C488.075 512.551 491.009 514.417 492.075 520.551ZM444.075 521.751C443.675 526.284 444.209 527.617 447.275 530.017C449.275 531.484 452.209 532.817 453.942 532.817C461.409 532.817 455.675 535.484 432.609 542.817C413.409 548.817 407.542 550.284 406.075 549.084C403.275 546.817 399.009 531.751 400.742 530.017C402.342 528.417 441.142 515.617 443.142 516.017C443.809 516.284 444.209 518.817 444.075 521.751ZM518.609 521.217C519.809 525.617 517.675 534.151 515.409 534.151C514.342 534.151 513.942 531.617 514.209 525.351C514.742 516.284 516.742 514.417 518.609 521.217ZM474.475 524.151C476.475 526.551 475.275 535.217 471.809 543.084C469.675 548.017 468.742 548.817 465.275 548.817C460.475 548.817 458.475 544.551 461.542 541.084C462.609 539.884 464.209 536.417 465.142 533.484C467.009 527.351 470.075 522.151 471.675 522.151C472.342 522.151 473.542 523.084 474.475 524.151ZM707.409 563.084C726.075 573.217 746.875 592.151 762.209 613.084C765.275 617.217 767.809 621.217 767.809 621.884C767.809 623.484 742.075 639.484 723.275 649.617C715.275 653.884 706.209 659.751 703.009 662.551C696.609 668.151 695.409 671.217 690.342 694.684C685.542 717.217 679.809 730.951 663.142 759.484C649.009 783.884 649.275 783.484 643.009 783.484C629.809 783.484 601.142 775.884 593.142 770.151C590.875 768.551 589.142 766.151 589.142 764.817C589.142 762.017 599.675 724.684 609.809 691.484C613.675 678.684 619.009 660.417 621.675 650.951C630.209 620.551 635.809 612.017 669.942 577.084C684.342 562.284 690.609 556.817 692.875 556.817C694.609 556.817 701.142 559.617 707.409 563.084ZM1050.08 615.084C1053.54 618.151 1055.28 621.751 1059.14 634.817C1064.74 652.951 1070.61 665.351 1074.48 667.484C1075.94 668.284 1082.34 670.417 1088.74 672.284C1111.81 678.951 1124.61 687.084 1146.88 708.684C1162.74 724.151 1162.74 724.151 1161.94 729.484C1159.54 745.084 1149.68 763.884 1139.81 771.751C1135.01 775.484 1135.01 775.484 1114.48 766.284C1103.14 761.217 1080.21 751.351 1063.41 744.417C1021.41 726.817 1014.74 722.551 999.275 703.217C990.475 692.417 969.809 662.684 968.342 659.084C967.809 657.751 970.475 656.684 978.875 655.084C1005.28 649.884 1031.14 639.884 1038.88 631.751C1041.68 628.817 1042.61 626.151 1043.28 619.751C1043.81 615.217 1044.61 611.484 1045.01 611.484C1045.54 611.484 1047.81 613.084 1050.08 615.084ZM1182.48 744.151C1188.74 750.417 1196.08 757.084 1198.88 759.084C1205.41 763.617 1209.01 769.751 1210.08 778.017C1210.48 781.751 1210.61 784.817 1210.21 784.817C1209.81 784.817 1207.68 784.151 1205.41 783.351C1200.08 781.484 1195.01 784.151 1188.48 792.151C1185.68 795.484 1182.61 798.151 1181.68 798.151C1180.61 798.151 1177.28 796.551 1174.21 794.684C1171.28 792.817 1163.41 788.551 1156.74 785.351C1150.08 782.151 1144.48 779.217 1144.08 778.817C1143.68 778.551 1146.21 775.484 1149.68 772.017C1159.01 762.551 1162.48 755.484 1168.61 734.417C1168.88 733.617 1169.54 732.817 1170.08 732.817C1170.74 732.817 1176.34 737.884 1182.48 744.151ZM1226.48 755.884C1231.41 758.284 1235.54 767.884 1239.14 785.617C1241.81 798.284 1243.94 804.417 1249.68 816.151C1258.88 834.684 1260.21 839.617 1260.34 856.151C1260.34 871.617 1258.74 878.151 1252.74 886.817C1246.88 895.484 1242.74 897.751 1237.14 895.484C1231.41 893.084 1227.54 886.817 1221.81 870.817C1212.88 846.017 1206.34 834.284 1194.34 821.484C1181.68 808.284 1181.68 808.817 1193.94 796.684C1201.14 789.617 1201.14 789.617 1207.01 792.684C1216.48 797.884 1218.21 795.484 1217.14 778.817C1216.88 772.951 1212.48 761.751 1209.68 759.351C1208.61 758.551 1207.81 756.951 1207.81 756.017C1207.81 753.617 1221.68 753.484 1226.48 755.884ZM1242.88 760.551C1246.21 764.151 1249.14 772.017 1251.94 785.217C1253.54 792.684 1257.14 802.417 1261.14 810.684C1269.14 827.351 1271.54 835.617 1272.61 849.617C1273.81 864.017 1270.61 878.684 1264.74 886.417C1259.68 892.951 1255.14 895.484 1259.01 889.617C1264.21 881.484 1266.48 871.617 1266.48 856.284C1266.48 838.017 1265.68 834.817 1255.68 814.817C1249.41 802.017 1247.14 795.751 1244.61 783.351C1242.88 774.817 1240.48 766.017 1239.28 763.751C1238.08 761.484 1237.14 759.351 1237.14 758.817C1237.14 757.217 1240.88 758.284 1242.88 760.551ZM594.209 778.684C602.609 782.951 616.609 787.084 630.342 789.484C636.475 790.684 641.809 791.751 642.209 792.017C642.475 792.417 639.675 798.017 635.942 804.551C627.275 819.617 619.409 836.551 616.342 846.684C614.075 853.884 613.409 854.817 607.809 857.217C603.809 859.084 598.742 860.017 592.475 860.017C583.142 860.151 583.142 860.151 582.475 852.951C581.675 845.751 580.209 843.751 570.609 836.817C567.809 834.817 567.809 834.817 570.342 828.151C571.675 824.417 575.409 812.417 578.342 801.484C584.209 780.684 585.942 775.484 587.142 775.484C587.542 775.484 590.742 776.951 594.209 778.684ZM566.875 844.017C569.275 844.951 572.342 847.084 573.675 848.684C575.809 851.084 575.942 852.017 574.742 854.951C572.075 860.551 572.875 863.217 577.409 865.617C583.942 869.084 597.275 868.684 608.075 864.817C613.009 863.084 617.409 862.017 617.942 862.417C618.342 862.817 619.009 869.751 619.409 877.884C620.209 892.551 620.209 892.551 615.009 895.217C607.009 899.084 598.209 900.817 579.942 902.151C567.942 902.951 557.942 904.551 545.142 907.884C523.409 913.617 508.609 914.951 493.142 912.817C480.209 911.084 468.875 907.617 468.075 905.084C467.142 901.884 475.675 895.884 487.409 891.484C516.475 880.551 536.475 868.017 549.409 852.284C558.875 840.951 559.275 840.817 566.875 844.017ZM617.942 906.951C616.475 912.417 609.675 914.417 586.475 915.617C570.209 916.417 562.209 917.617 549.142 920.951C522.742 927.617 487.542 927.751 473.542 921.217C469.675 919.484 466.875 915.884 468.342 914.551C468.609 914.151 473.942 915.217 479.942 916.684C488.075 918.817 495.142 919.484 507.142 919.484C525.275 919.484 534.209 918.151 549.809 913.217C557.275 910.951 566.742 909.351 581.809 908.151C595.142 906.951 605.809 905.351 610.475 903.751C618.209 901.084 619.275 901.484 617.942 906.951Z" fill="black"/>
<path d="M808.475 111.884C804.475 118.951 804.075 123.484 807.675 123.484C809.275 123.484 810.475 122.151 811.141 119.751C811.541 117.751 813.275 114.818 814.741 113.218C817.675 110.018 817.141 106.151 813.941 106.151C812.875 106.151 810.341 108.818 808.475 111.884Z" fill="black"/>
<path d="M719.275 114.418C718.875 115.351 718.341 124.018 717.941 133.618C717.008 152.684 717.541 154.551 724.608 156.284C729.275 157.484 737.675 155.084 738.208 152.418C738.608 150.551 737.541 150.151 731.408 150.151C726.741 150.151 723.941 149.484 723.541 148.418C723.275 147.618 723.408 139.618 723.941 130.818C724.475 122.018 724.608 114.418 724.208 113.751C723.275 112.151 719.808 112.684 719.275 114.418Z" fill="black"/>
<path d="M748.076 114.418C745.676 116.818 746.209 122.818 749.009 125.351C754.209 130.151 759.409 122.551 755.276 116.151C752.876 112.551 750.609 111.884 748.076 114.418Z" fill="black"/>
<path d="M701.942 120.284C698.076 124.018 700.209 132.818 704.876 132.818C710.342 132.818 712.209 126.551 708.342 121.084C705.942 117.618 704.742 117.484 701.942 120.284Z" fill="black"/>
<path d="M755.142 159.618C749.676 165.351 742.076 168.951 733.676 169.751C727.676 170.418 726.476 170.951 726.476 173.218C726.476 175.618 727.142 175.751 734.609 175.084C744.209 174.284 755.676 169.084 760.476 163.218C766.609 156.018 761.676 152.684 755.142 159.618Z" fill="black"/>
<path d="M196.075 520.018C156.342 527.618 121.009 549.484 105.542 576.151C97.5421 589.884 94.2087 600.684 93.5421 615.484C91.5421 655.084 116.875 688.951 155.809 699.084C179.809 705.218 219.275 698.684 246.475 683.884C276.609 667.618 300.875 638.951 307.142 612.551C316.875 571.484 294.609 534.951 252.475 522.418C239.009 518.418 211.009 517.218 196.075 520.018ZM210.209 529.084C211.009 530.951 212.209 534.418 212.609 536.551C213.409 540.551 213.409 540.684 203.809 543.484C198.609 545.084 193.675 546.151 192.875 545.884C191.542 545.351 186.475 533.484 186.475 530.551C186.475 529.218 189.809 528.284 203.142 525.618C207.275 524.818 208.342 525.351 210.209 529.084ZM233.142 526.818C235.942 530.151 233.942 533.084 227.275 535.751C219.542 538.684 217.542 537.618 216.209 529.751C215.409 524.818 215.409 524.818 223.409 524.818C228.875 524.818 232.075 525.484 233.142 526.818ZM245.675 528.951C244.742 530.418 239.809 530.551 239.809 529.084C239.809 527.084 241.275 526.418 243.809 527.084C245.275 527.484 246.075 528.284 245.675 528.951ZM183.675 539.618C185.142 544.151 186.209 548.284 185.809 548.818C184.875 550.418 173.142 554.418 171.409 553.751C169.142 552.951 164.609 538.151 166.075 536.684C167.275 535.484 176.875 531.751 179.409 531.618C180.209 531.484 182.075 535.218 183.675 539.618ZM260.475 536.818C264.342 547.884 264.342 547.218 259.009 549.484C248.742 553.751 248.342 553.618 245.942 546.684C242.742 537.218 243.009 536.018 249.542 533.751C257.142 530.951 258.609 531.351 260.475 536.818ZM273.809 538.818C277.142 541.618 277.542 542.284 275.809 543.484C272.342 545.751 269.142 544.951 267.809 541.351C265.142 534.418 267.409 533.484 273.809 538.818ZM239.009 542.684C239.942 545.084 241.275 548.951 241.675 551.084C242.609 554.818 242.209 555.218 236.875 557.218C228.075 560.684 227.142 560.284 223.809 552.151C222.075 548.018 221.142 544.418 221.542 543.884C222.209 543.218 235.142 538.418 236.742 538.151C237.009 538.151 237.942 540.151 239.009 542.684ZM163.142 549.218C164.342 552.818 164.875 556.151 164.342 556.818C162.342 558.551 149.275 562.418 148.075 561.618C146.209 560.551 143.409 549.218 144.475 547.618C144.875 546.818 148.075 544.684 151.542 542.951C158.875 539.218 159.542 539.618 163.142 549.218ZM218.742 554.018C220.075 558.018 220.742 561.751 220.209 562.284C217.942 564.151 200.875 569.084 199.809 568.018C198.742 566.684 194.342 553.884 194.875 553.351C195.942 552.151 212.875 546.418 214.342 546.551C215.409 546.684 217.275 550.151 218.742 554.018ZM290.075 554.684C292.609 558.284 294.075 561.618 293.542 562.151C292.209 563.351 279.942 567.484 277.809 567.484C276.609 567.484 271.809 555.484 271.809 552.284C271.809 550.818 280.209 547.484 283.009 547.884C284.475 548.018 287.542 551.084 290.075 554.684ZM140.609 556.151C143.542 563.218 143.009 564.418 136.209 566.684C128.075 569.484 127.009 569.351 125.942 565.751C125.275 563.484 126.342 561.618 131.275 557.084C134.609 554.018 137.675 551.484 137.942 551.484C138.342 551.484 139.542 553.618 140.609 556.151ZM268.209 560.418C271.275 569.084 271.142 569.884 266.075 572.018C255.942 576.151 256.342 576.284 253.275 568.151C251.675 564.018 250.475 560.151 250.475 559.484C250.475 558.284 260.342 554.418 263.942 554.284C265.142 554.151 266.742 556.551 268.209 560.418ZM191.009 561.751C192.209 565.218 193.142 568.951 193.142 570.018C193.142 572.284 180.742 577.484 178.609 576.151C176.475 574.951 172.742 562.018 174.075 560.684C175.275 559.484 184.875 555.751 187.409 555.618C188.209 555.484 189.809 558.284 191.009 561.751ZM246.209 564.418C250.742 576.551 250.742 576.818 246.075 578.818C235.942 583.084 234.609 582.951 232.342 577.351C228.609 568.284 229.009 566.151 235.809 563.484C243.809 560.151 244.609 560.151 246.209 564.418ZM169.809 570.151C171.009 573.884 171.809 577.618 171.409 578.551C170.742 580.418 161.942 583.484 157.542 583.484C155.542 583.484 154.475 582.018 153.275 578.018C152.342 574.951 151.275 571.751 150.875 570.684C150.475 569.484 152.209 567.884 155.942 566.151C165.409 561.884 167.275 562.418 169.809 570.151ZM121.142 570.151C121.142 571.618 120.209 572.818 119.142 572.818C116.742 572.818 116.609 571.218 118.742 569.084C120.875 566.951 121.142 567.084 121.142 570.151ZM299.275 572.151C303.009 581.084 302.075 582.951 292.875 586.018C288.342 587.618 284.209 588.418 283.675 587.884C281.942 585.884 278.742 574.818 279.675 573.884C280.609 572.818 294.075 567.751 296.209 567.618C296.742 567.484 298.209 569.618 299.275 572.151ZM225.942 576.151C227.409 580.684 227.809 584.018 227.009 584.684C225.409 586.151 210.875 591.484 208.475 591.484C206.075 591.484 201.409 577.351 203.275 575.484C204.875 573.884 218.209 569.084 221.409 568.951C223.009 568.818 224.342 570.951 225.942 576.151ZM147.675 578.018C150.209 585.618 149.675 586.818 142.875 589.218C139.275 590.418 136.075 591.484 135.542 591.484C134.342 591.484 130.075 578.551 130.742 576.684C131.009 575.751 133.942 574.018 137.142 572.818C143.942 570.018 145.142 570.684 147.675 578.018ZM274.609 580.418C278.209 589.884 277.942 590.951 271.009 593.351C267.542 594.551 264.209 595.484 263.675 595.484C262.209 595.484 258.075 582.151 259.142 581.084C260.342 579.751 268.075 577.084 270.875 576.951C272.209 576.818 273.809 578.284 274.609 580.418ZM126.875 585.218C128.075 589.218 129.142 592.684 129.142 593.084C129.142 594.018 117.542 598.151 115.009 598.151C113.542 598.151 109.142 587.751 109.142 584.151C109.142 582.284 117.542 578.418 121.942 578.284C124.075 578.151 125.142 579.618 126.875 585.218ZM199.009 585.618C200.342 589.751 200.875 593.618 200.209 594.151C198.209 595.884 187.675 599.484 186.475 598.818C184.875 597.884 180.742 585.218 181.409 583.218C182.075 581.484 189.675 578.418 193.942 578.284C196.075 578.151 197.142 579.618 199.009 585.618ZM253.942 588.151C257.675 597.084 257.275 598.284 249.275 600.951C241.142 603.751 240.742 603.618 238.475 595.484C236.475 588.418 236.609 588.151 243.542 585.884C252.075 582.951 251.675 582.951 253.942 588.151ZM177.409 592.818C180.209 600.951 179.675 602.018 171.942 604.684C164.075 607.218 163.142 606.818 160.609 598.684C159.275 594.551 158.609 590.818 159.142 590.418C160.342 589.084 172.209 584.951 173.675 585.351C174.342 585.484 176.075 588.818 177.409 592.818ZM302.475 595.751C302.475 606.284 301.542 608.284 296.209 609.884C291.675 611.218 291.542 611.218 289.542 606.418C288.342 603.751 287.409 599.751 287.275 597.618C287.142 594.018 287.809 593.351 293.142 591.351C302.209 587.751 302.475 587.884 302.475 595.751ZM233.675 597.751C235.409 602.818 235.542 604.284 234.209 605.618C231.675 607.884 215.409 612.951 214.342 611.884C212.342 609.618 209.409 598.151 210.609 597.351C213.142 595.884 229.809 590.551 230.742 590.951C231.142 591.218 232.475 594.284 233.675 597.751ZM107.275 600.418C106.475 602.418 102.475 602.818 102.475 600.951C102.475 600.284 103.142 598.018 103.942 595.884C105.409 592.151 105.409 592.151 106.609 595.351C107.409 597.218 107.542 599.484 107.275 600.418ZM153.942 597.618C155.009 600.151 156.209 604.018 156.609 606.018C157.409 609.618 157.009 610.018 150.475 612.151C146.742 613.351 143.142 613.884 142.475 613.351C141.142 611.751 136.742 598.151 137.409 597.351C138.342 596.551 148.342 592.951 150.209 592.951C151.142 592.818 152.875 594.951 153.942 597.618ZM282.609 604.284C283.942 607.884 285.009 611.484 285.009 612.284C285.142 614.151 273.675 618.684 271.275 617.751C268.875 616.818 264.475 603.618 266.075 602.018C267.542 600.551 277.409 596.951 279.009 597.351C279.675 597.484 281.409 600.551 282.609 604.284ZM133.675 605.751C137.275 616.418 136.342 618.151 125.009 620.418C121.809 621.084 121.275 620.551 119.275 614.684C116.075 605.218 116.342 604.018 122.875 601.751C131.009 598.818 131.409 598.951 133.675 605.751ZM205.275 604.418C208.742 613.618 208.475 614.951 202.609 617.351C194.209 620.684 192.475 620.151 190.742 614.284C188.342 606.551 188.742 605.218 194.209 603.084C201.409 600.018 203.675 600.284 205.275 604.418ZM261.809 611.484C263.009 615.218 263.809 619.084 263.409 620.018C262.609 622.018 250.475 626.551 249.275 625.484C248.209 624.418 243.809 612.418 243.809 610.684C243.809 608.951 252.475 605.084 256.742 604.951C259.009 604.818 260.075 606.151 261.809 611.484ZM112.609 612.418C116.475 621.484 115.942 623.484 108.742 626.284C105.142 627.751 101.675 628.551 101.009 628.151C99.5421 627.218 99.4087 612.818 100.875 610.684C101.942 608.951 104.875 607.751 108.209 607.618C109.809 607.484 111.275 609.218 112.609 612.418ZM183.942 611.084C184.742 613.218 185.675 616.684 186.075 618.818C186.742 622.818 186.475 622.951 179.542 625.218C175.542 626.418 171.809 627.484 171.275 627.484C169.942 627.484 166.475 618.684 166.475 615.084C166.475 612.551 167.675 611.618 172.875 609.884C181.675 606.951 182.342 606.951 183.942 611.084ZM239.275 616.284C240.342 618.818 241.542 622.684 241.942 624.684C242.742 628.284 242.342 628.551 234.875 631.218C230.609 632.684 226.075 634.284 224.742 634.818C223.009 635.618 222.075 634.684 220.475 630.951C219.275 628.151 218.075 624.284 217.675 622.284C216.875 618.818 217.275 618.418 226.075 615.084C231.009 613.218 235.675 611.618 236.209 611.618C236.742 611.484 238.209 613.618 239.275 616.284ZM161.809 619.751C165.675 629.084 164.209 631.484 153.409 633.618C149.675 634.418 149.409 634.151 147.142 627.484C145.942 623.751 145.142 620.418 145.275 620.151C146.609 619.084 155.409 615.751 157.542 615.618C159.009 615.484 160.609 617.084 161.809 619.751ZM298.475 616.418C298.475 619.084 296.742 623.484 295.809 623.484C293.942 623.484 293.009 619.218 294.609 617.351C296.209 615.351 298.475 614.818 298.475 616.418ZM289.809 625.351C292.609 632.551 291.142 636.151 284.475 638.951C277.942 641.618 277.675 641.484 275.275 634.551C272.075 625.218 272.342 624.018 278.875 621.751C287.009 618.818 287.409 618.951 289.809 625.351ZM213.275 628.284C214.609 631.884 215.675 635.484 215.675 636.284C215.809 637.884 205.942 642.151 202.209 642.151C199.809 642.151 195.009 630.018 196.209 626.951C197.009 625.084 207.409 620.818 209.675 621.351C210.342 621.484 212.075 624.551 213.275 628.284ZM140.342 626.418C144.475 636.551 144.475 636.551 137.809 639.484C134.342 640.951 130.742 642.151 129.809 642.151C127.809 642.151 123.009 629.218 124.475 627.751C125.142 627.084 135.275 623.084 138.209 622.284C138.475 622.151 139.409 624.151 140.342 626.418ZM269.675 634.684C270.875 638.684 271.809 642.151 271.809 642.551C271.809 643.351 259.942 647.484 257.675 647.484C255.809 647.484 251.275 635.084 252.075 632.551C252.609 630.951 265.142 626.151 266.742 627.084C267.275 627.351 268.609 630.818 269.675 634.684ZM121.142 637.618C122.209 641.084 122.342 644.018 121.675 644.684C119.009 647.218 107.409 650.151 105.809 648.818C103.942 647.351 100.342 635.751 101.409 634.818C103.275 632.818 116.609 629.351 117.942 630.284C118.742 630.951 120.209 634.284 121.142 637.618ZM192.342 636.151C193.542 640.151 194.342 644.018 193.809 644.684C192.742 646.418 180.075 650.551 178.609 649.618C176.609 648.284 172.742 635.351 174.075 634.018C175.542 632.551 185.142 629.084 187.942 628.951C189.275 628.818 190.742 631.218 192.342 636.151ZM247.275 639.084C251.275 648.684 250.742 650.018 241.142 653.618C236.475 655.484 231.675 656.684 230.609 656.551C227.942 656.018 223.409 642.551 225.542 641.218C227.142 640.018 242.475 634.418 244.209 634.284C244.742 634.151 246.209 636.418 247.275 639.084ZM169.675 644.151C171.009 648.151 171.675 652.018 171.275 652.684C170.075 654.551 158.075 658.284 157.009 657.218C155.942 656.018 151.542 641.884 152.209 641.351C153.409 640.151 162.342 636.951 164.609 636.951C166.875 636.818 167.942 638.284 169.675 644.151ZM148.342 649.751C151.542 659.218 151.275 660.284 144.209 662.684C136.075 665.484 136.342 665.484 134.475 660.418C130.075 648.551 130.075 648.818 136.209 646.151C144.609 642.284 145.942 642.684 148.342 649.751ZM220.342 649.751C223.542 659.084 223.275 659.884 215.942 662.551C212.342 663.751 209.142 664.818 208.742 664.818C207.275 664.818 202.342 649.751 203.409 648.684C204.742 647.351 214.342 643.751 216.742 643.618C217.542 643.484 219.142 646.284 220.342 649.751ZM274.875 650.418C275.809 653.084 273.675 656.151 267.809 660.818C262.475 665.084 262.475 665.084 260.342 660.151C259.275 657.351 258.742 654.818 259.142 654.284C259.942 653.484 271.409 649.084 273.409 648.951C273.809 648.818 274.475 649.618 274.875 650.418ZM127.942 657.484C129.275 661.084 130.342 664.818 130.342 665.618C130.475 667.351 124.742 670.151 121.142 670.151C118.475 670.151 108.209 657.351 109.675 655.751C111.275 654.284 121.675 650.418 123.675 650.551C124.742 650.684 126.609 653.751 127.942 657.484ZM199.409 657.484C202.209 665.484 201.409 667.484 193.809 670.284C190.209 671.618 186.742 672.818 186.209 672.818C185.142 672.818 181.142 661.218 181.142 658.151C181.142 656.018 191.675 651.484 195.675 651.884C196.742 652.018 198.342 654.551 199.409 657.484ZM255.675 663.084C257.542 668.551 257.542 668.951 255.142 670.818C249.942 674.551 237.275 680.818 236.742 679.884C234.609 676.018 231.675 664.418 232.742 663.351C234.609 661.484 248.209 656.951 251.009 657.218C252.742 657.351 254.209 659.351 255.675 663.084ZM176.475 664.818C180.209 675.618 180.342 674.951 174.475 677.351C165.675 680.818 164.342 680.284 161.809 672.818C159.142 664.551 159.409 663.484 165.275 661.351C172.209 658.818 174.742 659.484 176.475 664.818ZM155.275 670.951C156.342 673.484 157.542 677.351 157.942 679.351C158.609 682.684 158.209 683.218 152.875 685.218C144.875 688.284 143.942 688.151 141.942 683.084C137.675 672.818 137.942 671.618 144.075 668.818C151.942 665.218 153.009 665.484 155.275 670.951ZM227.275 670.951C228.342 673.484 229.542 677.351 230.075 679.618C230.742 683.218 230.342 683.618 224.609 686.284C221.142 687.751 217.542 688.684 216.609 688.418C215.009 687.751 209.542 671.884 210.609 670.951C211.275 670.418 222.742 666.418 224.209 666.284C224.742 666.151 226.209 668.284 227.275 670.951ZM135.142 679.084C136.342 683.884 135.275 684.151 130.609 680.684C125.942 677.351 125.275 674.551 128.875 673.884C131.942 673.084 134.075 674.818 135.142 679.084ZM207.809 682.018C209.275 686.018 210.075 689.751 209.542 690.284C207.675 692.018 193.942 694.018 192.342 692.684C190.609 691.218 187.142 679.751 188.075 678.818C189.542 677.351 203.275 673.218 204.075 674.018C204.609 674.418 206.209 678.018 207.809 682.018ZM182.209 682.418C183.009 683.351 183.942 686.418 184.475 689.218C185.409 694.284 185.409 694.284 177.009 693.884C168.742 693.484 168.475 693.351 168.075 689.751C167.675 686.551 168.342 685.751 173.409 683.618C180.475 680.418 180.475 680.418 182.209 682.418ZM162.209 691.084C162.475 692.151 161.542 692.818 159.942 692.818C157.142 692.818 155.275 691.084 156.742 689.618C158.075 688.284 161.542 689.218 162.209 691.084Z" fill="black"/>
<path d="M301.942 541.618C301.542 542.818 302.209 545.351 303.676 547.218C311.142 558.018 316.742 573.351 318.209 587.484C318.876 595.218 319.676 597.484 321.276 597.884C322.609 598.151 329.676 592.551 338.876 583.884C347.276 575.884 359.009 566.151 364.876 562.151C370.742 558.151 376.342 553.484 377.276 551.884C380.342 546.151 377.676 545.351 353.542 544.284C341.142 543.751 326.342 542.551 320.476 541.484C306.609 538.951 303.009 538.951 301.942 541.618ZM325.142 548.951C329.942 549.751 341.276 550.818 350.342 551.218C367.009 552.151 367.009 552.151 357.676 558.951C352.476 562.684 343.142 570.418 336.742 576.018C326.209 585.484 325.142 586.018 324.609 583.218C321.809 568.684 320.609 564.551 317.142 557.618C311.276 546.151 311.009 546.551 325.142 548.951Z" fill="black"/>
<path d="M465.142 290.018C441.942 294.818 421.542 300.551 400.342 308.151C378.342 316.151 355.275 326.818 354.742 329.351C354.209 331.884 356.875 333.351 358.875 331.751C362.209 329.084 396.342 315.084 413.675 309.484C433.809 302.818 458.342 296.418 476.475 292.951C485.409 291.218 488.609 290.018 488.875 288.418C489.542 285.351 486.875 285.484 465.142 290.018Z" fill="black"/>
<path d="M371.142 298.018C344.608 309.084 332.342 316.418 335.275 319.351C336.208 320.418 340.342 318.951 349.808 313.884C357.142 310.151 368.742 304.684 375.808 302.018C383.275 298.951 388.608 296.151 388.875 294.951C389.542 291.618 384.475 292.551 371.142 298.018Z" fill="black"/>
<path d="M288.209 319.484C277.275 321.751 266.875 329.884 261.809 340.151C257.942 348.151 257.409 364.151 260.875 371.751C264.475 380.018 271.009 387.084 279.009 391.218C284.742 394.151 287.542 394.818 296.475 394.818C305.809 394.818 308.075 394.284 314.209 390.951C325.942 384.418 333.142 373.351 334.209 360.018C336.209 334.951 313.009 314.551 288.209 319.484ZM299.942 334.818C300.342 339.884 301.675 346.018 302.875 348.284C305.942 354.151 314.742 361.351 321.142 363.351C327.142 365.084 327.409 366.684 322.342 374.951C317.409 383.084 305.009 389.751 297.142 388.551C294.075 388.151 293.675 387.351 293.009 380.151C292.075 371.084 288.475 363.218 282.875 358.018C278.609 354.018 271.542 350.151 268.475 350.151C265.942 350.151 265.942 347.084 268.609 341.751C271.809 335.618 274.475 332.951 280.475 329.751C287.542 326.151 291.809 324.951 295.809 325.218C299.009 325.484 299.142 326.018 299.942 334.818ZM311.675 329.484C318.209 332.818 324.875 341.751 326.609 349.618C327.542 353.618 327.942 357.218 327.409 357.618C325.809 359.218 318.475 356.551 313.809 352.418C308.475 347.751 305.142 338.551 306.209 331.351C306.875 326.818 306.742 326.951 311.675 329.484ZM275.942 359.884C282.209 364.151 286.475 372.018 286.475 379.751C286.475 386.951 285.409 387.484 279.009 383.618C271.542 379.084 265.142 368.018 265.142 360.018C265.142 355.751 269.809 355.751 275.942 359.884Z" fill="black"/>
<path d="M405.808 332.018C383.542 337.218 366.208 345.084 369.542 348.418C369.942 348.818 378.608 346.418 388.742 343.084C398.875 339.884 411.275 336.418 416.208 335.484C423.408 334.151 425.142 333.351 424.875 331.618C424.208 328.551 420.742 328.551 405.808 332.018Z" fill="black"/>
<path d="M1166.21 520.418C1165.14 521.751 1163.68 523.751 1163.01 524.818C1162.34 525.884 1161.54 556.151 1161.14 592.151C1160.48 657.484 1160.48 657.484 1138.74 658.284C1117.28 659.218 1112.08 660.284 1115.41 663.618C1116.34 664.551 1126.88 664.684 1150.21 663.751C1179.94 662.818 1184.08 662.284 1186.48 660.151C1189.14 657.751 1190.48 657.884 1243.54 666.551C1343.81 683.084 1363.14 686.151 1371.68 686.951C1379.41 687.884 1380.08 687.751 1379.54 685.351C1379.14 683.218 1373.14 681.884 1326.48 674.151C1273.81 665.484 1273.81 665.484 1273.81 657.484C1273.81 649.484 1273.81 649.484 1279.41 649.884C1290.61 650.818 1292.48 651.884 1292.88 657.351C1293.41 663.884 1297.54 663.618 1298.21 656.951C1298.61 652.551 1298.61 652.551 1304.88 653.351C1321.68 655.618 1321.01 655.351 1321.41 659.884C1321.94 665.351 1325.68 665.751 1326.21 660.418C1326.74 656.418 1329.41 655.884 1338.74 658.018C1342.34 658.818 1344.08 658.684 1345.14 657.484C1347.14 655.084 1344.74 653.751 1335.14 652.151C1327.14 650.818 1327.14 650.818 1327.14 642.151C1327.14 633.484 1327.14 633.484 1333.81 633.484C1337.54 633.484 1345.54 634.018 1351.54 634.684C1362.08 635.751 1362.74 635.618 1362.21 633.351C1361.81 631.218 1359.28 630.418 1345.28 628.551C1336.21 627.351 1328.34 625.618 1327.81 624.818C1326.88 623.351 1327.68 610.151 1328.61 608.951C1328.88 608.684 1336.74 609.218 1346.08 610.284C1367.28 612.551 1365.81 612.684 1365.81 609.484C1365.81 607.084 1364.21 606.684 1347.14 604.818C1328.48 602.818 1328.48 602.818 1328.08 592.284C1327.68 581.884 1327.68 581.884 1341.41 582.951C1362.34 584.684 1367.14 584.551 1367.14 582.151C1367.14 580.018 1362.34 579.084 1340.48 577.218C1328.48 576.151 1328.48 576.151 1328.08 565.751C1327.68 555.218 1327.68 555.218 1334.74 556.018C1338.61 556.418 1347.81 556.951 1355.14 557.084C1366.21 557.484 1368.48 557.218 1368.48 555.484C1368.48 554.018 1366.34 553.218 1361.14 552.551C1350.88 551.084 1284.61 546.684 1234.48 544.018C1211.41 542.684 1191.14 541.218 1189.54 540.684C1187.41 539.884 1186.48 538.418 1186.48 536.018C1186.48 532.551 1186.48 532.551 1202.88 533.351C1211.81 533.884 1237.81 534.818 1260.48 535.484C1283.28 536.284 1313.54 537.351 1327.81 538.151C1383.68 540.818 1382.61 540.818 1383.41 538.551C1383.81 537.484 1383.54 536.151 1382.74 535.618C1380.88 534.551 1298.08 530.551 1239.81 528.818C1215.94 528.018 1194.48 527.084 1191.94 526.684C1189.28 526.284 1185.81 524.284 1183.68 522.018C1180.74 518.818 1179.01 518.151 1174.21 518.151C1170.21 518.151 1167.54 518.951 1166.21 520.418ZM1178.34 525.351C1180.21 527.484 1181.68 626.418 1180.21 645.751C1179.41 656.818 1179.41 656.818 1173.54 656.818C1167.68 656.818 1167.68 656.818 1168.08 591.484C1168.48 535.084 1168.74 525.884 1170.48 524.818C1173.41 522.951 1176.61 523.218 1178.34 525.351ZM1200.88 555.351C1201.14 559.351 1200.88 562.951 1200.21 563.618C1199.68 564.151 1196.61 564.284 1193.54 563.884C1187.81 563.084 1187.81 563.084 1187.81 555.218C1187.81 547.351 1187.81 547.351 1194.21 547.751C1200.48 548.151 1200.48 548.151 1200.88 555.351ZM1221.81 557.484C1221.81 565.484 1221.81 565.484 1217.28 565.884C1214.74 566.151 1211.41 566.018 1209.68 565.618C1206.74 564.818 1206.48 564.018 1206.48 556.684C1206.48 548.684 1206.48 548.684 1214.21 549.084C1221.81 549.484 1221.81 549.484 1221.81 557.484ZM1245.14 558.684C1245.14 563.484 1244.74 567.618 1244.08 568.018C1243.54 568.284 1239.81 568.151 1235.81 567.751C1228.48 566.818 1228.48 566.818 1228.08 558.418C1227.68 550.151 1227.68 550.151 1236.48 550.151C1245.14 550.151 1245.14 550.151 1245.14 558.684ZM1268.61 552.684C1269.28 553.484 1269.54 557.618 1269.41 562.018C1268.88 570.151 1268.88 570.151 1261.28 570.151C1257.14 570.151 1253.01 569.484 1252.08 568.551C1251.14 567.618 1250.48 563.484 1250.48 559.218C1250.48 551.484 1250.48 551.484 1258.88 551.484C1263.54 551.484 1267.81 552.018 1268.61 552.684ZM1292.34 553.618C1293.94 554.284 1294.48 556.418 1294.48 563.618C1294.48 572.818 1294.48 572.818 1289.54 572.818C1286.74 572.818 1282.21 572.418 1279.54 572.018C1274.48 571.084 1274.48 571.084 1274.48 562.818C1274.48 558.284 1274.88 554.151 1275.41 553.751C1276.48 552.551 1289.54 552.551 1292.34 553.618ZM1319.28 555.484C1322.34 555.484 1322.48 555.884 1322.48 565.618C1322.48 575.751 1322.48 575.751 1312.21 574.818C1306.48 574.284 1301.41 573.618 1300.88 573.218C1300.21 572.951 1299.81 568.418 1299.81 563.218C1299.81 553.751 1299.81 553.751 1307.94 554.684C1312.48 555.084 1317.68 555.484 1319.28 555.484ZM1199.01 569.618C1200.61 570.284 1201.14 572.284 1201.14 577.351C1201.14 586.284 1200.08 587.751 1193.68 587.218C1188.48 586.818 1188.48 586.818 1188.08 577.751C1187.68 568.818 1187.68 568.818 1192.34 568.818C1194.88 568.818 1197.81 569.218 1199.01 569.618ZM1217.94 571.484C1220.48 571.484 1221.14 572.418 1221.94 577.484C1223.68 589.218 1221.54 591.484 1210.61 589.351C1206.48 588.418 1206.48 588.418 1206.48 579.084C1206.48 569.751 1206.48 569.751 1210.61 570.684C1212.88 571.084 1216.21 571.484 1217.94 571.484ZM1244.21 575.084C1244.74 575.351 1245.14 579.484 1245.14 584.284C1245.14 592.818 1245.14 592.818 1240.61 592.818C1238.21 592.818 1234.21 592.418 1231.94 592.018C1227.81 591.084 1227.81 591.084 1227.81 581.884C1227.81 572.551 1227.81 572.551 1235.54 573.484C1239.68 574.018 1243.54 574.684 1244.21 575.084ZM1266.21 576.284C1268.88 577.084 1269.14 577.884 1269.14 585.618C1269.14 595.751 1268.34 596.418 1258.08 594.684C1251.14 593.484 1251.14 593.484 1250.74 586.284C1250.48 582.418 1250.61 578.284 1251.01 577.351C1251.81 575.351 1260.61 574.818 1266.21 576.284ZM1292.88 580.151C1294.21 581.351 1294.48 583.884 1293.68 590.018C1292.88 598.018 1292.74 598.151 1288.61 598.151C1286.34 598.151 1282.21 597.751 1279.54 597.351C1274.48 596.418 1274.48 596.418 1274.48 587.484C1274.48 582.551 1274.88 578.284 1275.28 577.751C1276.61 576.551 1291.01 578.418 1292.88 580.151ZM1320.88 581.618C1322.08 582.018 1322.48 584.818 1322.21 591.751C1321.81 601.484 1321.81 601.484 1315.14 601.084C1311.54 600.951 1306.48 600.418 1304.21 600.018C1299.81 599.351 1299.81 599.351 1299.81 589.351C1299.81 579.351 1299.81 579.351 1309.54 580.151C1314.74 580.684 1319.94 581.218 1320.88 581.618ZM1199.54 601.218C1199.94 608.951 1199.94 608.951 1194.21 608.551C1188.48 608.151 1188.48 608.151 1188.08 600.418C1187.68 592.684 1187.68 592.684 1193.41 593.084C1199.14 593.484 1199.14 593.484 1199.54 601.218ZM1220.88 596.284C1221.94 596.551 1222.48 599.351 1222.48 604.151C1222.48 611.484 1222.48 611.484 1216.34 611.484C1206.74 611.484 1204.88 609.884 1205.94 602.418C1206.34 598.951 1207.01 595.751 1207.28 595.218C1207.81 594.418 1217.28 595.084 1220.88 596.284ZM1244.21 599.084C1244.74 599.351 1245.14 602.951 1245.14 606.951C1245.14 614.151 1245.14 614.151 1240.61 614.151C1238.21 614.151 1234.21 613.751 1231.94 613.351C1227.81 612.551 1227.81 612.418 1227.81 604.551C1227.81 596.684 1227.81 596.684 1235.54 597.618C1239.68 598.018 1243.54 598.684 1244.21 599.084ZM1266.21 601.618C1267.28 601.884 1267.81 604.818 1267.81 610.151C1267.81 618.284 1267.81 618.284 1260.88 617.351C1251.94 616.284 1250.48 614.951 1250.48 608.818C1250.48 600.284 1251.28 599.484 1258.21 600.284C1261.68 600.684 1265.28 601.218 1266.21 601.618ZM1290.21 604.284C1292.88 604.818 1293.14 605.618 1293.14 612.818C1293.14 617.084 1292.74 620.951 1292.08 621.218C1291.54 621.618 1287.28 621.218 1282.48 620.284C1273.81 618.684 1273.81 618.684 1274.21 612.151C1274.34 608.418 1274.88 604.818 1275.14 603.884C1275.54 602.418 1282.08 602.551 1290.21 604.284ZM1317.81 607.351C1321.81 608.418 1321.81 608.418 1321.41 616.284C1321.14 620.551 1320.61 624.418 1320.34 624.684C1320.08 624.951 1315.28 624.684 1309.54 624.018C1299.14 622.818 1299.14 622.818 1298.74 615.618C1298.08 605.218 1298.48 604.818 1306.74 605.618C1310.61 606.151 1315.68 606.818 1317.81 607.351ZM1199.54 624.018C1199.94 633.218 1199.94 633.218 1194.21 632.284C1187.54 631.218 1186.48 629.884 1186.48 623.084C1186.48 615.084 1188.08 613.084 1194.08 614.018C1199.14 614.818 1199.14 614.818 1199.54 624.018ZM1221.54 618.151C1222.08 618.684 1222.48 622.684 1222.21 626.951C1221.81 634.818 1221.81 634.818 1214.48 634.418C1210.48 634.151 1206.74 633.351 1206.21 632.418C1204.88 630.418 1204.88 617.618 1206.08 616.284C1207.28 615.084 1219.94 616.684 1221.54 618.151ZM1240.21 620.151C1245.28 620.951 1245.28 620.951 1244.88 629.884C1244.48 638.818 1244.48 638.818 1239.14 638.284C1228.88 637.484 1227.81 636.418 1227.81 627.751C1227.81 623.484 1228.08 619.618 1228.48 619.218C1229.14 618.551 1230.61 618.684 1240.21 620.151ZM1266.74 624.284C1267.28 624.684 1267.81 628.951 1267.81 633.751C1267.81 642.418 1267.81 642.418 1260.88 641.484C1257.01 640.951 1253.01 639.884 1252.21 639.218C1250.34 637.751 1249.81 624.551 1251.54 622.951C1252.48 621.884 1264.61 623.084 1266.74 624.284ZM1290.88 627.084C1292.88 627.618 1293.14 628.951 1292.88 636.551C1292.48 645.484 1292.48 645.484 1286.88 645.084C1274.74 644.151 1273.81 643.484 1273.41 635.618C1272.74 624.951 1273.28 624.418 1281.54 625.484C1285.28 625.884 1289.54 626.684 1290.88 627.084ZM1318.88 630.951C1320.74 631.484 1321.14 633.218 1321.14 640.151C1321.14 644.818 1320.74 648.951 1320.21 649.218C1319.54 649.618 1314.61 649.218 1309.14 648.284C1299.14 646.818 1299.14 646.818 1298.74 637.618C1298.34 628.551 1298.34 628.551 1307.41 629.351C1312.34 629.884 1317.54 630.684 1318.88 630.951ZM1196.88 637.618C1199.41 638.418 1199.81 639.351 1199.81 645.618C1199.81 653.351 1199.54 653.484 1192.08 652.018C1188.48 651.351 1187.94 650.551 1187.14 645.351C1186.74 642.151 1186.74 638.951 1187.14 638.151C1188.08 636.684 1192.21 636.418 1196.88 637.618ZM1220.88 641.484C1221.94 641.884 1222.48 644.684 1222.48 649.484C1222.48 656.951 1222.48 656.951 1216.21 656.018C1206.48 654.684 1205.14 653.618 1205.14 646.951C1205.14 643.884 1205.54 640.818 1206.08 640.284C1206.88 639.484 1216.88 640.284 1220.88 641.484ZM1240.08 644.151C1244.48 644.818 1245.01 645.351 1245.41 649.218C1245.94 655.351 1250.48 656.018 1250.48 650.018C1250.48 645.751 1250.48 645.751 1257.81 646.551C1261.81 646.951 1265.68 647.618 1266.48 648.151C1268.34 649.218 1268.21 663.084 1266.34 663.751C1265.14 664.151 1251.28 662.151 1232.21 658.818C1227.94 658.018 1227.81 657.884 1227.81 650.951C1227.81 642.951 1228.34 642.018 1232.34 642.818C1233.94 643.084 1237.41 643.751 1240.08 644.151Z" fill="black"/>
<path d="M331.275 669.618C310.475 698.551 277.942 720.951 241.542 731.484C235.409 733.218 231.809 734.951 231.809 736.151C231.809 739.484 234.075 739.484 245.942 736.151C261.942 731.618 287.275 718.818 301.142 708.284C324.475 690.818 347.542 661.884 338.075 662.151C337.142 662.284 334.075 665.618 331.275 669.618Z" fill="black"/>
<path d="M930.475 672.418C925.009 672.551 897.142 673.351 868.475 674.151C756.475 677.218 723.142 678.418 721.942 679.618C717.009 684.284 733.542 684.284 893.809 679.351C929.142 678.151 942.342 677.351 943.675 676.151C946.475 673.351 941.942 672.151 930.475 672.418Z" fill="black"/>
<path d="M501.808 683.484C446.208 686.018 398.342 688.418 376.208 689.618C365.942 690.151 362.475 690.818 362.475 692.151C362.475 695.884 351.408 696.018 492.475 690.151C584.475 686.284 584.075 686.284 583.542 683.751C582.875 680.551 566.475 680.551 501.808 683.484Z" fill="black"/>
<path d="M59.1421 696.951C45.2754 697.351 27.0087 697.884 18.7421 698.018C6.47539 698.151 3.54206 698.551 2.87539 700.284C2.47539 701.351 2.60872 702.818 3.27539 703.351C4.87539 704.684 89.5421 702.284 91.0087 700.818C92.6087 699.218 89.4087 695.484 86.6087 695.751C85.4087 695.884 73.1421 696.418 59.1421 696.951Z" fill="black"/>
<path d="M320.475 710.284C314.208 716.684 301.542 725.884 293.408 730.018C287.675 732.951 286.608 735.751 290.875 736.551C294.475 737.218 311.542 726.418 320.875 717.484C329.008 709.751 329.675 708.818 327.808 706.951C325.942 704.951 325.142 705.351 320.475 710.284Z" fill="black"/>
<path d="M945.809 715.751C887.942 724.151 709.009 747.484 701.675 747.484C697.009 747.484 693.675 750.151 695.809 752.284C696.609 753.084 705.009 752.684 718.742 751.218C752.475 747.484 968.209 718.818 972.875 717.351C973.675 717.084 974.475 716.018 974.475 714.951C974.475 714.018 973.675 712.818 972.875 712.551C971.942 712.284 959.809 713.618 945.809 715.751Z" fill="black"/>
<path d="M946.475 730.951C927.809 733.484 890.342 738.551 863.142 742.284C783.675 753.084 717.809 761.884 699.275 764.018C682.209 765.884 678.609 767.084 680.475 770.151C681.142 771.351 683.942 771.484 689.675 770.951C703.942 769.351 778.609 759.484 841.809 750.684C855.009 748.818 879.675 745.618 896.475 743.351C996.209 730.418 992.475 730.951 992.876 728.418C993.542 725.218 987.676 725.484 946.475 730.951Z" fill="black"/>
<path d="M515.142 768.951C488.742 772.418 432.342 779.218 389.809 784.151C295.009 794.951 252.342 799.884 169.809 810.151C134.609 814.418 82.7419 820.818 54.4753 824.151C20.3419 828.284 2.47528 831.084 1.27528 832.284C-2.32472 835.618 3.67528 836.018 23.0086 833.618C33.4086 832.418 74.2086 827.484 113.809 822.818C153.409 818.151 202.342 812.151 222.475 809.618C242.609 806.951 267.275 804.018 277.142 802.818C287.009 801.751 318.875 798.151 347.809 794.818C376.742 791.484 413.409 787.218 429.142 785.484C453.675 782.684 511.542 775.351 553.809 769.751C563.009 768.551 565.809 767.618 566.209 766.018C566.475 764.818 565.809 763.618 564.875 763.217C563.942 762.951 541.542 765.484 515.142 768.951Z" fill="black"/>
<path d="M536.476 783.618C517.276 786.284 469.009 791.884 377.142 802.151C314.609 809.084 254.742 816.284 249.542 817.484C247.809 817.884 246.476 819.084 246.476 820.018C246.476 822.151 267.142 841.618 286.476 857.884C293.409 863.618 305.542 874.018 313.276 880.951C321.009 887.884 338.076 902.818 351.142 914.151C364.342 925.484 377.809 937.218 381.142 940.151C392.876 950.684 408.876 963.484 410.342 963.484C415.009 963.484 410.076 957.351 395.542 944.818C386.609 937.084 357.676 912.018 331.276 888.951C304.742 866.018 277.276 842.018 270.209 835.884C263.009 829.618 257.142 824.018 257.142 823.351C257.142 821.351 251.542 822.151 375.809 808.151C472.342 797.218 552.742 787.751 556.209 786.684C559.009 785.751 559.142 782.684 556.342 781.618C555.142 781.218 554.209 780.818 554.076 780.951C553.942 781.084 546.076 782.151 536.476 783.618Z" fill="black"/>
<path d="M204.475 822.818C197.942 823.751 172.075 827.351 147.142 830.684C102.075 836.818 49.0086 844.151 17.1419 848.684C3.67527 850.551 0.341936 851.351 0.0752688 853.218C-0.591398 856.284 2.6086 856.151 32.7419 852.018C57.5419 848.684 66.7419 847.484 165.409 834.284C193.009 830.551 217.142 827.484 219.142 827.484C223.542 827.484 246.475 848.951 316.742 918.684C358.075 959.618 365.275 966.284 367.009 964.818C368.209 963.884 368.742 962.418 368.075 961.484C366.475 958.551 269.942 864.151 245.809 841.884C228.475 825.751 222.342 820.818 219.809 820.951C217.942 821.084 211.142 821.884 204.475 822.818Z" fill="black"/>
</g>
<defs>
<clipPath id="clip0_1560_2055">
<rect width="1384" height="965" fill="white"/>
</clipPath>
</defs>
</svg>
