<svg xmlns="http://www.w3.org/2000/svg" version="1.1" xmlns:xlink="http://www.w3.org/1999/xlink" xmlns:svgjs="http://svgjs.dev/svgjs" width="256" height="256"><svg width="256" height="256" viewBox="0 0 256 256" fill="none" xmlns="http://www.w3.org/2000/svg">
<g clip-path="url(#clip0_190_9647)">
<path fill-rule="evenodd" clip-rule="evenodd" d="M34.9443 72.1001C41.3537 68.6922 49.3122 71.1253 52.7202 77.5347L72.5544 114.837V114.837C72.6679 115.051 72.9231 115.15 73.1482 115.061C73.4071 114.959 73.6668 114.859 73.9273 114.76C74.7064 114.464 75.0613 113.553 74.67 112.817L61.3777 87.8177C57.9697 81.4083 60.4029 73.4498 66.8123 70.0418C73.2217 66.6339 81.1803 69.0671 84.5882 75.4765L102.202 108.603C102.457 109.083 102.97 109.37 103.513 109.343V109.343C104.54 109.291 105.172 108.19 104.689 107.281L93.6864 86.5884C90.2785 80.179 92.7116 72.2205 99.1211 68.8125C105.53 65.4046 113.489 67.8377 116.897 74.2471L136.348 110.829C136.365 110.862 136.397 110.885 136.434 110.891V110.891C136.471 110.897 136.502 110.92 136.52 110.953C150.588 137.475 143.811 173.71 112.663 190.272C84.3097 205.348 62.2199 200.765 43.226 196.825L43.2253 196.825C42.5525 196.686 41.8836 196.547 41.2185 196.41C40.564 196.347 39.906 196.242 39.2478 196.091L36.6207 195.49C35.6809 195.31 34.7483 195.138 33.8224 194.977C33.6315 194.943 33.4514 194.893 33.2814 194.828C33.0072 194.721 32.7369 194.6 32.4503 194.534L23.9185 192.58C15.7437 190.708 10.6345 182.564 12.5067 174.389C14.3789 166.214 22.5237 161.105 30.6985 162.977L34.9724 163.956V163.956C35.411 164.037 35.735 163.577 35.5256 163.184L9.54215 114.316C6.13421 107.906 8.56738 99.9479 14.9768 96.54C21.3862 93.132 29.3447 95.5652 32.7527 101.975L47.2934 129.322C47.7135 130.112 48.7582 130.3 49.4311 129.71V129.71C49.9737 129.234 50.0681 128.418 49.6958 127.8C49.5736 127.597 49.4563 127.39 49.3438 127.179L29.5097 89.876C26.1017 83.4666 28.5349 75.5081 34.9443 72.1001Z" fill="#4DBEE3"></path>
<g style="mix-blend-mode:multiply">
<path fill-rule="evenodd" clip-rule="evenodd" d="M220.637 72.1001C214.227 68.6922 206.269 71.1253 202.861 77.5347L183.027 114.837V114.837C182.913 115.051 182.658 115.15 182.433 115.061C182.174 114.959 181.914 114.859 181.654 114.76C180.875 114.464 180.52 113.553 180.911 112.817L194.203 87.8177C197.611 81.4083 195.178 73.4498 188.769 70.0418C182.359 66.6339 174.401 69.0671 170.993 75.4765L153.379 108.603C153.124 109.083 152.611 109.37 152.068 109.343V109.343C151.041 109.291 150.409 108.19 150.892 107.281L161.895 86.5884C165.303 80.179 162.869 72.2205 156.46 68.8125C150.051 65.4046 142.092 67.8377 138.684 74.2471L119.233 110.829C119.216 110.862 119.184 110.885 119.147 110.891V110.891C119.111 110.897 119.079 110.92 119.061 110.953C104.994 137.474 111.77 173.71 142.918 190.272C171.271 205.348 193.361 200.765 212.355 196.825L212.356 196.825C213.029 196.686 213.697 196.547 214.363 196.41C215.017 196.348 215.675 196.242 216.333 196.091L218.961 195.49C219.9 195.31 220.833 195.138 221.759 194.977C221.95 194.943 222.13 194.893 222.3 194.828C222.574 194.721 222.844 194.6 223.131 194.534L231.663 192.58C239.837 190.708 244.947 182.564 243.074 174.389C241.202 166.214 233.057 161.105 224.883 162.977L220.609 163.956V163.956C220.17 164.036 219.846 163.577 220.056 163.183L246.039 114.316C249.447 107.906 247.014 99.9479 240.604 96.54C234.195 93.132 226.236 95.5652 222.828 101.975L208.288 129.322C207.868 130.112 206.823 130.3 206.15 129.71V129.71C205.607 129.234 205.513 128.418 205.885 127.8C206.008 127.597 206.125 127.39 206.237 127.179L226.071 89.876C229.479 83.4666 227.046 75.5081 220.637 72.1001Z" fill="#F33A3E"></path>
</g>
</g>
<defs>
<clipPath id="SvgjsClipPath1009">
<rect width="256" height="256" fill="white"></rect>
</clipPath>
</defs>
</svg><style>@media (prefers-color-scheme: light) { :root { filter: none; } }
@media (prefers-color-scheme: dark) { :root { filter: none; } }
</style></svg>