<svg width="250" height="250" viewBox="0 0 250 250" fill="none" xmlns="http://www.w3.org/2000/svg">
  <defs>
    <!-- Top semicircle at r=95, text centers in 42px band (r=83–125) -->
    <path id="textTop" d="M 30,125 A 95,95 0 0,1 220,125" fill="none" />
    <!-- Bottom semicircle at r=114, counterclockwise -->
    <path id="textBottom" d="M 11,125 A 114,114 0 0,0 239,125" fill="none" />
  </defs>

  <!-- White background -->
  <circle cx="125" cy="125" r="124" fill="white" />

  <!-- Thick green border band (r=83 to r=125, 50% thicker) -->
  <circle cx="125" cy="125" r="104" fill="none" stroke="#27d489" stroke-width="42" />

  <!-- White inner fill -->
  <circle cx="125" cy="125" r="83" fill="white" />

  <!-- Hands -->
  <g transform="translate(125,122) scale(0.52) translate(-128,-120)">
    <g>
      <path d="M59.2616 82.9773C57.5211 79.6161 57.1872 75.7011 58.3333 72.0937C59.4794 68.4863 62.0115 65.4819 65.3728 63.7415C68.734 62.0011 72.6489 61.6672 76.2563 62.8132C79.8637 63.9593 82.8681 66.4915 84.6086 69.8527L101.014 101.536L91.171 82.5261C89.4306 79.1649 89.0967 75.25 90.2428 71.6426C91.3888 68.0351 93.921 65.0308 97.2822 63.2903C100.643 61.5499 104.558 61.216 108.166 62.3621C111.773 63.5081 114.778 66.0403 116.518 69.4015L136.205 107.422C143.167 120.867 144.502 136.527 139.918 150.956C135.334 165.386 125.205 177.404 111.76 184.365C86.4524 200.122 53.1094 195.645 18.8271 184.754C11.7973 182.119 7.9559 174.195 10.2417 167.044C11.3571 163.555 13.7718 160.628 16.9859 158.869C20.1999 157.111 23.967 156.656 27.5073 157.598L54.8741 165.587M72.3864 108.324L52.6995 70.3037C50.959 66.9425 47.9546 64.4103 44.3472 63.2642C40.7398 62.1181 36.8249 62.4521 33.4637 64.1925C30.1024 65.9329 27.5703 68.9373 26.4242 72.5447C25.2781 76.1521 25.612 80.0671 27.3524 83.4283L33.9148 96.1018M33.9148 96.1018L40.7461 109.696M33.9148 96.1018C32.1743 92.7406 29.1698 90.2084 25.5624 89.0623C21.9549 87.9163 18.04 88.2502 14.6788 89.9906C11.3176 91.731 8.78538 94.7354 7.63931 98.3428C6.49323 101.95 6.82714 105.865 8.56757 109.226L34.8168 159.92" stroke="#27d489" stroke-width="11.2661" stroke-linecap="round" stroke-linejoin="round"/>
    </g>
    <g style="mix-blend-mode:multiply">
      <path d="M197.012 82.9773C198.752 79.6161 199.086 75.7011 197.94 72.0937C196.794 68.4863 194.262 65.4819 190.901 63.7415C187.539 62.0011 183.624 61.6672 180.017 62.8132C176.41 63.9593 173.405 66.4915 171.665 69.8527L155.259 101.536L165.102 82.5261C166.843 79.1649 167.177 75.25 166.031 71.6426C164.885 68.0351 162.352 65.0308 158.991 63.2903C155.63 61.5499 151.715 61.216 148.108 62.3621C144.5 63.5081 141.496 66.0403 139.755 69.4015L120.068 107.422C113.107 120.867 111.771 136.527 116.355 150.956C120.94 165.386 131.068 177.404 144.513 184.365C169.821 200.122 203.164 195.645 237.446 184.754C244.476 182.119 248.317 174.195 246.032 167.044C244.916 163.555 242.502 160.628 239.287 158.869C236.073 157.111 232.306 156.656 228.766 157.598L201.399 165.587M183.887 108.324L203.574 70.3037C205.314 66.9425 208.319 64.4103 211.926 63.2642C215.534 62.1181 219.448 62.4521 222.81 64.1925C226.171 65.9329 228.703 68.9373 229.849 72.5447C230.995 76.1521 230.661 80.0671 228.921 83.4283L222.359 96.1018M222.359 96.1018L215.527 109.696M222.359 96.1018C224.099 92.7406 227.104 90.2084 230.711 89.0623C234.318 87.9163 238.233 88.2502 241.595 89.9906C244.956 91.731 247.488 94.7354 248.634 98.3428C249.78 101.95 249.446 105.865 247.706 109.226L221.457 159.92" stroke="#2d7bc4" stroke-width="11.2661" stroke-linecap="round" stroke-linejoin="round"/>
    </g>
    <g>
      <path d="M113.83 35.4964L107.346 21.5922" stroke="#1a1a1a" stroke-width="8" stroke-linecap="round" stroke-linejoin="round"/>
      <path d="M128.83 25.2852L128.83 10" stroke="#1a1a1a" stroke-width="8" stroke-linecap="round" stroke-linejoin="round"/>
      <path d="M143.83 35.4287L150.313 21.5245" stroke="#1a1a1a" stroke-width="8" stroke-linecap="round" stroke-linejoin="round"/>
    </g>
  </g>

  <!-- Top text (50% bigger) -->
  <text fill="white" font-family="Inter, system-ui, sans-serif" font-size="19" font-weight="800" letter-spacing="2" dy="-3">
    <textPath href="#textTop" startOffset="50%" text-anchor="middle">NEW CYCLING BUDDY</textPath>
  </text>

  <!-- Bottom text -->
  <text fill="white" font-family="Inter, system-ui, sans-serif" font-size="16" font-weight="800" letter-spacing="4" dy="-3">
    <textPath href="#textBottom" startOffset="50%" text-anchor="middle">WWW.GOBUDDY.DK</textPath>
  </text>

  <!-- Dot separators -->
  <circle cx="21" cy="125" r="3" fill="white" />
  <circle cx="229" cy="125" r="3" fill="white" />
</svg>
