<svg viewBox="0 0 800 256" fill="none" xmlns="http://www.w3.org/2000/svg">
<g id="gobuddy-logo" clip-path="url(#clip0_824_3911)">
<g id="ver 3">
<g id="hand">
<path id="Vector" d="M197.012 82.9773C198.752 79.6161 199.086 75.7011 197.94 72.0937C196.794 68.4863 194.262 65.4819 190.901 63.7415C187.539 62.0011 183.624 61.6672 180.017 62.8132C176.41 63.9593 173.405 66.4915 171.665 69.8527L155.259 101.536L165.102 82.5261C166.843 79.1649 167.177 75.25 166.031 71.6426C164.885 68.0351 162.352 65.0308 158.991 63.2903C155.63 61.5499 151.715 61.216 148.108 62.3621C144.5 63.5081 141.496 66.0403 139.755 69.4015L120.068 107.422C113.107 120.867 111.771 136.527 116.355 150.956C120.94 165.386 131.068 177.404 144.513 184.365C169.821 200.122 203.164 195.645 237.446 184.754C244.476 182.119 248.317 174.195 246.032 167.044C244.916 163.555 242.502 160.628 239.287 158.869C236.073 157.111 232.306 156.656 228.766 157.598L201.399 165.587M183.887 108.324L203.574 70.3037C205.314 66.9425 208.319 64.4103 211.926 63.2642C215.534 62.1181 219.448 62.4521 222.81 64.1925C226.171 65.9329 228.703 68.9373 229.849 72.5447C230.995 76.1521 230.661 80.0671 228.921 83.4283L222.359 96.1018M222.359 96.1018L215.527 109.696M222.359 96.1018C224.099 92.7406 227.104 90.2084 230.711 89.0623C234.318 87.9163 238.233 88.2502 241.595 89.9906C244.956 91.731 247.488 94.7354 248.634 98.3428C249.78 101.95 249.446 105.865 247.706 109.226L221.457 159.92" stroke="white" stroke-width="11.2661" stroke-linecap="round" stroke-linejoin="round"/>
</g>
<g id="hand-left">
<path id="Vector_2" d="M59.2616 82.9773C57.5211 79.6161 57.1872 75.7011 58.3333 72.0937C59.4794 68.4863 62.0115 65.4819 65.3728 63.7415C68.734 62.0011 72.6489 61.6672 76.2563 62.8132C79.8637 63.9593 82.8681 66.4915 84.6086 69.8527L101.014 101.536L91.171 82.5261C89.4306 79.1649 89.0967 75.25 90.2428 71.6426C91.3888 68.0351 93.921 65.0308 97.2822 63.2903C100.643 61.5499 104.558 61.216 108.166 62.3621C111.773 63.5081 114.778 66.0403 116.518 69.4015L136.205 107.422C143.167 120.867 144.502 136.527 139.918 150.956C135.334 165.386 125.205 177.404 111.76 184.365C86.4524 200.122 53.1094 195.645 18.8271 184.754C11.7973 182.119 7.9559 174.195 10.2417 167.044C11.3571 163.555 13.7718 160.628 16.9859 158.869C20.1999 157.111 23.967 156.656 27.5073 157.598L54.8741 165.587M72.3864 108.324L52.6995 70.3037C50.959 66.9425 47.9546 64.4103 44.3472 63.2642C40.7398 62.1181 36.8249 62.4521 33.4637 64.1925C30.1024 65.9329 27.5703 68.9373 26.4242 72.5447C25.2781 76.1521 25.612 80.0671 27.3524 83.4283L33.9148 96.1018M33.9148 96.1018L40.7461 109.696M33.9148 96.1018C32.1743 92.7406 29.1698 90.2084 25.5624 89.0623C21.9549 87.9163 18.04 88.2502 14.6788 89.9906C11.3176 91.731 8.78538 94.7354 7.63931 98.3428C6.49323 101.95 6.82714 105.865 8.56757 109.226L34.8168 159.92" stroke="#4097F5" stroke-width="11.2661" stroke-linecap="round" stroke-linejoin="round"/>
</g>
<g id="hand-right" style="mix-blend-mode:multiply">
<path id="Vector_3" d="M197.012 82.9773C198.752 79.6161 199.086 75.7011 197.94 72.0937C196.794 68.4863 194.262 65.4819 190.901 63.7415C187.539 62.0011 183.624 61.6672 180.017 62.8132C176.41 63.9593 173.405 66.4915 171.665 69.8527L155.259 101.536L165.102 82.5261C166.843 79.1649 167.177 75.25 166.031 71.6426C164.885 68.0351 162.352 65.0308 158.991 63.2903C155.63 61.5499 151.715 61.216 148.108 62.3621C144.5 63.5081 141.496 66.0403 139.755 69.4015L120.068 107.422C113.107 120.867 111.771 136.527 116.355 150.956C120.94 165.386 131.068 177.404 144.513 184.365C169.821 200.122 203.164 195.645 237.446 184.754C244.476 182.119 248.317 174.195 246.032 167.044C244.916 163.555 242.502 160.628 239.287 158.869C236.073 157.111 232.306 156.656 228.766 157.598L201.399 165.587M183.887 108.324L203.574 70.3037C205.314 66.9425 208.319 64.4103 211.926 63.2642C215.534 62.1181 219.448 62.4521 222.81 64.1925C226.171 65.9329 228.703 68.9373 229.849 72.5447C230.995 76.1521 230.661 80.0671 228.921 83.4283L222.359 96.1018M222.359 96.1018L215.527 109.696M222.359 96.1018C224.099 92.7406 227.104 90.2084 230.711 89.0623C234.318 87.9163 238.233 88.2502 241.595 89.9906C244.956 91.731 247.488 94.7354 248.634 98.3428C249.78 101.95 249.446 105.865 247.706 109.226L221.457 159.92" stroke="#E9383C" stroke-width="11.2661" stroke-linecap="round" stroke-linejoin="round"/>
</g>
<g id="lines">
<path id="Vector 4" d="M113.83 35.4964L107.346 21.5922" stroke="#492B37" stroke-width="8" stroke-linecap="round" stroke-linejoin="round"/>
<path id="Vector 5" d="M128.83 25.2852L128.83 10" stroke="#492B37" stroke-width="8" stroke-linecap="round" stroke-linejoin="round"/>
<path id="Vector 6" d="M143.83 35.4287L150.313 21.5245" stroke="#492B37" stroke-width="8" stroke-linecap="round" stroke-linejoin="round"/>
</g>
</g>
<path id="GoBuddy" d="M310.68 139.6V114.76C310.68 94.84 321.84 83.68 340.92 83.68C349.32 83.68 355.68 85 360.72 86.32C363.24 86.92 364.2 88.36 363.6 90.88L363.12 93.28C362.64 95.32 360.72 96.28 358.32 95.68C354.12 94.6 349.08 93.52 342 93.52C327.36 93.52 322.32 102.4 322.32 116.08V138.28C322.32 152.08 327.36 160.84 342 160.84C348.24 160.84 353.4 159.64 358.92 158.2V133.24C358.92 130.96 360.12 129.28 362.52 129.04L366.24 128.68C368.64 128.44 369.84 129.88 369.84 132.16V161.92C369.84 164.2 368.04 166.12 365.76 166.72C359.64 168.4 351 170.56 340.92 170.56C321.84 170.56 310.68 159.64 310.68 139.6ZM385.78 143.2V133C385.78 116.32 395.38 105.64 411.58 105.64C427.9 105.64 437.5 116.32 437.5 133V143.2C437.5 160 427.78 170.56 411.58 170.56C395.38 170.56 385.78 160 385.78 143.2ZM396.94 142.24C396.94 153.88 400.78 160.96 411.58 160.96C422.5 160.96 426.22 153.88 426.22 142.24V133.96C426.22 122.56 422.5 115.24 411.58 115.24C400.78 115.24 396.94 122.56 396.94 133.96V142.24ZM455.245 165.28V92.68C455.245 90.28 457.045 88.24 459.205 87.52C463.525 86.08 471.445 83.68 479.605 83.68C496.045 83.68 505.645 94.12 505.645 106.72C505.645 114.4 502.045 120.64 495.565 124.36C504.925 127.84 509.965 135.52 509.965 144.76C509.965 157.84 500.125 169 481.885 169H459.085C456.805 169 455.245 167.56 455.245 165.28ZM466.645 120.64H479.365C489.565 120.64 493.885 114.28 493.885 107.08C493.885 99.64 489.685 93.4 479.485 93.4C474.925 93.4 470.845 94.24 466.645 95.68V120.64ZM466.645 159.28H481.645C493.045 159.28 498.085 152.44 498.085 144.76C498.085 136.96 493.645 129.88 481.525 129.88H466.645V159.28ZM524.104 149.68V111.04C524.104 108.76 525.544 107.2 527.824 107.2H531.304C533.584 107.2 535.144 108.76 535.144 111.04V147.76C535.144 156.52 537.904 160.96 546.184 160.96C551.704 160.96 556.384 158.2 561.304 154.12V111.04C561.304 108.76 562.744 107.2 565.024 107.2H568.504C570.784 107.2 572.344 108.76 572.344 111.04V165.28C572.344 167.56 570.904 169 568.624 169H566.944C564.424 169 563.104 168.28 562.864 166L562.384 162.88C556.744 167.68 550.624 170.56 544.264 170.56C530.944 170.56 524.104 162.4 524.104 149.68ZM588.632 145.6V130.72C588.632 114.88 597.152 105.64 611.072 105.64C616.952 105.64 621.992 108.04 627.512 112.36V85.72C627.512 83.44 628.952 81.88 631.232 81.88H634.712C636.992 81.88 638.552 83.44 638.552 85.72V165.28C638.552 167.56 637.352 169 635.072 169H632.792C630.512 169 629.192 168.4 628.952 166.12L628.592 163C622.712 167.92 617.432 170.56 611.072 170.56C597.152 170.56 588.632 161.2 588.632 145.6ZM599.792 143.68C599.792 155.32 603.632 160.96 612.752 160.96C618.152 160.96 623.072 157.72 627.512 154.24V122.2C622.952 118.48 618.152 115.24 612.752 115.24C603.632 115.24 599.792 120.88 599.792 132.52V143.68ZM654.843 145.6V130.72C654.843 114.88 663.363 105.64 677.283 105.64C683.163 105.64 688.203 108.04 693.723 112.36V85.72C693.723 83.44 695.163 81.88 697.443 81.88H700.923C703.203 81.88 704.763 83.44 704.763 85.72V165.28C704.763 167.56 703.563 169 701.283 169H699.003C696.723 169 695.403 168.4 695.163 166.12L694.803 163C688.923 167.92 683.643 170.56 677.283 170.56C663.363 170.56 654.843 161.2 654.843 145.6ZM666.003 143.68C666.003 155.32 669.843 160.96 678.963 160.96C684.363 160.96 689.283 157.72 693.723 154.24V122.2C689.163 118.48 684.363 115.24 678.963 115.24C669.843 115.24 666.003 120.88 666.003 132.52V143.68ZM724.414 148.6L719.494 111.28C719.134 109 720.574 107.2 722.854 107.2H726.094C728.374 107.2 730.054 108.64 730.294 110.92L735.094 147.16C736.054 154 738.574 159.28 745.774 159.28C749.374 159.28 752.854 158.32 756.334 156.64L758.734 111.04C758.854 108.16 760.534 107.2 762.814 107.2H765.814C768.094 107.2 769.654 108.28 769.534 111.04L766.174 173.32C765.574 185.56 759.094 193.12 745.174 193.12H737.374C735.094 193.12 733.534 192.16 733.294 189.76L733.054 187.12C732.934 184.72 734.254 183.64 736.534 183.64H745.414C752.974 183.64 754.894 179.32 755.494 172.72L755.854 166.48C752.134 168.04 748.654 169 744.934 169C732.094 169 726.094 161.08 724.414 148.6Z" fill="#340236"/>
</g>
<defs>
<clipPath id="clip0_824_3911">
<rect width="800" height="256" fill="white"/>
</clipPath>
</defs>
</svg>
