<svg width="256" height="256" viewBox="0 0 256 256" fill="none" xmlns="http://www.w3.org/2000/svg">
<g clip-path="url(#clip0_824_6820)">
<g clip-path="url(#clip1_824_6820)">
<path d="M197.012 82.9774C198.752 79.6161 199.086 75.7012 197.94 72.0938C196.794 68.4864 194.262 65.482 190.901 63.7416C187.539 62.0011 183.624 61.6672 180.017 62.8133C176.41 63.9594 173.405 66.4915 171.665 69.8528L155.259 101.537L165.102 82.5262C166.843 79.165 167.177 75.25 166.031 71.6426C164.885 68.0352 162.352 65.0308 158.991 63.2904C155.63 61.55 151.715 61.216 148.108 62.3621C144.5 63.5082 141.496 66.0404 139.755 69.4016L120.068 107.422C113.107 120.867 111.771 136.527 116.355 150.956C120.94 165.386 131.068 177.404 144.513 184.365C169.821 200.122 203.164 195.645 237.446 184.754C244.476 182.119 248.317 174.195 246.032 167.044C244.916 163.555 242.502 160.628 239.287 158.869C236.073 157.111 232.306 156.656 228.766 157.598L201.399 165.587M183.887 108.324L203.574 70.3037C205.314 66.9425 208.319 64.4104 211.926 63.2643C215.534 62.1182 219.448 62.4521 222.81 64.1925C226.171 65.933 228.703 68.9374 229.849 72.5448C230.995 76.1522 230.661 80.0671 228.921 83.4284L222.359 96.1019M222.359 96.1019L215.527 109.696M222.359 96.1019C224.099 92.7406 227.104 90.2085 230.711 89.0624C234.318 87.9163 238.233 88.2502 241.595 89.9907C244.956 91.7311 247.488 94.7355 248.634 98.3429C249.78 101.95 249.446 105.865 247.706 109.226L221.457 159.92" stroke="black" stroke-width="11.2661" stroke-linecap="round" stroke-linejoin="round"/>
<path d="M59.2616 82.9774C57.5211 79.6161 57.1872 75.7012 58.3333 72.0938C59.4794 68.4864 62.0116 65.482 65.3728 63.7416C68.734 62.0011 72.6489 61.6672 76.2564 62.8133C79.8638 63.9594 82.8682 66.4915 84.6086 69.8528L101.014 101.537L91.171 82.5262C89.4306 79.165 89.0967 75.25 90.2428 71.6426C91.3889 68.0352 93.921 65.0308 97.2823 63.2904C100.643 61.55 104.558 61.216 108.166 62.3621C111.773 63.5082 114.778 66.0404 116.518 69.4016L136.205 107.422C143.167 120.867 144.502 136.527 139.918 150.956C135.334 165.386 125.205 177.404 111.76 184.365C86.4524 200.122 53.1095 195.645 18.8271 184.754C11.7974 182.119 7.95592 174.195 10.2417 167.044C11.3571 163.555 13.7719 160.628 16.9859 158.869C20.1999 157.111 23.967 156.656 27.5073 157.598L54.8741 165.587M72.3864 108.324L52.6995 70.3037C50.9591 66.9425 47.9547 64.4104 44.3473 63.2643C40.7398 62.1182 36.8249 62.4521 33.4637 64.1925C30.1025 65.933 27.5703 68.9374 26.4242 72.5448C25.2781 76.1522 25.612 80.0671 27.3525 83.4284L33.9148 96.1019M33.9148 96.1019L40.7461 109.696M33.9148 96.1019C32.1743 92.7406 29.1698 90.2085 25.5624 89.0624C21.955 87.9163 18.04 88.2502 14.6788 89.9907C11.3176 91.7311 8.7854 94.7355 7.63933 98.3429C6.49326 101.95 6.82716 105.865 8.56759 109.226L34.8168 159.92" stroke="#4DBEE3" stroke-width="11.2661" stroke-linecap="round" stroke-linejoin="round"/>
<g style="mix-blend-mode:plus-lighter">
<path d="M197.012 82.9774C198.752 79.6161 199.086 75.7012 197.94 72.0938C196.794 68.4864 194.262 65.482 190.901 63.7416C187.539 62.0011 183.624 61.6672 180.017 62.8133C176.41 63.9594 173.405 66.4915 171.665 69.8528L155.259 101.537L165.102 82.5262C166.843 79.165 167.177 75.25 166.031 71.6426C164.885 68.0352 162.352 65.0308 158.991 63.2904C155.63 61.55 151.715 61.216 148.108 62.3621C144.5 63.5082 141.496 66.0404 139.755 69.4016L120.068 107.422C113.107 120.867 111.771 136.527 116.355 150.956C120.94 165.386 131.068 177.404 144.513 184.365C169.821 200.122 203.164 195.645 237.446 184.754C244.476 182.119 248.317 174.195 246.032 167.044C244.916 163.555 242.502 160.628 239.287 158.869C236.073 157.111 232.306 156.656 228.766 157.598L201.399 165.587M183.887 108.324L203.574 70.3037C205.314 66.9425 208.319 64.4104 211.926 63.2643C215.534 62.1182 219.448 62.4521 222.81 64.1925C226.171 65.933 228.703 68.9374 229.849 72.5448C230.995 76.1522 230.661 80.0671 228.921 83.4284L222.359 96.1019M222.359 96.1019L215.527 109.696M222.359 96.1019C224.099 92.7406 227.104 90.2085 230.711 89.0624C234.318 87.9163 238.233 88.2502 241.595 89.9907C244.956 91.7311 247.488 94.7355 248.634 98.3429C249.78 101.95 249.446 105.865 247.706 109.226L221.457 159.92" stroke="#F33A3E" stroke-width="11.2661" stroke-linecap="round" stroke-linejoin="round"/>
</g>
<path d="M113.83 35.4964L107.346 21.5922" stroke="#FFF8FF" stroke-width="8" stroke-linecap="round" stroke-linejoin="round"/>
<path d="M128.83 25.2852L128.83 10" stroke="#FFF8FF" stroke-width="8" stroke-linecap="round" stroke-linejoin="round"/>
<path d="M143.83 35.4287L150.313 21.5245" stroke="#FFF8FF" stroke-width="8" stroke-linecap="round" stroke-linejoin="round"/>
</g>
</g>
<defs>
<clipPath id="clip0_824_6820">
<rect width="256" height="256" fill="white"/>
</clipPath>
<clipPath id="clip1_824_6820">
<rect width="256" height="256" fill="white"/>
</clipPath>
</defs>
</svg>
