<svg viewBox="0 0 980 256" fill="none" xmlns="http://www.w3.org/2000/svg">
<g id="gobuddy-logo">
<g id="ver 3">
<g id="hand">
<path id="Vector" d="M236.012 89.9773C237.752 86.6161 238.086 82.7011 236.94 79.0937C235.794 75.4863 233.262 72.4819 229.901 70.7415C226.539 69.0011 222.624 68.6672 219.017 69.8132C215.41 70.9593 212.405 73.4915 210.665 76.8527L194.259 108.536L204.102 89.5261C205.843 86.1649 206.177 82.25 205.031 78.6426C203.884 75.0351 201.352 72.0308 197.991 70.2903C194.63 68.5499 190.715 68.216 187.107 69.3621C183.5 70.5081 180.496 73.0403 178.755 76.4015L159.068 114.422C152.107 127.867 150.771 143.527 155.355 157.956C159.94 172.386 170.068 184.404 183.513 191.365C208.821 207.122 242.164 202.645 276.446 191.754C283.476 189.119 287.317 181.195 285.032 174.044C283.916 170.555 281.501 167.628 278.287 165.869C275.073 164.111 271.306 163.656 267.766 164.598L240.399 172.587M222.887 115.324L242.574 77.3037C244.314 73.9425 247.319 71.4103 250.926 70.2642C254.533 69.1181 258.448 69.4521 261.81 71.1925C265.171 72.9329 267.703 75.9373 268.849 79.5447C269.995 83.1521 269.661 87.0671 267.921 90.4283L261.359 103.102M261.359 103.102L254.527 116.696M261.359 103.102C263.099 99.7406 266.104 97.2084 269.711 96.0623C273.318 94.9163 277.233 95.2502 280.595 96.9906C283.956 98.731 286.488 101.735 287.634 105.343C288.78 108.95 288.446 112.865 286.706 116.226L260.457 166.92" stroke="white" stroke-width="11.2661" stroke-linecap="round" stroke-linejoin="round"/>
</g>
<g id="hand-left">
<path id="Vector_2" d="M98.2615 89.9773C96.5211 86.6161 96.1872 82.7011 97.3333 79.0937C98.4793 75.4863 101.012 72.4819 104.373 70.7415C107.734 69.0011 111.649 68.6672 115.256 69.8132C118.864 70.9593 121.868 73.4915 123.609 76.8527L140.014 108.536L130.171 89.5261C128.431 86.1649 128.097 82.25 129.243 78.6426C130.389 75.0351 132.921 72.0308 136.282 70.2903C139.643 68.5499 143.558 68.216 147.166 69.3621C150.773 70.5081 153.778 73.0403 155.518 76.4015L175.205 114.422C182.167 127.867 183.502 143.527 178.918 157.956C174.334 172.386 164.205 184.404 150.76 191.365C125.452 207.122 92.1094 202.645 57.8271 191.754C50.7973 189.119 46.9559 181.195 49.2416 174.044C50.3571 170.555 52.7718 167.628 55.9858 165.869C59.1998 164.111 62.967 163.656 66.5072 164.598L93.8741 172.587M111.386 115.324L91.6994 77.3037C89.959 73.9425 86.9546 71.4103 83.3472 70.2642C79.7398 69.1181 75.8248 69.4521 72.4636 71.1925C69.1024 72.9329 66.5702 75.9373 65.4242 79.5447C64.2781 83.1521 64.612 87.0671 66.3524 90.4283L72.9147 103.102M72.9147 103.102L79.7461 116.696M72.9147 103.102C71.1743 99.7406 68.1697 97.2084 64.5623 96.0623C60.9549 94.9163 57.04 95.2502 53.6787 96.9906C50.3175 98.731 47.7853 101.735 46.6393 105.343C45.4932 108.95 45.8271 112.865 47.5675 116.226L73.8167 166.92" stroke="#4097F5" stroke-width="11.2661" stroke-linecap="round" stroke-linejoin="round"/>
</g>
<g id="hand-right" style="mix-blend-mode:multiply">
<path id="Vector_3" d="M236.012 89.9773C237.752 86.6161 238.086 82.7011 236.94 79.0937C235.794 75.4863 233.262 72.4819 229.901 70.7415C226.539 69.0011 222.624 68.6672 219.017 69.8132C215.41 70.9593 212.405 73.4915 210.665 76.8527L194.259 108.536L204.102 89.5261C205.843 86.1649 206.177 82.25 205.031 78.6426C203.884 75.0351 201.352 72.0308 197.991 70.2903C194.63 68.5499 190.715 68.216 187.107 69.3621C183.5 70.5081 180.496 73.0403 178.755 76.4015L159.068 114.422C152.107 127.867 150.771 143.527 155.355 157.956C159.94 172.386 170.068 184.404 183.513 191.365C208.821 207.122 242.164 202.645 276.446 191.754C283.476 189.119 287.317 181.195 285.032 174.044C283.916 170.555 281.501 167.628 278.287 165.869C275.073 164.111 271.306 163.656 267.766 164.598L240.399 172.587M222.887 115.324L242.574 77.3037C244.314 73.9425 247.319 71.4103 250.926 70.2642C254.533 69.1181 258.448 69.4521 261.81 71.1925C265.171 72.9329 267.703 75.9373 268.849 79.5447C269.995 83.1521 269.661 87.0671 267.921 90.4283L261.359 103.102M261.359 103.102L254.527 116.696M261.359 103.102C263.099 99.7406 266.104 97.2084 269.711 96.0623C273.318 94.9163 277.233 95.2502 280.595 96.9906C283.956 98.731 286.488 101.735 287.634 105.343C288.78 108.95 288.446 112.865 286.706 116.226L260.457 166.92" stroke="#E9383C" stroke-width="11.2661" stroke-linecap="round" stroke-linejoin="round"/>
</g>
<g id="lines">
<path id="Vector 4" d="M152.83 42.4964L146.346 28.5922" stroke="#492B37" stroke-width="8" stroke-linecap="round" stroke-linejoin="round"/>
<path id="Vector 5" d="M167.83 32.2852L167.83 17" stroke="#492B37" stroke-width="8" stroke-linecap="round" stroke-linejoin="round"/>
<path id="Vector 6" d="M182.83 42.4287L189.313 28.5245" stroke="#492B37" stroke-width="8" stroke-linecap="round" stroke-linejoin="round"/>
</g>
</g>
<path id="GoBuddy" d="M409.53 132.17V159.99C409.53 161.81 409.053 163.327 408.1 164.54C407.233 165.667 405.847 166.707 403.94 167.66C401.687 168.787 398.567 169.74 394.58 170.52C390.593 171.387 386.563 171.82 382.49 171.82C374.343 171.82 367.063 170.39 360.65 167.53C354.323 164.583 349.34 160.077 345.7 154.01C342.147 147.857 340.37 140.057 340.37 130.61C340.37 121.423 342.233 113.753 345.96 107.6C349.687 101.447 354.627 96.8533 360.78 93.82C367.02 90.7 373.823 89.14 381.19 89.14C386.303 89.14 390.767 89.7033 394.58 90.83C398.393 91.87 401.34 93.2567 403.42 94.99C405.5 96.6367 406.54 98.4133 406.54 100.32C406.54 101.707 406.15 102.963 405.37 104.09C404.59 105.217 403.637 106.04 402.51 106.56C400.257 105.087 397.483 103.7 394.19 102.4C390.983 101.1 386.953 100.45 382.1 100.45C376.9 100.45 372.177 101.62 367.93 103.96C363.77 106.213 360.477 109.593 358.05 114.1C355.623 118.607 354.41 124.11 354.41 130.61C354.41 137.457 355.623 143.09 358.05 147.51C360.563 151.93 363.943 155.223 368.19 157.39C372.437 159.47 377.247 160.51 382.62 160.51C385.48 160.51 388.123 160.293 390.55 159.86C392.977 159.34 394.883 158.733 396.27 158.04V136.98H378.07C377.723 136.46 377.377 135.723 377.03 134.77C376.77 133.817 376.64 132.82 376.64 131.78C376.64 129.873 377.073 128.443 377.94 127.49C378.807 126.537 380.02 126.06 381.58 126.06H403.29C405.11 126.06 406.583 126.623 407.71 127.75C408.923 128.79 409.53 130.263 409.53 132.17ZM485.38 139.58C485.38 146.08 484.123 151.757 481.61 156.61C479.097 161.463 475.543 165.233 470.95 167.92C466.357 170.52 460.94 171.82 454.7 171.82C448.46 171.82 443.043 170.52 438.45 167.92C433.857 165.233 430.303 161.507 427.79 156.74C425.277 151.887 424.02 146.167 424.02 139.58C424.02 132.993 425.277 127.317 427.79 122.55C430.39 117.697 433.987 113.97 438.58 111.37C443.26 108.683 448.633 107.34 454.7 107.34C460.853 107.34 466.227 108.683 470.82 111.37C475.413 113.97 478.967 117.697 481.48 122.55C484.08 127.317 485.38 132.993 485.38 139.58ZM454.7 118.13C449.5 118.13 445.34 120.037 442.22 123.85C439.187 127.663 437.67 132.907 437.67 139.58C437.67 146.34 439.143 151.627 442.09 155.44C445.123 159.167 449.327 161.03 454.7 161.03C460.073 161.03 464.233 159.123 467.18 155.31C470.213 151.497 471.73 146.253 471.73 139.58C471.73 132.907 470.213 127.663 467.18 123.85C464.147 120.037 459.987 118.13 454.7 118.13ZM544.341 123.98V134.38H510.801V123.98H544.341ZM531.081 134.38L534.331 126.45C540.658 126.45 545.901 127.403 550.061 129.31C554.308 131.13 557.471 133.643 559.551 136.85C561.631 140.057 562.671 143.697 562.671 147.77C562.671 155.83 559.724 161.81 553.831 165.71C548.024 169.61 539.704 171.56 528.871 171.56C526.618 171.56 524.278 171.473 521.851 171.3C519.424 171.213 516.998 170.953 514.571 170.52C512.144 170.173 509.848 169.697 507.681 169.09C503.781 167.877 501.831 165.58 501.831 162.2V97.2C501.831 95.64 502.221 94.47 503.001 93.69C503.868 92.8233 505.038 92.1733 506.511 91.74C509.458 90.8733 512.708 90.2667 516.261 89.92C519.901 89.5733 523.714 89.4 527.701 89.4C537.841 89.4 545.684 91.1767 551.231 94.73C556.864 98.2833 559.681 103.743 559.681 111.11C559.681 114.923 558.684 118.347 556.691 121.38C554.698 124.413 551.621 126.797 547.461 128.53C543.301 130.263 537.928 131.13 531.341 131.13L530.171 123.98C535.458 123.98 539.401 122.94 542.001 120.86C544.601 118.693 545.901 115.66 545.901 111.76C545.901 107.947 544.384 105.087 541.351 103.18C538.318 101.187 533.811 100.19 527.831 100.19C525.318 100.19 522.978 100.277 520.811 100.45C518.731 100.623 516.868 100.883 515.221 101.23V159.34C517.041 159.773 519.208 160.12 521.721 160.38C524.321 160.553 526.834 160.64 529.261 160.64C535.588 160.64 540.398 159.557 543.691 157.39C547.071 155.223 548.761 151.887 548.761 147.38C548.761 143.307 547.244 140.143 544.211 137.89C541.264 135.55 536.888 134.38 531.081 134.38ZM577.833 147.25V136.2H591.223V146.86C591.223 151.887 592.523 155.527 595.123 157.78C597.81 159.947 601.493 161.03 606.173 161.03C609.293 161.03 611.937 160.727 614.103 160.12C616.27 159.427 617.917 158.733 619.043 158.04V136.2H632.433V158.56C632.433 160.467 632.13 162.027 631.523 163.24C630.917 164.453 629.703 165.623 627.883 166.75C625.717 168.05 622.77 169.22 619.043 170.26C615.317 171.3 610.983 171.82 606.043 171.82C600.237 171.82 595.21 170.953 590.963 169.22C586.717 167.487 583.467 164.8 581.213 161.16C578.96 157.52 577.833 152.883 577.833 147.25ZM632.433 142.7H619.043V109.42C619.65 109.247 620.517 109.03 621.643 108.77C622.77 108.51 623.94 108.38 625.153 108.38C627.667 108.38 629.487 108.857 630.613 109.81C631.827 110.677 632.433 112.28 632.433 114.62V142.7ZM591.223 142.7H577.833V109.42C578.44 109.247 579.307 109.03 580.433 108.77C581.56 108.51 582.773 108.38 584.073 108.38C586.5 108.38 588.277 108.857 589.403 109.81C590.617 110.677 591.223 112.28 591.223 114.62V142.7ZM691.144 158.04V115.79H704.534V159.08C704.534 160.9 704.144 162.373 703.364 163.5C702.584 164.627 701.327 165.71 699.594 166.75C697.687 167.963 695.044 169.09 691.664 170.13C688.284 171.257 684.384 171.82 679.964 171.82C673.377 171.82 667.614 170.693 662.674 168.44C657.82 166.187 654.007 162.72 651.234 158.04C648.547 153.273 647.204 147.207 647.204 139.84C647.204 132.3 648.547 126.147 651.234 121.38C653.92 116.613 657.604 113.103 662.284 110.85C666.964 108.51 672.077 107.34 677.624 107.34C680.917 107.34 683.994 107.773 686.854 108.64C689.714 109.507 691.967 110.59 693.614 111.89V123.59C692.054 122.117 690.06 120.86 687.634 119.82C685.207 118.693 682.39 118.13 679.184 118.13C675.804 118.13 672.684 118.867 669.824 120.34C667.05 121.727 664.84 124.023 663.194 127.23C661.547 130.437 660.724 134.683 660.724 139.97C660.724 147.25 662.457 152.58 665.924 155.96C669.39 159.34 674.027 161.03 679.834 161.03C682.52 161.03 684.73 160.727 686.464 160.12C688.284 159.513 689.844 158.82 691.144 158.04ZM704.534 118.78H691.144V85.63C691.75 85.4567 692.617 85.24 693.744 84.98C694.87 84.72 696.04 84.59 697.254 84.59C699.767 84.59 701.587 85.0667 702.714 86.02C703.927 86.8867 704.534 88.4467 704.534 90.7V118.78ZM763.507 158.04V115.79H776.897V159.08C776.897 160.9 776.507 162.373 775.727 163.5C774.947 164.627 773.69 165.71 771.957 166.75C770.05 167.963 767.407 169.09 764.027 170.13C760.647 171.257 756.747 171.82 752.327 171.82C745.74 171.82 739.977 170.693 735.037 168.44C730.183 166.187 726.37 162.72 723.597 158.04C720.91 153.273 719.567 147.207 719.567 139.84C719.567 132.3 720.91 126.147 723.597 121.38C726.283 116.613 729.967 113.103 734.647 110.85C739.327 108.51 744.44 107.34 749.987 107.34C753.28 107.34 756.357 107.773 759.217 108.64C762.077 109.507 764.33 110.59 765.977 111.89V123.59C764.417 122.117 762.423 120.86 759.997 119.82C757.57 118.693 754.753 118.13 751.547 118.13C748.167 118.13 745.047 118.867 742.187 120.34C739.413 121.727 737.203 124.023 735.557 127.23C733.91 130.437 733.087 134.683 733.087 139.97C733.087 147.25 734.82 152.58 738.287 155.96C741.753 159.34 746.39 161.03 752.197 161.03C754.883 161.03 757.093 160.727 758.827 160.12C760.647 159.513 762.207 158.82 763.507 158.04ZM776.897 118.78H763.507V85.63C764.113 85.4567 764.98 85.24 766.107 84.98C767.233 84.72 768.403 84.59 769.617 84.59C772.13 84.59 773.95 85.0667 775.077 86.02C776.29 86.8867 776.897 88.4467 776.897 90.7V118.78ZM806.75 155.96C805.277 153.1 803.587 149.417 801.68 144.91C799.773 140.403 797.78 135.29 795.7 129.57C793.62 123.85 791.627 117.74 789.72 111.24C790.413 110.287 791.367 109.507 792.58 108.9C793.88 108.293 795.267 107.99 796.74 107.99C798.647 107.99 800.207 108.423 801.42 109.29C802.633 110.157 803.587 111.717 804.28 113.97C806.62 120.99 809.09 127.923 811.69 134.77C814.29 141.617 817.063 148.68 820.01 155.96H820.53C822.263 152.233 824.04 147.727 825.86 142.44C827.68 137.153 829.413 131.607 831.06 125.8C832.793 119.993 834.18 114.49 835.22 109.29C836.087 108.943 836.997 108.64 837.95 108.38C838.903 108.12 839.9 107.99 840.94 107.99C842.847 107.99 844.407 108.423 845.62 109.29C846.92 110.157 847.57 111.543 847.57 113.45C847.57 115.183 847.18 117.74 846.4 121.12C845.707 124.413 844.667 128.183 843.28 132.43C841.98 136.677 840.463 141.14 838.73 145.82C837.083 150.413 835.263 154.92 833.27 159.34C831.277 163.76 829.283 167.747 827.29 171.3C823.13 178.927 819.273 184.733 815.72 188.72C812.253 192.707 808.96 194.7 805.84 194.7C803.413 194.7 801.507 194.007 800.12 192.62C798.733 191.32 797.91 189.717 797.65 187.81C799.47 186.163 801.507 184.083 803.76 181.57C806.013 179.143 808.18 176.457 810.26 173.51C812.427 170.65 814.203 167.92 815.59 165.32C814.117 164.887 812.687 164.063 811.3 162.85C809.913 161.55 808.397 159.253 806.75 155.96Z" fill="#340236"/>
</g>
<defs>
</defs>
</svg>
