<svg width="256" height="256" viewBox="0 0 256 256" fill="none" xmlns="http://www.w3.org/2000/svg">
<g clip-path="url(#clip0_3_4)">
<path d="M154.221 107.034L170.627 75.3501C172.367 71.9889 175.372 69.4567 178.979 68.3107C182.586 67.1646 186.501 67.4985 189.863 69.2389C193.224 70.9793 195.756 73.9837 196.902 77.5911C198.048 81.1986 197.714 85.1135 195.974 88.4747M182.849 113.822L202.536 75.8011C204.276 72.4399 207.281 69.9077 210.888 68.7616C214.495 67.6156 218.41 67.9495 221.772 69.6899C225.133 71.4303 227.665 74.4347 228.811 78.0421C229.957 81.6495 229.623 85.5645 227.883 88.9257L221.321 101.599M221.321 101.599L214.489 115.194M221.321 101.599C223.061 98.238 226.066 95.7058 229.673 94.5598C233.28 93.4137 237.195 93.7476 240.556 95.488C243.918 97.2284 246.45 100.233 247.596 103.84C248.742 107.448 248.408 111.363 246.668 114.724L220.418 165.418M164.064 88.0236C165.805 84.6623 166.139 80.7474 164.993 77.14C163.846 73.5326 161.314 70.5282 157.953 68.7877C154.592 67.0473 150.677 66.7134 147.069 67.8595C143.462 69.0056 140.458 71.5377 138.717 74.899L119.03 112.919C112.069 126.364 110.733 142.024 115.317 156.454C119.902 170.883 130.03 182.901 143.475 189.863C168.783 205.619 202.126 201.142 236.408 190.251C243.438 187.616 247.279 179.692 244.994 172.542C243.878 169.052 241.463 166.125 238.249 164.367C235.035 162.608 231.268 162.153 227.728 163.096L200.361 171.084" stroke="white" stroke-width="11.2661" stroke-linecap="round" stroke-linejoin="round"/>
<path d="M101.36 107.034L84.9545 75.3501C83.214 71.9889 80.2096 69.4567 76.6022 68.3107C72.9948 67.1646 69.0799 67.4985 65.7186 69.2389C62.3574 70.9793 59.8253 73.9837 58.6792 77.5911C57.5331 81.1986 57.867 85.1135 59.6074 88.4747M72.7323 113.822L53.0453 75.8011C51.3049 72.4399 48.3005 69.9077 44.6931 68.7616C41.0857 67.6156 37.1708 67.9495 33.8095 69.6899C30.4483 71.4303 27.9161 74.4347 26.7701 78.0421C25.624 81.6495 25.9579 85.5645 27.6983 88.9257L34.2606 101.599M34.2606 101.599L41.092 115.194M34.2606 101.599C32.5202 98.238 29.5157 95.7058 25.9082 94.5598C22.3008 93.4137 18.3859 93.7476 15.0247 95.488C11.6634 97.2284 9.13127 100.233 7.98519 103.84C6.83912 107.448 7.17302 111.363 8.91345 114.724L35.1627 165.418M91.5169 88.0236C89.7765 84.6623 89.4426 80.7474 90.5886 77.14C91.7347 73.5326 94.2669 70.5282 97.6281 68.7877C100.989 67.0473 104.904 66.7134 108.512 67.8595C112.119 69.0056 115.123 71.5377 116.864 74.899L136.551 112.919C143.513 126.364 144.848 142.024 140.264 156.454C135.68 170.883 125.551 182.901 112.106 189.863C86.7982 205.619 53.4553 201.142 19.173 190.251C12.1432 187.616 8.30178 179.692 10.5875 172.542C11.703 169.052 14.1177 166.125 17.3317 164.367C20.5458 162.608 24.3129 162.153 27.8532 163.096L55.22 171.084" stroke="#4DBEE3" stroke-width="11.2661" stroke-linecap="round" stroke-linejoin="round"/>
<g style="mix-blend-mode:multiply">
<path d="M154.221 107.034L170.627 75.3501C172.367 71.9889 175.372 69.4567 178.979 68.3107C182.586 67.1646 186.501 67.4985 189.863 69.2389C193.224 70.9793 195.756 73.9837 196.902 77.5911C198.048 81.1986 197.714 85.1135 195.974 88.4747M182.849 113.822L202.536 75.8011C204.276 72.4399 207.281 69.9077 210.888 68.7616C214.495 67.6156 218.41 67.9495 221.772 69.6899C225.133 71.4303 227.665 74.4347 228.811 78.0421C229.957 81.6495 229.623 85.5645 227.883 88.9257L221.321 101.599M221.321 101.599L214.489 115.194M221.321 101.599C223.061 98.238 226.066 95.7058 229.673 94.5598C233.28 93.4137 237.195 93.7476 240.556 95.488C243.918 97.2284 246.45 100.233 247.596 103.84C248.742 107.448 248.408 111.363 246.668 114.724L220.418 165.418M164.064 88.0236C165.805 84.6623 166.139 80.7474 164.993 77.14C163.846 73.5326 161.314 70.5282 157.953 68.7877C154.592 67.0473 150.677 66.7134 147.069 67.8595C143.462 69.0056 140.458 71.5377 138.717 74.899L119.03 112.919C112.069 126.364 110.733 142.024 115.317 156.454C119.902 170.883 130.03 182.901 143.475 189.863C168.783 205.619 202.126 201.142 236.408 190.251C243.438 187.616 247.279 179.692 244.994 172.542C243.878 169.052 241.463 166.125 238.249 164.367C235.035 162.608 231.268 162.153 227.728 163.096L200.361 171.084" stroke="#F33A3E" stroke-width="11.2661" stroke-linecap="round" stroke-linejoin="round"/>
</g>
<path d="M113.484 45.4964L107 31.5922" stroke="#3D2D3C" stroke-width="8" stroke-linecap="round" stroke-linejoin="round"/>
<path d="M128.484 35.2852L128.484 20" stroke="#3D2D3C" stroke-width="8" stroke-linecap="round" stroke-linejoin="round"/>
<path d="M143.484 45.4287L149.967 31.5245" stroke="#3D2D3C" stroke-width="8" stroke-linecap="round" stroke-linejoin="round"/>
</g>
<defs>
<clipPath id="clip0_3_4">
<rect width="256" height="256" fill="white"/>
</clipPath>
</defs>
</svg>
